<?xml version="1.0" encoding="UTF-8" standalone="no"?>
<!DOCTYPE svg PUBLIC "-//W3C//DTD SVG 1.1//EN"
 "http://www.w3.org/Graphics/SVG/1.1/DTD/svg11.dtd">
<!-- Generated by graphviz version 2.38.0 (20140413.2041)
 -->
<!-- Title: Bac_a_sable Pages: 1 -->
<svg width="409pt" height="716pt"
 viewBox="0.00 0.00 409.00 716.00" xmlns="http://www.w3.org/2000/svg" xmlns:xlink="http://www.w3.org/1999/xlink">
<g id="graph0" class="graph" transform="scale(1 1) rotate(0) translate(4 712)">
<title>Bac_a_sable</title>
<polygon fill="white" stroke="none" points="-4,4 -4,-712 405,-712 405,4 -4,4"/>
<text text-anchor="start" x="8" y="-689" font-family="Times New Roman,serif" font-size="20.00">Bac_a_sable</text>
<text text-anchor="start" x="11.5" y="-672.2" font-family="Times New Roman,serif" font-size="16.00">36 annotations </text>
<text text-anchor="start" x="20.5" y="-656.2" font-family="Times New Roman,serif" font-size="16.00"> seuil = 0.15</text>
<!-- Début -->
<g id="node1" class="node"><title>Début</title>
<polygon fill="lightgrey" stroke="black" points="298.5,-648 203.5,-648 203.5,-612 298.5,-612 298.5,-648"/>
<text text-anchor="middle" x="251" y="-626.3" font-family="Times New Roman,serif" font-size="14.00">Début : Début</text>
</g>
<!-- A1 -->
<g id="node2" class="node"><title>A1</title>
<polygon fill="wheat" stroke="black" points="329.5,-546 172.5,-546 172.5,-510 329.5,-510 329.5,-546"/>
<text text-anchor="middle" x="251" y="-524.3" font-family="Times New Roman,serif" font-size="14.00">A1 : J’étais au restaurant.</text>
<text text-anchor="start" x="156.5" y="-550.8" font-family="Times New Roman,serif" font-weight="bold" font-style="italic" font-size="14.00" fill="red">35</text>
</g>
<!-- Début&#45;&gt;A1 -->
<g id="edge1" class="edge"><title>Début&#45;&gt;A1</title>
<path fill="none" stroke="#a6cee3" stroke-width="10" d="M251,-606.163C251,-587.932 251,-562.784 251,-546.219"/>
<polygon fill="#a6cee3" stroke="#a6cee3" stroke-width="10" points="246.625,-606.581 251,-611.581 255.375,-606.581 246.625,-606.581"/>
<text text-anchor="middle" x="277" y="-582.8" font-family="Times New Roman,serif" font-size="14.00">Narration</text>
<text text-anchor="middle" x="277" y="-567.8" font-family="Times New Roman,serif" font-size="14.00">35</text>
</g>
<!-- B1 -->
<g id="node3" class="node"><title>B1</title>
<polygon fill="skyblue" stroke="black" points="294,-444 208,-444 208,-408 294,-408 294,-444"/>
<text text-anchor="middle" x="251" y="-422.3" font-family="Times New Roman,serif" font-size="14.00">B1 : Ah oui?</text>
</g>
<!-- A1&#45;&gt;B1 -->
<g id="edge7" class="edge"><title>A1&#45;&gt;B1</title>
<path fill="none" stroke="#b2df8a" stroke-width="9.42857" d="M251,-504.163C251,-485.932 251,-460.784 251,-444.219"/>
<polygon fill="#b2df8a" stroke="#b2df8a" stroke-width="9.42857" points="246.875,-504.581 251,-509.581 255.125,-504.581 246.875,-504.581"/>
<text text-anchor="middle" x="265" y="-480.8" font-family="Times New Roman,serif" font-size="14.00">Méta</text>
<text text-anchor="middle" x="265" y="-465.8" font-family="Times New Roman,serif" font-size="14.00">33</text>
</g>
<!-- A2 -->
<g id="node4" class="node"><title>A2</title>
<polygon fill="wheat" stroke="black" points="294,-342 8,-342 8,-306 294,-306 294,-342"/>
<text text-anchor="middle" x="151" y="-320.3" font-family="Times New Roman,serif" font-size="14.00">A2 : Oui j’ai même mangé des pâtes au saumon!</text>
<text text-anchor="start" x="0" y="-346.8" font-family="Times New Roman,serif" font-weight="bold" font-style="italic" font-size="14.00" fill="red">8</text>
</g>
<!-- A1&#45;&gt;A2 -->
<g id="edge2" class="edge"><title>A1&#45;&gt;A2</title>
<path fill="none" stroke="#1f78b4" stroke-width="4.85714" d="M202.443,-507.711C175.557,-494.221 144.517,-473.324 129,-444 111.509,-410.945 128.977,-366.325 141.246,-342.204"/>
<polygon fill="#1f78b4" stroke="#1f78b4" stroke-width="4.85714" points="201.639,-509.684 207.064,-509.979 203.511,-505.868 201.639,-509.684"/>
<text text-anchor="middle" x="164" y="-429.8" font-family="Times New Roman,serif" font-size="14.00">Elaborations</text>
<text text-anchor="middle" x="164" y="-414.8" font-family="Times New Roman,serif" font-size="14.00">17</text>
</g>
<!-- B2_2 -->
<g id="node6" class="node"><title>B2_2</title>
<polygon fill="skyblue" stroke="black" points="367.5,-240 234.5,-240 234.5,-204 367.5,-204 367.5,-240"/>
<text text-anchor="middle" x="301" y="-218.3" font-family="Times New Roman,serif" font-size="14.00">B2_2 : et c’était où ?</text>
</g>
<!-- A1&#45;&gt;B2_2 -->
<g id="edge9" class="edge"><title>A1&#45;&gt;B2_2</title>
<path fill="none" stroke="#33a02c" stroke-width="3.71429" d="M272.405,-505.907C276.223,-501.527 279.949,-496.783 283,-492 295.427,-472.514 298.395,-466.648 303,-444 318.176,-369.364 308.615,-277.6 303.554,-240.143"/>
<polygon fill="#33a02c" stroke="#33a02c" stroke-width="3.71429" points="270.931,-504.928 268.89,-509.817 273.534,-507.268 270.931,-504.928"/>
<text text-anchor="middle" x="336.5" y="-378.8" font-family="Times New Roman,serif" font-size="14.00">Question</text>
<text text-anchor="middle" x="336.5" y="-363.8" font-family="Times New Roman,serif" font-size="14.00">13</text>
</g>
<!-- B1&#45;&gt;A2 -->
<g id="edge3" class="edge"><title>B1&#45;&gt;A2</title>
<path fill="none" stroke="#1f78b4" stroke-width="4.85714" d="M230.023,-404.023C211.677,-385.677 185.355,-359.355 168.219,-342.219"/>
<polygon fill="#1f78b4" stroke="#1f78b4" stroke-width="4.85714" points="228.543,-405.548 233.581,-407.581 231.548,-402.543 228.543,-405.548"/>
<text text-anchor="middle" x="251" y="-378.8" font-family="Times New Roman,serif" font-size="14.00">Elaborations</text>
<text text-anchor="middle" x="251" y="-363.8" font-family="Times New Roman,serif" font-size="14.00">17</text>
</g>
<!-- B2_1 -->
<g id="node5" class="node"><title>B2_1</title>
<polygon fill="skyblue" stroke="black" points="145,-240 67,-240 67,-204 145,-204 145,-240"/>
<text text-anchor="middle" x="106" y="-218.3" font-family="Times New Roman,serif" font-size="14.00">B2_1 : Oh,</text>
<text text-anchor="start" x="59" y="-244.8" font-family="Times New Roman,serif" font-weight="bold" font-style="italic" font-size="14.00" fill="red">6</text>
</g>
<!-- A2&#45;&gt;B2_1 -->
<g id="edge8" class="edge"><title>A2&#45;&gt;B2_1</title>
<path fill="none" stroke="#b2df8a" stroke-width="8.85714" d="M137.893,-301.246C135.48,-296.92 133.072,-292.364 131,-288 123.483,-272.162 116.461,-253.413 111.785,-240.131"/>
<polygon fill="#b2df8a" stroke="#b2df8a" stroke-width="8.85714" points="134.659,-303.398 140.498,-305.831 141.397,-299.57 134.659,-303.398"/>
<text text-anchor="middle" x="145" y="-276.8" font-family="Times New Roman,serif" font-size="14.00">Méta</text>
<text text-anchor="middle" x="145" y="-261.8" font-family="Times New Roman,serif" font-size="14.00">31</text>
</g>
<!-- A2&#45;&gt;B2_2 -->
<g id="edge10" class="edge"><title>A2&#45;&gt;B2_2</title>
<path fill="none" stroke="#33a02c" stroke-width="4.28571" d="M181.089,-302.94C208.613,-284.592 248.909,-257.727 275.049,-240.301"/>
<polygon fill="#33a02c" stroke="#33a02c" stroke-width="4.28571" points="179.906,-301.476 176.786,-305.809 181.986,-304.596 179.906,-301.476"/>
<text text-anchor="middle" x="274.5" y="-276.8" font-family="Times New Roman,serif" font-size="14.00">Question</text>
<text text-anchor="middle" x="274.5" y="-261.8" font-family="Times New Roman,serif" font-size="14.00">15</text>
</g>
<!-- A3_2 -->
<g id="node8" class="node"><title>A3_2</title>
<polygon fill="wheat" stroke="black" points="316.5,-36 109.5,-36 109.5,-0 316.5,-0 316.5,-36"/>
<text text-anchor="middle" x="213" y="-14.3" font-family="Times New Roman,serif" font-size="14.00">A3_2 : c’était vraiment super bon.</text>
</g>
<!-- A2&#45;&gt;A3_2 -->
<g id="edge4" class="edge"><title>A2&#45;&gt;A3_2</title>
<path fill="none" stroke="#1f78b4" stroke-width="6.57143" d="M156.201,-301.004C157.17,-296.7 158.145,-292.215 159,-288 175.692,-205.718 174.358,-184.083 192,-102 196.935,-79.0395 203.777,-52.8045 208.293,-36.083"/>
<polygon fill="#1f78b4" stroke="#1f78b4" stroke-width="6.57143" points="153.383,-300.433 155.075,-305.946 158.989,-301.71 153.383,-300.433"/>
<text text-anchor="middle" x="217" y="-174.8" font-family="Times New Roman,serif" font-size="14.00">Elaborations</text>
<text text-anchor="middle" x="217" y="-159.8" font-family="Times New Roman,serif" font-size="14.00">23</text>
</g>
<!-- A3_1 -->
<g id="node7" class="node"><title>A3_1</title>
<polygon fill="wheat" stroke="black" points="401,-138 201,-138 201,-102 401,-102 401,-138"/>
<text text-anchor="middle" x="301" y="-116.3" font-family="Times New Roman,serif" font-size="14.00">A3_1 : C’était à la Villa Romana,</text>
<text text-anchor="start" x="193" y="-142.8" font-family="Times New Roman,serif" font-weight="bold" font-style="italic" font-size="14.00" fill="red">5</text>
</g>
<!-- B2_2&#45;&gt;A3_1 -->
<g id="edge5" class="edge"><title>B2_2&#45;&gt;A3_1</title>
<path fill="none" stroke="#1f78b4" stroke-width="8.85714" d="M301,-198.163C301,-179.932 301,-154.784 301,-138.219"/>
<polygon fill="#1f78b4" stroke="#1f78b4" stroke-width="8.85714" points="297.125,-198.581 301,-203.581 304.875,-198.581 297.125,-198.581"/>
<text text-anchor="middle" x="336" y="-174.8" font-family="Times New Roman,serif" font-size="14.00">Elaborations</text>
<text text-anchor="middle" x="336" y="-159.8" font-family="Times New Roman,serif" font-size="14.00">31</text>
</g>
<!-- A3_1&#45;&gt;A3_2 -->
<g id="edge6" class="edge"><title>A3_1&#45;&gt;A3_2</title>
<path fill="none" stroke="#1f78b4" stroke-width="3.14286" d="M282.136,-97.5631C266.01,-79.2386 243.107,-53.2125 228.153,-36.2191"/>
<polygon fill="#1f78b4" stroke="#1f78b4" stroke-width="3.14286" points="281.055,-98.9838 285.672,-101.581 283.682,-96.6716 281.055,-98.9838"/>
<text text-anchor="middle" x="306" y="-72.8" font-family="Times New Roman,serif" font-size="14.00">Elaborations</text>
<text text-anchor="middle" x="306" y="-57.8" font-family="Times New Roman,serif" font-size="14.00">11</text>
</g>
</g>
</svg>
