<?xml version="1.0" encoding="UTF-8" standalone="no"?>
<!DOCTYPE svg PUBLIC "-//W3C//DTD SVG 1.1//EN"
 "http://www.w3.org/Graphics/SVG/1.1/DTD/svg11.dtd">
<!-- Generated by graphviz version 2.38.0 (20140413.2041)
 -->
<!-- Title: Bac_a_sable Pages: 1 -->
<svg width="442pt" height="716pt"
 viewBox="0.00 0.00 442.00 716.00" xmlns="http://www.w3.org/2000/svg" xmlns:xlink="http://www.w3.org/1999/xlink">
<g id="graph0" class="graph" transform="scale(1 1) rotate(0) translate(4 712)">
<title>Bac_a_sable</title>
<polygon fill="white" stroke="none" points="-4,4 -4,-712 438,-712 438,4 -4,4"/>
<text text-anchor="start" x="8" y="-689" font-family="Times New Roman,serif" font-size="20.00">Bac_a_sable</text>
<text text-anchor="start" x="11.5" y="-672.2" font-family="Times New Roman,serif" font-size="16.00">36 annotations </text>
<text text-anchor="start" x="20.5" y="-656.2" font-family="Times New Roman,serif" font-size="16.00"> seuil = 0.15</text>
<!-- Début -->
<g id="node1" class="node"><title>Début</title>
<polygon fill="lightgrey" stroke="black" points="222.5,-648 127.5,-648 127.5,-612 222.5,-612 222.5,-648"/>
<text text-anchor="middle" x="175" y="-626.3" font-family="Times New Roman,serif" font-size="14.00">Début : Début</text>
</g>
<!-- A1 -->
<g id="node2" class="node"><title>A1</title>
<polygon fill="wheat" stroke="black" points="253.5,-546 96.5,-546 96.5,-510 253.5,-510 253.5,-546"/>
<text text-anchor="middle" x="175" y="-524.3" font-family="Times New Roman,serif" font-size="14.00">A1 : J’étais au restaurant.</text>
<text text-anchor="start" x="80.5" y="-550.8" font-family="Times New Roman,serif" font-weight="bold" font-style="italic" font-size="14.00" fill="red">35</text>
</g>
<!-- Début&#45;&gt;A1 -->
<g id="edge1" class="edge"><title>Début&#45;&gt;A1</title>
<path fill="none" stroke="#a6cee3" stroke-width="10" d="M175,-606.163C175,-587.932 175,-562.784 175,-546.219"/>
<polygon fill="#a6cee3" stroke="#a6cee3" stroke-width="10" points="170.625,-606.581 175,-611.581 179.375,-606.581 170.625,-606.581"/>
<text text-anchor="middle" x="201" y="-582.8" font-family="Times New Roman,serif" font-size="14.00">Narration</text>
<text text-anchor="middle" x="201" y="-567.8" font-family="Times New Roman,serif" font-size="14.00">35</text>
</g>
<!-- B1 -->
<g id="node3" class="node"><title>B1</title>
<polygon fill="skyblue" stroke="black" points="93,-444 7,-444 7,-408 93,-408 93,-444"/>
<text text-anchor="middle" x="50" y="-422.3" font-family="Times New Roman,serif" font-size="14.00">B1 : Ah oui?</text>
</g>
<!-- A1&#45;&gt;B1 -->
<g id="edge7" class="edge"><title>A1&#45;&gt;B1</title>
<path fill="none" stroke="#e31a1c" stroke-width="7.71429" d="M132.762,-507.412C124.556,-502.841 116.258,-497.641 109,-492 91.0702,-478.065 74.025,-458.332 62.9085,-444.271"/>
<polygon fill="#e31a1c" stroke="#e31a1c" stroke-width="7.71429" points="131.299,-510.458 137.304,-509.886 134.527,-504.53 131.299,-510.458"/>
<text text-anchor="middle" x="135" y="-480.8" font-family="Times New Roman,serif" font-size="14.00">Conduite</text>
<text text-anchor="middle" x="135" y="-465.8" font-family="Times New Roman,serif" font-size="14.00">27</text>
</g>
<!-- A2 -->
<g id="node4" class="node"><title>A2</title>
<polygon fill="wheat" stroke="black" points="294,-342 8,-342 8,-306 294,-306 294,-342"/>
<text text-anchor="middle" x="151" y="-320.3" font-family="Times New Roman,serif" font-size="14.00">A2 : Oui j’ai même mangé des pâtes au saumon!</text>
<text text-anchor="start" x="0" y="-346.8" font-family="Times New Roman,serif" font-weight="bold" font-style="italic" font-size="14.00" fill="red">8</text>
</g>
<!-- A1&#45;&gt;A2 -->
<g id="edge3" class="edge"><title>A1&#45;&gt;A2</title>
<path fill="none" stroke="#b2df8a" stroke-width="4.85714" d="M174.5,-504.486C173.472,-472.235 170.356,-411.133 161,-360 159.931,-354.157 158.299,-347.886 156.661,-342.289"/>
<polygon fill="#b2df8a" stroke="#b2df8a" stroke-width="4.85714" points="172.385,-504.852 174.659,-509.786 176.633,-504.725 172.385,-504.852"/>
<text text-anchor="middle" x="236.5" y="-429.8" font-family="Times New Roman,serif" font-size="14.00">Elaboration descriptive</text>
<text text-anchor="middle" x="236.5" y="-414.8" font-family="Times New Roman,serif" font-size="14.00">17</text>
</g>
<!-- B2_2 -->
<g id="node6" class="node"><title>B2_2</title>
<polygon fill="skyblue" stroke="black" points="398.5,-240 265.5,-240 265.5,-204 398.5,-204 398.5,-240"/>
<text text-anchor="middle" x="332" y="-218.3" font-family="Times New Roman,serif" font-size="14.00">B2_2 : et c’était où ?</text>
</g>
<!-- A1&#45;&gt;B2_2 -->
<g id="edge10" class="edge"><title>A1&#45;&gt;B2_2</title>
<path fill="none" stroke="#6a3d9a" stroke-width="3.71429" d="M225.315,-507.725C253.466,-494.239 286.518,-473.343 305,-444 346.406,-378.26 339.436,-279.512 334.53,-240.116"/>
<polygon fill="#6a3d9a" stroke="#6a3d9a" stroke-width="3.71429" points="224.266,-506.284 220.482,-509.992 225.752,-509.453 224.266,-506.284"/>
<text text-anchor="middle" x="358.5" y="-378.8" font-family="Times New Roman,serif" font-size="14.00">Question</text>
<text text-anchor="middle" x="358.5" y="-363.8" font-family="Times New Roman,serif" font-size="14.00">13</text>
</g>
<!-- B1&#45;&gt;A2 -->
<g id="edge4" class="edge"><title>B1&#45;&gt;A2</title>
<path fill="none" stroke="#b2df8a" stroke-width="3.71429" d="M35.2061,-403.303C27.9616,-389.749 22.6091,-372.551 32,-360 37.4831,-352.672 44.4254,-346.812 52.1913,-342.136"/>
<polygon fill="#b2df8a" stroke="#b2df8a" stroke-width="3.71429" points="33.7339,-404.255 37.7169,-407.748 36.7813,-402.533 33.7339,-404.255"/>
<text text-anchor="middle" x="96.5" y="-378.8" font-family="Times New Roman,serif" font-size="14.00">Elaboration descriptive</text>
<text text-anchor="middle" x="96.5" y="-363.8" font-family="Times New Roman,serif" font-size="14.00">13</text>
</g>
<!-- B2_1 -->
<g id="node5" class="node"><title>B2_1</title>
<polygon fill="skyblue" stroke="black" points="134,-240 56,-240 56,-204 134,-204 134,-240"/>
<text text-anchor="middle" x="95" y="-218.3" font-family="Times New Roman,serif" font-size="14.00">B2_1 : Oh,</text>
<text text-anchor="start" x="48" y="-244.8" font-family="Times New Roman,serif" font-weight="bold" font-style="italic" font-size="14.00" fill="red">6</text>
</g>
<!-- A2&#45;&gt;B2_1 -->
<g id="edge8" class="edge"><title>A2&#45;&gt;B2_1</title>
<path fill="none" stroke="#e31a1c" stroke-width="2.57143" d="M138.736,-301.099C128.489,-282.802 114.079,-257.07 104.643,-240.219"/>
<polygon fill="#e31a1c" stroke="#e31a1c" stroke-width="2.57143" points="137.276,-302.074 141.246,-305.581 140.329,-300.364 137.276,-302.074"/>
<text text-anchor="middle" x="158" y="-276.8" font-family="Times New Roman,serif" font-size="14.00">Conduite</text>
<text text-anchor="middle" x="158" y="-261.8" font-family="Times New Roman,serif" font-size="14.00">9</text>
</g>
<!-- A2&#45;&gt;B2_1 -->
<g id="edge9" class="edge"><title>A2&#45;&gt;B2_1</title>
<path fill="none" stroke="#fdbf6f" stroke-width="6.28571" d="M77.395,-303.132C71.4114,-299.005 66.1016,-294.02 62,-288 54.4928,-276.981 57.0792,-270.392 62,-258 64.589,-251.48 69.032,-245.471 73.8335,-240.338"/>
<polygon fill="#fdbf6f" stroke="#fdbf6f" stroke-width="6.28571" points="75.9451,-305.47 81.6385,-305.855 78.9152,-300.84 75.9451,-305.47"/>
<text text-anchor="middle" x="86.5" y="-276.8" font-family="Times New Roman,serif" font-size="14.00">Phatique</text>
<text text-anchor="middle" x="86.5" y="-261.8" font-family="Times New Roman,serif" font-size="14.00">22</text>
</g>
<!-- A2&#45;&gt;B2_2 -->
<g id="edge11" class="edge"><title>A2&#45;&gt;B2_2</title>
<path fill="none" stroke="#6a3d9a" stroke-width="4.28571" d="M185.94,-303.22C208.921,-290.261 239.685,-273.005 267,-258 277.672,-252.138 289.374,-245.806 299.873,-240.161"/>
<polygon fill="#6a3d9a" stroke="#6a3d9a" stroke-width="4.28571" points="184.885,-301.663 181.451,-305.753 186.728,-304.929 184.885,-301.663"/>
<text text-anchor="middle" x="292.5" y="-276.8" font-family="Times New Roman,serif" font-size="14.00">Question</text>
<text text-anchor="middle" x="292.5" y="-261.8" font-family="Times New Roman,serif" font-size="14.00">15</text>
</g>
<!-- A3_2 -->
<g id="node8" class="node"><title>A3_2</title>
<polygon fill="wheat" stroke="black" points="343.5,-36 136.5,-36 136.5,-0 343.5,-0 343.5,-36"/>
<text text-anchor="middle" x="240" y="-14.3" font-family="Times New Roman,serif" font-size="14.00">A3_2 : c’était vraiment super bon.</text>
</g>
<!-- A2&#45;&gt;A3_2 -->
<g id="edge5" class="edge"><title>A2&#45;&gt;A3_2</title>
<path fill="none" stroke="#33a02c" stroke-width="5.42857" d="M174.528,-301.909C178.186,-297.633 181.556,-292.926 184,-288 210.435,-234.722 193.939,-214.24 206,-156 214.995,-112.565 228.267,-62.0646 235.271,-36.2024"/>
<polygon fill="#33a02c" stroke="#33a02c" stroke-width="5.42857" points="172.688,-300.403 171.107,-305.707 176.218,-303.582 172.688,-300.403"/>
<text text-anchor="middle" x="267" y="-174.8" font-family="Times New Roman,serif" font-size="14.00">Elaboration evaluative</text>
<text text-anchor="middle" x="267" y="-159.8" font-family="Times New Roman,serif" font-size="14.00">19</text>
</g>
<!-- A3_1 -->
<g id="node7" class="node"><title>A3_1</title>
<polygon fill="wheat" stroke="black" points="434,-138 234,-138 234,-102 434,-102 434,-138"/>
<text text-anchor="middle" x="334" y="-116.3" font-family="Times New Roman,serif" font-size="14.00">A3_1 : C’était à la Villa Romana,</text>
<text text-anchor="start" x="226" y="-142.8" font-family="Times New Roman,serif" font-weight="bold" font-style="italic" font-size="14.00" fill="red">5</text>
</g>
<!-- B2_2&#45;&gt;A3_1 -->
<g id="edge2" class="edge"><title>B2_2&#45;&gt;A3_1</title>
<path fill="none" stroke="#1f78b4" stroke-width="8" d="M332.457,-198.163C332.821,-179.932 333.324,-154.784 333.656,-138.219"/>
<polygon fill="#1f78b4" stroke="#1f78b4" stroke-width="8" points="328.949,-198.512 332.348,-203.581 335.948,-198.652 328.949,-198.512"/>
<text text-anchor="middle" x="358" y="-174.8" font-family="Times New Roman,serif" font-size="14.00">Réponse</text>
<text text-anchor="middle" x="358" y="-159.8" font-family="Times New Roman,serif" font-size="14.00">28</text>
</g>
<!-- A3_1&#45;&gt;A3_2 -->
<g id="edge6" class="edge"><title>A3_1&#45;&gt;A3_2</title>
<path fill="none" stroke="#33a02c" stroke-width="3.14286" d="M313.849,-97.5631C296.624,-79.2386 272.16,-53.2125 256.186,-36.2191"/>
<polygon fill="#33a02c" stroke="#33a02c" stroke-width="3.14286" points="312.927,-99.1368 317.626,-101.581 315.477,-96.7396 312.927,-99.1368"/>
<text text-anchor="middle" x="362" y="-72.8" font-family="Times New Roman,serif" font-size="14.00">Elaboration evaluative</text>
<text text-anchor="middle" x="362" y="-57.8" font-family="Times New Roman,serif" font-size="14.00">11</text>
</g>
</g>
</svg>
