<?xml version="1.0" encoding="UTF-8" standalone="no"?>
<!DOCTYPE svg PUBLIC "-//W3C//DTD SVG 1.1//EN"
 "http://www.w3.org/Graphics/SVG/1.1/DTD/svg11.dtd">
<!-- Generated by graphviz version 2.38.0 (20140413.2041)
 -->
<!-- Title: Bac_a_sable Pages: 1 -->
<svg width="409pt" height="626pt"
 viewBox="0.00 0.00 409.00 626.00" xmlns="http://www.w3.org/2000/svg" xmlns:xlink="http://www.w3.org/1999/xlink">
<g id="graph0" class="graph" transform="scale(1 1) rotate(0) translate(4 622)">
<title>Bac_a_sable</title>
<polygon fill="white" stroke="none" points="-4,4 -4,-622 405,-622 405,4 -4,4"/>
<text text-anchor="start" x="8" y="-599" font-family="Times New Roman,serif" font-size="20.00">Bac_a_sable</text>
<text text-anchor="start" x="11.5" y="-582.2" font-family="Times New Roman,serif" font-size="16.00">36 annotations </text>
<text text-anchor="start" x="20.5" y="-566.2" font-family="Times New Roman,serif" font-size="16.00"> seuil = 0.15</text>
<!-- Début -->
<g id="node1" class="node"><title>Début</title>
<polygon fill="lightgrey" stroke="black" points="273.5,-558 178.5,-558 178.5,-522 273.5,-522 273.5,-558"/>
<text text-anchor="middle" x="226" y="-536.3" font-family="Times New Roman,serif" font-size="14.00">Début : Début</text>
</g>
<!-- A1 -->
<g id="node2" class="node"><title>A1</title>
<polygon fill="wheat" stroke="black" points="304.5,-471 147.5,-471 147.5,-435 304.5,-435 304.5,-471"/>
<text text-anchor="middle" x="226" y="-449.3" font-family="Times New Roman,serif" font-size="14.00">A1 : J’étais au restaurant.</text>
<text text-anchor="start" x="131.5" y="-475.8" font-family="Times New Roman,serif" font-weight="bold" font-style="italic" font-size="14.00" fill="red">35</text>
</g>
<!-- Début&#45;&gt;A1 -->
<g id="edge1" class="edge"><title>Début&#45;&gt;A1</title>
<path fill="none" stroke="#1f78b4" stroke-width="10" d="M226,-516.748C226,-502.505 226,-484.303 226,-471.175"/>
<polygon fill="#1f78b4" stroke="#1f78b4" stroke-width="10" points="221.625,-516.799 226,-521.799 230.375,-516.799 221.625,-516.799"/>
<text text-anchor="middle" x="233" y="-492.8" font-family="Times New Roman,serif" font-size="14.00">36</text>
</g>
<!-- B1 -->
<g id="node3" class="node"><title>B1</title>
<polygon fill="skyblue" stroke="black" points="269,-384 183,-384 183,-348 269,-348 269,-384"/>
<text text-anchor="middle" x="226" y="-362.3" font-family="Times New Roman,serif" font-size="14.00">B1 : Ah oui?</text>
</g>
<!-- A1&#45;&gt;B1 -->
<g id="edge2" class="edge"><title>A1&#45;&gt;B1</title>
<path fill="none" stroke="#1f78b4" stroke-width="9.72222" d="M226,-429.748C226,-415.505 226,-397.303 226,-384.175"/>
<polygon fill="#1f78b4" stroke="#1f78b4" stroke-width="9.72222" points="221.747,-429.799 226,-434.799 230.254,-429.799 221.747,-429.799"/>
<text text-anchor="middle" x="233" y="-405.8" font-family="Times New Roman,serif" font-size="14.00">35</text>
</g>
<!-- A2 -->
<g id="node4" class="node"><title>A2</title>
<polygon fill="wheat" stroke="black" points="294,-297 8,-297 8,-261 294,-261 294,-297"/>
<text text-anchor="middle" x="151" y="-275.3" font-family="Times New Roman,serif" font-size="14.00">A2 : Oui j’ai même mangé des pâtes au saumon!</text>
<text text-anchor="start" x="0" y="-301.8" font-family="Times New Roman,serif" font-weight="bold" font-style="italic" font-size="14.00" fill="red">8</text>
</g>
<!-- A1&#45;&gt;A2 -->
<g id="edge3" class="edge"><title>A1&#45;&gt;A2</title>
<path fill="none" stroke="#1f78b4" stroke-width="5" d="M198.628,-431.566C184.537,-419.418 168.558,-402.74 160,-384 147.051,-355.645 147.439,-318.445 149.089,-297.085"/>
<polygon fill="#1f78b4" stroke="#1f78b4" stroke-width="5" points="197.312,-433.318 202.544,-434.87 200.133,-429.974 197.312,-433.318"/>
<text text-anchor="middle" x="167" y="-362.3" font-family="Times New Roman,serif" font-size="14.00">18</text>
</g>
<!-- B2_2 -->
<g id="node6" class="node"><title>B2_2</title>
<polygon fill="skyblue" stroke="black" points="367.5,-210 234.5,-210 234.5,-174 367.5,-174 367.5,-210"/>
<text text-anchor="middle" x="301" y="-188.3" font-family="Times New Roman,serif" font-size="14.00">B2_2 : et c’était où ?</text>
</g>
<!-- A1&#45;&gt;B2_2 -->
<g id="edge4" class="edge"><title>A1&#45;&gt;B2_2</title>
<path fill="none" stroke="#1f78b4" stroke-width="3.88889" d="M245.41,-430.949C256.307,-418.174 269.401,-401.083 278,-384 296.089,-348.064 297.39,-336.838 303,-297 305.231,-281.156 303.235,-276.998 303,-261 302.745,-243.64 302.123,-223.796 301.64,-210.044"/>
<polygon fill="#1f78b4" stroke="#1f78b4" stroke-width="3.88889" points="244.053,-429.843 242.107,-434.77 246.701,-432.132 244.053,-429.843"/>
<text text-anchor="middle" x="307" y="-318.8" font-family="Times New Roman,serif" font-size="14.00">14</text>
</g>
<!-- B1&#45;&gt;A2 -->
<g id="edge5" class="edge"><title>B1&#45;&gt;A2</title>
<path fill="none" stroke="#1f78b4" stroke-width="5" d="M207.35,-343.864C194.647,-329.466 178.043,-310.648 166.155,-297.175"/>
<polygon fill="#1f78b4" stroke="#1f78b4" stroke-width="5" points="205.874,-345.497 210.823,-347.799 209.155,-342.602 205.874,-345.497"/>
<text text-anchor="middle" x="200" y="-318.8" font-family="Times New Roman,serif" font-size="14.00">18</text>
</g>
<!-- B2_1 -->
<g id="node5" class="node"><title>B2_1</title>
<polygon fill="skyblue" stroke="black" points="145,-210 67,-210 67,-174 145,-174 145,-210"/>
<text text-anchor="middle" x="106" y="-188.3" font-family="Times New Roman,serif" font-size="14.00">B2_1 : Oh,</text>
<text text-anchor="start" x="59" y="-214.8" font-family="Times New Roman,serif" font-weight="bold" font-style="italic" font-size="14.00" fill="red">6</text>
</g>
<!-- A2&#45;&gt;B2_1 -->
<g id="edge6" class="edge"><title>A2&#45;&gt;B2_1</title>
<path fill="none" stroke="#1f78b4" stroke-width="10" d="M139.417,-256.121C131.848,-241.824 122.104,-223.418 115.093,-210.175"/>
<polygon fill="#1f78b4" stroke="#1f78b4" stroke-width="10" points="135.688,-258.427 141.894,-260.799 143.421,-254.333 135.688,-258.427"/>
<text text-anchor="middle" x="139" y="-231.8" font-family="Times New Roman,serif" font-size="14.00">36</text>
</g>
<!-- A2&#45;&gt;B2_2 -->
<g id="edge7" class="edge"><title>A2&#45;&gt;B2_2</title>
<path fill="none" stroke="#1f78b4" stroke-width="5" d="M185.737,-258.316C211.528,-243.701 246.348,-223.97 270.947,-210.03"/>
<polygon fill="#1f78b4" stroke="#1f78b4" stroke-width="5" points="184.626,-256.431 181.355,-260.799 186.783,-260.237 184.626,-256.431"/>
<text text-anchor="middle" x="242" y="-231.8" font-family="Times New Roman,serif" font-size="14.00">18</text>
</g>
<!-- A3_2 -->
<g id="node8" class="node"><title>A3_2</title>
<polygon fill="wheat" stroke="black" points="316.5,-36 109.5,-36 109.5,-0 316.5,-0 316.5,-36"/>
<text text-anchor="middle" x="213" y="-14.3" font-family="Times New Roman,serif" font-size="14.00">A3_2 : c’était vraiment super bon.</text>
</g>
<!-- A2&#45;&gt;A3_2 -->
<g id="edge8" class="edge"><title>A2&#45;&gt;A3_2</title>
<path fill="none" stroke="#1f78b4" stroke-width="6.38889" d="M155.115,-255.752C161.882,-219.971 176.192,-147.519 192,-87 196.559,-69.5463 202.748,-49.8833 207.225,-36.2079"/>
<polygon fill="#1f78b4" stroke="#1f78b4" stroke-width="6.38889" points="152.351,-255.328 154.172,-260.759 157.845,-256.363 152.351,-255.328"/>
<text text-anchor="middle" x="186" y="-144.8" font-family="Times New Roman,serif" font-size="14.00">23</text>
</g>
<!-- A3_1 -->
<g id="node7" class="node"><title>A3_1</title>
<polygon fill="wheat" stroke="black" points="401,-123 201,-123 201,-87 401,-87 401,-123"/>
<text text-anchor="middle" x="301" y="-101.3" font-family="Times New Roman,serif" font-size="14.00">A3_1 : C’était à la Villa Romana,</text>
<text text-anchor="start" x="193" y="-127.8" font-family="Times New Roman,serif" font-weight="bold" font-style="italic" font-size="14.00" fill="red">5</text>
</g>
<!-- B2_2&#45;&gt;A3_1 -->
<g id="edge9" class="edge"><title>B2_2&#45;&gt;A3_1</title>
<path fill="none" stroke="#1f78b4" stroke-width="9.72222" d="M301,-168.748C301,-154.505 301,-136.303 301,-123.175"/>
<polygon fill="#1f78b4" stroke="#1f78b4" stroke-width="9.72222" points="296.747,-168.799 301,-173.799 305.254,-168.799 296.747,-168.799"/>
<text text-anchor="middle" x="308" y="-144.8" font-family="Times New Roman,serif" font-size="14.00">35</text>
</g>
<!-- A3_1&#45;&gt;A3_2 -->
<g id="edge10" class="edge"><title>A3_1&#45;&gt;A3_2</title>
<path fill="none" stroke="#1f78b4" stroke-width="3.33333" d="M279.499,-83.2317C264.546,-68.7883 244.849,-49.7636 230.782,-36.1754"/>
<polygon fill="#1f78b4" stroke="#1f78b4" stroke-width="3.33333" points="278.38,-84.584 283.192,-86.799 280.811,-82.0665 278.38,-84.584"/>
<text text-anchor="middle" x="269" y="-57.8" font-family="Times New Roman,serif" font-size="14.00">12</text>
</g>
</g>
</svg>
