<?xml version="1.0" encoding="UTF-8" standalone="no"?>
<!DOCTYPE svg PUBLIC "-//W3C//DTD SVG 1.1//EN"
 "http://www.w3.org/Graphics/SVG/1.1/DTD/svg11.dtd">
<!-- Generated by graphviz version 2.38.0 (20140413.2041)
 -->
<!-- Title: Florence Pages: 1 -->
<svg width="546pt" height="1235pt"
 viewBox="0.00 0.00 545.50 1235.00" xmlns="http://www.w3.org/2000/svg" xmlns:xlink="http://www.w3.org/1999/xlink">
<g id="graph0" class="graph" transform="scale(1 1) rotate(0) translate(4 1231)">
<title>Florence</title>
<polygon fill="white" stroke="none" points="-4,4 -4,-1231 541.5,-1231 541.5,4 -4,4"/>
<text text-anchor="start" x="20" y="-1208" font-family="Times New Roman,serif" font-size="20.00">Florence</text>
<text text-anchor="start" x="8" y="-1191.2" font-family="Times New Roman,serif" font-size="16.00">17 annotations </text>
<text text-anchor="start" x="17" y="-1175.2" font-family="Times New Roman,serif" font-size="16.00"> seuil = 0.15</text>
<!-- début -->
<g id="node1" class="node"><title>début</title>
<polygon fill="lightgrey" stroke="black" points="290.5,-1167 207.5,-1167 207.5,-1131 290.5,-1131 290.5,-1167"/>
<text text-anchor="middle" x="249" y="-1145.3" font-family="Times New Roman,serif" font-size="14.00">début : ébut</text>
</g>
<!-- B1_1 -->
<g id="node2" class="node"><title>B1_1</title>
<polygon fill="skyblue" stroke="black" points="449,-1080 49,-1080 49,-1044 449,-1044 449,-1080"/>
<text text-anchor="middle" x="249" y="-1058.3" font-family="Times New Roman,serif" font-size="14.00">B1_1 : J&#39;aimerais savoir ce que font les personnes qui sont à l&#39;hôpital</text>
<text text-anchor="start" x="33" y="-1084.8" font-family="Times New Roman,serif" font-weight="bold" font-style="italic" font-size="14.00" fill="red">16</text>
</g>
<!-- début&#45;&gt;B1_1 -->
<g id="edge1" class="edge"><title>début&#45;&gt;B1_1</title>
<path fill="none" stroke="#1f78b4" stroke-width="10" d="M249,-1125.75C249,-1111.5 249,-1093.3 249,-1080.18"/>
<polygon fill="#1f78b4" stroke="#1f78b4" stroke-width="10" points="244.625,-1125.8 249,-1130.8 253.375,-1125.8 244.625,-1125.8"/>
<text text-anchor="middle" x="256" y="-1101.8" font-family="Times New Roman,serif" font-size="14.00">17</text>
</g>
<!-- A2 -->
<g id="node4" class="node"><title>A2</title>
<polygon fill="wheat" stroke="black" points="273.5,-906 16.5,-906 16.5,-870 273.5,-870 273.5,-906"/>
<text text-anchor="middle" x="145" y="-884.3" font-family="Times New Roman,serif" font-size="14.00">A2 : Je suis très amoureuse de Florence M.</text>
<text text-anchor="start" x="0.5" y="-910.8" font-family="Times New Roman,serif" font-weight="bold" font-style="italic" font-size="14.00" fill="red">11</text>
</g>
<!-- début&#45;&gt;A2 -->
<g id="edge2" class="edge"><title>début&#45;&gt;A2</title>
<path fill="none" stroke="#1f78b4" stroke-width="5.29412" d="M202.428,-1147.63C152.976,-1144.44 76.9601,-1130.89 40,-1080 -3.3597,-1020.3 80.259,-940.726 122.57,-906.196"/>
<polygon fill="#1f78b4" stroke="#1f78b4" stroke-width="5.29412" points="202.299,-1149.95 207.426,-1147.93 202.571,-1145.32 202.299,-1149.95"/>
<text text-anchor="middle" x="38.5" y="-1014.8" font-family="Times New Roman,serif" font-size="14.00">9</text>
</g>
<!-- A4_2 -->
<g id="node7" class="node"><title>A4_2</title>
<polygon fill="wheat" stroke="black" points="537.5,-645 284.5,-645 284.5,-609 537.5,-609 537.5,-645"/>
<text text-anchor="middle" x="411" y="-623.3" font-family="Times New Roman,serif" font-size="14.00">A4_2 : comment elle s&#39;appelle Florence R.</text>
<text text-anchor="start" x="276.5" y="-649.8" font-family="Times New Roman,serif" font-weight="bold" font-style="italic" font-size="14.00" fill="red">3</text>
</g>
<!-- début&#45;&gt;A4_2 -->
<g id="edge3" class="edge"><title>début&#45;&gt;A4_2</title>
<path fill="none" stroke="#1f78b4" stroke-width="4.70588" d="M295.666,-1140.34C362.367,-1128.05 477,-1101.34 477,-1063 477,-1063 477,-1063 477,-713 477,-684.975 454.341,-660.61 435.576,-645.237"/>
<polygon fill="#1f78b4" stroke="#1f78b4" stroke-width="4.70588" points="295.104,-1138.35 290.554,-1141.27 295.842,-1142.4 295.104,-1138.35"/>
<text text-anchor="middle" x="480.5" y="-884.3" font-family="Times New Roman,serif" font-size="14.00">8</text>
</g>
<!-- B1_2 -->
<g id="node3" class="node"><title>B1_2</title>
<polygon fill="skyblue" stroke="black" points="435.5,-993 138.5,-993 138.5,-957 435.5,-957 435.5,-993"/>
<text text-anchor="middle" x="287" y="-971.3" font-family="Times New Roman,serif" font-size="14.00">B1_2 : ce que vous faites la journée par exemple...</text>
<text text-anchor="start" x="130.5" y="-997.8" font-family="Times New Roman,serif" font-weight="bold" font-style="italic" font-size="14.00" fill="red">1</text>
</g>
<!-- B1_1&#45;&gt;B1_2 -->
<g id="edge4" class="edge"><title>B1_1&#45;&gt;B1_2</title>
<path fill="none" stroke="#1f78b4" stroke-width="9.41176" d="M258.781,-1039.12C265.173,-1024.82 273.401,-1006.42 279.322,-993.175"/>
<polygon fill="#1f78b4" stroke="#1f78b4" stroke-width="9.41176" points="254.971,-1037.55 256.69,-1043.8 262.49,-1040.91 254.971,-1037.55"/>
<text text-anchor="middle" x="277" y="-1014.8" font-family="Times New Roman,serif" font-size="14.00">16</text>
</g>
<!-- B1_1&#45;&gt;A2 -->
<g id="edge5" class="edge"><title>B1_1&#45;&gt;A2</title>
<path fill="none" stroke="#1f78b4" stroke-width="1.76471" d="M183.591,-1041.87C159.921,-1031.43 135.673,-1015.83 122,-993 105.563,-965.555 121.845,-927.709 134.131,-906.053"/>
<polygon fill="#1f78b4" stroke="#1f78b4" stroke-width="1.76471" points="183.028,-1043.53 188.313,-1043.88 184.404,-1040.31 183.028,-1043.53"/>
<text text-anchor="middle" x="125.5" y="-971.3" font-family="Times New Roman,serif" font-size="14.00">3</text>
</g>
<!-- B1_2&#45;&gt;A2 -->
<g id="edge6" class="edge"><title>B1_2&#45;&gt;A2</title>
<path fill="none" stroke="#1f78b4" stroke-width="2.94118" d="M253.828,-954.143C229.527,-939.597 196.874,-920.052 173.693,-906.175"/>
<polygon fill="#1f78b4" stroke="#1f78b4" stroke-width="2.94118" points="253.075,-955.732 258.264,-956.799 254.873,-952.729 253.075,-955.732"/>
<text text-anchor="middle" x="227.5" y="-927.8" font-family="Times New Roman,serif" font-size="14.00">5</text>
</g>
<!-- B3 -->
<g id="node5" class="node"><title>B3</title>
<polygon fill="skyblue" stroke="black" points="296.5,-819 165.5,-819 165.5,-783 296.5,-783 296.5,-819"/>
<text text-anchor="middle" x="231" y="-797.3" font-family="Times New Roman,serif" font-size="14.00">B3 : De Florence M.</text>
</g>
<!-- A2&#45;&gt;B3 -->
<g id="edge7" class="edge"><title>A2&#45;&gt;B3</title>
<path fill="none" stroke="#1f78b4" stroke-width="10" d="M166.013,-866.232C180.626,-851.788 199.874,-832.764 213.622,-819.175"/>
<polygon fill="#1f78b4" stroke="#1f78b4" stroke-width="10" points="162.884,-863.172 162.403,-869.799 169.035,-869.396 162.884,-863.172"/>
<text text-anchor="middle" x="200" y="-840.8" font-family="Times New Roman,serif" font-size="14.00">17</text>
</g>
<!-- A4_1 -->
<g id="node6" class="node"><title>A4_1</title>
<polygon fill="wheat" stroke="black" points="375,-732 225,-732 225,-696 375,-696 375,-732"/>
<text text-anchor="middle" x="300" y="-710.3" font-family="Times New Roman,serif" font-size="14.00">A4_1 : Oui superbe la...</text>
<text text-anchor="start" x="217" y="-736.8" font-family="Times New Roman,serif" font-weight="bold" font-style="italic" font-size="14.00" fill="red">7</text>
</g>
<!-- B3&#45;&gt;A4_1 -->
<g id="edge8" class="edge"><title>B3&#45;&gt;A4_1</title>
<path fill="none" stroke="#1f78b4" stroke-width="8.82353" d="M248.158,-778.864C259.845,-764.466 275.121,-745.648 286.058,-732.175"/>
<polygon fill="#1f78b4" stroke="#1f78b4" stroke-width="8.82353" points="245.117,-776.484 244.963,-782.799 251.112,-781.35 245.117,-776.484"/>
<text text-anchor="middle" x="276" y="-753.8" font-family="Times New Roman,serif" font-size="14.00">15</text>
</g>
<!-- B3&#45;&gt;A4_2 -->
<g id="edge9" class="edge"><title>B3&#45;&gt;A4_2</title>
<path fill="none" stroke="#1f78b4" stroke-width="2.94118" d="M301.768,-783.234C331.017,-772.956 362.941,-756.835 384,-732 405.112,-707.101 409.977,-667.645 410.942,-645.169"/>
<polygon fill="#1f78b4" stroke="#1f78b4" stroke-width="2.94118" points="300.886,-781.686 296.721,-784.959 302.019,-784.997 300.886,-781.686"/>
<text text-anchor="middle" x="405.5" y="-710.3" font-family="Times New Roman,serif" font-size="14.00">5</text>
</g>
<!-- A4_3 -->
<g id="node8" class="node"><title>A4_3</title>
<polygon fill="wheat" stroke="black" points="386,-558 8,-558 8,-522 386,-522 386,-558"/>
<text text-anchor="middle" x="197" y="-536.3" font-family="Times New Roman,serif" font-size="14.00">A4_3 : elle a tué quand même plus de un million de de personnes</text>
<text text-anchor="start" x="0" y="-562.8" font-family="Times New Roman,serif" font-weight="bold" font-style="italic" font-size="14.00" fill="red">1</text>
</g>
<!-- B3&#45;&gt;A4_3 -->
<g id="edge10" class="edge"><title>B3&#45;&gt;A4_3</title>
<path fill="none" stroke="#1f78b4" stroke-width="1.76471" d="M225.393,-777.736C222.239,-764.518 218.454,-747.388 216,-732 205.846,-668.324 200.187,-591.785 198.029,-558.208"/>
<polygon fill="#1f78b4" stroke="#1f78b4" stroke-width="1.76471" points="223.736,-778.33 226.611,-782.779 227.138,-777.508 223.736,-778.33"/>
<text text-anchor="middle" x="211.5" y="-666.8" font-family="Times New Roman,serif" font-size="14.00">3</text>
</g>
<!-- A4_1&#45;&gt;A4_2 -->
<g id="edge11" class="edge"><title>A4_1&#45;&gt;A4_2</title>
<path fill="none" stroke="#1f78b4" stroke-width="2.35294" d="M326.643,-692.598C345.561,-678.111 370.676,-658.879 388.571,-645.175"/>
<polygon fill="#1f78b4" stroke="#1f78b4" stroke-width="2.35294" points="325.368,-691.37 322.463,-695.799 327.496,-694.148 325.368,-691.37"/>
<text text-anchor="middle" x="365.5" y="-666.8" font-family="Times New Roman,serif" font-size="14.00">4</text>
</g>
<!-- A4_2&#45;&gt;A4_3 -->
<g id="edge12" class="edge"><title>A4_2&#45;&gt;A4_3</title>
<path fill="none" stroke="#1f78b4" stroke-width="8.23529" d="M363.065,-606.96C326.154,-592.3 275.587,-572.215 239.98,-558.071"/>
<polygon fill="#1f78b4" stroke="#1f78b4" stroke-width="8.23529" points="361.974,-610.404 367.951,-608.901 364.635,-603.707 361.974,-610.404"/>
<text text-anchor="middle" x="323" y="-579.8" font-family="Times New Roman,serif" font-size="14.00">14</text>
</g>
<!-- B5 -->
<g id="node9" class="node"><title>B5</title>
<polygon fill="skyblue" stroke="black" points="402.5,-471 313.5,-471 313.5,-435 402.5,-435 402.5,-471"/>
<text text-anchor="middle" x="358" y="-449.3" font-family="Times New Roman,serif" font-size="14.00">B5 : Qui ça ?</text>
</g>
<!-- A4_2&#45;&gt;B5 -->
<g id="edge13" class="edge"><title>A4_2&#45;&gt;B5</title>
<path fill="none" stroke="#1f78b4" stroke-width="1.76471" d="M409.778,-603.446C408.097,-582.016 404.155,-549.126 395,-522 388.811,-503.663 377.878,-484.439 369.496,-471.128"/>
<polygon fill="#1f78b4" stroke="#1f78b4" stroke-width="1.76471" points="408.047,-603.779 410.158,-608.637 411.538,-603.523 408.047,-603.779"/>
<text text-anchor="middle" x="406.5" y="-536.3" font-family="Times New Roman,serif" font-size="14.00">3</text>
</g>
<!-- A4_3&#45;&gt;B5 -->
<g id="edge14" class="edge"><title>A4_3&#45;&gt;B5</title>
<path fill="none" stroke="#1f78b4" stroke-width="7.64706" d="M234.284,-519.316C261.966,-504.701 299.34,-484.97 325.743,-471.03"/>
<polygon fill="#1f78b4" stroke="#1f78b4" stroke-width="7.64706" points="232.44,-516.506 229.581,-521.799 235.564,-522.423 232.44,-516.506"/>
<text text-anchor="middle" x="294" y="-492.8" font-family="Times New Roman,serif" font-size="14.00">13</text>
</g>
<!-- A6 -->
<g id="node10" class="node"><title>A6</title>
<polygon fill="wheat" stroke="black" points="413,-384 303,-384 303,-348 413,-348 413,-384"/>
<text text-anchor="middle" x="358" y="-362.3" font-family="Times New Roman,serif" font-size="14.00">A6 : Florence R.</text>
</g>
<!-- B5&#45;&gt;A6 -->
<g id="edge15" class="edge"><title>B5&#45;&gt;A6</title>
<path fill="none" stroke="#1f78b4" stroke-width="9.41176" d="M358,-429.748C358,-415.505 358,-397.303 358,-384.175"/>
<polygon fill="#1f78b4" stroke="#1f78b4" stroke-width="9.41176" points="353.882,-429.799 358,-434.799 362.118,-429.799 353.882,-429.799"/>
<text text-anchor="middle" x="365" y="-405.8" font-family="Times New Roman,serif" font-size="14.00">16</text>
</g>
<!-- B7 -->
<g id="node11" class="node"><title>B7</title>
<polygon fill="skyblue" stroke="black" points="447.5,-297 268.5,-297 268.5,-261 447.5,-261 447.5,-297"/>
<text text-anchor="middle" x="358" y="-275.3" font-family="Times New Roman,serif" font-size="14.00">B7 : C&#39;est qui cette dame là ?</text>
</g>
<!-- A6&#45;&gt;B7 -->
<g id="edge16" class="edge"><title>A6&#45;&gt;B7</title>
<path fill="none" stroke="#1f78b4" stroke-width="10" d="M358,-342.748C358,-328.505 358,-310.303 358,-297.175"/>
<polygon fill="#1f78b4" stroke="#1f78b4" stroke-width="10" points="353.625,-342.799 358,-347.799 362.375,-342.799 353.625,-342.799"/>
<text text-anchor="middle" x="365" y="-318.8" font-family="Times New Roman,serif" font-size="14.00">17</text>
</g>
<!-- A8_1 -->
<g id="node12" class="node"><title>A8_1</title>
<polygon fill="wheat" stroke="black" points="362,-210 124,-210 124,-174 362,-174 362,-210"/>
<text text-anchor="middle" x="243" y="-188.3" font-family="Times New Roman,serif" font-size="14.00">A8_1 : Elle était psychiatre 40 rue de N.</text>
<text text-anchor="start" x="116" y="-214.8" font-family="Times New Roman,serif" font-weight="bold" font-style="italic" font-size="14.00" fill="red">4</text>
</g>
<!-- A6&#45;&gt;A8_1 -->
<g id="edge17" class="edge"><title>A6&#45;&gt;A8_1</title>
<path fill="none" stroke="#1f78b4" stroke-width="1.76471" d="M310.002,-345.616C288.958,-334.575 266.108,-318.574 253,-297 236.706,-270.182 237.867,-232.115 240.333,-210.251"/>
<polygon fill="#1f78b4" stroke="#1f78b4" stroke-width="1.76471" points="309.213,-347.178 314.461,-347.898 310.807,-344.062 309.213,-347.178"/>
<text text-anchor="middle" x="256.5" y="-275.3" font-family="Times New Roman,serif" font-size="14.00">3</text>
</g>
<!-- A8_3 -->
<g id="node14" class="node"><title>A8_3</title>
<polygon fill="wheat" stroke="black" points="365,-36 121,-36 121,-0 365,-0 365,-36"/>
<text text-anchor="middle" x="243" y="-14.3" font-family="Times New Roman,serif" font-size="14.00">A8_3 : elle aurait pu me tuer mais enfin...</text>
</g>
<!-- A6&#45;&gt;A8_3 -->
<g id="edge18" class="edge"><title>A6&#45;&gt;A8_3</title>
<path fill="none" stroke="#1f78b4" stroke-width="1.76471" d="M417.884,-346.34C447.087,-333.141 476,-311.994 476,-280 476,-280 476,-280 476,-104 476,-73.2128 403.298,-50.2984 339.115,-36.0678"/>
<polygon fill="#1f78b4" stroke="#1f78b4" stroke-width="1.76471" points="417.078,-344.783 413.2,-348.391 418.482,-347.989 417.078,-344.783"/>
<text text-anchor="middle" x="479.5" y="-188.3" font-family="Times New Roman,serif" font-size="14.00">3</text>
</g>
<!-- B7&#45;&gt;A8_1 -->
<g id="edge19" class="edge"><title>B7&#45;&gt;A8_1</title>
<path fill="none" stroke="#1f78b4" stroke-width="8.23529" d="M330.397,-257.598C310.797,-243.111 284.777,-223.879 266.237,-210.175"/>
<polygon fill="#1f78b4" stroke="#1f78b4" stroke-width="8.23529" points="328.566,-260.724 334.728,-260.799 332.849,-254.93 328.566,-260.724"/>
<text text-anchor="middle" x="314" y="-231.8" font-family="Times New Roman,serif" font-size="14.00">14</text>
</g>
<!-- A8_2 -->
<g id="node13" class="node"><title>A8_2</title>
<polygon fill="wheat" stroke="black" points="448,-123 38,-123 38,-87 448,-87 448,-123"/>
<text text-anchor="middle" x="243" y="-101.3" font-family="Times New Roman,serif" font-size="14.00">A8_2 : j&#39;y allais une fois par semaine ou deux fois tous les quinze jours</text>
</g>
<!-- A8_1&#45;&gt;A8_2 -->
<g id="edge20" class="edge"><title>A8_1&#45;&gt;A8_2</title>
<path fill="none" stroke="#1f78b4" stroke-width="8.23529" d="M243,-168.748C243,-154.505 243,-136.303 243,-123.175"/>
<polygon fill="#1f78b4" stroke="#1f78b4" stroke-width="8.23529" points="239.397,-168.799 243,-173.799 246.603,-168.799 239.397,-168.799"/>
<text text-anchor="middle" x="250" y="-144.8" font-family="Times New Roman,serif" font-size="14.00">14</text>
</g>
<!-- A8_1&#45;&gt;A8_3 -->
<g id="edge21" class="edge"><title>A8_1&#45;&gt;A8_3</title>
<path fill="none" stroke="#1f78b4" stroke-width="1.76471" d="M145.547,-172.866C93.6643,-161.019 37.4218,-143.881 22,-123 -12.3246,-76.5259 52.4893,-50.0617 120.636,-35.4723"/>
<polygon fill="#1f78b4" stroke="#1f78b4" stroke-width="1.76471" points="145.291,-174.602 150.553,-173.996 146.061,-171.188 145.291,-174.602"/>
<text text-anchor="middle" x="25.5" y="-101.3" font-family="Times New Roman,serif" font-size="14.00">3</text>
</g>
<!-- A8_2&#45;&gt;A8_3 -->
<g id="edge22" class="edge"><title>A8_2&#45;&gt;A8_3</title>
<path fill="none" stroke="#1f78b4" stroke-width="4.11765" d="M243,-81.7475C243,-67.5047 243,-49.303 243,-36.1754"/>
<polygon fill="#1f78b4" stroke="#1f78b4" stroke-width="4.11765" points="241.199,-81.7989 243,-86.799 244.802,-81.799 241.199,-81.7989"/>
<text text-anchor="middle" x="246.5" y="-57.8" font-family="Times New Roman,serif" font-size="14.00">7</text>
</g>
</g>
</svg>
