<?xml version="1.0" encoding="UTF-8" standalone="no"?>
<!DOCTYPE svg PUBLIC "-//W3C//DTD SVG 1.1//EN"
 "http://www.w3.org/Graphics/SVG/1.1/DTD/svg11.dtd">
<!-- Generated by graphviz version 2.38.0 (20140413.2041)
 -->
<!-- Title: Nord Pages: 1 -->
<svg width="1041pt" height="1022pt"
 viewBox="0.00 0.00 1041.00 1022.00" xmlns="http://www.w3.org/2000/svg" xmlns:xlink="http://www.w3.org/1999/xlink">
<g id="graph0" class="graph" transform="scale(1 1) rotate(0) translate(4 1018)">
<title>Nord</title>
<polygon fill="white" stroke="none" points="-4,4 -4,-1018 1037,-1018 1037,4 -4,4"/>
<text text-anchor="start" x="35" y="-995" font-family="Times New Roman,serif" font-size="20.00">Nord</text>
<text text-anchor="start" x="8" y="-978.2" font-family="Times New Roman,serif" font-size="16.00">19 annotations </text>
<text text-anchor="start" x="17" y="-962.2" font-family="Times New Roman,serif" font-size="16.00"> seuil = 0.15</text>
<!-- Début -->
<g id="node1" class="node"><title>Début</title>
<polygon fill="lightgrey" stroke="black" points="910.5,-954 815.5,-954 815.5,-918 910.5,-918 910.5,-954"/>
<text text-anchor="middle" x="863" y="-932.3" font-family="Times New Roman,serif" font-size="14.00">Début : Début</text>
</g>
<!-- B20 -->
<g id="node2" class="node"><title>B20</title>
<polygon fill="skyblue" stroke="black" points="748,-852 402,-852 402,-816 748,-816 748,-852"/>
<text text-anchor="middle" x="575" y="-830.3" font-family="Times New Roman,serif" font-size="14.00">B20 : c&#39;était quand même assez stressant euh la / la prépa...</text>
<text text-anchor="start" x="386" y="-856.8" font-family="Times New Roman,serif" font-weight="bold" font-style="italic" font-size="14.00" fill="red">18</text>
</g>
<!-- Début&#45;&gt;B20 -->
<g id="edge1" class="edge"><title>Début&#45;&gt;B20</title>
<path fill="none" stroke="#a6cee3" stroke-width="10" d="M810.714,-916.845C757.607,-898.405 675.995,-870.068 624.075,-852.04"/>
<polygon fill="#a6cee3" stroke="#a6cee3" stroke-width="10" points="809.284,-920.98 815.443,-918.487 812.154,-912.714 809.284,-920.98"/>
<text text-anchor="middle" x="788" y="-888.8" font-family="Times New Roman,serif" font-size="14.00">Narration</text>
<text text-anchor="middle" x="788" y="-873.8" font-family="Times New Roman,serif" font-size="14.00">18</text>
</g>
<!-- B23_3 -->
<g id="node6" class="node"><title>B23_3</title>
<polygon fill="skyblue" stroke="black" points="715.5,-546 510.5,-546 510.5,-510 715.5,-510 715.5,-546"/>
<text text-anchor="middle" x="613" y="-524.3" font-family="Times New Roman,serif" font-size="14.00">B23_3 : je suis revenue à Ville1.. .</text>
<text text-anchor="start" x="502.5" y="-550.8" font-family="Times New Roman,serif" font-weight="bold" font-style="italic" font-size="14.00" fill="red">1</text>
</g>
<!-- Début&#45;&gt;B23_3 -->
<g id="edge2" class="edge"><title>Début&#45;&gt;B23_3</title>
<path fill="none" stroke="#a6cee3" stroke-width="1.66667" d="M913,-915.534C945.172,-899.377 981,-872.88 981,-835 981,-835 981,-835 981,-629 981,-573.718 824.397,-548.007 715.509,-536.811"/>
<polygon fill="#a6cee3" stroke="#a6cee3" stroke-width="1.66667" points="912.005,-914.073 908.284,-917.843 913.545,-917.216 912.005,-914.073"/>
<text text-anchor="middle" x="1007" y="-735.8" font-family="Times New Roman,serif" font-size="14.00">Narration</text>
<text text-anchor="middle" x="1007" y="-720.8" font-family="Times New Roman,serif" font-size="14.00">3</text>
</g>
<!-- A21 -->
<g id="node3" class="node"><title>A21</title>
<polygon fill="wheat" stroke="black" points="677.5,-750 562.5,-750 562.5,-714 677.5,-714 677.5,-750"/>
<text text-anchor="middle" x="620" y="-728.3" font-family="Times New Roman,serif" font-size="14.00">A21 : Mmh mmh.</text>
<text text-anchor="start" x="554.5" y="-754.8" font-family="Times New Roman,serif" font-weight="bold" font-style="italic" font-size="14.00" fill="red">1</text>
</g>
<!-- B20&#45;&gt;A21 -->
<g id="edge21" class="edge"><title>B20&#45;&gt;A21</title>
<path fill="none" stroke="#e31a1c" stroke-width="2.22222" d="M570.775,-810.761C569.368,-797.664 569.536,-781.143 576,-768 579.36,-761.168 584.758,-755.25 590.639,-750.324"/>
<polygon fill="#e31a1c" stroke="#e31a1c" stroke-width="2.22222" points="569.046,-811.038 571.407,-815.78 572.518,-810.6 569.046,-811.038"/>
<text text-anchor="middle" x="602" y="-786.8" font-family="Times New Roman,serif" font-size="14.00">Conduite</text>
<text text-anchor="middle" x="602" y="-771.8" font-family="Times New Roman,serif" font-size="14.00">4</text>
</g>
<!-- B20&#45;&gt;A21 -->
<g id="edge24" class="edge"><title>B20&#45;&gt;A21</title>
<path fill="none" stroke="#fdbf6f" stroke-width="7.77778" d="M615.384,-812.892C620.446,-808.671 624.919,-803.726 628,-798 635.973,-783.181 632.053,-763.772 627.327,-750.032"/>
<polygon fill="#fdbf6f" stroke="#fdbf6f" stroke-width="7.77778" points="613.272,-810.224 611.413,-815.979 617.449,-815.597 613.272,-810.224"/>
<text text-anchor="middle" x="657.5" y="-786.8" font-family="Times New Roman,serif" font-size="14.00">Phatique</text>
<text text-anchor="middle" x="657.5" y="-771.8" font-family="Times New Roman,serif" font-size="14.00">14</text>
</g>
<!-- B23_1 -->
<g id="node4" class="node"><title>B23_1</title>
<polygon fill="skyblue" stroke="black" points="544,-750 8,-750 8,-714 544,-714 544,-750"/>
<text text-anchor="middle" x="276" y="-728.3" font-family="Times New Roman,serif" font-size="14.00">B23_1 : donc euh... donc du coup ouais euh et bon pour euh... en ce qui concerne les études</text>
<text text-anchor="start" x="0" y="-754.8" font-family="Times New Roman,serif" font-weight="bold" font-style="italic" font-size="14.00" fill="red">4</text>
</g>
<!-- B20&#45;&gt;B23_1 -->
<g id="edge3" class="edge"><title>B20&#45;&gt;B23_1</title>
<path fill="none" stroke="#a6cee3" stroke-width="4.44444" d="M539.155,-813.296C531.063,-808.519 522.618,-803.264 515,-798 497.583,-785.964 497.275,-776.757 478,-768 461.555,-760.529 443.691,-754.644 425.618,-750.011"/>
<polygon fill="#a6cee3" stroke="#a6cee3" stroke-width="4.44444" points="538.308,-815.054 543.606,-815.899 540.271,-811.697 538.308,-815.054"/>
<text text-anchor="middle" x="541" y="-786.8" font-family="Times New Roman,serif" font-size="14.00">Narration</text>
<text text-anchor="middle" x="541" y="-771.8" font-family="Times New Roman,serif" font-size="14.00">8</text>
</g>
<!-- B20&#45;&gt;B23_1 -->
<g id="edge10" class="edge"><title>B20&#45;&gt;B23_1</title>
<path fill="none" stroke="#b2df8a" stroke-width="1.66667" d="M396.371,-821.476C338.262,-815.906 286.194,-808.178 277,-798 265.501,-785.27 267.304,-764.742 270.668,-750.164"/>
<polygon fill="#b2df8a" stroke="#b2df8a" stroke-width="1.66667" points="396.505,-823.247 401.647,-821.975 396.834,-819.762 396.505,-823.247"/>
<text text-anchor="middle" x="341.5" y="-786.8" font-family="Times New Roman,serif" font-size="14.00">Elaboration descriptive</text>
<text text-anchor="middle" x="341.5" y="-771.8" font-family="Times New Roman,serif" font-size="14.00">3</text>
</g>
<!-- B20&#45;&gt;B23_1 -->
<g id="edge25" class="edge"><title>B20&#45;&gt;B23_1</title>
<path fill="none" stroke="#fdbf6f" stroke-width="1.66667" d="M454.697,-814.038C444.163,-809.723 434.074,-804.447 425,-798 412.134,-788.859 418.71,-777.357 406,-768 395.836,-760.517 384.175,-754.634 372.102,-750.008"/>
<polygon fill="#fdbf6f" stroke="#fdbf6f" stroke-width="1.66667" points="454.272,-815.751 459.566,-815.953 455.554,-812.494 454.272,-815.751"/>
<text text-anchor="middle" x="449.5" y="-786.8" font-family="Times New Roman,serif" font-size="14.00">Phatique</text>
<text text-anchor="middle" x="449.5" y="-771.8" font-family="Times New Roman,serif" font-size="14.00">3</text>
</g>
<!-- B23_2 -->
<g id="node5" class="node"><title>B23_2</title>
<polygon fill="skyblue" stroke="black" points="953,-648 423,-648 423,-612 953,-612 953,-648"/>
<text text-anchor="middle" x="688" y="-626.3" font-family="Times New Roman,serif" font-size="14.00">B23_2 : donc du coup après j&#39;ai / j&#39;ai arrêté le / le / le / le / l&#39;école d&#39;ingénieur enfin la prépa...</text>
<text text-anchor="start" x="415" y="-652.8" font-family="Times New Roman,serif" font-weight="bold" font-style="italic" font-size="14.00" fill="red">5</text>
</g>
<!-- B20&#45;&gt;B23_2 -->
<g id="edge4" class="edge"><title>B20&#45;&gt;B23_2</title>
<path fill="none" stroke="#a6cee3" stroke-width="2.22222" d="M669.945,-813.15C676.065,-808.993 681.547,-803.998 686,-798 719.359,-753.07 703.556,-680.967 693.757,-648.2"/>
<polygon fill="#a6cee3" stroke="#a6cee3" stroke-width="2.22222" points="668.897,-811.742 665.61,-815.897 670.771,-814.699 668.897,-811.742"/>
<text text-anchor="middle" x="733" y="-735.8" font-family="Times New Roman,serif" font-size="14.00">Narration</text>
<text text-anchor="middle" x="733" y="-720.8" font-family="Times New Roman,serif" font-size="14.00">4</text>
</g>
<!-- B23_1&#45;&gt;B23_2 -->
<g id="edge11" class="edge"><title>B23_1&#45;&gt;B23_2</title>
<path fill="none" stroke="#b2df8a" stroke-width="6.66667" d="M351.306,-712.722C427.336,-694.268 543.83,-665.993 617.933,-648.007"/>
<polygon fill="#b2df8a" stroke="#b2df8a" stroke-width="6.66667" points="350.528,-709.909 346.357,-713.923 351.904,-715.578 350.528,-709.909"/>
<text text-anchor="middle" x="607.5" y="-684.8" font-family="Times New Roman,serif" font-size="14.00">Elaboration descriptive</text>
<text text-anchor="middle" x="607.5" y="-669.8" font-family="Times New Roman,serif" font-size="14.00">12</text>
</g>
<!-- B23_1&#45;&gt;B23_3 -->
<g id="edge12" class="edge"><title>B23_1&#45;&gt;B23_3</title>
<path fill="none" stroke="#b2df8a" stroke-width="1.66667" d="M270.663,-708.716C265.787,-682.428 262.372,-638.907 285,-612 313.921,-577.609 425.432,-554.679 510.481,-541.795"/>
<polygon fill="#b2df8a" stroke="#b2df8a" stroke-width="1.66667" points="268.968,-709.165 271.65,-713.733 272.402,-708.49 268.968,-709.165"/>
<text text-anchor="middle" x="349.5" y="-633.8" font-family="Times New Roman,serif" font-size="14.00">Elaboration descriptive</text>
<text text-anchor="middle" x="349.5" y="-618.8" font-family="Times New Roman,serif" font-size="14.00">3</text>
</g>
<!-- B25 -->
<g id="node8" class="node"><title>B25</title>
<polygon fill="skyblue" stroke="black" points="612,-444 152,-444 152,-408 612,-408 612,-444"/>
<text text-anchor="middle" x="382" y="-422.3" font-family="Times New Roman,serif" font-size="14.00">B25 : j&#39;ai fait euh une / une / une fac de / de maths... je suis allé en fac de maths.</text>
<text text-anchor="start" x="144" y="-448.8" font-family="Times New Roman,serif" font-weight="bold" font-style="italic" font-size="14.00" fill="red">6</text>
</g>
<!-- B23_1&#45;&gt;B25 -->
<g id="edge13" class="edge"><title>B23_1&#45;&gt;B25</title>
<path fill="none" stroke="#b2df8a" stroke-width="1.66667" d="M248.091,-710.481C209.328,-679.336 147.046,-618.029 176,-564 208.866,-502.671 282.629,-464.1 332.368,-444.043"/>
<polygon fill="#b2df8a" stroke="#b2df8a" stroke-width="1.66667" points="247.224,-712.027 252.229,-713.764 249.4,-709.285 247.224,-712.027"/>
<text text-anchor="middle" x="240.5" y="-582.8" font-family="Times New Roman,serif" font-size="14.00">Elaboration descriptive</text>
<text text-anchor="middle" x="240.5" y="-567.8" font-family="Times New Roman,serif" font-size="14.00">3</text>
</g>
<!-- B23_2&#45;&gt;B23_3 -->
<g id="edge5" class="edge"><title>B23_2&#45;&gt;B23_3</title>
<path fill="none" stroke="#a6cee3" stroke-width="3.88889" d="M628.633,-608.941C622.893,-604.831 617.802,-599.903 614,-594 604.894,-579.862 606.05,-560.162 608.606,-546.164"/>
<polygon fill="#a6cee3" stroke="#a6cee3" stroke-width="3.88889" points="628.004,-610.624 633.139,-611.927 629.938,-607.706 628.004,-610.624"/>
<text text-anchor="middle" x="640" y="-582.8" font-family="Times New Roman,serif" font-size="14.00">Narration</text>
<text text-anchor="middle" x="640" y="-567.8" font-family="Times New Roman,serif" font-size="14.00">7</text>
</g>
<!-- B23_2&#45;&gt;B23_3 -->
<g id="edge14" class="edge"><title>B23_2&#45;&gt;B23_3</title>
<path fill="none" stroke="#b2df8a" stroke-width="2.77778" d="M684.241,-606.648C681.112,-593.229 675.568,-576.411 666,-564 660.681,-557.101 653.598,-551.127 646.346,-546.164"/>
<polygon fill="#b2df8a" stroke="#b2df8a" stroke-width="2.77778" points="682.588,-607.282 685.363,-611.794 686.007,-606.536 682.588,-607.282"/>
<text text-anchor="middle" x="745.5" y="-582.8" font-family="Times New Roman,serif" font-size="14.00">Elaboration descriptive</text>
<text text-anchor="middle" x="745.5" y="-567.8" font-family="Times New Roman,serif" font-size="14.00">5</text>
</g>
<!-- A24 -->
<g id="node7" class="node"><title>A24</title>
<polygon fill="wheat" stroke="black" points="745.5,-444 630.5,-444 630.5,-408 745.5,-408 745.5,-444"/>
<text text-anchor="middle" x="688" y="-422.3" font-family="Times New Roman,serif" font-size="14.00">A24 : Mmh mmh.</text>
</g>
<!-- B23_3&#45;&gt;A24 -->
<g id="edge22" class="edge"><title>B23_3&#45;&gt;A24</title>
<path fill="none" stroke="#e31a1c" stroke-width="2.77778" d="M607.779,-504.698C605.92,-491.297 605.961,-474.481 614,-462 618.771,-454.592 625.572,-448.72 633.139,-444.073"/>
<polygon fill="#e31a1c" stroke="#e31a1c" stroke-width="2.77778" points="606.084,-505.177 608.606,-509.836 609.539,-504.621 606.084,-505.177"/>
<text text-anchor="middle" x="640" y="-480.8" font-family="Times New Roman,serif" font-size="14.00">Conduite</text>
<text text-anchor="middle" x="640" y="-465.8" font-family="Times New Roman,serif" font-size="14.00">5</text>
</g>
<!-- B23_3&#45;&gt;A24 -->
<g id="edge26" class="edge"><title>B23_3&#45;&gt;A24</title>
<path fill="none" stroke="#fdbf6f" stroke-width="7.22222" d="M650.731,-506.687C656.403,-502.408 661.762,-497.498 666,-492 676.838,-477.941 682.513,-458.229 685.363,-444.206"/>
<polygon fill="#fdbf6f" stroke="#fdbf6f" stroke-width="7.22222" points="648.564,-504.353 646.346,-509.836 652.25,-509.486 648.564,-504.353"/>
<text text-anchor="middle" x="705.5" y="-480.8" font-family="Times New Roman,serif" font-size="14.00">Phatique</text>
<text text-anchor="middle" x="705.5" y="-465.8" font-family="Times New Roman,serif" font-size="14.00">13</text>
</g>
<!-- B23_3&#45;&gt;B25 -->
<g id="edge6" class="edge"><title>B23_3&#45;&gt;B25</title>
<path fill="none" stroke="#a6cee3" stroke-width="2.22222" d="M575.593,-507.328C567.321,-502.582 558.724,-497.333 551,-492 533.862,-480.166 533.512,-471.544 515,-462 500.781,-454.669 484.895,-448.778 469.188,-444.076"/>
<polygon fill="#a6cee3" stroke="#a6cee3" stroke-width="2.22222" points="574.935,-508.966 580.148,-509.909 576.661,-505.921 574.935,-508.966"/>
<text text-anchor="middle" x="577" y="-480.8" font-family="Times New Roman,serif" font-size="14.00">Narration</text>
<text text-anchor="middle" x="577" y="-465.8" font-family="Times New Roman,serif" font-size="14.00">4</text>
</g>
<!-- B23_3&#45;&gt;B25 -->
<g id="edge15" class="edge"><title>B23_3&#45;&gt;B25</title>
<path fill="none" stroke="#b2df8a" stroke-width="3.88889" d="M505.166,-523.889C453.106,-519.876 398.397,-511.068 382,-492 370.816,-478.994 372.913,-458.518 376.463,-444.027"/>
<polygon fill="#b2df8a" stroke="#b2df8a" stroke-width="3.88889" points="505.078,-525.637 510.194,-524.262 505.338,-522.147 505.078,-525.637"/>
<text text-anchor="middle" x="446.5" y="-480.8" font-family="Times New Roman,serif" font-size="14.00">Elaboration descriptive</text>
<text text-anchor="middle" x="446.5" y="-465.8" font-family="Times New Roman,serif" font-size="14.00">7</text>
</g>
<!-- A26 -->
<g id="node9" class="node"><title>A26</title>
<polygon fill="wheat" stroke="black" points="240,-342 154,-342 154,-306 240,-306 240,-342"/>
<text text-anchor="middle" x="197" y="-320.3" font-family="Times New Roman,serif" font-size="14.00">A26 : Ouais.</text>
</g>
<!-- B25&#45;&gt;A26 -->
<g id="edge23" class="edge"><title>B25&#45;&gt;A26</title>
<path fill="none" stroke="#e31a1c" stroke-width="3.88889" d="M345.129,-405.55C335.626,-400.509 325.422,-395.071 316,-390 286.15,-373.934 252.229,-355.376 228.262,-342.213"/>
<polygon fill="#e31a1c" stroke="#e31a1c" stroke-width="3.88889" points="344.494,-407.194 349.731,-407.99 346.133,-404.102 344.494,-407.194"/>
<text text-anchor="middle" x="342" y="-378.8" font-family="Times New Roman,serif" font-size="14.00">Conduite</text>
<text text-anchor="middle" x="342" y="-363.8" font-family="Times New Roman,serif" font-size="14.00">7</text>
</g>
<!-- B25&#45;&gt;A26 -->
<g id="edge27" class="edge"><title>B25&#45;&gt;A26</title>
<path fill="none" stroke="#fdbf6f" stroke-width="6.11111" d="M247.797,-406.566C231.183,-402.082 217.685,-396.617 211,-390 198.448,-377.576 195.898,-356.785 195.879,-342.066"/>
<polygon fill="#fdbf6f" stroke="#fdbf6f" stroke-width="6.11111" points="247.538,-409.261 253.049,-407.927 248.879,-404.085 247.538,-409.261"/>
<text text-anchor="middle" x="235.5" y="-378.8" font-family="Times New Roman,serif" font-size="14.00">Phatique</text>
<text text-anchor="middle" x="235.5" y="-363.8" font-family="Times New Roman,serif" font-size="14.00">11</text>
</g>
<!-- B27_1 -->
<g id="node10" class="node"><title>B27_1</title>
<polygon fill="skyblue" stroke="black" points="809.5,-342 258.5,-342 258.5,-306 809.5,-306 809.5,-342"/>
<text text-anchor="middle" x="534" y="-320.3" font-family="Times New Roman,serif" font-size="14.00">B27_1 : Euhh et là pareil je / j&#39;étais pas j&#39;avais un / un appart en colocation euh avec deux amis...</text>
<text text-anchor="start" x="242.5" y="-346.8" font-family="Times New Roman,serif" font-weight="bold" font-style="italic" font-size="14.00" fill="red">10</text>
</g>
<!-- B25&#45;&gt;B27_1 -->
<g id="edge7" class="edge"><title>B25&#45;&gt;B27_1</title>
<path fill="none" stroke="#a6cee3" stroke-width="2.77778" d="M489.393,-405.713C497.623,-401.45 505.313,-396.276 512,-390 525.291,-377.526 530.553,-356.745 532.636,-342.042"/>
<polygon fill="#a6cee3" stroke="#a6cee3" stroke-width="2.77778" points="488.482,-404.211 484.769,-407.989 490.028,-407.351 488.482,-404.211"/>
<text text-anchor="middle" x="555" y="-378.8" font-family="Times New Roman,serif" font-size="14.00">Narration</text>
<text text-anchor="middle" x="555" y="-363.8" font-family="Times New Roman,serif" font-size="14.00">5</text>
</g>
<!-- B25&#45;&gt;B27_1 -->
<g id="edge16" class="edge"><title>B25&#45;&gt;B27_1</title>
<path fill="none" stroke="#b2df8a" stroke-width="4.44444" d="M374.202,-402.989C370.822,-389.204 369.514,-371.867 379,-360 384.857,-352.673 398.538,-346.77 415.474,-342.05"/>
<polygon fill="#b2df8a" stroke="#b2df8a" stroke-width="4.44444" points="372.345,-403.569 375.525,-407.89 376.099,-402.556 372.345,-403.569"/>
<text text-anchor="middle" x="443.5" y="-378.8" font-family="Times New Roman,serif" font-size="14.00">Elaboration descriptive</text>
<text text-anchor="middle" x="443.5" y="-363.8" font-family="Times New Roman,serif" font-size="14.00">8</text>
</g>
<!-- B27_2 -->
<g id="node11" class="node"><title>B27_2</title>
<polygon fill="skyblue" stroke="black" points="835.5,-240 536.5,-240 536.5,-204 835.5,-204 835.5,-240"/>
<text text-anchor="middle" x="686" y="-218.3" font-family="Times New Roman,serif" font-size="14.00">B27_2 : euh et / et donc euh j&#39;ai / j&#39;ai échoué en fait</text>
<text text-anchor="start" x="528.5" y="-244.8" font-family="Times New Roman,serif" font-weight="bold" font-style="italic" font-size="14.00" fill="red">3</text>
</g>
<!-- B25&#45;&gt;B27_2 -->
<g id="edge17" class="edge"><title>B25&#45;&gt;B27_2</title>
<path fill="none" stroke="#b2df8a" stroke-width="3.88889" d="M616.232,-407.314C704.817,-395.299 790.887,-375.268 818,-342 851.332,-301.101 781.239,-261.745 731.017,-240.119"/>
<polygon fill="#b2df8a" stroke="#b2df8a" stroke-width="3.88889" points="615.929,-405.589 611.205,-407.987 616.393,-409.058 615.929,-405.589"/>
<text text-anchor="middle" x="891.5" y="-327.8" font-family="Times New Roman,serif" font-size="14.00">Elaboration descriptive</text>
<text text-anchor="middle" x="891.5" y="-312.8" font-family="Times New Roman,serif" font-size="14.00">7</text>
</g>
<!-- B27_1&#45;&gt;B27_2 -->
<g id="edge8" class="edge"><title>B27_1&#45;&gt;B27_2</title>
<path fill="none" stroke="#a6cee3" stroke-width="2.22222" d="M641.393,-303.713C649.623,-299.45 657.313,-294.276 664,-288 677.291,-275.526 682.553,-254.745 684.636,-240.042"/>
<polygon fill="#a6cee3" stroke="#a6cee3" stroke-width="2.22222" points="640.482,-302.211 636.769,-305.989 642.028,-305.351 640.482,-302.211"/>
<text text-anchor="middle" x="707" y="-276.8" font-family="Times New Roman,serif" font-size="14.00">Narration</text>
<text text-anchor="middle" x="707" y="-261.8" font-family="Times New Roman,serif" font-size="14.00">4</text>
</g>
<!-- B27_1&#45;&gt;B27_2 -->
<g id="edge18" class="edge"><title>B27_1&#45;&gt;B27_2</title>
<path fill="none" stroke="#b2df8a" stroke-width="2.77778" d="M526.202,-300.989C522.822,-287.204 521.514,-269.867 531,-258 536.857,-250.673 550.538,-244.77 567.474,-240.05"/>
<polygon fill="#b2df8a" stroke="#b2df8a" stroke-width="2.77778" points="524.532,-301.519 527.525,-305.89 527.911,-300.607 524.532,-301.519"/>
<text text-anchor="middle" x="595.5" y="-276.8" font-family="Times New Roman,serif" font-size="14.00">Elaboration descriptive</text>
<text text-anchor="middle" x="595.5" y="-261.8" font-family="Times New Roman,serif" font-size="14.00">5</text>
</g>
<!-- B27_3 -->
<g id="node12" class="node"><title>B27_3</title>
<polygon fill="skyblue" stroke="black" points="867,-138 505,-138 505,-102 867,-102 867,-138"/>
<text text-anchor="middle" x="686" y="-116.3" font-family="Times New Roman,serif" font-size="14.00">B27_3 : euh... j&#39;ai pas tout échoué j&#39;ai validé certaines matières</text>
<text text-anchor="start" x="497" y="-142.8" font-family="Times New Roman,serif" font-weight="bold" font-style="italic" font-size="14.00" fill="red">1</text>
</g>
<!-- B27_2&#45;&gt;B27_3 -->
<g id="edge19" class="edge"><title>B27_2&#45;&gt;B27_3</title>
<path fill="none" stroke="#b2df8a" stroke-width="8.33333" d="M686,-198.163C686,-179.932 686,-154.784 686,-138.219"/>
<polygon fill="#b2df8a" stroke="#b2df8a" stroke-width="8.33333" points="682.354,-198.581 686,-203.581 689.646,-198.581 682.354,-198.581"/>
<text text-anchor="middle" x="750.5" y="-174.8" font-family="Times New Roman,serif" font-size="14.00">Elaboration descriptive</text>
<text text-anchor="middle" x="750.5" y="-159.8" font-family="Times New Roman,serif" font-size="14.00">15</text>
</g>
<!-- B27_4 -->
<g id="node13" class="node"><title>B27_4</title>
<polygon fill="skyblue" stroke="black" points="809,-36 563,-36 563,-0 809,-0 809,-36"/>
<text text-anchor="middle" x="686" y="-14.3" font-family="Times New Roman,serif" font-size="14.00">B27_4 : mais euh... j&#39;étais pas en forme...</text>
<text text-anchor="start" x="555" y="-40.8" font-family="Times New Roman,serif" font-weight="bold" font-style="italic" font-size="14.00" fill="red">1</text>
</g>
<!-- B27_3&#45;&gt;B27_4 -->
<g id="edge9" class="edge"><title>B27_3&#45;&gt;B27_4</title>
<path fill="none" stroke="#a6cee3" stroke-width="2.22222" d="M659.344,-98.203C655.539,-93.9425 652.182,-89.1641 650,-84 644.811,-71.7178 644.811,-66.2822 650,-54 652.85,-47.255 657.705,-41.1682 662.943,-36.0337"/>
<polygon fill="#a6cee3" stroke="#a6cee3" stroke-width="2.22222" points="658.223,-99.5624 662.943,-101.966 660.752,-97.1433 658.223,-99.5624"/>
<text text-anchor="middle" x="676" y="-72.8" font-family="Times New Roman,serif" font-size="14.00">Narration</text>
<text text-anchor="middle" x="676" y="-57.8" font-family="Times New Roman,serif" font-size="14.00">4</text>
</g>
<!-- B27_3&#45;&gt;B27_4 -->
<g id="edge20" class="edge"><title>B27_3&#45;&gt;B27_4</title>
<path fill="none" stroke="#b2df8a" stroke-width="4.44444" d="M697.798,-96.9234C699.538,-92.7387 701.06,-88.3168 702,-84 704.837,-70.9719 704.837,-67.0281 702,-54 700.692,-47.994 698.258,-41.7846 695.676,-36.2936"/>
<polygon fill="#b2df8a" stroke="#b2df8a" stroke-width="4.44444" points="695.926,-96.3475 695.676,-101.706 699.481,-97.9245 695.926,-96.3475"/>
<text text-anchor="middle" x="769.5" y="-72.8" font-family="Times New Roman,serif" font-size="14.00">Elaboration descriptive</text>
<text text-anchor="middle" x="769.5" y="-57.8" font-family="Times New Roman,serif" font-size="14.00">8</text>
</g>
</g>
</svg>
