<?xml version="1.0" encoding="UTF-8" standalone="no"?>
<!DOCTYPE svg PUBLIC "-//W3C//DTD SVG 1.1//EN"
 "http://www.w3.org/Graphics/SVG/1.1/DTD/svg11.dtd">
<!-- Generated by graphviz version 2.38.0 (20140413.2041)
 -->
<!-- Title: Nord Pages: 1 -->
<svg width="976pt" height="887pt"
 viewBox="0.00 0.00 975.50 887.00" xmlns="http://www.w3.org/2000/svg" xmlns:xlink="http://www.w3.org/1999/xlink">
<g id="graph0" class="graph" transform="scale(1 1) rotate(0) translate(4 883)">
<title>Nord</title>
<polygon fill="white" stroke="none" points="-4,4 -4,-883 971.5,-883 971.5,4 -4,4"/>
<text text-anchor="start" x="35" y="-860" font-family="Times New Roman,serif" font-size="20.00">Nord</text>
<text text-anchor="start" x="8" y="-843.2" font-family="Times New Roman,serif" font-size="16.00">19 annotations </text>
<text text-anchor="start" x="17" y="-827.2" font-family="Times New Roman,serif" font-size="16.00"> seuil = 0.15</text>
<!-- Début -->
<g id="node1" class="node"><title>Début</title>
<polygon fill="lightgrey" stroke="black" points="778.5,-819 683.5,-819 683.5,-783 778.5,-783 778.5,-819"/>
<text text-anchor="middle" x="731" y="-797.3" font-family="Times New Roman,serif" font-size="14.00">Début : Début</text>
</g>
<!-- B20 -->
<g id="node2" class="node"><title>B20</title>
<polygon fill="skyblue" stroke="black" points="761,-732 415,-732 415,-696 761,-696 761,-732"/>
<text text-anchor="middle" x="588" y="-710.3" font-family="Times New Roman,serif" font-size="14.00">B20 : c&#39;était quand même assez stressant euh la / la prépa...</text>
<text text-anchor="start" x="399" y="-736.8" font-family="Times New Roman,serif" font-weight="bold" font-style="italic" font-size="14.00" fill="red">18</text>
</g>
<!-- Début&#45;&gt;B20 -->
<g id="edge1" class="edge"><title>Début&#45;&gt;B20</title>
<path fill="none" stroke="#1f78b4" stroke-width="10" d="M697.594,-780.143C673.122,-765.597 640.24,-746.052 616.895,-732.175"/>
<polygon fill="#1f78b4" stroke="#1f78b4" stroke-width="10" points="695.528,-784.005 702.062,-782.799 699.999,-776.483 695.528,-784.005"/>
<text text-anchor="middle" x="676" y="-753.8" font-family="Times New Roman,serif" font-size="14.00">19</text>
</g>
<!-- B23_3 -->
<g id="node6" class="node"><title>B23_3</title>
<polygon fill="skyblue" stroke="black" points="791.5,-471 586.5,-471 586.5,-435 791.5,-435 791.5,-471"/>
<text text-anchor="middle" x="689" y="-449.3" font-family="Times New Roman,serif" font-size="14.00">B23_3 : je suis revenue à Ville1.. .</text>
<text text-anchor="start" x="578.5" y="-475.8" font-family="Times New Roman,serif" font-weight="bold" font-style="italic" font-size="14.00" fill="red">1</text>
</g>
<!-- Début&#45;&gt;B23_3 -->
<g id="edge2" class="edge"><title>Début&#45;&gt;B23_3</title>
<path fill="none" stroke="#1f78b4" stroke-width="1.57895" d="M755.892,-778.907C771.623,-763.129 789,-740.033 789,-715 789,-715 789,-715 789,-539 789,-507.214 759.306,-484.83 732.28,-471.04"/>
<polygon fill="#1f78b4" stroke="#1f78b4" stroke-width="1.57895" points="754.3,-778.015 751.939,-782.758 756.742,-780.522 754.3,-778.015"/>
<text text-anchor="middle" x="792.5" y="-623.3" font-family="Times New Roman,serif" font-size="14.00">3</text>
</g>
<!-- A21 -->
<g id="node3" class="node"><title>A21</title>
<polygon fill="wheat" stroke="black" points="677.5,-645 562.5,-645 562.5,-609 677.5,-609 677.5,-645"/>
<text text-anchor="middle" x="620" y="-623.3" font-family="Times New Roman,serif" font-size="14.00">A21 : Mmh mmh.</text>
<text text-anchor="start" x="554.5" y="-649.8" font-family="Times New Roman,serif" font-weight="bold" font-style="italic" font-size="14.00" fill="red">1</text>
</g>
<!-- B20&#45;&gt;A21 -->
<g id="edge3" class="edge"><title>B20&#45;&gt;A21</title>
<path fill="none" stroke="#1f78b4" stroke-width="10" d="M596.377,-690.748C601.739,-676.505 608.592,-658.303 613.534,-645.175"/>
<polygon fill="#1f78b4" stroke="#1f78b4" stroke-width="10" points="592.143,-689.578 594.476,-695.799 600.332,-692.661 592.143,-689.578"/>
<text text-anchor="middle" x="613" y="-666.8" font-family="Times New Roman,serif" font-size="14.00">19</text>
</g>
<!-- B23_1 -->
<g id="node4" class="node"><title>B23_1</title>
<polygon fill="skyblue" stroke="black" points="544,-645 8,-645 8,-609 544,-609 544,-645"/>
<text text-anchor="middle" x="276" y="-623.3" font-family="Times New Roman,serif" font-size="14.00">B23_1 : donc euh... donc du coup ouais euh et bon pour euh... en ce qui concerne les études</text>
<text text-anchor="start" x="0" y="-649.8" font-family="Times New Roman,serif" font-weight="bold" font-style="italic" font-size="14.00" fill="red">4</text>
</g>
<!-- B20&#45;&gt;B23_1 -->
<g id="edge4" class="edge"><title>B20&#45;&gt;B23_1</title>
<path fill="none" stroke="#1f78b4" stroke-width="7.89474" d="M520.407,-694.585C466.41,-679.875 391.318,-659.417 338.662,-645.071"/>
<polygon fill="#1f78b4" stroke="#1f78b4" stroke-width="7.89474" points="519.505,-697.919 525.237,-695.901 521.321,-691.254 519.505,-697.919"/>
<text text-anchor="middle" x="458" y="-666.8" font-family="Times New Roman,serif" font-size="14.00">15</text>
</g>
<!-- B23_2 -->
<g id="node5" class="node"><title>B23_2</title>
<polygon fill="skyblue" stroke="black" points="653,-558 123,-558 123,-522 653,-522 653,-558"/>
<text text-anchor="middle" x="388" y="-536.3" font-family="Times New Roman,serif" font-size="14.00">B23_2 : donc du coup après j&#39;ai / j&#39;ai arrêté le / le / le / le / l&#39;école d&#39;ingénieur enfin la prépa...</text>
<text text-anchor="start" x="115" y="-562.8" font-family="Times New Roman,serif" font-weight="bold" font-style="italic" font-size="14.00" fill="red">5</text>
</g>
<!-- B20&#45;&gt;B23_2 -->
<g id="edge5" class="edge"><title>B20&#45;&gt;B23_2</title>
<path fill="none" stroke="#1f78b4" stroke-width="3.15789" d="M628.789,-693.549C665.747,-673.293 710.898,-640.219 686,-609 666.727,-584.833 603.28,-568.58 539.857,-558.042"/>
<polygon fill="#1f78b4" stroke="#1f78b4" stroke-width="3.15789" points="627.898,-692.041 624.328,-695.954 629.559,-695.121 627.898,-692.041"/>
<text text-anchor="middle" x="697.5" y="-623.3" font-family="Times New Roman,serif" font-size="14.00">6</text>
</g>
<!-- B23_1&#45;&gt;B23_2 -->
<g id="edge6" class="edge"><title>B23_1&#45;&gt;B23_2</title>
<path fill="none" stroke="#1f78b4" stroke-width="6.84211" d="M302.883,-605.598C321.971,-591.111 347.313,-571.879 365.369,-558.175"/>
<polygon fill="#1f78b4" stroke="#1f78b4" stroke-width="6.84211" points="300.838,-603.392 298.665,-608.799 304.457,-608.161 300.838,-603.392"/>
<text text-anchor="middle" x="346" y="-579.8" font-family="Times New Roman,serif" font-size="14.00">13</text>
</g>
<!-- B23_1&#45;&gt;B23_3 -->
<g id="edge7" class="edge"><title>B23_1&#45;&gt;B23_3</title>
<path fill="none" stroke="#1f78b4" stroke-width="1.57895" d="M492.851,-608.26C565.966,-598.06 635.728,-582.259 662,-558 686.258,-535.601 689.879,-494.459 689.804,-471.2"/>
<polygon fill="#1f78b4" stroke="#1f78b4" stroke-width="1.57895" points="492.297,-606.57 487.582,-608.985 492.774,-610.037 492.297,-606.57"/>
<text text-anchor="middle" x="686.5" y="-536.3" font-family="Times New Roman,serif" font-size="14.00">3</text>
</g>
<!-- B25 -->
<g id="node8" class="node"><title>B25</title>
<polygon fill="skyblue" stroke="black" points="614,-384 154,-384 154,-348 614,-348 614,-384"/>
<text text-anchor="middle" x="384" y="-362.3" font-family="Times New Roman,serif" font-size="14.00">B25 : j&#39;ai fait euh une / une / une fac de / de maths... je suis allé en fac de maths.</text>
<text text-anchor="start" x="146" y="-388.8" font-family="Times New Roman,serif" font-weight="bold" font-style="italic" font-size="14.00" fill="red">6</text>
</g>
<!-- B23_1&#45;&gt;B25 -->
<g id="edge8" class="edge"><title>B23_1&#45;&gt;B25</title>
<path fill="none" stroke="#1f78b4" stroke-width="1.57895" d="M195.583,-607.403C143.688,-591.109 89.9897,-563.469 114,-522 157.603,-446.692 253.153,-404.801 318.064,-384.081"/>
<polygon fill="#1f78b4" stroke="#1f78b4" stroke-width="1.57895" points="195.303,-609.148 200.596,-608.944 196.331,-605.802 195.303,-609.148"/>
<text text-anchor="middle" x="140.5" y="-492.8" font-family="Times New Roman,serif" font-size="14.00">3</text>
</g>
<!-- B23_2&#45;&gt;B23_3 -->
<g id="edge9" class="edge"><title>B23_2&#45;&gt;B23_3</title>
<path fill="none" stroke="#1f78b4" stroke-width="6.84211" d="M453.524,-520.496C505.594,-505.792 577.85,-485.388 628.547,-471.071"/>
<polygon fill="#1f78b4" stroke="#1f78b4" stroke-width="6.84211" points="452.548,-517.662 448.55,-521.901 454.175,-523.423 452.548,-517.662"/>
<text text-anchor="middle" x="564" y="-492.8" font-family="Times New Roman,serif" font-size="14.00">13</text>
</g>
<!-- B23_2&#45;&gt;B25 -->
<g id="edge10" class="edge"><title>B23_2&#45;&gt;B25</title>
<path fill="none" stroke="#1f78b4" stroke-width="1.57895" d="M387.478,-516.565C386.668,-481.704 385.123,-415.294 384.397,-384.052"/>
<polygon fill="#1f78b4" stroke="#1f78b4" stroke-width="1.57895" points="385.736,-516.921 387.602,-521.879 389.235,-516.84 385.736,-516.921"/>
<text text-anchor="middle" x="390.5" y="-449.3" font-family="Times New Roman,serif" font-size="14.00">3</text>
</g>
<!-- A24 -->
<g id="node7" class="node"><title>A24</title>
<polygon fill="wheat" stroke="black" points="747.5,-384 632.5,-384 632.5,-348 747.5,-348 747.5,-384"/>
<text text-anchor="middle" x="690" y="-362.3" font-family="Times New Roman,serif" font-size="14.00">A24 : Mmh mmh.</text>
</g>
<!-- B23_3&#45;&gt;A24 -->
<g id="edge11" class="edge"><title>B23_3&#45;&gt;A24</title>
<path fill="none" stroke="#1f78b4" stroke-width="10" d="M689.262,-429.748C689.429,-415.505 689.643,-397.303 689.798,-384.175"/>
<polygon fill="#1f78b4" stroke="#1f78b4" stroke-width="10" points="684.887,-429.748 689.202,-434.799 693.636,-429.851 684.887,-429.748"/>
<text text-anchor="middle" x="697" y="-405.8" font-family="Times New Roman,serif" font-size="14.00">19</text>
</g>
<!-- B23_3&#45;&gt;B25 -->
<g id="edge12" class="edge"><title>B23_3&#45;&gt;B25</title>
<path fill="none" stroke="#1f78b4" stroke-width="5.78947" d="M622.605,-433.496C569.843,-418.792 496.627,-398.388 445.256,-384.071"/>
<polygon fill="#1f78b4" stroke="#1f78b4" stroke-width="5.78947" points="622.149,-435.999 627.646,-434.901 623.509,-431.119 622.149,-435.999"/>
<text text-anchor="middle" x="562" y="-405.8" font-family="Times New Roman,serif" font-size="14.00">11</text>
</g>
<!-- A26 -->
<g id="node9" class="node"><title>A26</title>
<polygon fill="wheat" stroke="black" points="348,-297 262,-297 262,-261 348,-261 348,-297"/>
<text text-anchor="middle" x="305" y="-275.3" font-family="Times New Roman,serif" font-size="14.00">A26 : Ouais.</text>
</g>
<!-- B25&#45;&gt;A26 -->
<g id="edge13" class="edge"><title>B25&#45;&gt;A26</title>
<path fill="none" stroke="#1f78b4" stroke-width="10" d="M364.356,-343.864C350.975,-329.466 333.485,-310.648 320.963,-297.175"/>
<polygon fill="#1f78b4" stroke="#1f78b4" stroke-width="10" points="361.405,-347.115 368.013,-347.799 367.814,-341.158 361.405,-347.115"/>
<text text-anchor="middle" x="357" y="-318.8" font-family="Times New Roman,serif" font-size="14.00">19</text>
</g>
<!-- B27_1 -->
<g id="node10" class="node"><title>B27_1</title>
<polygon fill="skyblue" stroke="black" points="967.5,-297 416.5,-297 416.5,-261 967.5,-261 967.5,-297"/>
<text text-anchor="middle" x="692" y="-275.3" font-family="Times New Roman,serif" font-size="14.00">B27_1 : Euhh et là pareil je / j&#39;étais pas j&#39;avais un / un appart en colocation euh avec deux amis...</text>
<text text-anchor="start" x="400.5" y="-301.8" font-family="Times New Roman,serif" font-weight="bold" font-style="italic" font-size="14.00" fill="red">10</text>
</g>
<!-- B25&#45;&gt;B27_1 -->
<g id="edge14" class="edge"><title>B25&#45;&gt;B27_1</title>
<path fill="none" stroke="#1f78b4" stroke-width="6.84211" d="M451.048,-346.496C504.329,-331.792 578.265,-311.388 630.141,-297.071"/>
<polygon fill="#1f78b4" stroke="#1f78b4" stroke-width="6.84211" points="449.981,-343.685 445.958,-347.901 451.574,-349.457 449.981,-343.685"/>
<text text-anchor="middle" x="564" y="-318.8" font-family="Times New Roman,serif" font-size="14.00">13</text>
</g>
<!-- B27_2 -->
<g id="node11" class="node"><title>B27_2</title>
<polygon fill="skyblue" stroke="black" points="618.5,-210 319.5,-210 319.5,-174 618.5,-174 618.5,-210"/>
<text text-anchor="middle" x="469" y="-188.3" font-family="Times New Roman,serif" font-size="14.00">B27_2 : euh et / et donc euh j&#39;ai / j&#39;ai échoué en fait</text>
<text text-anchor="start" x="311.5" y="-214.8" font-family="Times New Roman,serif" font-weight="bold" font-style="italic" font-size="14.00" fill="red">3</text>
</g>
<!-- B25&#45;&gt;B27_2 -->
<g id="edge15" class="edge"><title>B25&#45;&gt;B27_2</title>
<path fill="none" stroke="#1f78b4" stroke-width="5.26316" d="M381.354,-342.719C379.762,-320.75 380.095,-286.812 393,-261 403.609,-239.78 423.935,-222.143 440.898,-210.153"/>
<polygon fill="#1f78b4" stroke="#1f78b4" stroke-width="5.26316" points="379.064,-342.968 381.769,-347.762 383.654,-342.59 379.064,-342.968"/>
<text text-anchor="middle" x="400" y="-275.3" font-family="Times New Roman,serif" font-size="14.00">10</text>
</g>
<!-- B27_1&#45;&gt;B27_2 -->
<g id="edge16" class="edge"><title>B27_1&#45;&gt;B27_2</title>
<path fill="none" stroke="#1f78b4" stroke-width="4.73684" d="M642.049,-258.96C603.586,-244.3 550.893,-224.215 513.787,-210.071"/>
<polygon fill="#1f78b4" stroke="#1f78b4" stroke-width="4.73684" points="641.731,-261.057 647.141,-260.901 643.207,-257.184 641.731,-261.057"/>
<text text-anchor="middle" x="597.5" y="-231.8" font-family="Times New Roman,serif" font-size="14.00">9</text>
</g>
<!-- B27_3 -->
<g id="node12" class="node"><title>B27_3</title>
<polygon fill="skyblue" stroke="black" points="840,-123 478,-123 478,-87 840,-87 840,-123"/>
<text text-anchor="middle" x="659" y="-101.3" font-family="Times New Roman,serif" font-size="14.00">B27_3 : euh... j&#39;ai pas tout échoué j&#39;ai validé certaines matières</text>
<text text-anchor="start" x="470" y="-127.8" font-family="Times New Roman,serif" font-weight="bold" font-style="italic" font-size="14.00" fill="red">1</text>
</g>
<!-- B27_2&#45;&gt;B27_3 -->
<g id="edge17" class="edge"><title>B27_2&#45;&gt;B27_3</title>
<path fill="none" stroke="#1f78b4" stroke-width="9.47368" d="M512.192,-171.677C544.938,-157.028 589.516,-137.085 620.933,-123.03"/>
<polygon fill="#1f78b4" stroke="#1f78b4" stroke-width="9.47368" points="510.321,-167.974 507.449,-173.799 513.706,-175.54 510.321,-167.974"/>
<text text-anchor="middle" x="583" y="-144.8" font-family="Times New Roman,serif" font-size="14.00">18</text>
</g>
<!-- B27_4 -->
<g id="node13" class="node"><title>B27_4</title>
<polygon fill="skyblue" stroke="black" points="635,-36 389,-36 389,-0 635,-0 635,-36"/>
<text text-anchor="middle" x="512" y="-14.3" font-family="Times New Roman,serif" font-size="14.00">B27_4 : mais euh... j&#39;étais pas en forme...</text>
<text text-anchor="start" x="381" y="-40.8" font-family="Times New Roman,serif" font-weight="bold" font-style="italic" font-size="14.00" fill="red">1</text>
</g>
<!-- B27_2&#45;&gt;B27_4 -->
<g id="edge18" class="edge"><title>B27_2&#45;&gt;B27_4</title>
<path fill="none" stroke="#1f78b4" stroke-width="1.57895" d="M462.818,-169.016C457.861,-147.546 453.07,-114.221 462,-87 468.395,-67.5074 482.749,-48.9979 494.444,-36.226"/>
<polygon fill="#1f78b4" stroke="#1f78b4" stroke-width="1.57895" points="461.133,-169.492 464.007,-173.942 464.535,-168.671 461.133,-169.492"/>
<text text-anchor="middle" x="465.5" y="-101.3" font-family="Times New Roman,serif" font-size="14.00">3</text>
</g>
<!-- B27_3&#45;&gt;B27_4 -->
<g id="edge19" class="edge"><title>B27_3&#45;&gt;B27_4</title>
<path fill="none" stroke="#1f78b4" stroke-width="7.36842" d="M624.66,-84.1435C599.503,-69.5969 565.701,-50.0515 541.703,-36.1754"/>
<polygon fill="#1f78b4" stroke="#1f78b4" stroke-width="7.36842" points="623.31,-87.0868 629.252,-86.799 626.538,-81.5053 623.31,-87.0868"/>
<text text-anchor="middle" x="602" y="-57.8" font-family="Times New Roman,serif" font-size="14.00">14</text>
</g>
</g>
</svg>
