<?xml version="1.0" encoding="UTF-8" standalone="no"?>
<!DOCTYPE svg PUBLIC "-//W3C//DTD SVG 1.1//EN"
 "http://www.w3.org/Graphics/SVG/1.1/DTD/svg11.dtd">
<!-- Generated by graphviz version 2.38.0 (20140413.2041)
 -->
<!-- Title: Provocation Pages: 1 -->
<svg width="923pt" height="1940pt"
 viewBox="0.00 0.00 922.50 1940.00" xmlns="http://www.w3.org/2000/svg" xmlns:xlink="http://www.w3.org/1999/xlink">
<g id="graph0" class="graph" transform="scale(1 1) rotate(0) translate(4 1936)">
<title>Provocation</title>
<polygon fill="white" stroke="none" points="-4,4 -4,-1936 918.5,-1936 918.5,4 -4,4"/>
<text text-anchor="start" x="8" y="-1913" font-family="Times New Roman,serif" font-size="20.00">Provocation</text>
<text text-anchor="start" x="9" y="-1896.2" font-family="Times New Roman,serif" font-size="16.00">21 annotations </text>
<text text-anchor="start" x="18" y="-1880.2" font-family="Times New Roman,serif" font-size="16.00"> seuil = 0.15</text>
<!-- Début -->
<g id="node1" class="node"><title>Début</title>
<polygon fill="lightgrey" stroke="black" points="329,-1872 234,-1872 234,-1836 329,-1836 329,-1872"/>
<text text-anchor="middle" x="281.5" y="-1850.3" font-family="Times New Roman,serif" font-size="14.00">Début : Début</text>
</g>
<!-- A150_1 -->
<g id="node2" class="node"><title>A150_1</title>
<polygon fill="wheat" stroke="black" points="487.5,-1770 75.5,-1770 75.5,-1734 487.5,-1734 487.5,-1770"/>
<text text-anchor="middle" x="281.5" y="-1748.3" font-family="Times New Roman,serif" font-size="14.00">A150_1 : Alors finalement bon j’ai vécu l’apocalypse à cette époque&#45;là</text>
<text text-anchor="start" x="59.5" y="-1774.8" font-family="Times New Roman,serif" font-weight="bold" font-style="italic" font-size="14.00" fill="red">19</text>
</g>
<!-- Début&#45;&gt;A150_1 -->
<g id="edge1" class="edge"><title>Début&#45;&gt;A150_1</title>
<path fill="none" stroke="#a6cee3" stroke-width="9.5" d="M281.5,-1830.16C281.5,-1811.93 281.5,-1786.78 281.5,-1770.22"/>
<polygon fill="#a6cee3" stroke="#a6cee3" stroke-width="9.5" points="277.344,-1830.58 281.5,-1835.58 285.656,-1830.58 277.344,-1830.58"/>
<text text-anchor="middle" x="307.5" y="-1806.8" font-family="Times New Roman,serif" font-size="14.00">Narration</text>
<text text-anchor="middle" x="307.5" y="-1791.8" font-family="Times New Roman,serif" font-size="14.00">19</text>
</g>
<!-- A150_2 -->
<g id="node3" class="node"><title>A150_2</title>
<polygon fill="wheat" stroke="black" points="413,-1668 0,-1668 0,-1632 413,-1632 413,-1668"/>
<text text-anchor="middle" x="206.5" y="-1646.3" font-family="Times New Roman,serif" font-size="14.00">A150_2 : parce que à f… au fur et à mesure que je remontais la pente...</text>
</g>
<!-- A150_1&#45;&gt;A150_2 -->
<g id="edge2" class="edge"><title>A150_1&#45;&gt;A150_2</title>
<path fill="none" stroke="#a6cee3" stroke-width="3.5" d="M222.133,-1730.94C216.393,-1726.83 211.302,-1721.9 207.5,-1716 198.394,-1701.86 199.55,-1682.16 202.106,-1668.16"/>
<polygon fill="#a6cee3" stroke="#a6cee3" stroke-width="3.5" points="221.504,-1732.62 226.639,-1733.93 223.438,-1729.71 221.504,-1732.62"/>
<text text-anchor="middle" x="233.5" y="-1704.8" font-family="Times New Roman,serif" font-size="14.00">Narration</text>
<text text-anchor="middle" x="233.5" y="-1689.8" font-family="Times New Roman,serif" font-size="14.00">7</text>
</g>
<!-- A150_1&#45;&gt;A150_2 -->
<g id="edge9" class="edge"><title>A150_1&#45;&gt;A150_2</title>
<path fill="none" stroke="#1f78b4" stroke-width="7" d="M277.741,-1728.65C274.612,-1715.23 269.068,-1698.41 259.5,-1686 254.181,-1679.1 247.098,-1673.13 239.846,-1668.16"/>
<polygon fill="#1f78b4" stroke="#1f78b4" stroke-width="7" points="274.805,-1729.56 278.863,-1733.79 280.79,-1728.26 274.805,-1729.56"/>
<text text-anchor="middle" x="309.5" y="-1704.8" font-family="Times New Roman,serif" font-size="14.00">Elaborations</text>
<text text-anchor="middle" x="309.5" y="-1689.8" font-family="Times New Roman,serif" font-size="14.00">14</text>
</g>
<!-- A150_3 -->
<g id="node4" class="node"><title>A150_3</title>
<polygon fill="wheat" stroke="black" points="599.5,-1566 135.5,-1566 135.5,-1530 599.5,-1530 599.5,-1566"/>
<text text-anchor="middle" x="367.5" y="-1544.3" font-family="Times New Roman,serif" font-size="14.00">A150_3 : parce que après ça s’est joué en psychiatrie j’avais une injection retard</text>
</g>
<!-- A150_1&#45;&gt;A150_3 -->
<g id="edge10" class="edge"><title>A150_1&#45;&gt;A150_3</title>
<path fill="none" stroke="#1f78b4" stroke-width="3" d="M341.952,-1731.96C371.826,-1719.08 404.95,-1698.69 421.5,-1668 440.453,-1632.85 407.822,-1589.79 385.577,-1566.3"/>
<polygon fill="#1f78b4" stroke="#1f78b4" stroke-width="3" points="341.118,-1730.42 337.188,-1733.97 342.476,-1733.64 341.118,-1730.42"/>
<text text-anchor="middle" x="462.5" y="-1653.8" font-family="Times New Roman,serif" font-size="14.00">Elaborations</text>
<text text-anchor="middle" x="462.5" y="-1638.8" font-family="Times New Roman,serif" font-size="14.00">6</text>
</g>
<!-- A150_2&#45;&gt;A150_3 -->
<g id="edge11" class="edge"><title>A150_2&#45;&gt;A150_3</title>
<path fill="none" stroke="#1f78b4" stroke-width="5" d="M238.445,-1629.16C268.089,-1610.75 311.756,-1583.62 339.915,-1566.13"/>
<polygon fill="#1f78b4" stroke="#1f78b4" stroke-width="5" points="237.27,-1627.31 234.177,-1631.81 239.578,-1631.03 237.27,-1627.31"/>
<text text-anchor="middle" x="346.5" y="-1602.8" font-family="Times New Roman,serif" font-size="14.00">Elaborations</text>
<text text-anchor="middle" x="346.5" y="-1587.8" font-family="Times New Roman,serif" font-size="14.00">10</text>
</g>
<!-- A150_4 -->
<g id="node5" class="node"><title>A150_4</title>
<polygon fill="wheat" stroke="black" points="442,-1464 293,-1464 293,-1428 442,-1428 442,-1464"/>
<text text-anchor="middle" x="367.5" y="-1442.3" font-family="Times New Roman,serif" font-size="14.00">A150_4 : j’ai tout arrêté</text>
<text text-anchor="start" x="277" y="-1468.8" font-family="Times New Roman,serif" font-weight="bold" font-style="italic" font-size="14.00" fill="red">11</text>
</g>
<!-- A150_3&#45;&gt;A150_4 -->
<g id="edge3" class="edge"><title>A150_3&#45;&gt;A150_4</title>
<path fill="none" stroke="#a6cee3" stroke-width="2" d="M340.844,-1526.2C337.039,-1521.94 333.682,-1517.16 331.5,-1512 326.311,-1499.72 326.311,-1494.28 331.5,-1482 334.35,-1475.26 339.205,-1469.17 344.443,-1464.03"/>
<polygon fill="#a6cee3" stroke="#a6cee3" stroke-width="2" points="339.723,-1527.56 344.443,-1529.97 342.252,-1525.14 339.723,-1527.56"/>
<text text-anchor="middle" x="357.5" y="-1500.8" font-family="Times New Roman,serif" font-size="14.00">Narration</text>
<text text-anchor="middle" x="357.5" y="-1485.8" font-family="Times New Roman,serif" font-size="14.00">4</text>
</g>
<!-- A150_3&#45;&gt;A150_4 -->
<g id="edge12" class="edge"><title>A150_3&#45;&gt;A150_4</title>
<path fill="none" stroke="#1f78b4" stroke-width="6" d="M379.298,-1524.92C381.038,-1520.74 382.56,-1516.32 383.5,-1512 386.337,-1498.97 386.337,-1495.03 383.5,-1482 382.192,-1475.99 379.758,-1469.78 377.176,-1464.29"/>
<polygon fill="#1f78b4" stroke="#1f78b4" stroke-width="6" points="376.804,-1524.07 377.176,-1529.71 381.603,-1526.2 376.804,-1524.07"/>
<text text-anchor="middle" x="421.5" y="-1500.8" font-family="Times New Roman,serif" font-size="14.00">Elaborations</text>
<text text-anchor="middle" x="421.5" y="-1485.8" font-family="Times New Roman,serif" font-size="14.00">12</text>
</g>
<!-- A150_5 -->
<g id="node6" class="node"><title>A150_5</title>
<polygon fill="wheat" stroke="black" points="672.5,-1362 62.5,-1362 62.5,-1326 672.5,-1326 672.5,-1362"/>
<text text-anchor="middle" x="367.5" y="-1340.3" font-family="Times New Roman,serif" font-size="14.00">A150_5 : et... et je me suis reconstitué bribes par bribes je me suis découvert poète euh sculpteur peintre...</text>
<text text-anchor="start" x="54.5" y="-1366.8" font-family="Times New Roman,serif" font-weight="bold" font-style="italic" font-size="14.00" fill="red">5</text>
</g>
<!-- A150_4&#45;&gt;A150_5 -->
<g id="edge4" class="edge"><title>A150_4&#45;&gt;A150_5</title>
<path fill="none" stroke="#a6cee3" stroke-width="2" d="M340.844,-1424.2C337.039,-1419.94 333.682,-1415.16 331.5,-1410 326.311,-1397.72 326.311,-1392.28 331.5,-1380 334.35,-1373.26 339.205,-1367.17 344.443,-1362.03"/>
<polygon fill="#a6cee3" stroke="#a6cee3" stroke-width="2" points="339.723,-1425.56 344.443,-1427.97 342.252,-1423.14 339.723,-1425.56"/>
<text text-anchor="middle" x="357.5" y="-1398.8" font-family="Times New Roman,serif" font-size="14.00">Narration</text>
<text text-anchor="middle" x="357.5" y="-1383.8" font-family="Times New Roman,serif" font-size="14.00">4</text>
</g>
<!-- A150_4&#45;&gt;A150_5 -->
<g id="edge13" class="edge"><title>A150_4&#45;&gt;A150_5</title>
<path fill="none" stroke="#1f78b4" stroke-width="4.5" d="M379.298,-1422.92C381.038,-1418.74 382.56,-1414.32 383.5,-1410 386.337,-1396.97 386.337,-1393.03 383.5,-1380 382.192,-1373.99 379.758,-1367.78 377.176,-1362.29"/>
<polygon fill="#1f78b4" stroke="#1f78b4" stroke-width="4.5" points="377.404,-1422.34 377.176,-1427.71 381.003,-1423.93 377.404,-1422.34"/>
<text text-anchor="middle" x="421.5" y="-1398.8" font-family="Times New Roman,serif" font-size="14.00">Elaborations</text>
<text text-anchor="middle" x="421.5" y="-1383.8" font-family="Times New Roman,serif" font-size="14.00">9</text>
</g>
<!-- B151 -->
<g id="node7" class="node"><title>B151</title>
<polygon fill="skyblue" stroke="black" points="240,-1260 67,-1260 67,-1224 240,-1224 240,-1260"/>
<text text-anchor="middle" x="153.5" y="-1238.3" font-family="Times New Roman,serif" font-size="14.00">B151 : D’une certaine façon</text>
<text text-anchor="start" x="59" y="-1264.8" font-family="Times New Roman,serif" font-weight="bold" font-style="italic" font-size="14.00" fill="red">1</text>
</g>
<!-- A150_5&#45;&gt;B151 -->
<g id="edge14" class="edge"><title>A150_5&#45;&gt;B151</title>
<path fill="none" stroke="#1f78b4" stroke-width="3" d="M242.528,-1324.29C230.241,-1319.94 218.331,-1314.59 207.5,-1308 188.197,-1296.26 172.577,-1275.12 163.193,-1260.14"/>
<polygon fill="#1f78b4" stroke="#1f78b4" stroke-width="3" points="242.141,-1326.01 247.439,-1325.97 243.274,-1322.7 242.141,-1326.01"/>
<text text-anchor="middle" x="242.5" y="-1296.8" font-family="Times New Roman,serif" font-size="14.00">Elaborations</text>
<text text-anchor="middle" x="242.5" y="-1281.8" font-family="Times New Roman,serif" font-size="14.00">6</text>
</g>
<!-- A150_5&#45;&gt;B151 -->
<g id="edge29" class="edge"><title>A150_5&#45;&gt;B151</title>
<path fill="none" stroke="#b2df8a" stroke-width="7" d="M343.82,-1322.33C326.477,-1308.12 301.816,-1289.75 277.5,-1278 262.698,-1270.84 246.174,-1264.91 230.137,-1260.09"/>
<polygon fill="#b2df8a" stroke="#b2df8a" stroke-width="7" points="342.263,-1325.02 348.067,-1325.85 346.17,-1320.3 342.263,-1325.02"/>
<text text-anchor="middle" x="338.5" y="-1296.8" font-family="Times New Roman,serif" font-size="14.00">Méta</text>
<text text-anchor="middle" x="338.5" y="-1281.8" font-family="Times New Roman,serif" font-size="14.00">14</text>
</g>
<!-- A152_1 -->
<g id="node8" class="node"><title>A152_1</title>
<polygon fill="wheat" stroke="black" points="627,-1260 258,-1260 258,-1224 627,-1224 627,-1260"/>
<text text-anchor="middle" x="442.5" y="-1238.3" font-family="Times New Roman,serif" font-size="14.00">A152_1 : J’ai découvert l’art j’ai découvert l’art proprement dit</text>
<text text-anchor="start" x="250" y="-1264.8" font-family="Times New Roman,serif" font-weight="bold" font-style="italic" font-size="14.00" fill="red">2</text>
</g>
<!-- A150_5&#45;&gt;A152_1 -->
<g id="edge5" class="edge"><title>A150_5&#45;&gt;A152_1</title>
<path fill="none" stroke="#a6cee3" stroke-width="4" d="M362.279,-1320.7C360.42,-1307.3 360.461,-1290.48 368.5,-1278 373.271,-1270.59 380.072,-1264.72 387.639,-1260.07"/>
<polygon fill="#a6cee3" stroke="#a6cee3" stroke-width="4" points="360.584,-1321.18 363.106,-1325.84 364.039,-1320.62 360.584,-1321.18"/>
<text text-anchor="middle" x="394.5" y="-1296.8" font-family="Times New Roman,serif" font-size="14.00">Narration</text>
<text text-anchor="middle" x="394.5" y="-1281.8" font-family="Times New Roman,serif" font-size="14.00">8</text>
</g>
<!-- A150_5&#45;&gt;A152_1 -->
<g id="edge15" class="edge"><title>A150_5&#45;&gt;A152_1</title>
<path fill="none" stroke="#1f78b4" stroke-width="5.5" d="M405.231,-1322.69C410.903,-1318.41 416.262,-1313.5 420.5,-1308 431.338,-1293.94 437.013,-1274.23 439.863,-1260.21"/>
<polygon fill="#1f78b4" stroke="#1f78b4" stroke-width="5.5" points="403.504,-1320.97 400.846,-1325.84 406.311,-1324.87 403.504,-1320.97"/>
<text text-anchor="middle" x="470.5" y="-1296.8" font-family="Times New Roman,serif" font-size="14.00">Elaborations</text>
<text text-anchor="middle" x="470.5" y="-1281.8" font-family="Times New Roman,serif" font-size="14.00">11</text>
</g>
<!-- A154_2 -->
<g id="node12" class="node"><title>A154_2</title>
<polygon fill="wheat" stroke="black" points="743,-954 476,-954 476,-918 743,-918 743,-954"/>
<text text-anchor="middle" x="609.5" y="-932.3" font-family="Times New Roman,serif" font-size="14.00">A154_2 : j’étais j’… j’… j’étais doué enfin...</text>
</g>
<!-- A150_5&#45;&gt;A154_2 -->
<g id="edge16" class="edge"><title>A150_5&#45;&gt;A154_2</title>
<path fill="none" stroke="#1f78b4" stroke-width="3.5" d="M488.892,-1325C571.725,-1309.17 666.5,-1282.45 666.5,-1243 666.5,-1243 666.5,-1243 666.5,-1037 666.5,-1007.45 667.943,-997.195 652.5,-972 648.375,-965.27 642.481,-959.261 636.374,-954.201"/>
<polygon fill="#1f78b4" stroke="#1f78b4" stroke-width="3.5" points="488.545,-1323.28 483.957,-1325.93 489.195,-1326.72 488.545,-1323.28"/>
<text text-anchor="middle" x="701.5" y="-1143.8" font-family="Times New Roman,serif" font-size="14.00">Elaborations</text>
<text text-anchor="middle" x="701.5" y="-1128.8" font-family="Times New Roman,serif" font-size="14.00">7</text>
</g>
<!-- A152_2 -->
<g id="node9" class="node"><title>A152_2</title>
<polygon fill="wheat" stroke="black" points="630.5,-1158 194.5,-1158 194.5,-1122 630.5,-1122 630.5,-1158"/>
<text text-anchor="middle" x="412.5" y="-1136.3" font-family="Times New Roman,serif" font-size="14.00">A152_2 : avec des morceaux de bois et sans clous j’arrive à faire une porte</text>
</g>
<!-- A152_1&#45;&gt;A152_2 -->
<g id="edge17" class="edge"><title>A152_1&#45;&gt;A152_2</title>
<path fill="none" stroke="#1f78b4" stroke-width="8" d="M435.79,-1218.63C430.31,-1200.37 422.678,-1174.93 417.666,-1158.22"/>
<polygon fill="#1f78b4" stroke="#1f78b4" stroke-width="8" points="432.485,-1219.8 437.274,-1223.58 439.19,-1217.79 432.485,-1219.8"/>
<text text-anchor="middle" x="467.5" y="-1194.8" font-family="Times New Roman,serif" font-size="14.00">Elaborations</text>
<text text-anchor="middle" x="467.5" y="-1179.8" font-family="Times New Roman,serif" font-size="14.00">16</text>
</g>
<!-- B153 -->
<g id="node10" class="node"><title>B153</title>
<polygon fill="skyblue" stroke="black" points="394.5,-1056 284.5,-1056 284.5,-1020 394.5,-1020 394.5,-1056"/>
<text text-anchor="middle" x="339.5" y="-1034.3" font-family="Times New Roman,serif" font-size="14.00">B153 : D’accord</text>
</g>
<!-- A152_2&#45;&gt;B153 -->
<g id="edge30" class="edge"><title>A152_2&#45;&gt;B153</title>
<path fill="none" stroke="#b2df8a" stroke-width="8" d="M396.513,-1117.1C383.155,-1098.8 364.371,-1073.07 352.07,-1056.22"/>
<polygon fill="#b2df8a" stroke="#b2df8a" stroke-width="8" points="394.009,-1119.61 399.784,-1121.58 399.663,-1115.48 394.009,-1119.61"/>
<text text-anchor="middle" x="401.5" y="-1092.8" font-family="Times New Roman,serif" font-size="14.00">Méta</text>
<text text-anchor="middle" x="401.5" y="-1077.8" font-family="Times New Roman,serif" font-size="14.00">16</text>
</g>
<!-- A154_1 -->
<g id="node11" class="node"><title>A154_1</title>
<polygon fill="wheat" stroke="black" points="638.5,-1056 412.5,-1056 412.5,-1020 638.5,-1020 638.5,-1056"/>
<text text-anchor="middle" x="525.5" y="-1034.3" font-family="Times New Roman,serif" font-size="14.00">A154_1 : En entrelaçant les branches.</text>
<text text-anchor="start" x="404.5" y="-1060.8" font-family="Times New Roman,serif" font-weight="bold" font-style="italic" font-size="14.00" fill="red">1</text>
</g>
<!-- A152_2&#45;&gt;A154_1 -->
<g id="edge18" class="edge"><title>A152_2&#45;&gt;A154_1</title>
<path fill="none" stroke="#1f78b4" stroke-width="8" d="M435.681,-1118.49C456.4,-1100.15 486.42,-1073.58 505.95,-1056.3"/>
<polygon fill="#1f78b4" stroke="#1f78b4" stroke-width="8" points="433.35,-1115.87 431.925,-1121.81 437.989,-1121.12 433.35,-1115.87"/>
<text text-anchor="middle" x="521.5" y="-1092.8" font-family="Times New Roman,serif" font-size="14.00">Elaborations</text>
<text text-anchor="middle" x="521.5" y="-1077.8" font-family="Times New Roman,serif" font-size="14.00">16</text>
</g>
<!-- A154_1&#45;&gt;A154_2 -->
<g id="edge19" class="edge"><title>A154_1&#45;&gt;A154_2</title>
<path fill="none" stroke="#1f78b4" stroke-width="2.5" d="M543.507,-1015.56C558.9,-997.239 580.761,-971.213 595.036,-954.219"/>
<polygon fill="#1f78b4" stroke="#1f78b4" stroke-width="2.5" points="542.008,-1014.63 540.132,-1019.58 544.688,-1016.88 542.008,-1014.63"/>
<text text-anchor="middle" x="615.5" y="-990.8" font-family="Times New Roman,serif" font-size="14.00">Elaborations</text>
<text text-anchor="middle" x="615.5" y="-975.8" font-family="Times New Roman,serif" font-size="14.00">5</text>
</g>
<!-- B155 -->
<g id="node13" class="node"><title>B155</title>
<polygon fill="skyblue" stroke="black" points="775.5,-852 443.5,-852 443.5,-816 775.5,-816 775.5,-852"/>
<text text-anchor="middle" x="609.5" y="-830.3" font-family="Times New Roman,serif" font-size="14.00">B155 : Vous avez découvert que vous étiez doué en fait?</text>
<text text-anchor="start" x="435.5" y="-856.8" font-family="Times New Roman,serif" font-weight="bold" font-style="italic" font-size="14.00" fill="red">1</text>
</g>
<!-- A154_2&#45;&gt;B155 -->
<g id="edge31" class="edge"><title>A154_2&#45;&gt;B155</title>
<path fill="none" stroke="#b2df8a" stroke-width="3.5" d="M592.02,-913.743C589.337,-909.429 586.972,-904.75 585.5,-900 581.553,-887.264 581.553,-882.736 585.5,-870 587.463,-863.666 591.012,-857.46 594.789,-852.075"/>
<polygon fill="#b2df8a" stroke="#b2df8a" stroke-width="3.5" points="590.57,-914.723 594.789,-917.925 593.488,-912.79 590.57,-914.723"/>
<text text-anchor="middle" x="599.5" y="-888.8" font-family="Times New Roman,serif" font-size="14.00">Méta</text>
<text text-anchor="middle" x="599.5" y="-873.8" font-family="Times New Roman,serif" font-size="14.00">7</text>
</g>
<!-- A154_2&#45;&gt;B155 -->
<g id="edge36" class="edge"><title>A154_2&#45;&gt;B155</title>
<path fill="none" stroke="#33a02c" stroke-width="6" d="M612.431,-912.721C612.876,-908.503 613.265,-904.122 613.5,-900 614.258,-886.688 614.258,-883.312 613.5,-870 613.166,-864.138 612.52,-857.751 611.843,-852.056"/>
<polygon fill="#33a02c" stroke="#33a02c" stroke-width="6" points="609.793,-912.681 611.843,-917.944 615.011,-913.268 609.793,-912.681"/>
<text text-anchor="middle" x="640" y="-888.8" font-family="Times New Roman,serif" font-size="14.00">Question</text>
<text text-anchor="middle" x="640" y="-873.8" font-family="Times New Roman,serif" font-size="14.00">12</text>
</g>
<!-- A156 -->
<g id="node14" class="node"><title>A156</title>
<polygon fill="wheat" stroke="black" points="819,-750 400,-750 400,-714 819,-714 819,-750"/>
<text text-anchor="middle" x="609.5" y="-728.3" font-family="Times New Roman,serif" font-size="14.00">A156 : Enfin j’ai découvert que j’avais... que j’étais... PRO par vocation</text>
<text text-anchor="start" x="384" y="-754.8" font-family="Times New Roman,serif" font-weight="bold" font-style="italic" font-size="14.00" fill="red">12</text>
</g>
<!-- B155&#45;&gt;A156 -->
<g id="edge20" class="edge"><title>B155&#45;&gt;A156</title>
<path fill="none" stroke="#1f78b4" stroke-width="7.5" d="M609.5,-810.163C609.5,-791.932 609.5,-766.784 609.5,-750.219"/>
<polygon fill="#1f78b4" stroke="#1f78b4" stroke-width="7.5" points="606.219,-810.581 609.5,-815.581 612.781,-810.581 606.219,-810.581"/>
<text text-anchor="middle" x="644.5" y="-786.8" font-family="Times New Roman,serif" font-size="14.00">Elaborations</text>
<text text-anchor="middle" x="644.5" y="-771.8" font-family="Times New Roman,serif" font-size="14.00">15</text>
</g>
<!-- B157 -->
<g id="node15" class="node"><title>B157</title>
<polygon fill="skyblue" stroke="black" points="522,-648 411,-648 411,-612 522,-612 522,-648"/>
<text text-anchor="middle" x="466.5" y="-626.3" font-family="Times New Roman,serif" font-size="14.00">B157 : Hum hum</text>
<text text-anchor="start" x="403" y="-652.8" font-family="Times New Roman,serif" font-weight="bold" font-style="italic" font-size="14.00" fill="red">1</text>
</g>
<!-- A156&#45;&gt;B157 -->
<g id="edge32" class="edge"><title>A156&#45;&gt;B157</title>
<path fill="none" stroke="#b2df8a" stroke-width="10" d="M565.593,-711.723C556.374,-707.03 546.905,-701.703 538.5,-696 517.737,-681.911 496.752,-662.203 482.838,-648.19"/>
<polygon fill="#b2df8a" stroke="#b2df8a" stroke-width="10" points="563.663,-715.65 570.093,-713.975 567.579,-707.825 563.663,-715.65"/>
<text text-anchor="middle" x="552.5" y="-684.8" font-family="Times New Roman,serif" font-size="14.00">Méta</text>
<text text-anchor="middle" x="552.5" y="-669.8" font-family="Times New Roman,serif" font-size="14.00">20</text>
</g>
<!-- A158_1 -->
<g id="node16" class="node"><title>A158_1</title>
<polygon fill="wheat" stroke="black" points="680.5,-648 540.5,-648 540.5,-612 680.5,-612 680.5,-648"/>
<text text-anchor="middle" x="610.5" y="-626.3" font-family="Times New Roman,serif" font-size="14.00">A158_1 : Provocation</text>
<text text-anchor="start" x="532.5" y="-652.8" font-family="Times New Roman,serif" font-weight="bold" font-style="italic" font-size="14.00" fill="red">5</text>
</g>
<!-- A156&#45;&gt;A158_1 -->
<g id="edge6" class="edge"><title>A156&#45;&gt;A158_1</title>
<path fill="none" stroke="#a6cee3" stroke-width="4" d="M582.844,-710.203C579.039,-705.942 575.682,-701.164 573.5,-696 568.311,-683.718 568.227,-678.246 573.5,-666 576.367,-659.34 581.194,-653.356 586.431,-648.298"/>
<polygon fill="#a6cee3" stroke="#a6cee3" stroke-width="4" points="581.723,-711.562 586.443,-713.966 584.252,-709.143 581.723,-711.562"/>
<text text-anchor="middle" x="599.5" y="-684.8" font-family="Times New Roman,serif" font-size="14.00">Narration</text>
<text text-anchor="middle" x="599.5" y="-669.8" font-family="Times New Roman,serif" font-size="14.00">8</text>
</g>
<!-- A156&#45;&gt;A158_1 -->
<g id="edge21" class="edge"><title>A156&#45;&gt;A158_1</title>
<path fill="none" stroke="#1f78b4" stroke-width="5" d="M621.298,-708.923C623.038,-704.739 624.56,-700.317 625.5,-696 628.337,-682.972 628.181,-679.061 625.5,-666 624.277,-660.042 621.996,-653.846 619.575,-648.353"/>
<polygon fill="#1f78b4" stroke="#1f78b4" stroke-width="5" points="619.204,-708.249 619.176,-713.706 623.203,-710.023 619.204,-708.249"/>
<text text-anchor="middle" x="663.5" y="-684.8" font-family="Times New Roman,serif" font-size="14.00">Elaborations</text>
<text text-anchor="middle" x="663.5" y="-669.8" font-family="Times New Roman,serif" font-size="14.00">10</text>
</g>
<!-- A162 -->
<g id="node23" class="node"><title>A162</title>
<polygon fill="wheat" stroke="black" points="914.5,-36 448.5,-36 448.5,-0 914.5,-0 914.5,-36"/>
<text text-anchor="middle" x="681.5" y="-14.3" font-family="Times New Roman,serif" font-size="14.00">A162 : J’étais un pro par vocation j’étais devenu un génie j’étais devenu un génie</text>
<text text-anchor="start" x="440.5" y="-40.8" font-family="Times New Roman,serif" font-weight="bold" font-style="italic" font-size="14.00" fill="red">2</text>
</g>
<!-- A156&#45;&gt;A162 -->
<g id="edge22" class="edge"><title>A156&#45;&gt;A162</title>
<path fill="none" stroke="#1f78b4" stroke-width="2.5" d="M674.203,-711.941C710.876,-696.723 749.5,-671.163 749.5,-631 749.5,-631 749.5,-631 749.5,-119 749.5,-85.1985 722.604,-54.3606 702.643,-36.128"/>
<polygon fill="#1f78b4" stroke="#1f78b4" stroke-width="2.5" points="673.26,-710.434 669.279,-713.928 674.57,-713.68 673.26,-710.434"/>
<text text-anchor="middle" x="784.5" y="-378.8" font-family="Times New Roman,serif" font-size="14.00">Elaborations</text>
<text text-anchor="middle" x="784.5" y="-363.8" font-family="Times New Roman,serif" font-size="14.00">5</text>
</g>
<!-- A158_2 -->
<g id="node17" class="node"><title>A158_2</title>
<polygon fill="wheat" stroke="black" points="697,-546 374,-546 374,-510 697,-510 697,-546"/>
<text text-anchor="middle" x="535.5" y="-524.3" font-family="Times New Roman,serif" font-size="14.00">A158_2 : c’est incroyable ce que je pouvais provoquer</text>
</g>
<!-- A158_1&#45;&gt;A158_2 -->
<g id="edge7" class="edge"><title>A158_1&#45;&gt;A158_2</title>
<path fill="none" stroke="#a6cee3" stroke-width="2.5" d="M551.133,-608.941C545.393,-604.831 540.302,-599.903 536.5,-594 527.394,-579.862 528.55,-560.162 531.106,-546.164"/>
<polygon fill="#a6cee3" stroke="#a6cee3" stroke-width="2.5" points="550.504,-610.624 555.639,-611.927 552.438,-607.706 550.504,-610.624"/>
<text text-anchor="middle" x="562.5" y="-582.8" font-family="Times New Roman,serif" font-size="14.00">Narration</text>
<text text-anchor="middle" x="562.5" y="-567.8" font-family="Times New Roman,serif" font-size="14.00">5</text>
</g>
<!-- A158_1&#45;&gt;A158_2 -->
<g id="edge23" class="edge"><title>A158_1&#45;&gt;A158_2</title>
<path fill="none" stroke="#1f78b4" stroke-width="6" d="M606.741,-606.648C603.612,-593.229 598.068,-576.411 588.5,-564 583.181,-557.101 576.098,-551.127 568.846,-546.164"/>
<polygon fill="#1f78b4" stroke="#1f78b4" stroke-width="6" points="604.233,-607.468 607.863,-611.794 609.362,-606.35 604.233,-607.468"/>
<text text-anchor="middle" x="638.5" y="-582.8" font-family="Times New Roman,serif" font-size="14.00">Elaborations</text>
<text text-anchor="middle" x="638.5" y="-567.8" font-family="Times New Roman,serif" font-size="14.00">12</text>
</g>
<!-- B159 -->
<g id="node18" class="node"><title>B159</title>
<polygon fill="skyblue" stroke="black" points="383.5,-444 261.5,-444 261.5,-408 383.5,-408 383.5,-444"/>
<text text-anchor="middle" x="322.5" y="-422.3" font-family="Times New Roman,serif" font-size="14.00">B159 : Ouais ouais</text>
</g>
<!-- A158_2&#45;&gt;B159 -->
<g id="edge33" class="edge"><title>A158_2&#45;&gt;B159</title>
<path fill="none" stroke="#b2df8a" stroke-width="9.5" d="M494.198,-507.609C454.967,-489.191 396.553,-461.767 358.994,-444.133"/>
<polygon fill="#b2df8a" stroke="#b2df8a" stroke-width="9.5" points="492.592,-511.447 498.884,-509.809 496.124,-503.922 492.592,-511.447"/>
<text text-anchor="middle" x="475.5" y="-480.8" font-family="Times New Roman,serif" font-size="14.00">Méta</text>
<text text-anchor="middle" x="475.5" y="-465.8" font-family="Times New Roman,serif" font-size="14.00">19</text>
</g>
<!-- A160_1 -->
<g id="node19" class="node"><title>A160_1</title>
<polygon fill="wheat" stroke="black" points="721.5,-444 401.5,-444 401.5,-408 721.5,-408 721.5,-444"/>
<text text-anchor="middle" x="561.5" y="-422.3" font-family="Times New Roman,serif" font-size="14.00">A160_1 : Je savais titiller les mecs dans la provocation</text>
</g>
<!-- A158_2&#45;&gt;A160_1 -->
<g id="edge8" class="edge"><title>A158_2&#45;&gt;A160_1</title>
<path fill="none" stroke="#a6cee3" stroke-width="2.5" d="M523.598,-505.207C518.164,-492.228 514.194,-475.675 520.5,-462 523.635,-455.201 528.815,-449.233 534.455,-444.242"/>
<polygon fill="#a6cee3" stroke="#a6cee3" stroke-width="2.5" points="522.017,-505.959 525.65,-509.815 525.214,-504.536 522.017,-505.959"/>
<text text-anchor="middle" x="546.5" y="-480.8" font-family="Times New Roman,serif" font-size="14.00">Narration</text>
<text text-anchor="middle" x="546.5" y="-465.8" font-family="Times New Roman,serif" font-size="14.00">5</text>
</g>
<!-- A158_2&#45;&gt;A160_1 -->
<g id="edge24" class="edge"><title>A158_2&#45;&gt;A160_1</title>
<path fill="none" stroke="#1f78b4" stroke-width="6" d="M563.164,-505.996C566.961,-501.802 570.305,-497.099 572.5,-492 579.108,-476.652 574.601,-457.669 569.508,-444.189"/>
<polygon fill="#1f78b4" stroke="#1f78b4" stroke-width="6" points="561.166,-504.285 559.569,-509.702 564.935,-507.941 561.166,-504.285"/>
<text text-anchor="middle" x="611.5" y="-480.8" font-family="Times New Roman,serif" font-size="14.00">Elaborations</text>
<text text-anchor="middle" x="611.5" y="-465.8" font-family="Times New Roman,serif" font-size="14.00">12</text>
</g>
<!-- A160_2 -->
<g id="node20" class="node"><title>A160_2</title>
<polygon fill="wheat" stroke="black" points="666.5,-342 268.5,-342 268.5,-306 666.5,-306 666.5,-342"/>
<text text-anchor="middle" x="467.5" y="-320.3" font-family="Times New Roman,serif" font-size="14.00">A160_2 : et d… des mecs balèzes et que moi j’avais aucune hostilité</text>
<text text-anchor="start" x="260.5" y="-346.8" font-family="Times New Roman,serif" font-weight="bold" font-style="italic" font-size="14.00" fill="red">1</text>
</g>
<!-- A160_1&#45;&gt;A160_2 -->
<g id="edge25" class="edge"><title>A160_1&#45;&gt;A160_2</title>
<path fill="none" stroke="#1f78b4" stroke-width="8.5" d="M541.349,-403.563C524.124,-385.239 499.66,-359.213 483.686,-342.219"/>
<polygon fill="#1f78b4" stroke="#1f78b4" stroke-width="8.5" points="538.992,-406.485 545.126,-407.581 544.411,-401.391 538.992,-406.485"/>
<text text-anchor="middle" x="563.5" y="-378.8" font-family="Times New Roman,serif" font-size="14.00">Elaborations</text>
<text text-anchor="middle" x="563.5" y="-363.8" font-family="Times New Roman,serif" font-size="14.00">17</text>
</g>
<!-- B161 -->
<g id="node22" class="node"><title>B161</title>
<polygon fill="skyblue" stroke="black" points="721.5,-138 405.5,-138 405.5,-102 721.5,-102 721.5,-138"/>
<text text-anchor="middle" x="563.5" y="-116.3" font-family="Times New Roman,serif" font-size="14.00">B161 : Oui vous étiez de fait le plus fort à ce niveau là</text>
<text text-anchor="start" x="397.5" y="-142.8" font-family="Times New Roman,serif" font-weight="bold" font-style="italic" font-size="14.00" fill="red">1</text>
</g>
<!-- A160_1&#45;&gt;B161 -->
<g id="edge34" class="edge"><title>A160_1&#45;&gt;B161</title>
<path fill="none" stroke="#b2df8a" stroke-width="2.5" d="M605.903,-405.505C631.297,-391.752 660.918,-370.654 675.5,-342 686.144,-321.084 700.683,-257.25 673.5,-204 658.163,-173.956 626.351,-151.828 600.865,-138.011"/>
<polygon fill="#b2df8a" stroke="#b2df8a" stroke-width="2.5" points="604.815,-404.101 601.216,-407.988 606.453,-407.194 604.815,-404.101"/>
<text text-anchor="middle" x="703.5" y="-276.8" font-family="Times New Roman,serif" font-size="14.00">Méta</text>
<text text-anchor="middle" x="703.5" y="-261.8" font-family="Times New Roman,serif" font-size="14.00">5</text>
</g>
<!-- A160_3 -->
<g id="node21" class="node"><title>A160_3</title>
<polygon fill="wheat" stroke="black" points="665,-240 276,-240 276,-204 665,-204 665,-240"/>
<text text-anchor="middle" x="470.5" y="-218.3" font-family="Times New Roman,serif" font-size="14.00">A160_3 : mais avec les paroles l’autre il s’en prenait plein la gueule</text>
<text text-anchor="start" x="268" y="-244.8" font-family="Times New Roman,serif" font-weight="bold" font-style="italic" font-size="14.00" fill="red">1</text>
</g>
<!-- A160_2&#45;&gt;A160_3 -->
<g id="edge26" class="edge"><title>A160_2&#45;&gt;A160_3</title>
<path fill="none" stroke="#1f78b4" stroke-width="7.5" d="M468.185,-300.163C468.732,-281.932 469.486,-256.784 469.983,-240.219"/>
<polygon fill="#1f78b4" stroke="#1f78b4" stroke-width="7.5" points="464.893,-300.485 468.023,-305.581 471.452,-300.682 464.893,-300.485"/>
<text text-anchor="middle" x="504.5" y="-276.8" font-family="Times New Roman,serif" font-size="14.00">Elaborations</text>
<text text-anchor="middle" x="504.5" y="-261.8" font-family="Times New Roman,serif" font-size="14.00">15</text>
</g>
<!-- A160_3&#45;&gt;B161 -->
<g id="edge27" class="edge"><title>A160_3&#45;&gt;B161</title>
<path fill="none" stroke="#1f78b4" stroke-width="2.5" d="M464.978,-198.739C462.951,-185.208 462.922,-168.238 471.5,-156 476.698,-148.583 483.688,-142.737 491.503,-138.13"/>
<polygon fill="#1f78b4" stroke="#1f78b4" stroke-width="2.5" points="463.298,-199.298 465.875,-203.927 466.747,-198.702 463.298,-199.298"/>
<text text-anchor="middle" x="506.5" y="-174.8" font-family="Times New Roman,serif" font-size="14.00">Elaborations</text>
<text text-anchor="middle" x="506.5" y="-159.8" font-family="Times New Roman,serif" font-size="14.00">5</text>
</g>
<!-- A160_3&#45;&gt;B161 -->
<g id="edge35" class="edge"><title>A160_3&#45;&gt;B161</title>
<path fill="none" stroke="#b2df8a" stroke-width="4" d="M522.802,-201.327C529.736,-197.064 536.25,-191.991 541.5,-186 553.356,-172.47 558.88,-152.287 561.417,-138.006"/>
<polygon fill="#b2df8a" stroke="#b2df8a" stroke-width="4" points="521.871,-199.844 518.437,-203.877 523.637,-202.866 521.871,-199.844"/>
<text text-anchor="middle" x="571.5" y="-174.8" font-family="Times New Roman,serif" font-size="14.00">Méta</text>
<text text-anchor="middle" x="571.5" y="-159.8" font-family="Times New Roman,serif" font-size="14.00">8</text>
</g>
<!-- B161&#45;&gt;A162 -->
<g id="edge28" class="edge"><title>B161&#45;&gt;A162</title>
<path fill="none" stroke="#1f78b4" stroke-width="2.5" d="M587.707,-98.4856C609.343,-80.15 640.691,-53.5838 661.085,-36.3009"/>
<polygon fill="#1f78b4" stroke="#1f78b4" stroke-width="2.5" points="586.468,-97.2417 583.785,-101.809 588.731,-99.9118 586.468,-97.2417"/>
<text text-anchor="middle" x="675.5" y="-72.8" font-family="Times New Roman,serif" font-size="14.00">Elaborations</text>
<text text-anchor="middle" x="675.5" y="-57.8" font-family="Times New Roman,serif" font-size="14.00">5</text>
</g>
</g>
</svg>
