<?xml version="1.0" encoding="UTF-8" standalone="no"?>
<!DOCTYPE svg PUBLIC "-//W3C//DTD SVG 1.1//EN"
 "http://www.w3.org/Graphics/SVG/1.1/DTD/svg11.dtd">
<!-- Generated by graphviz version 2.38.0 (20140413.2041)
 -->
<!-- Title: Provocation Pages: 1 -->
<svg width="1247pt" height="1634pt"
 viewBox="0.00 0.00 1246.50 1634.00" xmlns="http://www.w3.org/2000/svg" xmlns:xlink="http://www.w3.org/1999/xlink">
<g id="graph0" class="graph" transform="scale(1 1) rotate(0) translate(4 1630)">
<title>Provocation</title>
<polygon fill="white" stroke="none" points="-4,4 -4,-1630 1242.5,-1630 1242.5,4 -4,4"/>
<text text-anchor="start" x="8" y="-1607" font-family="Times New Roman,serif" font-size="20.00">Provocation</text>
<text text-anchor="start" x="9" y="-1590.2" font-family="Times New Roman,serif" font-size="16.00">21 annotations </text>
<text text-anchor="start" x="18" y="-1574.2" font-family="Times New Roman,serif" font-size="16.00"> seuil = 0.15</text>
<!-- Début -->
<g id="node1" class="node"><title>Début</title>
<polygon fill="lightgrey" stroke="black" points="329,-1566 234,-1566 234,-1530 329,-1530 329,-1566"/>
<text text-anchor="middle" x="281.5" y="-1544.3" font-family="Times New Roman,serif" font-size="14.00">Début : Début</text>
</g>
<!-- A150_1 -->
<g id="node2" class="node"><title>A150_1</title>
<polygon fill="wheat" stroke="black" points="487.5,-1464 75.5,-1464 75.5,-1428 487.5,-1428 487.5,-1464"/>
<text text-anchor="middle" x="281.5" y="-1442.3" font-family="Times New Roman,serif" font-size="14.00">A150_1 : Alors finalement bon j’ai vécu l’apocalypse à cette époque&#45;là</text>
<text text-anchor="start" x="59.5" y="-1468.8" font-family="Times New Roman,serif" font-weight="bold" font-style="italic" font-size="14.00" fill="red">19</text>
</g>
<!-- Début&#45;&gt;A150_1 -->
<g id="edge1" class="edge"><title>Début&#45;&gt;A150_1</title>
<path fill="none" stroke="#a6cee3" stroke-width="10" d="M281.5,-1524.16C281.5,-1505.93 281.5,-1480.78 281.5,-1464.22"/>
<polygon fill="#a6cee3" stroke="#a6cee3" stroke-width="10" points="277.125,-1524.58 281.5,-1529.58 285.875,-1524.58 277.125,-1524.58"/>
<text text-anchor="middle" x="307.5" y="-1500.8" font-family="Times New Roman,serif" font-size="14.00">Narration</text>
<text text-anchor="middle" x="307.5" y="-1485.8" font-family="Times New Roman,serif" font-size="14.00">19</text>
</g>
<!-- A150_2 -->
<g id="node3" class="node"><title>A150_2</title>
<polygon fill="wheat" stroke="black" points="413,-1362 0,-1362 0,-1326 413,-1326 413,-1362"/>
<text text-anchor="middle" x="206.5" y="-1340.3" font-family="Times New Roman,serif" font-size="14.00">A150_2 : parce que à f… au fur et à mesure que je remontais la pente...</text>
</g>
<!-- A150_1&#45;&gt;A150_2 -->
<g id="edge2" class="edge"><title>A150_1&#45;&gt;A150_2</title>
<path fill="none" stroke="#a6cee3" stroke-width="3.68421" d="M222.133,-1424.94C216.393,-1420.83 211.302,-1415.9 207.5,-1410 198.394,-1395.86 199.55,-1376.16 202.106,-1362.16"/>
<polygon fill="#a6cee3" stroke="#a6cee3" stroke-width="3.68421" points="221.504,-1426.62 226.639,-1427.93 223.438,-1423.71 221.504,-1426.62"/>
<text text-anchor="middle" x="233.5" y="-1398.8" font-family="Times New Roman,serif" font-size="14.00">Narration</text>
<text text-anchor="middle" x="233.5" y="-1383.8" font-family="Times New Roman,serif" font-size="14.00">7</text>
</g>
<!-- A150_1&#45;&gt;A150_2 -->
<g id="edge10" class="edge"><title>A150_1&#45;&gt;A150_2</title>
<path fill="none" stroke="#b2df8a" stroke-width="7.36842" d="M277.741,-1422.65C274.612,-1409.23 269.068,-1392.41 259.5,-1380 254.181,-1373.1 247.098,-1367.13 239.846,-1362.16"/>
<polygon fill="#b2df8a" stroke="#b2df8a" stroke-width="7.36842" points="274.648,-1423.6 278.863,-1427.79 280.947,-1422.22 274.648,-1423.6"/>
<text text-anchor="middle" x="339" y="-1398.8" font-family="Times New Roman,serif" font-size="14.00">Elaboration descriptive</text>
<text text-anchor="middle" x="339" y="-1383.8" font-family="Times New Roman,serif" font-size="14.00">14</text>
</g>
<!-- A150_3 -->
<g id="node4" class="node"><title>A150_3</title>
<polygon fill="wheat" stroke="black" points="584.5,-1260 120.5,-1260 120.5,-1224 584.5,-1224 584.5,-1260"/>
<text text-anchor="middle" x="352.5" y="-1238.3" font-family="Times New Roman,serif" font-size="14.00">A150_3 : parce que après ça s’est joué en psychiatrie j’avais une injection retard</text>
</g>
<!-- A150_1&#45;&gt;A150_3 -->
<g id="edge11" class="edge"><title>A150_1&#45;&gt;A150_3</title>
<path fill="none" stroke="#b2df8a" stroke-width="2.63158" d="M386.333,-1425.44C394.078,-1421.23 401.279,-1416.14 407.5,-1410 450.114,-1367.93 467.501,-1327.97 434.5,-1278 429.638,-1270.64 422.875,-1264.82 415.3,-1260.22"/>
<polygon fill="#b2df8a" stroke="#b2df8a" stroke-width="2.63158" points="385.094,-1424.11 381.445,-1427.95 386.692,-1427.22 385.094,-1424.11"/>
<text text-anchor="middle" x="517" y="-1347.8" font-family="Times New Roman,serif" font-size="14.00">Elaboration descriptive</text>
<text text-anchor="middle" x="517" y="-1332.8" font-family="Times New Roman,serif" font-size="14.00">5</text>
</g>
<!-- A150_2&#45;&gt;A150_3 -->
<g id="edge12" class="edge"><title>A150_2&#45;&gt;A150_3</title>
<path fill="none" stroke="#b2df8a" stroke-width="5.26316" d="M235.787,-1322.94C262.576,-1304.59 301.798,-1277.73 327.241,-1260.3"/>
<polygon fill="#b2df8a" stroke="#b2df8a" stroke-width="5.26316" points="234.422,-1321.08 231.598,-1325.81 237.025,-1324.88 234.422,-1321.08"/>
<text text-anchor="middle" x="366" y="-1296.8" font-family="Times New Roman,serif" font-size="14.00">Elaboration descriptive</text>
<text text-anchor="middle" x="366" y="-1281.8" font-family="Times New Roman,serif" font-size="14.00">10</text>
</g>
<!-- A150_4 -->
<g id="node5" class="node"><title>A150_4</title>
<polygon fill="wheat" stroke="black" points="427,-1158 278,-1158 278,-1122 427,-1122 427,-1158"/>
<text text-anchor="middle" x="352.5" y="-1136.3" font-family="Times New Roman,serif" font-size="14.00">A150_4 : j’ai tout arrêté</text>
<text text-anchor="start" x="262" y="-1162.8" font-family="Times New Roman,serif" font-weight="bold" font-style="italic" font-size="14.00" fill="red">11</text>
</g>
<!-- A150_3&#45;&gt;A150_4 -->
<g id="edge3" class="edge"><title>A150_3&#45;&gt;A150_4</title>
<path fill="none" stroke="#a6cee3" stroke-width="2.10526" d="M325.844,-1220.2C322.039,-1215.94 318.682,-1211.16 316.5,-1206 311.311,-1193.72 311.311,-1188.28 316.5,-1176 319.35,-1169.26 324.205,-1163.17 329.443,-1158.03"/>
<polygon fill="#a6cee3" stroke="#a6cee3" stroke-width="2.10526" points="324.723,-1221.56 329.443,-1223.97 327.252,-1219.14 324.723,-1221.56"/>
<text text-anchor="middle" x="342.5" y="-1194.8" font-family="Times New Roman,serif" font-size="14.00">Narration</text>
<text text-anchor="middle" x="342.5" y="-1179.8" font-family="Times New Roman,serif" font-size="14.00">4</text>
</g>
<!-- A150_3&#45;&gt;A150_4 -->
<g id="edge13" class="edge"><title>A150_3&#45;&gt;A150_4</title>
<path fill="none" stroke="#b2df8a" stroke-width="5.78947" d="M364.298,-1218.92C366.038,-1214.74 367.56,-1210.32 368.5,-1206 371.337,-1192.97 371.337,-1189.03 368.5,-1176 367.192,-1169.99 364.758,-1163.78 362.176,-1158.29"/>
<polygon fill="#b2df8a" stroke="#b2df8a" stroke-width="5.78947" points="361.888,-1218.11 362.176,-1223.71 366.519,-1220.16 361.888,-1218.11"/>
<text text-anchor="middle" x="436" y="-1194.8" font-family="Times New Roman,serif" font-size="14.00">Elaboration descriptive</text>
<text text-anchor="middle" x="436" y="-1179.8" font-family="Times New Roman,serif" font-size="14.00">11</text>
</g>
<!-- A150_5 -->
<g id="node6" class="node"><title>A150_5</title>
<polygon fill="wheat" stroke="black" points="657.5,-1056 47.5,-1056 47.5,-1020 657.5,-1020 657.5,-1056"/>
<text text-anchor="middle" x="352.5" y="-1034.3" font-family="Times New Roman,serif" font-size="14.00">A150_5 : et... et je me suis reconstitué bribes par bribes je me suis découvert poète euh sculpteur peintre...</text>
<text text-anchor="start" x="39.5" y="-1060.8" font-family="Times New Roman,serif" font-weight="bold" font-style="italic" font-size="14.00" fill="red">5</text>
</g>
<!-- A150_4&#45;&gt;A150_5 -->
<g id="edge4" class="edge"><title>A150_4&#45;&gt;A150_5</title>
<path fill="none" stroke="#a6cee3" stroke-width="2.10526" d="M325.844,-1118.2C322.039,-1113.94 318.682,-1109.16 316.5,-1104 311.311,-1091.72 311.311,-1086.28 316.5,-1074 319.35,-1067.26 324.205,-1061.17 329.443,-1056.03"/>
<polygon fill="#a6cee3" stroke="#a6cee3" stroke-width="2.10526" points="324.723,-1119.56 329.443,-1121.97 327.252,-1117.14 324.723,-1119.56"/>
<text text-anchor="middle" x="342.5" y="-1092.8" font-family="Times New Roman,serif" font-size="14.00">Narration</text>
<text text-anchor="middle" x="342.5" y="-1077.8" font-family="Times New Roman,serif" font-size="14.00">4</text>
</g>
<!-- A150_4&#45;&gt;A150_5 -->
<g id="edge14" class="edge"><title>A150_4&#45;&gt;A150_5</title>
<path fill="none" stroke="#b2df8a" stroke-width="4.73684" d="M364.298,-1116.92C366.038,-1112.74 367.56,-1108.32 368.5,-1104 371.337,-1090.97 371.337,-1087.03 368.5,-1074 367.192,-1067.99 364.758,-1061.78 362.176,-1056.29"/>
<polygon fill="#b2df8a" stroke="#b2df8a" stroke-width="4.73684" points="362.309,-1116.3 362.176,-1121.71 366.098,-1117.98 362.309,-1116.3"/>
<text text-anchor="middle" x="436" y="-1092.8" font-family="Times New Roman,serif" font-size="14.00">Elaboration descriptive</text>
<text text-anchor="middle" x="436" y="-1077.8" font-family="Times New Roman,serif" font-size="14.00">9</text>
</g>
<!-- B151 -->
<g id="node7" class="node"><title>B151</title>
<polygon fill="skyblue" stroke="black" points="225,-954 52,-954 52,-918 225,-918 225,-954"/>
<text text-anchor="middle" x="138.5" y="-932.3" font-family="Times New Roman,serif" font-size="14.00">B151 : D’une certaine façon</text>
<text text-anchor="start" x="44" y="-958.8" font-family="Times New Roman,serif" font-weight="bold" font-style="italic" font-size="14.00" fill="red">1</text>
</g>
<!-- A150_5&#45;&gt;B151 -->
<g id="edge28" class="edge"><title>A150_5&#45;&gt;B151</title>
<path fill="none" stroke="#e31a1c" stroke-width="3.68421" d="M220.37,-1018.81C199.798,-1014.15 182.409,-1008.56 173.5,-1002 157.609,-990.292 148.172,-969.149 143.173,-954.158"/>
<polygon fill="#e31a1c" stroke="#e31a1c" stroke-width="3.68421" points="220.118,-1020.55 225.377,-1019.91 220.87,-1017.13 220.118,-1020.55"/>
<text text-anchor="middle" x="199.5" y="-990.8" font-family="Times New Roman,serif" font-size="14.00">Conduite</text>
<text text-anchor="middle" x="199.5" y="-975.8" font-family="Times New Roman,serif" font-size="14.00">7</text>
</g>
<!-- A150_5&#45;&gt;B151 -->
<g id="edge34" class="edge"><title>A150_5&#45;&gt;B151</title>
<path fill="none" stroke="#fdbf6f" stroke-width="3.68421" d="M316.461,-1017.45C291.269,-1004.06 256.688,-986.219 225.5,-972 211.871,-965.786 196.802,-959.519 183.088,-954.038"/>
<polygon fill="#fdbf6f" stroke="#fdbf6f" stroke-width="3.68421" points="315.817,-1019.09 321.053,-1019.9 317.463,-1016 315.817,-1019.09"/>
<text text-anchor="middle" x="310" y="-990.8" font-family="Times New Roman,serif" font-size="14.00">Phatique</text>
<text text-anchor="middle" x="310" y="-975.8" font-family="Times New Roman,serif" font-size="14.00">7</text>
</g>
<!-- A152_1 -->
<g id="node8" class="node"><title>A152_1</title>
<polygon fill="wheat" stroke="black" points="612,-954 243,-954 243,-918 612,-918 612,-954"/>
<text text-anchor="middle" x="427.5" y="-932.3" font-family="Times New Roman,serif" font-size="14.00">A152_1 : J’ai découvert l’art j’ai découvert l’art proprement dit</text>
<text text-anchor="start" x="235" y="-958.8" font-family="Times New Roman,serif" font-weight="bold" font-style="italic" font-size="14.00" fill="red">2</text>
</g>
<!-- A150_5&#45;&gt;A152_1 -->
<g id="edge5" class="edge"><title>A150_5&#45;&gt;A152_1</title>
<path fill="none" stroke="#a6cee3" stroke-width="4.21053" d="M347.279,-1014.7C345.42,-1001.3 345.461,-984.481 353.5,-972 358.271,-964.592 365.072,-958.72 372.639,-954.073"/>
<polygon fill="#a6cee3" stroke="#a6cee3" stroke-width="4.21053" points="345.493,-1015.19 348.106,-1019.84 349.13,-1014.61 345.493,-1015.19"/>
<text text-anchor="middle" x="379.5" y="-990.8" font-family="Times New Roman,serif" font-size="14.00">Narration</text>
<text text-anchor="middle" x="379.5" y="-975.8" font-family="Times New Roman,serif" font-size="14.00">8</text>
</g>
<!-- A150_5&#45;&gt;A152_1 -->
<g id="edge15" class="edge"><title>A150_5&#45;&gt;A152_1</title>
<path fill="none" stroke="#b2df8a" stroke-width="5.78947" d="M390.231,-1016.69C395.903,-1012.41 401.262,-1007.5 405.5,-1002 416.338,-987.941 422.013,-968.229 424.863,-954.206"/>
<polygon fill="#b2df8a" stroke="#b2df8a" stroke-width="5.78947" points="388.43,-1014.86 385.846,-1019.84 391.385,-1018.98 388.43,-1014.86"/>
<text text-anchor="middle" x="485" y="-990.8" font-family="Times New Roman,serif" font-size="14.00">Elaboration descriptive</text>
<text text-anchor="middle" x="485" y="-975.8" font-family="Times New Roman,serif" font-size="14.00">11</text>
</g>
<!-- A154_2 -->
<g id="node12" class="node"><title>A154_2</title>
<polygon fill="wheat" stroke="black" points="897,-954 630,-954 630,-918 897,-918 897,-954"/>
<text text-anchor="middle" x="763.5" y="-932.3" font-family="Times New Roman,serif" font-size="14.00">A154_2 : j’étais j’… j’… j’étais doué enfin...</text>
</g>
<!-- A150_5&#45;&gt;A154_2 -->
<g id="edge23" class="edge"><title>A150_5&#45;&gt;A154_2</title>
<path fill="none" stroke="#33a02c" stroke-width="3.15789" d="M470.288,-1019.09C497.737,-1014.19 526.754,-1008.44 553.5,-1002 609.528,-988.509 672.522,-968.319 714.772,-954.026"/>
<polygon fill="#33a02c" stroke="#33a02c" stroke-width="3.15789" points="469.8,-1017.39 465.181,-1019.99 470.41,-1020.84 469.8,-1017.39"/>
<text text-anchor="middle" x="719.5" y="-990.8" font-family="Times New Roman,serif" font-size="14.00">Elaboration evaluative</text>
<text text-anchor="middle" x="719.5" y="-975.8" font-family="Times New Roman,serif" font-size="14.00">6</text>
</g>
<!-- A152_2 -->
<g id="node9" class="node"><title>A152_2</title>
<polygon fill="wheat" stroke="black" points="645.5,-852 209.5,-852 209.5,-816 645.5,-816 645.5,-852"/>
<text text-anchor="middle" x="427.5" y="-830.3" font-family="Times New Roman,serif" font-size="14.00">A152_2 : avec des morceaux de bois et sans clous j’arrive à faire une porte</text>
</g>
<!-- A152_1&#45;&gt;A152_2 -->
<g id="edge16" class="edge"><title>A152_1&#45;&gt;A152_2</title>
<path fill="none" stroke="#b2df8a" stroke-width="8.42105" d="M427.5,-912.163C427.5,-893.932 427.5,-868.784 427.5,-852.219"/>
<polygon fill="#b2df8a" stroke="#b2df8a" stroke-width="8.42105" points="423.816,-912.581 427.5,-917.581 431.184,-912.581 423.816,-912.581"/>
<text text-anchor="middle" x="492" y="-888.8" font-family="Times New Roman,serif" font-size="14.00">Elaboration descriptive</text>
<text text-anchor="middle" x="492" y="-873.8" font-family="Times New Roman,serif" font-size="14.00">16</text>
</g>
<!-- B153 -->
<g id="node10" class="node"><title>B153</title>
<polygon fill="skyblue" stroke="black" points="328.5,-750 218.5,-750 218.5,-714 328.5,-714 328.5,-750"/>
<text text-anchor="middle" x="273.5" y="-728.3" font-family="Times New Roman,serif" font-size="14.00">B153 : D’accord</text>
</g>
<!-- A152_2&#45;&gt;B153 -->
<g id="edge35" class="edge"><title>A152_2&#45;&gt;B153</title>
<path fill="none" stroke="#fdbf6f" stroke-width="6.84211" d="M396.594,-812.931C368.247,-794.524 326.71,-767.552 299.885,-750.133"/>
<polygon fill="#fdbf6f" stroke="#fdbf6f" stroke-width="6.84211" points="395.203,-815.597 401.026,-815.809 398.463,-810.576 395.203,-815.597"/>
<text text-anchor="middle" x="398" y="-786.8" font-family="Times New Roman,serif" font-size="14.00">Phatique</text>
<text text-anchor="middle" x="398" y="-771.8" font-family="Times New Roman,serif" font-size="14.00">13</text>
</g>
<!-- A154_1 -->
<g id="node11" class="node"><title>A154_1</title>
<polygon fill="wheat" stroke="black" points="572.5,-750 346.5,-750 346.5,-714 572.5,-714 572.5,-750"/>
<text text-anchor="middle" x="459.5" y="-728.3" font-family="Times New Roman,serif" font-size="14.00">A154_1 : En entrelaçant les branches.</text>
<text text-anchor="start" x="338.5" y="-754.8" font-family="Times New Roman,serif" font-weight="bold" font-style="italic" font-size="14.00" fill="red">1</text>
</g>
<!-- A152_2&#45;&gt;A154_1 -->
<g id="edge17" class="edge"><title>A152_2&#45;&gt;A154_1</title>
<path fill="none" stroke="#b2df8a" stroke-width="8.42105" d="M434.658,-810.633C440.503,-792.366 448.643,-766.927 453.99,-750.219"/>
<polygon fill="#b2df8a" stroke="#b2df8a" stroke-width="8.42105" points="431.089,-809.696 433.074,-815.581 438.107,-811.942 431.089,-809.696"/>
<text text-anchor="middle" x="513" y="-786.8" font-family="Times New Roman,serif" font-size="14.00">Elaboration descriptive</text>
<text text-anchor="middle" x="513" y="-771.8" font-family="Times New Roman,serif" font-size="14.00">16</text>
</g>
<!-- B155 -->
<g id="node13" class="node"><title>B155</title>
<polygon fill="skyblue" stroke="black" points="998.5,-852 666.5,-852 666.5,-816 998.5,-816 998.5,-852"/>
<text text-anchor="middle" x="832.5" y="-830.3" font-family="Times New Roman,serif" font-size="14.00">B155 : Vous avez découvert que vous étiez doué en fait?</text>
<text text-anchor="start" x="658.5" y="-856.8" font-family="Times New Roman,serif" font-weight="bold" font-style="italic" font-size="14.00" fill="red">1</text>
</g>
<!-- A154_2&#45;&gt;B155 -->
<g id="edge29" class="edge"><title>A154_2&#45;&gt;B155</title>
<path fill="none" stroke="#e31a1c" stroke-width="3.68421" d="M757.486,-912.802C755.175,-899.44 754.695,-882.628 762.5,-870 767.072,-862.603 773.732,-856.717 781.152,-852.049"/>
<polygon fill="#e31a1c" stroke="#e31a1c" stroke-width="3.68421" points="755.811,-913.353 758.489,-917.923 759.246,-912.68 755.811,-913.353"/>
<text text-anchor="middle" x="788.5" y="-888.8" font-family="Times New Roman,serif" font-size="14.00">Conduite</text>
<text text-anchor="middle" x="788.5" y="-873.8" font-family="Times New Roman,serif" font-size="14.00">7</text>
</g>
<!-- A154_2&#45;&gt;B155 -->
<g id="edge38" class="edge"><title>A154_2&#45;&gt;B155</title>
<path fill="none" stroke="#6a3d9a" stroke-width="6.31579" d="M800.066,-914.697C805.494,-910.416 810.573,-905.503 814.5,-900 824.634,-885.798 829.069,-866.108 831.006,-852.13"/>
<polygon fill="#6a3d9a" stroke="#6a3d9a" stroke-width="6.31579" points="798.207,-912.637 795.861,-917.846 801.519,-917.06 798.207,-912.637"/>
<text text-anchor="middle" x="853" y="-888.8" font-family="Times New Roman,serif" font-size="14.00">Question</text>
<text text-anchor="middle" x="853" y="-873.8" font-family="Times New Roman,serif" font-size="14.00">12</text>
</g>
<!-- A156 -->
<g id="node14" class="node"><title>A156</title>
<polygon fill="wheat" stroke="black" points="1042,-750 623,-750 623,-714 1042,-714 1042,-750"/>
<text text-anchor="middle" x="832.5" y="-728.3" font-family="Times New Roman,serif" font-size="14.00">A156 : Enfin j’ai découvert que j’avais... que j’étais... PRO par vocation</text>
<text text-anchor="start" x="607" y="-754.8" font-family="Times New Roman,serif" font-weight="bold" font-style="italic" font-size="14.00" fill="red">12</text>
</g>
<!-- B155&#45;&gt;A156 -->
<g id="edge9" class="edge"><title>B155&#45;&gt;A156</title>
<path fill="none" stroke="#1f78b4" stroke-width="7.36842" d="M832.5,-810.163C832.5,-791.932 832.5,-766.784 832.5,-750.219"/>
<polygon fill="#1f78b4" stroke="#1f78b4" stroke-width="7.36842" points="829.276,-810.581 832.5,-815.581 835.724,-810.581 829.276,-810.581"/>
<text text-anchor="middle" x="857.5" y="-786.8" font-family="Times New Roman,serif" font-size="14.00">Réponse</text>
<text text-anchor="middle" x="857.5" y="-771.8" font-family="Times New Roman,serif" font-size="14.00">14</text>
</g>
<!-- B157 -->
<g id="node15" class="node"><title>B157</title>
<polygon fill="skyblue" stroke="black" points="743,-648 632,-648 632,-612 743,-612 743,-648"/>
<text text-anchor="middle" x="687.5" y="-626.3" font-family="Times New Roman,serif" font-size="14.00">B157 : Hum hum</text>
<text text-anchor="start" x="624" y="-652.8" font-family="Times New Roman,serif" font-weight="bold" font-style="italic" font-size="14.00" fill="red">1</text>
</g>
<!-- A156&#45;&gt;B157 -->
<g id="edge30" class="edge"><title>A156&#45;&gt;B157</title>
<path fill="none" stroke="#e31a1c" stroke-width="2.63158" d="M717.883,-712.476C703.295,-707.976 691.648,-702.528 686.5,-696 675.947,-682.618 678.191,-662.408 681.807,-648.081"/>
<polygon fill="#e31a1c" stroke="#e31a1c" stroke-width="2.63158" points="717.648,-714.231 722.938,-713.966 718.637,-710.874 717.648,-714.231"/>
<text text-anchor="middle" x="712.5" y="-684.8" font-family="Times New Roman,serif" font-size="14.00">Conduite</text>
<text text-anchor="middle" x="712.5" y="-669.8" font-family="Times New Roman,serif" font-size="14.00">5</text>
</g>
<!-- A156&#45;&gt;B157 -->
<g id="edge36" class="edge"><title>A156&#45;&gt;B157</title>
<path fill="none" stroke="#fdbf6f" stroke-width="7.89474" d="M801.691,-711.014C794.372,-706.167 786.622,-700.953 779.5,-696 760.963,-683.108 756.922,-679.056 738.5,-666 730.177,-660.101 721.008,-653.76 712.767,-648.118"/>
<polygon fill="#fdbf6f" stroke="#fdbf6f" stroke-width="7.89474" points="800.108,-714.108 806.184,-713.979 803.913,-708.342 800.108,-714.108"/>
<text text-anchor="middle" x="804" y="-684.8" font-family="Times New Roman,serif" font-size="14.00">Phatique</text>
<text text-anchor="middle" x="804" y="-669.8" font-family="Times New Roman,serif" font-size="14.00">15</text>
</g>
<!-- A158_1 -->
<g id="node16" class="node"><title>A158_1</title>
<polygon fill="wheat" stroke="black" points="902.5,-648 762.5,-648 762.5,-612 902.5,-612 902.5,-648"/>
<text text-anchor="middle" x="832.5" y="-626.3" font-family="Times New Roman,serif" font-size="14.00">A158_1 : Provocation</text>
<text text-anchor="start" x="754.5" y="-652.8" font-family="Times New Roman,serif" font-weight="bold" font-style="italic" font-size="14.00" fill="red">5</text>
</g>
<!-- A156&#45;&gt;A158_1 -->
<g id="edge6" class="edge"><title>A156&#45;&gt;A158_1</title>
<path fill="none" stroke="#a6cee3" stroke-width="4.21053" d="M832.5,-708.163C832.5,-689.932 832.5,-664.784 832.5,-648.219"/>
<polygon fill="#a6cee3" stroke="#a6cee3" stroke-width="4.21053" points="830.658,-708.581 832.5,-713.581 834.342,-708.581 830.658,-708.581"/>
<text text-anchor="middle" x="858.5" y="-684.8" font-family="Times New Roman,serif" font-size="14.00">Narration</text>
<text text-anchor="middle" x="858.5" y="-669.8" font-family="Times New Roman,serif" font-size="14.00">8</text>
</g>
<!-- A156&#45;&gt;A158_1 -->
<g id="edge18" class="edge"><title>A156&#45;&gt;A158_1</title>
<path fill="none" stroke="#b2df8a" stroke-width="5.26316" d="M872.884,-710.892C877.946,-706.671 882.419,-701.726 885.5,-696 891.817,-684.258 891.817,-677.742 885.5,-666 881.634,-658.814 875.575,-652.858 868.913,-648.021"/>
<polygon fill="#b2df8a" stroke="#b2df8a" stroke-width="5.26316" points="871.448,-709.092 868.913,-713.979 874.274,-712.728 871.448,-709.092"/>
<text text-anchor="middle" x="955" y="-684.8" font-family="Times New Roman,serif" font-size="14.00">Elaboration descriptive</text>
<text text-anchor="middle" x="955" y="-669.8" font-family="Times New Roman,serif" font-size="14.00">10</text>
</g>
<!-- A162 -->
<g id="node23" class="node"><title>A162</title>
<polygon fill="wheat" stroke="black" points="1238.5,-36 772.5,-36 772.5,-0 1238.5,-0 1238.5,-36"/>
<text text-anchor="middle" x="1005.5" y="-14.3" font-family="Times New Roman,serif" font-size="14.00">A162 : J’étais un pro par vocation j’étais devenu un génie j’étais devenu un génie</text>
<text text-anchor="start" x="764.5" y="-40.8" font-family="Times New Roman,serif" font-weight="bold" font-style="italic" font-size="14.00" fill="red">2</text>
</g>
<!-- A156&#45;&gt;A162 -->
<g id="edge24" class="edge"><title>A156&#45;&gt;A162</title>
<path fill="none" stroke="#33a02c" stroke-width="2.10526" d="M984.171,-712.331C997.862,-707.955 1011.19,-702.585 1023.5,-696 1058.98,-677.026 1086.5,-671.231 1086.5,-631 1086.5,-631 1086.5,-631 1086.5,-119 1086.5,-89.4486 1090.4,-77.5116 1072.5,-54 1066.93,-46.6911 1059.4,-40.7624 1051.4,-36.0056"/>
<polygon fill="#33a02c" stroke="#33a02c" stroke-width="2.10526" points="983.37,-710.747 979.112,-713.899 984.406,-714.09 983.37,-710.747"/>
<text text-anchor="middle" x="1147.5" y="-378.8" font-family="Times New Roman,serif" font-size="14.00">Elaboration evaluative</text>
<text text-anchor="middle" x="1147.5" y="-363.8" font-family="Times New Roman,serif" font-size="14.00">4</text>
</g>
<!-- A158_2 -->
<g id="node17" class="node"><title>A158_2</title>
<polygon fill="wheat" stroke="black" points="959,-546 636,-546 636,-510 959,-510 959,-546"/>
<text text-anchor="middle" x="797.5" y="-524.3" font-family="Times New Roman,serif" font-size="14.00">A158_2 : c’est incroyable ce que je pouvais provoquer</text>
</g>
<!-- A158_1&#45;&gt;A158_2 -->
<g id="edge7" class="edge"><title>A158_1&#45;&gt;A158_2</title>
<path fill="none" stroke="#a6cee3" stroke-width="2.63158" d="M757.313,-611.851C741.645,-606.741 728.382,-600.695 723.5,-594 715.644,-583.227 716.367,-575.265 723.5,-564 728.214,-556.556 734.985,-550.664 742.54,-546.01"/>
<polygon fill="#a6cee3" stroke="#a6cee3" stroke-width="2.63158" points="756.951,-613.572 762.246,-613.407 758.004,-610.234 756.951,-613.572"/>
<text text-anchor="middle" x="749.5" y="-582.8" font-family="Times New Roman,serif" font-size="14.00">Narration</text>
<text text-anchor="middle" x="749.5" y="-567.8" font-family="Times New Roman,serif" font-size="14.00">5</text>
</g>
<!-- A158_1&#45;&gt;A158_2 -->
<g id="edge19" class="edge"><title>A158_1&#45;&gt;A158_2</title>
<path fill="none" stroke="#b2df8a" stroke-width="4.21053" d="M807.37,-607.982C803.771,-603.745 800.587,-599.033 798.5,-594 792.187,-578.779 792.75,-559.778 794.399,-546.259"/>
<polygon fill="#b2df8a" stroke="#b2df8a" stroke-width="4.21053" points="806.048,-609.267 810.771,-611.734 808.778,-606.792 806.048,-609.267"/>
<text text-anchor="middle" x="863" y="-582.8" font-family="Times New Roman,serif" font-size="14.00">Elaboration descriptive</text>
<text text-anchor="middle" x="863" y="-567.8" font-family="Times New Roman,serif" font-size="14.00">8</text>
</g>
<!-- A158_1&#45;&gt;A158_2 -->
<g id="edge25" class="edge"><title>A158_1&#45;&gt;A158_2</title>
<path fill="none" stroke="#33a02c" stroke-width="2.10526" d="M907.232,-612.112C915.164,-607.464 922.241,-601.542 927.5,-594 935.126,-583.063 935.61,-574.583 927.5,-564 922.062,-556.904 908.265,-550.924 891.591,-546.026"/>
<polygon fill="#33a02c" stroke="#33a02c" stroke-width="2.10526" points="906.292,-610.631 902.744,-614.565 907.971,-613.702 906.292,-610.631"/>
<text text-anchor="middle" x="994.5" y="-582.8" font-family="Times New Roman,serif" font-size="14.00">Elaboration evaluative</text>
<text text-anchor="middle" x="994.5" y="-567.8" font-family="Times New Roman,serif" font-size="14.00">4</text>
</g>
<!-- B159 -->
<g id="node18" class="node"><title>B159</title>
<polygon fill="skyblue" stroke="black" points="710.5,-444 588.5,-444 588.5,-408 710.5,-408 710.5,-444"/>
<text text-anchor="middle" x="649.5" y="-422.3" font-family="Times New Roman,serif" font-size="14.00">B159 : Ouais ouais</text>
</g>
<!-- A158_2&#45;&gt;B159 -->
<g id="edge31" class="edge"><title>A158_2&#45;&gt;B159</title>
<path fill="none" stroke="#e31a1c" stroke-width="2.63158" d="M686,-508.453C671.007,-503.922 658.915,-498.47 653.5,-492 642.542,-478.909 643.119,-458.646 645.436,-444.227"/>
<polygon fill="#e31a1c" stroke="#e31a1c" stroke-width="2.63158" points="685.9,-510.246 691.19,-509.954 686.873,-506.883 685.9,-510.246"/>
<text text-anchor="middle" x="679.5" y="-480.8" font-family="Times New Roman,serif" font-size="14.00">Conduite</text>
<text text-anchor="middle" x="679.5" y="-465.8" font-family="Times New Roman,serif" font-size="14.00">5</text>
</g>
<!-- A158_2&#45;&gt;B159 -->
<g id="edge37" class="edge"><title>A158_2&#45;&gt;B159</title>
<path fill="none" stroke="#fdbf6f" stroke-width="7.36842" d="M767.911,-506.917C760.865,-502.073 753.393,-496.885 746.5,-492 728.078,-478.944 724.197,-474.659 705.5,-462 696.576,-455.958 686.655,-449.634 677.673,-444.05"/>
<polygon fill="#fdbf6f" stroke="#fdbf6f" stroke-width="7.36842" points="766.287,-509.712 772.233,-509.882 769.934,-504.395 766.287,-509.712"/>
<text text-anchor="middle" x="771" y="-480.8" font-family="Times New Roman,serif" font-size="14.00">Phatique</text>
<text text-anchor="middle" x="771" y="-465.8" font-family="Times New Roman,serif" font-size="14.00">14</text>
</g>
<!-- A160_1 -->
<g id="node19" class="node"><title>A160_1</title>
<polygon fill="wheat" stroke="black" points="1048.5,-444 728.5,-444 728.5,-408 1048.5,-408 1048.5,-444"/>
<text text-anchor="middle" x="888.5" y="-422.3" font-family="Times New Roman,serif" font-size="14.00">A160_1 : Je savais titiller les mecs dans la provocation</text>
</g>
<!-- A158_2&#45;&gt;A160_1 -->
<g id="edge8" class="edge"><title>A158_2&#45;&gt;A160_1</title>
<path fill="none" stroke="#a6cee3" stroke-width="2.63158" d="M797.021,-504.513C797.848,-490.895 800.998,-473.915 810.5,-462 816.33,-454.689 824.015,-448.857 832.288,-444.219"/>
<polygon fill="#a6cee3" stroke="#a6cee3" stroke-width="2.63158" points="795.263,-504.67 796.805,-509.738 798.76,-504.815 795.263,-504.67"/>
<text text-anchor="middle" x="836.5" y="-480.8" font-family="Times New Roman,serif" font-size="14.00">Narration</text>
<text text-anchor="middle" x="836.5" y="-465.8" font-family="Times New Roman,serif" font-size="14.00">5</text>
</g>
<!-- A158_2&#45;&gt;A160_1 -->
<g id="edge20" class="edge"><title>A158_2&#45;&gt;A160_1</title>
<path fill="none" stroke="#b2df8a" stroke-width="5.78947" d="M844.416,-506.982C851.062,-502.728 857.369,-497.749 862.5,-492 874.64,-478.399 881.48,-458.42 885.063,-444.208"/>
<polygon fill="#b2df8a" stroke="#b2df8a" stroke-width="5.78947" points="842.723,-505.048 839.77,-509.812 845.358,-509.374 842.723,-505.048"/>
<text text-anchor="middle" x="944" y="-480.8" font-family="Times New Roman,serif" font-size="14.00">Elaboration descriptive</text>
<text text-anchor="middle" x="944" y="-465.8" font-family="Times New Roman,serif" font-size="14.00">11</text>
</g>
<!-- A160_2 -->
<g id="node20" class="node"><title>A160_2</title>
<polygon fill="wheat" stroke="black" points="951.5,-342 553.5,-342 553.5,-306 951.5,-306 951.5,-342"/>
<text text-anchor="middle" x="752.5" y="-320.3" font-family="Times New Roman,serif" font-size="14.00">A160_2 : et d… des mecs balèzes et que moi j’avais aucune hostilité</text>
<text text-anchor="start" x="545.5" y="-346.8" font-family="Times New Roman,serif" font-weight="bold" font-style="italic" font-size="14.00" fill="red">1</text>
</g>
<!-- A160_1&#45;&gt;A160_2 -->
<g id="edge21" class="edge"><title>A160_1&#45;&gt;A160_2</title>
<path fill="none" stroke="#b2df8a" stroke-width="7.89474" d="M857.978,-404.947C850.866,-400.14 843.367,-394.96 836.5,-390 814.825,-374.345 790.755,-355.571 773.957,-342.234"/>
<polygon fill="#b2df8a" stroke="#b2df8a" stroke-width="7.89474" points="856.27,-407.961 862.347,-407.887 860.127,-402.23 856.27,-407.961"/>
<text text-anchor="middle" x="901" y="-378.8" font-family="Times New Roman,serif" font-size="14.00">Elaboration descriptive</text>
<text text-anchor="middle" x="901" y="-363.8" font-family="Times New Roman,serif" font-size="14.00">15</text>
</g>
<!-- B161 -->
<g id="node22" class="node"><title>B161</title>
<polygon fill="skyblue" stroke="black" points="1058.5,-138 742.5,-138 742.5,-102 1058.5,-102 1058.5,-138"/>
<text text-anchor="middle" x="900.5" y="-116.3" font-family="Times New Roman,serif" font-size="14.00">B161 : Oui vous étiez de fait le plus fort à ce niveau là</text>
<text text-anchor="start" x="734.5" y="-142.8" font-family="Times New Roman,serif" font-weight="bold" font-style="italic" font-size="14.00" fill="red">1</text>
</g>
<!-- A160_1&#45;&gt;B161 -->
<g id="edge32" class="edge"><title>A160_1&#45;&gt;B161</title>
<path fill="none" stroke="#e31a1c" stroke-width="2.10526" d="M950.904,-404.918C956.632,-400.822 961.699,-395.903 965.5,-390 1021.9,-302.403 1006.58,-244.433 951.5,-156 947.128,-148.981 940.772,-143.019 934.022,-138.111"/>
<polygon fill="#e31a1c" stroke="#e31a1c" stroke-width="2.10526" points="949.611,-403.676 946.405,-407.893 951.541,-406.595 949.611,-403.676"/>
<text text-anchor="middle" x="1027.5" y="-276.8" font-family="Times New Roman,serif" font-size="14.00">Conduite</text>
<text text-anchor="middle" x="1027.5" y="-261.8" font-family="Times New Roman,serif" font-size="14.00">4</text>
</g>
<!-- A160_3 -->
<g id="node21" class="node"><title>A160_3</title>
<polygon fill="wheat" stroke="black" points="950,-240 561,-240 561,-204 950,-204 950,-240"/>
<text text-anchor="middle" x="755.5" y="-218.3" font-family="Times New Roman,serif" font-size="14.00">A160_3 : mais avec les paroles l’autre il s’en prenait plein la gueule</text>
<text text-anchor="start" x="553" y="-244.8" font-family="Times New Roman,serif" font-weight="bold" font-style="italic" font-size="14.00" fill="red">1</text>
</g>
<!-- A160_2&#45;&gt;A160_3 -->
<g id="edge22" class="edge"><title>A160_2&#45;&gt;A160_3</title>
<path fill="none" stroke="#b2df8a" stroke-width="7.36842" d="M753.185,-300.163C753.732,-281.932 754.486,-256.784 754.983,-240.219"/>
<polygon fill="#b2df8a" stroke="#b2df8a" stroke-width="7.36842" points="749.95,-300.487 753.023,-305.581 756.395,-300.68 749.95,-300.487"/>
<text text-anchor="middle" x="819" y="-276.8" font-family="Times New Roman,serif" font-size="14.00">Elaboration descriptive</text>
<text text-anchor="middle" x="819" y="-261.8" font-family="Times New Roman,serif" font-size="14.00">14</text>
</g>
<!-- A160_3&#45;&gt;B161 -->
<g id="edge26" class="edge"><title>A160_3&#45;&gt;B161</title>
<path fill="none" stroke="#33a02c" stroke-width="2.63158" d="M749.499,-198.621C747.23,-184.894 747.112,-167.756 756.5,-156 762.28,-148.763 776.199,-142.828 793.222,-138.035"/>
<polygon fill="#33a02c" stroke="#33a02c" stroke-width="2.63158" points="747.847,-199.301 750.5,-203.886 751.286,-198.647 747.847,-199.301"/>
<text text-anchor="middle" x="817.5" y="-174.8" font-family="Times New Roman,serif" font-size="14.00">Elaboration evaluative</text>
<text text-anchor="middle" x="817.5" y="-159.8" font-family="Times New Roman,serif" font-size="14.00">5</text>
</g>
<!-- A160_3&#45;&gt;B161 -->
<g id="edge33" class="edge"><title>A160_3&#45;&gt;B161</title>
<path fill="none" stroke="#e31a1c" stroke-width="3.68421" d="M856.142,-201.663C864.3,-197.421 871.92,-192.265 878.5,-186 891.615,-173.514 896.912,-152.94 899.051,-138.284"/>
<polygon fill="#e31a1c" stroke="#e31a1c" stroke-width="3.68421" points="855.266,-200.144 851.557,-203.927 856.815,-203.282 855.266,-200.144"/>
<text text-anchor="middle" x="921.5" y="-174.8" font-family="Times New Roman,serif" font-size="14.00">Conduite</text>
<text text-anchor="middle" x="921.5" y="-159.8" font-family="Times New Roman,serif" font-size="14.00">7</text>
</g>
<!-- B161&#45;&gt;A162 -->
<g id="edge27" class="edge"><title>B161&#45;&gt;A162</title>
<path fill="none" stroke="#33a02c" stroke-width="2.10526" d="M914.18,-97.5168C923.41,-84.0483 936.437,-66.8641 950.5,-54 957.682,-47.4302 966.245,-41.3246 974.452,-36.1128"/>
<polygon fill="#33a02c" stroke="#33a02c" stroke-width="2.10526" points="912.548,-96.8073 911.2,-101.93 915.448,-98.7661 912.548,-96.8073"/>
<text text-anchor="middle" x="1011.5" y="-72.8" font-family="Times New Roman,serif" font-size="14.00">Elaboration evaluative</text>
<text text-anchor="middle" x="1011.5" y="-57.8" font-family="Times New Roman,serif" font-size="14.00">4</text>
</g>
</g>
</svg>
