<?xml version="1.0" encoding="UTF-8" standalone="no"?>
<!DOCTYPE svg PUBLIC "-//W3C//DTD SVG 1.1//EN"
 "http://www.w3.org/Graphics/SVG/1.1/DTD/svg11.dtd">
<!-- Generated by graphviz version 2.38.0 (20140413.2041)
 -->
<!-- Title: Sauveur Pages: 1 -->
<svg width="1924pt" height="1226pt"
 viewBox="0.00 0.00 1924.00 1226.00" xmlns="http://www.w3.org/2000/svg" xmlns:xlink="http://www.w3.org/1999/xlink">
<g id="graph0" class="graph" transform="scale(1 1) rotate(0) translate(4 1222)">
<title>Sauveur</title>
<polygon fill="white" stroke="none" points="-4,4 -4,-1222 1920,-1222 1920,4 -4,4"/>
<text text-anchor="start" x="23" y="-1199" font-family="Times New Roman,serif" font-size="20.00">Sauveur</text>
<text text-anchor="start" x="8" y="-1182.2" font-family="Times New Roman,serif" font-size="16.00">16 annotations </text>
<text text-anchor="start" x="17" y="-1166.2" font-family="Times New Roman,serif" font-size="16.00"> seuil = 0.15</text>
<!-- début -->
<g id="node1" class="node"><title>début</title>
<polygon fill="lightgrey" stroke="black" points="1260.5,-1158 1168.5,-1158 1168.5,-1122 1260.5,-1122 1260.5,-1158"/>
<text text-anchor="middle" x="1214.5" y="-1136.3" font-family="Times New Roman,serif" font-size="14.00">début : Début</text>
</g>
<!-- A1 -->
<g id="node2" class="node"><title>A1</title>
<polygon fill="wheat" stroke="black" points="1111.5,-1056 611.5,-1056 611.5,-1020 1111.5,-1020 1111.5,-1056"/>
<text text-anchor="middle" x="861.5" y="-1034.3" font-family="Times New Roman,serif" font-size="14.00">A1 : enfin moi où j&#39;ai quand même souffert c&#39;est quand j&#39;ai eu mon traumatisme crânien</text>
<text text-anchor="start" x="595.5" y="-1060.8" font-family="Times New Roman,serif" font-weight="bold" font-style="italic" font-size="14.00" fill="red">15</text>
</g>
<!-- début&#45;&gt;A1 -->
<g id="edge1" class="edge"><title>début&#45;&gt;A1</title>
<path fill="none" stroke="#a6cee3" stroke-width="10" d="M1163.36,-1125.93C1138.6,-1119.5 1108.45,-1111.53 1081.5,-1104 1025.5,-1088.36 961.815,-1069.42 917.429,-1056.03"/>
<polygon fill="#a6cee3" stroke="#a6cee3" stroke-width="10" points="1162.31,-1130.17 1168.24,-1127.19 1164.5,-1121.7 1162.31,-1130.17"/>
<text text-anchor="middle" x="1107.5" y="-1092.8" font-family="Times New Roman,serif" font-size="14.00">Narration</text>
<text text-anchor="middle" x="1107.5" y="-1077.8" font-family="Times New Roman,serif" font-size="14.00">15</text>
</g>
<!-- A5_1 -->
<g id="node9" class="node"><title>A5_1</title>
<polygon fill="wheat" stroke="black" points="1143,-954 904,-954 904,-918 1143,-918 1143,-954"/>
<text text-anchor="middle" x="1023.5" y="-932.3" font-family="Times New Roman,serif" font-size="14.00">A5_1 : On allait dans la ferme à S. (lieu)</text>
<text text-anchor="start" x="896" y="-958.8" font-family="Times New Roman,serif" font-weight="bold" font-style="italic" font-size="14.00" fill="red">8</text>
</g>
<!-- début&#45;&gt;A5_1 -->
<g id="edge2" class="edge"><title>début&#45;&gt;A5_1</title>
<path fill="none" stroke="#a6cee3" stroke-width="2" d="M1199.56,-1117.79C1187.8,-1101.05 1171.02,-1077.09 1156.5,-1056 1130.91,-1018.84 1133.92,-1001.17 1099.5,-972 1091.19,-964.956 1081.22,-959.035 1071.29,-954.184"/>
<polygon fill="#a6cee3" stroke="#a6cee3" stroke-width="2" points="1198.13,-1118.8 1202.43,-1121.88 1200.99,-1116.78 1198.13,-1118.8"/>
<text text-anchor="middle" x="1182.5" y="-1041.8" font-family="Times New Roman,serif" font-size="14.00">Narration</text>
<text text-anchor="middle" x="1182.5" y="-1026.8" font-family="Times New Roman,serif" font-size="14.00">3</text>
</g>
<!-- A5_5 -->
<g id="node13" class="node"><title>A5_5</title>
<polygon fill="wheat" stroke="black" points="1549.5,-1056 1217.5,-1056 1217.5,-1020 1549.5,-1020 1549.5,-1056"/>
<text text-anchor="middle" x="1383.5" y="-1034.3" font-family="Times New Roman,serif" font-size="14.00">A5_5 : Moi j&#39;aimais j’aime bien Franck. Franck L (nom).</text>
<text text-anchor="start" x="1209.5" y="-1060.8" font-family="Times New Roman,serif" font-weight="bold" font-style="italic" font-size="14.00" fill="red">2</text>
</g>
<!-- début&#45;&gt;A5_5 -->
<g id="edge3" class="edge"><title>début&#45;&gt;A5_5</title>
<path fill="none" stroke="#a6cee3" stroke-width="4" d="M1248.03,-1119.16C1279.15,-1100.75 1324.99,-1073.62 1354.54,-1056.13"/>
<polygon fill="#a6cee3" stroke="#a6cee3" stroke-width="4" points="1246.96,-1117.76 1243.55,-1121.81 1248.75,-1120.77 1246.96,-1117.76"/>
<text text-anchor="middle" x="1350.5" y="-1092.8" font-family="Times New Roman,serif" font-size="14.00">Narration</text>
<text text-anchor="middle" x="1350.5" y="-1077.8" font-family="Times New Roman,serif" font-size="14.00">6</text>
</g>
<!-- A9_3 -->
<g id="node20" class="node"><title>A9_3</title>
<polygon fill="wheat" stroke="black" points="1732.5,-342 1352.5,-342 1352.5,-306 1732.5,-306 1732.5,-342"/>
<text text-anchor="middle" x="1542.5" y="-320.3" font-family="Times New Roman,serif" font-size="14.00">A9_3 : Ben ce qui m&#39;aide là c&#39;est quelqu&#39;un de bien c&#39;est Damien.</text>
<text text-anchor="start" x="1344.5" y="-346.8" font-family="Times New Roman,serif" font-weight="bold" font-style="italic" font-size="14.00" fill="red">7</text>
</g>
<!-- début&#45;&gt;A9_3 -->
<g id="edge4" class="edge"><title>début&#45;&gt;A9_3</title>
<path fill="none" stroke="#a6cee3" stroke-width="2.66667" d="M1265.89,-1137.7C1379.4,-1133.45 1641.5,-1115.35 1641.5,-1039 1641.5,-1039 1641.5,-1039 1641.5,-425 1641.5,-387.378 1605.67,-358.832 1577.13,-342.057"/>
<polygon fill="#a6cee3" stroke="#a6cee3" stroke-width="2.66667" points="1265.54,-1135.97 1260.6,-1137.9 1265.66,-1139.46 1265.54,-1135.97"/>
<text text-anchor="middle" x="1667.5" y="-735.8" font-family="Times New Roman,serif" font-size="14.00">Narration</text>
<text text-anchor="middle" x="1667.5" y="-720.8" font-family="Times New Roman,serif" font-size="14.00">4</text>
</g>
<!-- B2 -->
<g id="node3" class="node"><title>B2</title>
<polygon fill="skyblue" stroke="black" points="691.5,-954 515.5,-954 515.5,-918 691.5,-918 691.5,-954"/>
<text text-anchor="middle" x="603.5" y="-932.3" font-family="Times New Roman,serif" font-size="14.00">B2 : C&#39;est dû à un accident ?</text>
<text text-anchor="start" x="507.5" y="-958.8" font-family="Times New Roman,serif" font-weight="bold" font-style="italic" font-size="14.00" fill="red">1</text>
</g>
<!-- A1&#45;&gt;B2 -->
<g id="edge27" class="edge"><title>A1&#45;&gt;B2</title>
<path fill="none" stroke="#6a3d9a" stroke-width="9.33333" d="M812.621,-1018.05C764.988,-999.592 693.226,-971.777 647.377,-954.007"/>
<polygon fill="#6a3d9a" stroke="#6a3d9a" stroke-width="9.33333" points="811.304,-1021.92 817.441,-1019.92 814.255,-1014.31 811.304,-1021.92"/>
<text text-anchor="middle" x="797" y="-990.8" font-family="Times New Roman,serif" font-size="14.00">Question</text>
<text text-anchor="middle" x="797" y="-975.8" font-family="Times New Roman,serif" font-size="14.00">14</text>
</g>
<!-- A1&#45;&gt;A5_1 -->
<g id="edge10" class="edge"><title>A1&#45;&gt;A5_1</title>
<path fill="none" stroke="#b2df8a" stroke-width="2" d="M893.644,-1017.16C923.471,-998.746 967.41,-971.623 995.744,-954.133"/>
<polygon fill="#b2df8a" stroke="#b2df8a" stroke-width="2" points="892.684,-1015.69 889.349,-1019.81 894.523,-1018.67 892.684,-1015.69"/>
<text text-anchor="middle" x="1031" y="-990.8" font-family="Times New Roman,serif" font-size="14.00">Elaboration descriptive</text>
<text text-anchor="middle" x="1031" y="-975.8" font-family="Times New Roman,serif" font-size="14.00">3</text>
</g>
<!-- A3_1 -->
<g id="node4" class="node"><title>A3_1</title>
<polygon fill="wheat" stroke="black" points="557.5,-852 261.5,-852 261.5,-816 557.5,-816 557.5,-852"/>
<text text-anchor="middle" x="409.5" y="-830.3" font-family="Times New Roman,serif" font-size="14.00">A3_1 : Oui enfin on m’avait pratiquement culbuté.</text>
<text text-anchor="start" x="253.5" y="-856.8" font-family="Times New Roman,serif" font-weight="bold" font-style="italic" font-size="14.00" fill="red">1</text>
</g>
<!-- B2&#45;&gt;A3_1 -->
<g id="edge7" class="edge"><title>B2&#45;&gt;A3_1</title>
<path fill="none" stroke="#1f78b4" stroke-width="8.66667" d="M565.445,-915.384C529.719,-896.969 476.808,-869.695 442.739,-852.133"/>
<polygon fill="#1f78b4" stroke="#1f78b4" stroke-width="8.66667" points="563.969,-918.889 570.15,-917.809 567.443,-912.148 563.969,-918.889"/>
<text text-anchor="middle" x="560.5" y="-888.8" font-family="Times New Roman,serif" font-size="14.00">Réponse</text>
<text text-anchor="middle" x="560.5" y="-873.8" font-family="Times New Roman,serif" font-size="14.00">13</text>
</g>
<!-- A3_2 -->
<g id="node5" class="node"><title>A3_2</title>
<polygon fill="wheat" stroke="black" points="661,-750 8,-750 8,-714 661,-714 661,-750"/>
<text text-anchor="middle" x="334.5" y="-728.3" font-family="Times New Roman,serif" font-size="14.00">A3_2 : C’est quand même bien un... &#160;ç&#39;en est un qui m&#39;a balancé... qu&#39;était devant et puis moi derrière et qui m’a...</text>
<text text-anchor="start" x="0" y="-754.8" font-family="Times New Roman,serif" font-weight="bold" font-style="italic" font-size="14.00" fill="red">3</text>
</g>
<!-- A3_1&#45;&gt;A3_2 -->
<g id="edge5" class="edge"><title>A3_1&#45;&gt;A3_2</title>
<path fill="none" stroke="#a6cee3" stroke-width="2" d="M350.133,-812.941C344.393,-808.831 339.302,-803.903 335.5,-798 326.394,-783.862 327.55,-764.162 330.106,-750.164"/>
<polygon fill="#a6cee3" stroke="#a6cee3" stroke-width="2" points="349.504,-814.624 354.639,-815.927 351.438,-811.706 349.504,-814.624"/>
<text text-anchor="middle" x="361.5" y="-786.8" font-family="Times New Roman,serif" font-size="14.00">Narration</text>
<text text-anchor="middle" x="361.5" y="-771.8" font-family="Times New Roman,serif" font-size="14.00">3</text>
</g>
<!-- A3_1&#45;&gt;A3_2 -->
<g id="edge11" class="edge"><title>A3_1&#45;&gt;A3_2</title>
<path fill="none" stroke="#b2df8a" stroke-width="7.33333" d="M405.741,-810.648C402.612,-797.229 397.068,-780.411 387.5,-768 382.181,-761.101 375.098,-755.127 367.846,-750.164"/>
<polygon fill="#b2df8a" stroke="#b2df8a" stroke-width="7.33333" points="402.663,-811.593 406.863,-815.794 408.932,-810.225 402.663,-811.593"/>
<text text-anchor="middle" x="467" y="-786.8" font-family="Times New Roman,serif" font-size="14.00">Elaboration descriptive</text>
<text text-anchor="middle" x="467" y="-771.8" font-family="Times New Roman,serif" font-size="14.00">11</text>
</g>
<!-- A3_3 -->
<g id="node6" class="node"><title>A3_3</title>
<polygon fill="wheat" stroke="black" points="516,-648 153,-648 153,-612 516,-612 516,-648"/>
<text text-anchor="middle" x="334.5" y="-626.3" font-family="Times New Roman,serif" font-size="14.00">A3_3 : mais enfin je m’en fous parce que... enfin j&#39;étais chargé</text>
<text text-anchor="start" x="145" y="-652.8" font-family="Times New Roman,serif" font-weight="bold" font-style="italic" font-size="14.00" fill="red">4</text>
</g>
<!-- A3_2&#45;&gt;A3_3 -->
<g id="edge12" class="edge"><title>A3_2&#45;&gt;A3_3</title>
<path fill="none" stroke="#b2df8a" stroke-width="4" d="M273.973,-710.906C268.283,-706.807 263.252,-701.891 259.5,-696 252.338,-684.754 252.338,-677.246 259.5,-666 264.208,-658.607 270.931,-652.75 278.441,-648.117"/>
<polygon fill="#b2df8a" stroke="#b2df8a" stroke-width="4" points="273.31,-712.567 278.441,-713.883 275.251,-709.654 273.31,-712.567"/>
<text text-anchor="middle" x="324" y="-684.8" font-family="Times New Roman,serif" font-size="14.00">Elaboration descriptive</text>
<text text-anchor="middle" x="324" y="-669.8" font-family="Times New Roman,serif" font-size="14.00">6</text>
</g>
<!-- A3_2&#45;&gt;A3_3 -->
<g id="edge24" class="edge"><title>A3_2&#45;&gt;A3_3</title>
<path fill="none" stroke="#33a02c" stroke-width="2.66667" d="M375.842,-710.83C380.915,-706.632 385.396,-701.71 388.5,-696 394.867,-684.285 394.867,-677.715 388.5,-666 384.605,-658.834 378.541,-652.91 371.861,-648.1"/>
<polygon fill="#33a02c" stroke="#33a02c" stroke-width="2.66667" points="374.752,-709.461 371.861,-713.9 376.889,-712.233 374.752,-709.461"/>
<text text-anchor="middle" x="454.5" y="-684.8" font-family="Times New Roman,serif" font-size="14.00">Elaboration evaluative</text>
<text text-anchor="middle" x="454.5" y="-669.8" font-family="Times New Roman,serif" font-size="14.00">4</text>
</g>
<!-- A3_4 -->
<g id="node7" class="node"><title>A3_4</title>
<polygon fill="wheat" stroke="black" points="581.5,-546 87.5,-546 87.5,-510 581.5,-510 581.5,-546"/>
<text text-anchor="middle" x="334.5" y="-524.3" font-family="Times New Roman,serif" font-size="14.00">A3_4 : J&#39;avais quand même 5 litres de vin de... de &#160;pineau 5 litres de bière plus 1 ou 2.</text>
</g>
<!-- A3_3&#45;&gt;A3_4 -->
<g id="edge13" class="edge"><title>A3_3&#45;&gt;A3_4</title>
<path fill="none" stroke="#b2df8a" stroke-width="8" d="M334.5,-606.163C334.5,-587.932 334.5,-562.784 334.5,-546.219"/>
<polygon fill="#b2df8a" stroke="#b2df8a" stroke-width="8" points="331,-606.581 334.5,-611.581 338,-606.581 331,-606.581"/>
<text text-anchor="middle" x="399" y="-582.8" font-family="Times New Roman,serif" font-size="14.00">Elaboration descriptive</text>
<text text-anchor="middle" x="399" y="-567.8" font-family="Times New Roman,serif" font-size="14.00">12</text>
</g>
<!-- B4 -->
<g id="node8" class="node"><title>B4</title>
<polygon fill="skyblue" stroke="black" points="412.5,-444 256.5,-444 256.5,-408 412.5,-408 412.5,-444"/>
<text text-anchor="middle" x="334.5" y="-422.3" font-family="Times New Roman,serif" font-size="14.00">B4 : Que vous aviez bu ?</text>
<text text-anchor="start" x="248.5" y="-448.8" font-family="Times New Roman,serif" font-weight="bold" font-style="italic" font-size="14.00" fill="red">1</text>
</g>
<!-- A3_4&#45;&gt;B4 -->
<g id="edge28" class="edge"><title>A3_4&#45;&gt;B4</title>
<path fill="none" stroke="#6a3d9a" stroke-width="9.33333" d="M334.5,-504.163C334.5,-485.932 334.5,-460.784 334.5,-444.219"/>
<polygon fill="#6a3d9a" stroke="#6a3d9a" stroke-width="9.33333" points="330.417,-504.581 334.5,-509.581 338.583,-504.581 330.417,-504.581"/>
<text text-anchor="middle" x="360" y="-480.8" font-family="Times New Roman,serif" font-size="14.00">Question</text>
<text text-anchor="middle" x="360" y="-465.8" font-family="Times New Roman,serif" font-size="14.00">14</text>
</g>
<!-- A5_2 -->
<g id="node10" class="node"><title>A5_2</title>
<polygon fill="wheat" stroke="black" points="973,-852 786,-852 786,-816 973,-816 973,-852"/>
<text text-anchor="middle" x="879.5" y="-830.3" font-family="Times New Roman,serif" font-size="14.00">A5_2 : une ferme abandonnée.</text>
<text text-anchor="start" x="778" y="-856.8" font-family="Times New Roman,serif" font-weight="bold" font-style="italic" font-size="14.00" fill="red">1</text>
</g>
<!-- A5_1&#45;&gt;A5_2 -->
<g id="edge14" class="edge"><title>A5_1&#45;&gt;A5_2</title>
<path fill="none" stroke="#b2df8a" stroke-width="7.33333" d="M912.216,-916.499C897.496,-911.971 885.689,-906.509 880.5,-900 869.876,-886.675 871.437,-866.455 874.505,-852.109"/>
<polygon fill="#b2df8a" stroke="#b2df8a" stroke-width="7.33333" points="911.612,-919.665 917.314,-917.998 913.423,-913.509 911.612,-919.665"/>
<text text-anchor="middle" x="945" y="-888.8" font-family="Times New Roman,serif" font-size="14.00">Elaboration descriptive</text>
<text text-anchor="middle" x="945" y="-873.8" font-family="Times New Roman,serif" font-size="14.00">11</text>
</g>
<!-- A5_3 -->
<g id="node11" class="node"><title>A5_3</title>
<polygon fill="wheat" stroke="black" points="1168,-750 845,-750 845,-714 1168,-714 1168,-750"/>
<text text-anchor="middle" x="1006.5" y="-728.3" font-family="Times New Roman,serif" font-size="14.00">A5_3 : Qu’habite qu’est... qu’appartient à Henry euh...</text>
</g>
<!-- A5_1&#45;&gt;A5_3 -->
<g id="edge15" class="edge"><title>A5_1&#45;&gt;A5_3</title>
<path fill="none" stroke="#b2df8a" stroke-width="2.66667" d="M1021.64,-912.667C1018.97,-880.636 1013.89,-819.796 1009.5,-768 1009.01,-762.166 1008.46,-755.786 1007.97,-750.089"/>
<polygon fill="#b2df8a" stroke="#b2df8a" stroke-width="2.66667" points="1019.92,-913.093 1022.08,-917.93 1023.41,-912.802 1019.92,-913.093"/>
<text text-anchor="middle" x="1082" y="-837.8" font-family="Times New Roman,serif" font-size="14.00">Elaboration descriptive</text>
<text text-anchor="middle" x="1082" y="-822.8" font-family="Times New Roman,serif" font-size="14.00">4</text>
</g>
<!-- A5_4 -->
<g id="node12" class="node"><title>A5_4</title>
<polygon fill="wheat" stroke="black" points="1207,-648 806,-648 806,-612 1207,-612 1207,-648"/>
<text text-anchor="middle" x="1006.5" y="-626.3" font-family="Times New Roman,serif" font-size="14.00">A5_4 : une maison qu’est qu&#39;on a fait qu&#39;on a fait... qu’on a touchée.</text>
<text text-anchor="start" x="798" y="-652.8" font-family="Times New Roman,serif" font-weight="bold" font-style="italic" font-size="14.00" fill="red">7</text>
</g>
<!-- A5_1&#45;&gt;A5_4 -->
<g id="edge16" class="edge"><title>A5_1&#45;&gt;A5_4</title>
<path fill="none" stroke="#b2df8a" stroke-width="2.66667" d="M1069.28,-915.608C1096.73,-901.727 1130.15,-880.457 1150.5,-852 1186.8,-801.231 1196.63,-773.078 1176.5,-714 1167.81,-688.503 1161.95,-680.89 1139.5,-666 1128.26,-658.543 1115.5,-652.672 1102.44,-648.052"/>
<polygon fill="#b2df8a" stroke="#b2df8a" stroke-width="2.66667" points="1068.28,-914.151 1064.58,-917.943 1069.84,-917.286 1068.28,-914.151"/>
<text text-anchor="middle" x="1252" y="-786.8" font-family="Times New Roman,serif" font-size="14.00">Elaboration descriptive</text>
<text text-anchor="middle" x="1252" y="-771.8" font-family="Times New Roman,serif" font-size="14.00">4</text>
</g>
<!-- A5_2&#45;&gt;A5_3 -->
<g id="edge17" class="edge"><title>A5_2&#45;&gt;A5_3</title>
<path fill="none" stroke="#b2df8a" stroke-width="4.66667" d="M873.632,-810.725C871.414,-797.039 871.304,-779.907 880.5,-768 885.912,-760.992 899.723,-755.006 916.313,-750.069"/>
<polygon fill="#b2df8a" stroke="#b2df8a" stroke-width="4.66667" points="871.687,-811.431 874.61,-815.973 875.701,-810.683 871.687,-811.431"/>
<text text-anchor="middle" x="945" y="-786.8" font-family="Times New Roman,serif" font-size="14.00">Elaboration descriptive</text>
<text text-anchor="middle" x="945" y="-771.8" font-family="Times New Roman,serif" font-size="14.00">7</text>
</g>
<!-- A5_2&#45;&gt;A5_4 -->
<g id="edge18" class="edge"><title>A5_2&#45;&gt;A5_4</title>
<path fill="none" stroke="#b2df8a" stroke-width="3.33333" d="M808.244,-814.418C746.277,-794.694 671.486,-760.016 706.5,-714 729.447,-683.842 817.293,-661.817 892.041,-648.064"/>
<polygon fill="#b2df8a" stroke="#b2df8a" stroke-width="3.33333" points="807.765,-816.101 813.059,-815.929 808.813,-812.762 807.765,-816.101"/>
<text text-anchor="middle" x="771" y="-735.8" font-family="Times New Roman,serif" font-size="14.00">Elaboration descriptive</text>
<text text-anchor="middle" x="771" y="-720.8" font-family="Times New Roman,serif" font-size="14.00">5</text>
</g>
<!-- A5_3&#45;&gt;A5_4 -->
<g id="edge19" class="edge"><title>A5_3&#45;&gt;A5_4</title>
<path fill="none" stroke="#b2df8a" stroke-width="2" d="M1006.5,-708.163C1006.5,-689.932 1006.5,-664.784 1006.5,-648.219"/>
<polygon fill="#b2df8a" stroke="#b2df8a" stroke-width="2" points="1004.75,-708.581 1006.5,-713.581 1008.25,-708.581 1004.75,-708.581"/>
<text text-anchor="middle" x="1071" y="-684.8" font-family="Times New Roman,serif" font-size="14.00">Elaboration descriptive</text>
<text text-anchor="middle" x="1071" y="-669.8" font-family="Times New Roman,serif" font-size="14.00">3</text>
</g>
<!-- A5_6 -->
<g id="node14" class="node"><title>A5_6</title>
<polygon fill="wheat" stroke="black" points="1493.5,-954 1273.5,-954 1273.5,-918 1493.5,-918 1493.5,-954"/>
<text text-anchor="middle" x="1383.5" y="-932.3" font-family="Times New Roman,serif" font-size="14.00">A5_6 : il m&#39;a sauvé... avec son frère.</text>
</g>
<!-- A5_5&#45;&gt;A5_6 -->
<g id="edge20" class="edge"><title>A5_5&#45;&gt;A5_6</title>
<path fill="none" stroke="#b2df8a" stroke-width="8" d="M1383.5,-1014.16C1383.5,-995.932 1383.5,-970.784 1383.5,-954.219"/>
<polygon fill="#b2df8a" stroke="#b2df8a" stroke-width="8" points="1380,-1014.58 1383.5,-1019.58 1387,-1014.58 1380,-1014.58"/>
<text text-anchor="middle" x="1448" y="-990.8" font-family="Times New Roman,serif" font-size="14.00">Elaboration descriptive</text>
<text text-anchor="middle" x="1448" y="-975.8" font-family="Times New Roman,serif" font-size="14.00">12</text>
</g>
<!-- B6 -->
<g id="node15" class="node"><title>B6</title>
<polygon fill="skyblue" stroke="black" points="1584.5,-852 1376.5,-852 1376.5,-816 1584.5,-816 1584.5,-852"/>
<text text-anchor="middle" x="1480.5" y="-830.3" font-family="Times New Roman,serif" font-size="14.00">B6 : Il vous a sauvé comment ça ?</text>
</g>
<!-- A5_6&#45;&gt;B6 -->
<g id="edge29" class="edge"><title>A5_6&#45;&gt;B6</title>
<path fill="none" stroke="#6a3d9a" stroke-width="8.66667" d="M1404.29,-913.563C1422.07,-895.239 1447.31,-869.213 1463.8,-852.219"/>
<polygon fill="#6a3d9a" stroke="#6a3d9a" stroke-width="8.66667" points="1401.16,-911.352 1400.4,-917.581 1406.6,-916.632 1401.16,-911.352"/>
<text text-anchor="middle" x="1472" y="-888.8" font-family="Times New Roman,serif" font-size="14.00">Question</text>
<text text-anchor="middle" x="1472" y="-873.8" font-family="Times New Roman,serif" font-size="14.00">13</text>
</g>
<!-- B8 -->
<g id="node17" class="node"><title>B8</title>
<polygon fill="skyblue" stroke="black" points="1453,-648 1244,-648 1244,-612 1453,-612 1453,-648"/>
<text text-anchor="middle" x="1348.5" y="-626.3" font-family="Times New Roman,serif" font-size="14.00">B8 : Comment ça il vous a sauvé ?</text>
</g>
<!-- A5_6&#45;&gt;B8 -->
<g id="edge30" class="edge"><title>A5_6&#45;&gt;B8</title>
<path fill="none" stroke="#6a3d9a" stroke-width="3.33333" d="M1378.6,-912.977C1375.05,-896.309 1370.39,-872.813 1367.5,-852 1357,-776.477 1351.38,-685.575 1349.37,-648.262"/>
<polygon fill="#6a3d9a" stroke="#6a3d9a" stroke-width="3.33333" points="1376.9,-913.398 1379.66,-917.919 1380.32,-912.663 1376.9,-913.398"/>
<text text-anchor="middle" x="1387" y="-786.8" font-family="Times New Roman,serif" font-size="14.00">Question</text>
<text text-anchor="middle" x="1387" y="-771.8" font-family="Times New Roman,serif" font-size="14.00">5</text>
</g>
<!-- A7 -->
<g id="node16" class="node"><title>A7</title>
<polygon fill="wheat" stroke="black" points="1484.5,-750 1376.5,-750 1376.5,-714 1484.5,-714 1484.5,-750"/>
<text text-anchor="middle" x="1430.5" y="-728.3" font-family="Times New Roman,serif" font-size="14.00">A7 : Comment ?</text>
</g>
<!-- B6&#45;&gt;A7 -->
<g id="edge25" class="edge"><title>B6&#45;&gt;A7</title>
<path fill="none" stroke="#e31a1c" stroke-width="2" d="M1440.12,-812.892C1435.05,-808.671 1430.58,-803.726 1427.5,-798 1419.58,-783.276 1421.82,-763.852 1425.12,-750.083"/>
<polygon fill="#e31a1c" stroke="#e31a1c" stroke-width="2" points="1439.07,-814.292 1444.09,-815.979 1441.21,-811.528 1439.07,-814.292"/>
<text text-anchor="middle" x="1453.5" y="-786.8" font-family="Times New Roman,serif" font-size="14.00">Conduite</text>
<text text-anchor="middle" x="1453.5" y="-771.8" font-family="Times New Roman,serif" font-size="14.00">3</text>
</g>
<!-- B6&#45;&gt;A7 -->
<g id="edge26" class="edge"><title>B6&#45;&gt;A7</title>
<path fill="none" stroke="#cab2d6" stroke-width="6" d="M1484.94,-810.904C1486.47,-797.72 1486.35,-781.059 1479.5,-768 1475.81,-760.964 1469.99,-755.02 1463.64,-750.141"/>
<polygon fill="#cab2d6" stroke="#cab2d6" stroke-width="6" points="1482.33,-810.647 1484.26,-815.954 1487.53,-811.35 1482.33,-810.647"/>
<text text-anchor="middle" x="1526.5" y="-786.8" font-family="Times New Roman,serif" font-size="14.00">Méta&#45;question</text>
<text text-anchor="middle" x="1526.5" y="-771.8" font-family="Times New Roman,serif" font-size="14.00">9</text>
</g>
<!-- A7&#45;&gt;B8 -->
<g id="edge31" class="edge"><title>A7&#45;&gt;B8</title>
<path fill="none" stroke="#6a3d9a" stroke-width="3.33333" d="M1412.92,-709.563C1397.9,-691.239 1376.55,-665.213 1362.62,-648.219"/>
<polygon fill="#6a3d9a" stroke="#6a3d9a" stroke-width="3.33333" points="1411.69,-710.825 1416.22,-713.581 1414.4,-708.605 1411.69,-710.825"/>
<text text-anchor="middle" x="1428" y="-684.8" font-family="Times New Roman,serif" font-size="14.00">Question</text>
<text text-anchor="middle" x="1428" y="-669.8" font-family="Times New Roman,serif" font-size="14.00">5</text>
</g>
<!-- A9_1 -->
<g id="node18" class="node"><title>A9_1</title>
<polygon fill="wheat" stroke="black" points="1613.5,-546 1023.5,-546 1023.5,-510 1613.5,-510 1613.5,-546"/>
<text text-anchor="middle" x="1318.5" y="-524.3" font-family="Times New Roman,serif" font-size="14.00">A9_1 : Ah mais euh... qui euh... ben il m&#39;a sauvé euh parce que j&#39;étais avec lui parce qu&#39;il... buvait quoi.</text>
<text text-anchor="start" x="1015.5" y="-550.8" font-family="Times New Roman,serif" font-weight="bold" font-style="italic" font-size="14.00" fill="red">2</text>
</g>
<!-- B8&#45;&gt;A9_1 -->
<g id="edge8" class="edge"><title>B8&#45;&gt;A9_1</title>
<path fill="none" stroke="#1f78b4" stroke-width="8" d="M1341.79,-606.633C1336.31,-588.366 1328.68,-562.927 1323.67,-546.219"/>
<polygon fill="#1f78b4" stroke="#1f78b4" stroke-width="8" points="1338.49,-607.798 1343.27,-611.581 1345.19,-605.786 1338.49,-607.798"/>
<text text-anchor="middle" x="1363.5" y="-582.8" font-family="Times New Roman,serif" font-size="14.00">Réponse</text>
<text text-anchor="middle" x="1363.5" y="-567.8" font-family="Times New Roman,serif" font-size="14.00">12</text>
</g>
<!-- A9_2 -->
<g id="node19" class="node"><title>A9_2</title>
<polygon fill="wheat" stroke="black" points="1589.5,-444 1191.5,-444 1191.5,-408 1589.5,-408 1589.5,-444"/>
<text text-anchor="middle" x="1390.5" y="-422.3" font-family="Times New Roman,serif" font-size="14.00">A9_2 : Il voulait me taper dessus et en plus son frangin il m&#39;a enlevé.</text>
<text text-anchor="start" x="1183.5" y="-448.8" font-family="Times New Roman,serif" font-weight="bold" font-style="italic" font-size="14.00" fill="red">5</text>
</g>
<!-- A9_1&#45;&gt;A9_2 -->
<g id="edge21" class="edge"><title>A9_1&#45;&gt;A9_2</title>
<path fill="none" stroke="#b2df8a" stroke-width="5.33333" d="M1334.27,-505.099C1347.44,-486.802 1365.97,-461.07 1378.1,-444.219"/>
<polygon fill="#b2df8a" stroke="#b2df8a" stroke-width="5.33333" points="1332.07,-504.16 1331.04,-509.581 1335.86,-506.887 1332.07,-504.16"/>
<text text-anchor="middle" x="1430" y="-480.8" font-family="Times New Roman,serif" font-size="14.00">Elaboration descriptive</text>
<text text-anchor="middle" x="1430" y="-465.8" font-family="Times New Roman,serif" font-size="14.00">8</text>
</g>
<!-- A9_2&#45;&gt;A9_3 -->
<g id="edge6" class="edge"><title>A9_2&#45;&gt;A9_3</title>
<path fill="none" stroke="#a6cee3" stroke-width="2" d="M1497.89,-405.713C1506.12,-401.45 1513.81,-396.276 1520.5,-390 1533.79,-377.526 1539.05,-356.745 1541.14,-342.042"/>
<polygon fill="#a6cee3" stroke="#a6cee3" stroke-width="2" points="1496.98,-404.211 1493.27,-407.989 1498.53,-407.351 1496.98,-404.211"/>
<text text-anchor="middle" x="1562.5" y="-378.8" font-family="Times New Roman,serif" font-size="14.00">Narration</text>
<text text-anchor="middle" x="1562.5" y="-363.8" font-family="Times New Roman,serif" font-size="14.00">3</text>
</g>
<!-- A9_2&#45;&gt;A9_3 -->
<g id="edge22" class="edge"><title>A9_2&#45;&gt;A9_3</title>
<path fill="none" stroke="#b2df8a" stroke-width="2" d="M1382.7,-402.989C1379.32,-389.204 1378.01,-371.867 1387.5,-360 1393.36,-352.673 1407.04,-346.77 1423.97,-342.05"/>
<polygon fill="#b2df8a" stroke="#b2df8a" stroke-width="2" points="1381.03,-403.519 1384.02,-407.89 1384.41,-402.607 1381.03,-403.519"/>
<text text-anchor="middle" x="1452" y="-378.8" font-family="Times New Roman,serif" font-size="14.00">Elaboration descriptive</text>
<text text-anchor="middle" x="1452" y="-363.8" font-family="Times New Roman,serif" font-size="14.00">3</text>
</g>
<!-- A9_4 -->
<g id="node21" class="node"><title>A9_4</title>
<polygon fill="wheat" stroke="black" points="1916,-240 1169,-240 1169,-204 1916,-204 1916,-240"/>
<text text-anchor="middle" x="1542.5" y="-218.3" font-family="Times New Roman,serif" font-size="14.00">A9_4 : Ben heureusement qu&#39;il m&#39;a fait ça parce que... il il faisait comme ça il se faisait disparaître et je peux le faire moi disparaître.</text>
<text text-anchor="start" x="1161" y="-244.8" font-family="Times New Roman,serif" font-weight="bold" font-style="italic" font-size="14.00" fill="red">3</text>
</g>
<!-- A9_3&#45;&gt;A9_4 -->
<g id="edge23" class="edge"><title>A9_3&#45;&gt;A9_4</title>
<path fill="none" stroke="#b2df8a" stroke-width="6" d="M1542.5,-300.163C1542.5,-281.932 1542.5,-256.784 1542.5,-240.219"/>
<polygon fill="#b2df8a" stroke="#b2df8a" stroke-width="6" points="1539.88,-300.581 1542.5,-305.581 1545.13,-300.581 1539.88,-300.581"/>
<text text-anchor="middle" x="1607" y="-276.8" font-family="Times New Roman,serif" font-size="14.00">Elaboration descriptive</text>
<text text-anchor="middle" x="1607" y="-261.8" font-family="Times New Roman,serif" font-size="14.00">9</text>
</g>
<!-- B10 -->
<g id="node22" class="node"><title>B10</title>
<polygon fill="skyblue" stroke="black" points="1700,-138 1385,-138 1385,-102 1700,-102 1700,-138"/>
<text text-anchor="middle" x="1542.5" y="-116.3" font-family="Times New Roman,serif" font-size="14.00">B10 : Donc vous pouviez disparaître et réapparaître ?</text>
</g>
<!-- A9_4&#45;&gt;B10 -->
<g id="edge32" class="edge"><title>A9_4&#45;&gt;B10</title>
<path fill="none" stroke="#6a3d9a" stroke-width="9.33333" d="M1542.5,-198.163C1542.5,-179.932 1542.5,-154.784 1542.5,-138.219"/>
<polygon fill="#6a3d9a" stroke="#6a3d9a" stroke-width="9.33333" points="1538.42,-198.581 1542.5,-203.581 1546.58,-198.581 1538.42,-198.581"/>
<text text-anchor="middle" x="1568" y="-174.8" font-family="Times New Roman,serif" font-size="14.00">Question</text>
<text text-anchor="middle" x="1568" y="-159.8" font-family="Times New Roman,serif" font-size="14.00">14</text>
</g>
<!-- A11 -->
<g id="node23" class="node"><title>A11</title>
<polygon fill="wheat" stroke="black" points="1579.5,-36 1505.5,-36 1505.5,-0 1579.5,-0 1579.5,-36"/>
<text text-anchor="middle" x="1542.5" y="-14.3" font-family="Times New Roman,serif" font-size="14.00">A11 : Oui.</text>
</g>
<!-- B10&#45;&gt;A11 -->
<g id="edge9" class="edge"><title>B10&#45;&gt;A11</title>
<path fill="none" stroke="#1f78b4" stroke-width="10" d="M1542.5,-96.1628C1542.5,-77.9321 1542.5,-52.7841 1542.5,-36.2191"/>
<polygon fill="#1f78b4" stroke="#1f78b4" stroke-width="10" points="1538.13,-96.5812 1542.5,-101.581 1546.88,-96.5814 1538.13,-96.5812"/>
<text text-anchor="middle" x="1567.5" y="-72.8" font-family="Times New Roman,serif" font-size="14.00">Réponse</text>
<text text-anchor="middle" x="1567.5" y="-57.8" font-family="Times New Roman,serif" font-size="14.00">15</text>
</g>
</g>
</svg>
