<?xml version="1.0" encoding="UTF-8" standalone="no"?>
<!DOCTYPE svg PUBLIC "-//W3C//DTD SVG 1.1//EN"
 "http://www.w3.org/Graphics/SVG/1.1/DTD/svg11.dtd">
<!-- Generated by graphviz version 2.38.0 (20140413.2041)
 -->
<!-- Title: Volley Pages: 1 -->
<svg width="1171pt" height="1736pt"
 viewBox="0.00 0.00 1171.00 1736.00" xmlns="http://www.w3.org/2000/svg" xmlns:xlink="http://www.w3.org/1999/xlink">
<g id="graph0" class="graph" transform="scale(1 1) rotate(0) translate(4 1732)">
<title>Volley</title>
<polygon fill="white" stroke="none" points="-4,4 -4,-1732 1167,-1732 1167,4 -4,4"/>
<text text-anchor="start" x="28.5" y="-1709" font-family="Times New Roman,serif" font-size="20.00">Volley</text>
<text text-anchor="start" x="8" y="-1692.2" font-family="Times New Roman,serif" font-size="16.00">23 annotations </text>
<text text-anchor="start" x="17" y="-1676.2" font-family="Times New Roman,serif" font-size="16.00"> seuil = 0.15</text>
<!-- début -->
<g id="node1" class="node"><title>début</title>
<polygon fill="lightgrey" stroke="black" points="385.5,-1668 293.5,-1668 293.5,-1632 385.5,-1632 385.5,-1668"/>
<text text-anchor="middle" x="339.5" y="-1646.3" font-family="Times New Roman,serif" font-size="14.00">début : Début</text>
</g>
<!-- A1 -->
<g id="node2" class="node"><title>A1</title>
<polygon fill="wheat" stroke="black" points="573.5,-1566 105.5,-1566 105.5,-1530 573.5,-1530 573.5,-1566"/>
<text text-anchor="middle" x="339.5" y="-1544.3" font-family="Times New Roman,serif" font-size="14.00">A1 : Je suis ici depuis deux ans et j&#39;en ai fait une dizaine d&#39;années à B. près de M.</text>
<text text-anchor="start" x="89.5" y="-1570.8" font-family="Times New Roman,serif" font-weight="bold" font-style="italic" font-size="14.00" fill="red">23</text>
</g>
<!-- début&#45;&gt;A1 -->
<g id="edge1" class="edge"><title>début&#45;&gt;A1</title>
<path fill="none" stroke="#a6cee3" stroke-width="9.54545" d="M339.5,-1626.16C339.5,-1607.93 339.5,-1582.78 339.5,-1566.22"/>
<polygon fill="#a6cee3" stroke="#a6cee3" stroke-width="9.54545" points="335.324,-1626.58 339.5,-1631.58 343.676,-1626.58 335.324,-1626.58"/>
<text text-anchor="middle" x="365.5" y="-1602.8" font-family="Times New Roman,serif" font-size="14.00">Narration</text>
<text text-anchor="middle" x="365.5" y="-1587.8" font-family="Times New Roman,serif" font-size="14.00">21</text>
</g>
<!-- B2 -->
<g id="node3" class="node"><title>B2</title>
<polygon fill="skyblue" stroke="black" points="374.5,-1464 62.5,-1464 62.5,-1428 374.5,-1428 374.5,-1464"/>
<text text-anchor="middle" x="218.5" y="-1442.3" font-family="Times New Roman,serif" font-size="14.00">B2 : D’accord, ok et ça va vous avez un bon niveau?</text>
<text text-anchor="start" x="54.5" y="-1468.8" font-family="Times New Roman,serif" font-weight="bold" font-style="italic" font-size="14.00" fill="red">2</text>
</g>
<!-- A1&#45;&gt;B2 -->
<g id="edge28" class="edge"><title>A1&#45;&gt;B2</title>
<path fill="none" stroke="#33a02c" stroke-width="8.18182" d="M314.678,-1526.49C292.492,-1508.15 260.346,-1481.58 239.434,-1464.3"/>
<polygon fill="#33a02c" stroke="#33a02c" stroke-width="8.18182" points="312.565,-1529.38 318.699,-1529.81 317.126,-1523.86 312.565,-1529.38"/>
<text text-anchor="middle" x="323" y="-1500.8" font-family="Times New Roman,serif" font-size="14.00">Question</text>
<text text-anchor="middle" x="323" y="-1485.8" font-family="Times New Roman,serif" font-size="14.00">18</text>
</g>
<!-- A3_2 -->
<g id="node5" class="node"><title>A3_2</title>
<polygon fill="wheat" stroke="black" points="559,-1260 8,-1260 8,-1224 559,-1224 559,-1260"/>
<text text-anchor="middle" x="283.5" y="-1238.3" font-family="Times New Roman,serif" font-size="14.00">A3_2 : Bon le problème c&#39;est que je suis un peu petit donc euh pour le volley c&#39;est pas pratique.</text>
<text text-anchor="start" x="0" y="-1264.8" font-family="Times New Roman,serif" font-weight="bold" font-style="italic" font-size="14.00" fill="red">1</text>
</g>
<!-- A1&#45;&gt;A3_2 -->
<g id="edge4" class="edge"><title>A1&#45;&gt;A3_2</title>
<path fill="none" stroke="#1f78b4" stroke-width="2.72727" d="M354.651,-1525.54C365.043,-1509.45 377.924,-1486.42 383.5,-1464 387.361,-1448.47 386.27,-1443.76 383.5,-1428 375.152,-1380.5 369.561,-1368.35 346.5,-1326 333.091,-1301.37 312.824,-1276.14 298.919,-1260.06"/>
<polygon fill="#1f78b4" stroke="#1f78b4" stroke-width="2.72727" points="353.076,-1524.75 351.794,-1529.89 356.002,-1526.67 353.076,-1524.75"/>
<text text-anchor="middle" x="415.5" y="-1398.8" font-family="Times New Roman,serif" font-size="14.00">Elaborations</text>
<text text-anchor="middle" x="415.5" y="-1383.8" font-family="Times New Roman,serif" font-size="14.00">6</text>
</g>
<!-- A3_1 -->
<g id="node4" class="node"><title>A3_1</title>
<polygon fill="wheat" stroke="black" points="245.5,-1362 151.5,-1362 151.5,-1326 245.5,-1326 245.5,-1362"/>
<text text-anchor="middle" x="198.5" y="-1340.3" font-family="Times New Roman,serif" font-size="14.00">A3_1 : Ouais.</text>
<text text-anchor="start" x="143.5" y="-1366.8" font-family="Times New Roman,serif" font-weight="bold" font-style="italic" font-size="14.00" fill="red">1</text>
</g>
<!-- B2&#45;&gt;A3_1 -->
<g id="edge5" class="edge"><title>B2&#45;&gt;A3_1</title>
<path fill="none" stroke="#1f78b4" stroke-width="7.72727" d="M152.643,-1425.17C146.715,-1421.03 141.465,-1416.03 137.5,-1410 130.177,-1398.86 130.818,-1391.54 137.5,-1380 141.722,-1372.71 148.1,-1366.81 155.164,-1362.07"/>
<polygon fill="#1f78b4" stroke="#1f78b4" stroke-width="7.72727" points="150.813,-1428.01 156.847,-1427.9 154.495,-1422.34 150.813,-1428.01"/>
<text text-anchor="middle" x="172.5" y="-1398.8" font-family="Times New Roman,serif" font-size="14.00">Elaborations</text>
<text text-anchor="middle" x="172.5" y="-1383.8" font-family="Times New Roman,serif" font-size="14.00">17</text>
</g>
<!-- B2&#45;&gt;A3_1 -->
<g id="edge20" class="edge"><title>B2&#45;&gt;A3_1</title>
<path fill="none" stroke="#b2df8a" stroke-width="1.81818" d="M215.193,-1422.65C213.213,-1410.07 210.501,-1394.11 207.5,-1380 206.246,-1374.11 204.667,-1367.71 203.183,-1362.02"/>
<polygon fill="#b2df8a" stroke="#b2df8a" stroke-width="1.81818" points="213.499,-1423.15 215.996,-1427.82 216.958,-1422.61 213.499,-1423.15"/>
<text text-anchor="middle" x="227.5" y="-1398.8" font-family="Times New Roman,serif" font-size="14.00">Méta</text>
<text text-anchor="middle" x="227.5" y="-1383.8" font-family="Times New Roman,serif" font-size="14.00">4</text>
</g>
<!-- B2&#45;&gt;A3_2 -->
<g id="edge6" class="edge"><title>B2&#45;&gt;A3_2</title>
<path fill="none" stroke="#1f78b4" stroke-width="3.63636" d="M237.239,-1423.63C240.345,-1419.32 243.274,-1414.68 245.5,-1410 269.772,-1358.98 278.947,-1291.7 282.065,-1260.4"/>
<polygon fill="#1f78b4" stroke="#1f78b4" stroke-width="3.63636" points="235.702,-1422.76 234.092,-1427.8 238.498,-1424.86 235.702,-1422.76"/>
<text text-anchor="middle" x="307.5" y="-1347.8" font-family="Times New Roman,serif" font-size="14.00">Elaborations</text>
<text text-anchor="middle" x="307.5" y="-1332.8" font-family="Times New Roman,serif" font-size="14.00">8</text>
</g>
<!-- A3_1&#45;&gt;A3_2 -->
<g id="edge7" class="edge"><title>A3_1&#45;&gt;A3_2</title>
<path fill="none" stroke="#1f78b4" stroke-width="3.18182" d="M193.073,-1320.56C191.137,-1307.11 191.17,-1290.29 199.5,-1278 204.553,-1270.55 211.52,-1264.68 219.298,-1260.05"/>
<polygon fill="#1f78b4" stroke="#1f78b4" stroke-width="3.18182" points="191.385,-1321.08 193.933,-1325.72 194.837,-1320.5 191.385,-1321.08"/>
<text text-anchor="middle" x="234.5" y="-1296.8" font-family="Times New Roman,serif" font-size="14.00">Elaborations</text>
<text text-anchor="middle" x="234.5" y="-1281.8" font-family="Times New Roman,serif" font-size="14.00">7</text>
</g>
<!-- B4 -->
<g id="node6" class="node"><title>B4</title>
<polygon fill="skyblue" stroke="black" points="312,-1158 205,-1158 205,-1122 312,-1122 312,-1158"/>
<text text-anchor="middle" x="258.5" y="-1136.3" font-family="Times New Roman,serif" font-size="14.00">B4 : Ouais oh…</text>
</g>
<!-- A3_2&#45;&gt;B4 -->
<g id="edge21" class="edge"><title>A3_2&#45;&gt;B4</title>
<path fill="none" stroke="#b2df8a" stroke-width="10" d="M277.908,-1218.63C273.342,-1200.37 266.982,-1174.93 262.805,-1158.22"/>
<polygon fill="#b2df8a" stroke="#b2df8a" stroke-width="10" points="273.688,-1219.79 279.145,-1223.58 282.177,-1217.67 273.688,-1219.79"/>
<text text-anchor="middle" x="289.5" y="-1194.8" font-family="Times New Roman,serif" font-size="14.00">Méta</text>
<text text-anchor="middle" x="289.5" y="-1179.8" font-family="Times New Roman,serif" font-size="14.00">22</text>
</g>
<!-- A5_1 -->
<g id="node7" class="node"><title>A5_1</title>
<polygon fill="wheat" stroke="black" points="855,-1158 330,-1158 330,-1122 855,-1122 855,-1158"/>
<text text-anchor="middle" x="592.5" y="-1136.3" font-family="Times New Roman,serif" font-size="14.00">A5_1 : Donc je peux faire passeur ou libéro je sais pas si vous connaissez un peu le volley?</text>
<text text-anchor="start" x="322" y="-1162.8" font-family="Times New Roman,serif" font-weight="bold" font-style="italic" font-size="14.00" fill="red">4</text>
</g>
<!-- A3_2&#45;&gt;A5_1 -->
<g id="edge8" class="edge"><title>A3_2&#45;&gt;A5_1</title>
<path fill="none" stroke="#1f78b4" stroke-width="6.81818" d="M341.351,-1222.28C398.395,-1203.82 484.816,-1175.85 539.95,-1158.01"/>
<polygon fill="#1f78b4" stroke="#1f78b4" stroke-width="6.81818" points="340.106,-1219.55 336.268,-1223.92 341.943,-1225.22 340.106,-1219.55"/>
<text text-anchor="middle" x="519.5" y="-1194.8" font-family="Times New Roman,serif" font-size="14.00">Elaborations</text>
<text text-anchor="middle" x="519.5" y="-1179.8" font-family="Times New Roman,serif" font-size="14.00">15</text>
</g>
<!-- A5_2 -->
<g id="node8" class="node"><title>A5_2</title>
<polygon fill="wheat" stroke="black" points="528,-1056 415,-1056 415,-1020 528,-1020 528,-1056"/>
<text text-anchor="middle" x="471.5" y="-1034.3" font-family="Times New Roman,serif" font-size="14.00">A5_2 : Ou euh ...</text>
<text text-anchor="start" x="407" y="-1060.8" font-family="Times New Roman,serif" font-weight="bold" font-style="italic" font-size="14.00" fill="red">1</text>
</g>
<!-- A5_1&#45;&gt;A5_2 -->
<g id="edge22" class="edge"><title>A5_1&#45;&gt;A5_2</title>
<path fill="none" stroke="#b2df8a" stroke-width="8.18182" d="M546.09,-1119.45C537.83,-1114.97 529.605,-1109.8 522.5,-1104 505.832,-1090.39 491.188,-1070.42 481.918,-1056.21"/>
<polygon fill="#b2df8a" stroke="#b2df8a" stroke-width="8.18182" points="544.584,-1122.7 550.676,-1121.86 547.919,-1116.37 544.584,-1122.7"/>
<text text-anchor="middle" x="536.5" y="-1092.8" font-family="Times New Roman,serif" font-size="14.00">Méta</text>
<text text-anchor="middle" x="536.5" y="-1077.8" font-family="Times New Roman,serif" font-size="14.00">18</text>
</g>
<!-- B6 -->
<g id="node9" class="node"><title>B6</title>
<polygon fill="skyblue" stroke="black" points="592,-954 503,-954 503,-918 592,-918 592,-954"/>
<text text-anchor="middle" x="547.5" y="-932.3" font-family="Times New Roman,serif" font-size="14.00">B6 : Alors ...</text>
<text text-anchor="start" x="495" y="-958.8" font-family="Times New Roman,serif" font-weight="bold" font-style="italic" font-size="14.00" fill="red">1</text>
</g>
<!-- A5_1&#45;&gt;B6 -->
<g id="edge23" class="edge"><title>A5_1&#45;&gt;B6</title>
<path fill="none" stroke="#b2df8a" stroke-width="3.18182" d="M587.504,-1116.57C578.435,-1075.87 559.455,-990.664 551.327,-954.179"/>
<polygon fill="#b2df8a" stroke="#b2df8a" stroke-width="3.18182" points="585.868,-1117.28 588.663,-1121.78 589.284,-1116.52 585.868,-1117.28"/>
<text text-anchor="middle" x="588.5" y="-1041.8" font-family="Times New Roman,serif" font-size="14.00">Méta</text>
<text text-anchor="middle" x="588.5" y="-1026.8" font-family="Times New Roman,serif" font-size="14.00">7</text>
</g>
<!-- A7 -->
<g id="node10" class="node"><title>A7</title>
<polygon fill="wheat" stroke="black" points="658,-852 545,-852 545,-816 658,-816 658,-852"/>
<text text-anchor="middle" x="601.5" y="-830.3" font-family="Times New Roman,serif" font-size="14.00">A7 : Pas du tout?</text>
<text text-anchor="start" x="537" y="-856.8" font-family="Times New Roman,serif" font-weight="bold" font-style="italic" font-size="14.00" fill="red">1</text>
</g>
<!-- A5_1&#45;&gt;A7 -->
<g id="edge29" class="edge"><title>A5_1&#45;&gt;A7</title>
<path fill="none" stroke="#33a02c" stroke-width="2.72727" d="M597.243,-1117C600.581,-1100.34 604.754,-1076.85 606.5,-1056 613.399,-973.622 612.36,-952.459 606.5,-870 606.082,-864.122 605.275,-857.731 604.428,-852.038"/>
<polygon fill="#33a02c" stroke="#33a02c" stroke-width="2.72727" points="595.52,-1116.69 596.237,-1121.94 598.95,-1117.39 595.52,-1116.69"/>
<text text-anchor="middle" x="637" y="-990.8" font-family="Times New Roman,serif" font-size="14.00">Question</text>
<text text-anchor="middle" x="637" y="-975.8" font-family="Times New Roman,serif" font-size="14.00">6</text>
</g>
<!-- B8_1 -->
<g id="node11" class="node"><title>B8_1</title>
<polygon fill="skyblue" stroke="black" points="830.5,-750 456.5,-750 456.5,-714 830.5,-714 830.5,-750"/>
<text text-anchor="middle" x="643.5" y="-728.3" font-family="Times New Roman,serif" font-size="14.00">B8_1 : J’ai regardé je suis tombée sur une émission euh sportive</text>
<text text-anchor="start" x="448.5" y="-754.8" font-family="Times New Roman,serif" font-weight="bold" font-style="italic" font-size="14.00" fill="red">9</text>
</g>
<!-- A5_1&#45;&gt;B8_1 -->
<g id="edge9" class="edge"><title>A5_1&#45;&gt;B8_1</title>
<path fill="none" stroke="#1f78b4" stroke-width="2.72727" d="M629.114,-1119.1C655.507,-1101.8 686.5,-1074.02 686.5,-1039 686.5,-1039 686.5,-1039 686.5,-833 686.5,-803.449 685.408,-794.583 672.5,-768 669.398,-761.611 664.893,-755.389 660.354,-750.005"/>
<polygon fill="#1f78b4" stroke="#1f78b4" stroke-width="2.72727" points="627.855,-1117.83 624.587,-1122 629.741,-1120.78 627.855,-1117.83"/>
<text text-anchor="middle" x="721.5" y="-939.8" font-family="Times New Roman,serif" font-size="14.00">Elaborations</text>
<text text-anchor="middle" x="721.5" y="-924.8" font-family="Times New Roman,serif" font-size="14.00">6</text>
</g>
<!-- A5_2&#45;&gt;B6 -->
<g id="edge24" class="edge"><title>A5_2&#45;&gt;B6</title>
<path fill="none" stroke="#b2df8a" stroke-width="5" d="M487.792,-1015.56C501.719,-997.239 521.498,-971.213 534.414,-954.219"/>
<polygon fill="#b2df8a" stroke="#b2df8a" stroke-width="5" points="486.022,-1014.28 484.738,-1019.58 489.505,-1016.92 486.022,-1014.28"/>
<text text-anchor="middle" x="535.5" y="-990.8" font-family="Times New Roman,serif" font-size="14.00">Méta</text>
<text text-anchor="middle" x="535.5" y="-975.8" font-family="Times New Roman,serif" font-size="14.00">11</text>
</g>
<!-- B6&#45;&gt;A7 -->
<g id="edge30" class="edge"><title>B6&#45;&gt;A7</title>
<path fill="none" stroke="#33a02c" stroke-width="5" d="M546.054,-912.776C546.17,-899.545 548.1,-882.881 555.5,-870 559.499,-863.039 565.491,-857.01 571.839,-852.012"/>
<polygon fill="#33a02c" stroke="#33a02c" stroke-width="5" points="543.867,-912.864 546.095,-917.846 548.242,-912.828 543.867,-912.864"/>
<text text-anchor="middle" x="581" y="-888.8" font-family="Times New Roman,serif" font-size="14.00">Question</text>
<text text-anchor="middle" x="581" y="-873.8" font-family="Times New Roman,serif" font-size="14.00">11</text>
</g>
<!-- A7&#45;&gt;B8_1 -->
<g id="edge10" class="edge"><title>A7&#45;&gt;B8_1</title>
<path fill="none" stroke="#1f78b4" stroke-width="4.54545" d="M597.442,-810.841C596.094,-797.772 596.264,-781.253 602.5,-768 605.688,-761.225 610.887,-755.267 616.529,-750.276"/>
<polygon fill="#1f78b4" stroke="#1f78b4" stroke-width="4.54545" points="595.472,-811.123 598.048,-815.848 599.421,-810.645 595.472,-811.123"/>
<text text-anchor="middle" x="637.5" y="-786.8" font-family="Times New Roman,serif" font-size="14.00">Elaborations</text>
<text text-anchor="middle" x="637.5" y="-771.8" font-family="Times New Roman,serif" font-size="14.00">10</text>
</g>
<!-- B8_2 -->
<g id="node12" class="node"><title>B8_2</title>
<polygon fill="skyblue" stroke="black" points="659.5,-648 265.5,-648 265.5,-612 659.5,-612 659.5,-648"/>
<text text-anchor="middle" x="462.5" y="-626.3" font-family="Times New Roman,serif" font-size="14.00">B8_2 : parce que maintenant ils retransmettent pas mal de matchs…</text>
</g>
<!-- B8_1&#45;&gt;B8_2 -->
<g id="edge2" class="edge"><title>B8_1&#45;&gt;B8_2</title>
<path fill="none" stroke="#a6cee3" stroke-width="2.72727" d="M550.538,-712.108C538.943,-707.781 527.62,-702.483 517.5,-696 498.455,-683.8 482.529,-662.965 472.797,-648.175"/>
<polygon fill="#a6cee3" stroke="#a6cee3" stroke-width="2.72727" points="550.224,-713.855 555.521,-713.903 551.41,-710.562 550.224,-713.855"/>
<text text-anchor="middle" x="543.5" y="-684.8" font-family="Times New Roman,serif" font-size="14.00">Narration</text>
<text text-anchor="middle" x="543.5" y="-669.8" font-family="Times New Roman,serif" font-size="14.00">6</text>
</g>
<!-- B8_1&#45;&gt;B8_2 -->
<g id="edge11" class="edge"><title>B8_1&#45;&gt;B8_2</title>
<path fill="none" stroke="#1f78b4" stroke-width="7.27273" d="M624.176,-710.04C610.169,-695.912 590.136,-677.773 569.5,-666 556.937,-658.833 542.697,-652.885 528.798,-648.05"/>
<polygon fill="#1f78b4" stroke="#1f78b4" stroke-width="7.27273" points="622.191,-712.562 627.962,-713.91 626.74,-708.111 622.191,-712.562"/>
<text text-anchor="middle" x="643.5" y="-684.8" font-family="Times New Roman,serif" font-size="14.00">Elaborations</text>
<text text-anchor="middle" x="643.5" y="-669.8" font-family="Times New Roman,serif" font-size="14.00">16</text>
</g>
<!-- B10_1 -->
<g id="node14" class="node"><title>B10_1</title>
<polygon fill="skyblue" stroke="black" points="854.5,-546 378.5,-546 378.5,-510 854.5,-510 854.5,-546"/>
<text text-anchor="middle" x="616.5" y="-524.3" font-family="Times New Roman,serif" font-size="14.00">B10_1 : Euh l&#39;autre soir sur euh je sais pas l&#39;équipe ou je sais plus quelle chaîne …</text>
<text text-anchor="start" x="370.5" y="-550.8" font-family="Times New Roman,serif" font-weight="bold" font-style="italic" font-size="14.00" fill="red">1</text>
</g>
<!-- B8_1&#45;&gt;B10_1 -->
<g id="edge12" class="edge"><title>B8_1&#45;&gt;B10_1</title>
<path fill="none" stroke="#1f78b4" stroke-width="3.18182" d="M671.9,-710.096C675.801,-705.89 679.239,-701.157 681.5,-696 686.854,-683.789 683.071,-679.24 681.5,-666 678.591,-641.486 678.067,-634.757 668.5,-612 658.286,-587.703 641.378,-562.401 629.626,-546.218"/>
<polygon fill="#1f78b4" stroke="#1f78b4" stroke-width="3.18182" points="670.493,-709.029 668.208,-713.808 672.975,-711.497 670.493,-709.029"/>
<text text-anchor="middle" x="714.5" y="-633.8" font-family="Times New Roman,serif" font-size="14.00">Elaborations</text>
<text text-anchor="middle" x="714.5" y="-618.8" font-family="Times New Roman,serif" font-size="14.00">7</text>
</g>
<!-- B10_2 -->
<g id="node15" class="node"><title>B10_2</title>
<polygon fill="skyblue" stroke="black" points="1022,-444 567,-444 567,-408 1022,-408 1022,-444"/>
<text text-anchor="middle" x="794.5" y="-422.3" font-family="Times New Roman,serif" font-size="14.00">B10_2 : Et c&#39;était justement la finale euh un match féminin. De volley féminin ...</text>
</g>
<!-- B8_1&#45;&gt;B10_2 -->
<g id="edge13" class="edge"><title>B8_1&#45;&gt;B10_2</title>
<path fill="none" stroke="#1f78b4" stroke-width="3.18182" d="M684.507,-711.531C737.868,-683.555 828.425,-626.358 863.5,-546 880.123,-507.916 842.273,-466.627 816.32,-444.084"/>
<polygon fill="#1f78b4" stroke="#1f78b4" stroke-width="3.18182" points="683.412,-710.128 679.78,-713.984 685.024,-713.234 683.412,-710.128"/>
<text text-anchor="middle" x="889.5" y="-582.8" font-family="Times New Roman,serif" font-size="14.00">Elaborations</text>
<text text-anchor="middle" x="889.5" y="-567.8" font-family="Times New Roman,serif" font-size="14.00">7</text>
</g>
<!-- A9 -->
<g id="node13" class="node"><title>A9</title>
<polygon fill="wheat" stroke="black" points="360.5,-546 258.5,-546 258.5,-510 360.5,-510 360.5,-546"/>
<text text-anchor="middle" x="309.5" y="-524.3" font-family="Times New Roman,serif" font-size="14.00">A9 : Hum hum.</text>
</g>
<!-- B8_2&#45;&gt;A9 -->
<g id="edge25" class="edge"><title>B8_2&#45;&gt;A9</title>
<path fill="none" stroke="#b2df8a" stroke-width="8.18182" d="M431.795,-608.931C403.632,-590.524 362.364,-563.552 335.714,-546.133"/>
<polygon fill="#b2df8a" stroke="#b2df8a" stroke-width="8.18182" points="430.055,-612.07 436.198,-611.809 433.971,-606.078 430.055,-612.07"/>
<text text-anchor="middle" x="423.5" y="-582.8" font-family="Times New Roman,serif" font-size="14.00">Méta</text>
<text text-anchor="middle" x="423.5" y="-567.8" font-family="Times New Roman,serif" font-size="14.00">18</text>
</g>
<!-- B8_2&#45;&gt;B10_1 -->
<g id="edge14" class="edge"><title>B8_2&#45;&gt;B10_1</title>
<path fill="none" stroke="#1f78b4" stroke-width="2.72727" d="M493.406,-608.931C521.753,-590.524 563.29,-563.552 590.115,-546.133"/>
<polygon fill="#1f78b4" stroke="#1f78b4" stroke-width="2.72727" points="492.214,-607.619 488.974,-611.809 494.12,-610.554 492.214,-607.619"/>
<text text-anchor="middle" x="597.5" y="-582.8" font-family="Times New Roman,serif" font-size="14.00">Elaborations</text>
<text text-anchor="middle" x="597.5" y="-567.8" font-family="Times New Roman,serif" font-size="14.00">6</text>
</g>
<!-- B10_1&#45;&gt;B10_2 -->
<g id="edge15" class="edge"><title>B10_1&#45;&gt;B10_2</title>
<path fill="none" stroke="#1f78b4" stroke-width="5.45455" d="M651.818,-507.158C684.592,-488.746 732.87,-461.623 764.003,-444.133"/>
<polygon fill="#1f78b4" stroke="#1f78b4" stroke-width="5.45455" points="650.29,-505.28 647.099,-509.809 652.627,-509.441 650.29,-505.28"/>
<text text-anchor="middle" x="767.5" y="-480.8" font-family="Times New Roman,serif" font-size="14.00">Elaborations</text>
<text text-anchor="middle" x="767.5" y="-465.8" font-family="Times New Roman,serif" font-size="14.00">12</text>
</g>
<!-- A11 -->
<g id="node16" class="node"><title>A11</title>
<polygon fill="wheat" stroke="black" points="558,-342 449,-342 449,-306 558,-306 558,-342"/>
<text text-anchor="middle" x="503.5" y="-320.3" font-family="Times New Roman,serif" font-size="14.00">A11 : Hum hum.</text>
</g>
<!-- B10_2&#45;&gt;A11 -->
<g id="edge26" class="edge"><title>B10_2&#45;&gt;A11</title>
<path fill="none" stroke="#b2df8a" stroke-width="9.54545" d="M740.019,-406.278C686.298,-387.817 604.911,-359.849 552.989,-342.007"/>
<polygon fill="#b2df8a" stroke="#b2df8a" stroke-width="9.54545" points="738.72,-410.247 744.806,-407.923 741.435,-402.349 738.72,-410.247"/>
<text text-anchor="middle" x="706.5" y="-378.8" font-family="Times New Roman,serif" font-size="14.00">Méta</text>
<text text-anchor="middle" x="706.5" y="-363.8" font-family="Times New Roman,serif" font-size="14.00">21</text>
</g>
<!-- B12 -->
<g id="node17" class="node"><title>B12</title>
<polygon fill="skyblue" stroke="black" points="1163,-342 576,-342 576,-306 1163,-306 1163,-342"/>
<text text-anchor="middle" x="869.5" y="-320.3" font-family="Times New Roman,serif" font-size="14.00">B12 : Et je ne comprenais pas pourquoi une nana n&#39;avait pas la même couleur de maillot que les autres.</text>
<text text-anchor="start" x="568" y="-346.8" font-family="Times New Roman,serif" font-weight="bold" font-style="italic" font-size="14.00" fill="red">4</text>
</g>
<!-- B10_2&#45;&gt;B12 -->
<g id="edge3" class="edge"><title>B10_2&#45;&gt;B12</title>
<path fill="none" stroke="#a6cee3" stroke-width="1.81818" d="M789.279,-402.698C787.42,-389.297 787.461,-372.481 795.5,-360 800.271,-352.592 807.072,-346.72 814.639,-342.073"/>
<polygon fill="#a6cee3" stroke="#a6cee3" stroke-width="1.81818" points="787.584,-403.177 790.106,-407.836 791.039,-402.621 787.584,-403.177"/>
<text text-anchor="middle" x="821.5" y="-378.8" font-family="Times New Roman,serif" font-size="14.00">Narration</text>
<text text-anchor="middle" x="821.5" y="-363.8" font-family="Times New Roman,serif" font-size="14.00">4</text>
</g>
<!-- B10_2&#45;&gt;B12 -->
<g id="edge16" class="edge"><title>B10_2&#45;&gt;B12</title>
<path fill="none" stroke="#1f78b4" stroke-width="5.90909" d="M832.231,-404.687C837.903,-400.408 843.262,-395.498 847.5,-390 858.338,-375.941 864.013,-356.229 866.863,-342.206"/>
<polygon fill="#1f78b4" stroke="#1f78b4" stroke-width="5.90909" points="830.399,-402.82 827.846,-407.836 833.415,-407.02 830.399,-402.82"/>
<text text-anchor="middle" x="897.5" y="-378.8" font-family="Times New Roman,serif" font-size="14.00">Elaborations</text>
<text text-anchor="middle" x="897.5" y="-363.8" font-family="Times New Roman,serif" font-size="14.00">13</text>
</g>
<!-- A13_1 -->
<g id="node18" class="node"><title>A13_1</title>
<polygon fill="wheat" stroke="black" points="994,-240 745,-240 745,-204 994,-204 994,-240"/>
<text text-anchor="middle" x="869.5" y="-218.3" font-family="Times New Roman,serif" font-size="14.00">A13_1 : C’est justement les libéros en fait</text>
<text text-anchor="start" x="737" y="-244.8" font-family="Times New Roman,serif" font-weight="bold" font-style="italic" font-size="14.00" fill="red">2</text>
</g>
<!-- B12&#45;&gt;A13_1 -->
<g id="edge17" class="edge"><title>B12&#45;&gt;A13_1</title>
<path fill="none" stroke="#1f78b4" stroke-width="10" d="M869.5,-300.163C869.5,-281.932 869.5,-256.784 869.5,-240.219"/>
<polygon fill="#1f78b4" stroke="#1f78b4" stroke-width="10" points="865.125,-300.581 869.5,-305.581 873.875,-300.581 865.125,-300.581"/>
<text text-anchor="middle" x="904.5" y="-276.8" font-family="Times New Roman,serif" font-size="14.00">Elaborations</text>
<text text-anchor="middle" x="904.5" y="-261.8" font-family="Times New Roman,serif" font-size="14.00">22</text>
</g>
<!-- A13_2 -->
<g id="node19" class="node"><title>A13_2</title>
<polygon fill="wheat" stroke="black" points="1035.5,-138 703.5,-138 703.5,-102 1035.5,-102 1035.5,-138"/>
<text text-anchor="middle" x="869.5" y="-116.3" font-family="Times New Roman,serif" font-size="14.00">A13_2 : c&#39;est quelqu&#39;un qui fait que les postes arrières ...</text>
</g>
<!-- A13_1&#45;&gt;A13_2 -->
<g id="edge18" class="edge"><title>A13_1&#45;&gt;A13_2</title>
<path fill="none" stroke="#1f78b4" stroke-width="8.63636" d="M869.5,-198.163C869.5,-179.932 869.5,-154.784 869.5,-138.219"/>
<polygon fill="#1f78b4" stroke="#1f78b4" stroke-width="8.63636" points="865.722,-198.581 869.5,-203.581 873.279,-198.581 865.722,-198.581"/>
<text text-anchor="middle" x="904.5" y="-174.8" font-family="Times New Roman,serif" font-size="14.00">Elaborations</text>
<text text-anchor="middle" x="904.5" y="-159.8" font-family="Times New Roman,serif" font-size="14.00">19</text>
</g>
<!-- B14 -->
<g id="node20" class="node"><title>B14</title>
<polygon fill="skyblue" stroke="black" points="923,-36 816,-36 816,-0 923,-0 923,-36"/>
<text text-anchor="middle" x="869.5" y="-14.3" font-family="Times New Roman,serif" font-size="14.00">B14 : D’accord.</text>
</g>
<!-- A13_2&#45;&gt;B14 -->
<g id="edge19" class="edge"><title>A13_2&#45;&gt;B14</title>
<path fill="none" stroke="#1f78b4" stroke-width="2.72727" d="M835.551,-98.4421C831.088,-94.2397 827.15,-89.4179 824.5,-84 818.642,-72.0225 818.642,-65.9775 824.5,-54 827.892,-47.0651 833.394,-41.1069 839.406,-36.1741"/>
<polygon fill="#1f78b4" stroke="#1f78b4" stroke-width="2.72727" points="834.494,-99.843 839.406,-101.826 836.803,-97.2124 834.494,-99.843"/>
<text text-anchor="middle" x="859.5" y="-72.8" font-family="Times New Roman,serif" font-size="14.00">Elaborations</text>
<text text-anchor="middle" x="859.5" y="-57.8" font-family="Times New Roman,serif" font-size="14.00">6</text>
</g>
<!-- A13_2&#45;&gt;B14 -->
<g id="edge27" class="edge"><title>A13_2&#45;&gt;B14</title>
<path fill="none" stroke="#b2df8a" stroke-width="6.81818" d="M888.056,-97.2697C890.705,-93.1013 893.027,-88.5955 894.5,-84 898.569,-71.3027 898.569,-66.6973 894.5,-54 892.495,-47.7423 888.914,-41.651 885.078,-36.3511"/>
<polygon fill="#b2df8a" stroke="#b2df8a" stroke-width="6.81818" points="885.423,-95.8369 885.078,-101.649 890.356,-99.1919 885.423,-95.8369"/>
<text text-anchor="middle" x="912.5" y="-72.8" font-family="Times New Roman,serif" font-size="14.00">Méta</text>
<text text-anchor="middle" x="912.5" y="-57.8" font-family="Times New Roman,serif" font-size="14.00">15</text>
</g>
</g>
</svg>
