<?xml version="1.0" encoding="UTF-8" standalone="no"?>
<!DOCTYPE svg PUBLIC "-//W3C//DTD SVG 1.1//EN"
 "http://www.w3.org/Graphics/SVG/1.1/DTD/svg11.dtd">
<!-- Generated by graphviz version 2.38.0 (20140413.2041)
 -->
<!-- Title: Concours Pages: 1 -->
<svg width="796pt" height="1940pt"
 viewBox="0.00 0.00 796.00 1940.00" xmlns="http://www.w3.org/2000/svg" xmlns:xlink="http://www.w3.org/1999/xlink">
<g id="graph0" class="graph" transform="scale(1 1) rotate(0) translate(4 1936)">
<title>Concours</title>
<polygon fill="white" stroke="none" points="-4,4 -4,-1936 792,-1936 792,4 -4,4"/>
<text text-anchor="start" x="17" y="-1913" font-family="Times New Roman,serif" font-size="20.00">Concours</text>
<text text-anchor="start" x="8" y="-1896.2" font-family="Times New Roman,serif" font-size="16.00">13 annotations </text>
<text text-anchor="start" x="17" y="-1880.2" font-family="Times New Roman,serif" font-size="16.00"> seuil = 0.15</text>
<!-- début -->
<g id="node1" class="node"><title>début</title>
<polygon fill="lightgrey" stroke="black" points="310,-1872 218,-1872 218,-1836 310,-1836 310,-1872"/>
<text text-anchor="middle" x="264" y="-1850.3" font-family="Times New Roman,serif" font-size="14.00">début : Début</text>
</g>
<!-- A1 -->
<g id="node2" class="node"><title>A1</title>
<polygon fill="wheat" stroke="black" points="428,-1770 100,-1770 100,-1734 428,-1734 428,-1770"/>
<text text-anchor="middle" x="264" y="-1748.3" font-family="Times New Roman,serif" font-size="14.00">A1 : Et euh donc là vous avez passé le concours c&#39;est...</text>
<text text-anchor="start" x="84" y="-1774.8" font-family="Times New Roman,serif" font-weight="bold" font-style="italic" font-size="14.00" fill="red">11</text>
</g>
<!-- début&#45;&gt;A1 -->
<g id="edge1" class="edge"><title>début&#45;&gt;A1</title>
<path fill="none" stroke="#a6cee3" stroke-width="7.69231" d="M237.344,-1832.2C233.539,-1827.94 230.182,-1823.16 228,-1818 222.811,-1805.72 222.811,-1800.28 228,-1788 230.85,-1781.26 235.705,-1775.17 240.943,-1770.03"/>
<polygon fill="#a6cee3" stroke="#a6cee3" stroke-width="7.69231" points="235.055,-1834.68 240.943,-1835.97 239.92,-1830.03 235.055,-1834.68"/>
<text text-anchor="middle" x="254" y="-1806.8" font-family="Times New Roman,serif" font-size="14.00">Narration</text>
<text text-anchor="middle" x="254" y="-1791.8" font-family="Times New Roman,serif" font-size="14.00">10</text>
</g>
<!-- début&#45;&gt;A1 -->
<g id="edge6" class="edge"><title>début&#45;&gt;A1</title>
<path fill="none" stroke="#1f78b4" stroke-width="1.53846" d="M275.798,-1830.92C277.538,-1826.74 279.06,-1822.32 280,-1818 282.837,-1804.97 282.837,-1801.03 280,-1788 278.692,-1781.99 276.258,-1775.78 273.676,-1770.29"/>
<polygon fill="#1f78b4" stroke="#1f78b4" stroke-width="1.53846" points="274.104,-1830.43 273.676,-1835.71 277.303,-1831.85 274.104,-1830.43"/>
<text text-anchor="middle" x="318" y="-1806.8" font-family="Times New Roman,serif" font-size="14.00">Elaborations</text>
<text text-anchor="middle" x="318" y="-1791.8" font-family="Times New Roman,serif" font-size="14.00">2</text>
</g>
<!-- B2 -->
<g id="node3" class="node"><title>B2</title>
<polygon fill="skyblue" stroke="black" points="312.5,-1668 115.5,-1668 115.5,-1632 312.5,-1632 312.5,-1668"/>
<text text-anchor="middle" x="214" y="-1646.3" font-family="Times New Roman,serif" font-size="14.00">B2 : Ouais j&#39;attends les résultats.</text>
<text text-anchor="start" x="107.5" y="-1672.8" font-family="Times New Roman,serif" font-weight="bold" font-style="italic" font-size="14.00" fill="red">4</text>
</g>
<!-- A1&#45;&gt;B2 -->
<g id="edge2" class="edge"><title>A1&#45;&gt;B2</title>
<path fill="none" stroke="#a6cee3" stroke-width="1.53846" d="M204.544,-1731C198.819,-1726.88 193.756,-1721.93 190,-1716 180.54,-1701.06 189.857,-1681.85 199.507,-1668.19"/>
<polygon fill="#a6cee3" stroke="#a6cee3" stroke-width="1.53846" points="203.908,-1732.68 209.04,-1733.99 205.847,-1729.76 203.908,-1732.68"/>
<text text-anchor="middle" x="216" y="-1704.8" font-family="Times New Roman,serif" font-size="14.00">Narration</text>
<text text-anchor="middle" x="216" y="-1689.8" font-family="Times New Roman,serif" font-size="14.00">2</text>
</g>
<!-- A1&#45;&gt;B2 -->
<g id="edge7" class="edge"><title>A1&#45;&gt;B2</title>
<path fill="none" stroke="#1f78b4" stroke-width="8.46154" d="M258.565,-1728.8C254.895,-1715.85 249.369,-1699.47 242,-1686 238.639,-1679.86 234.181,-1673.71 229.812,-1668.31"/>
<polygon fill="#1f78b4" stroke="#1f78b4" stroke-width="8.46154" points="255.034,-1729.92 259.929,-1733.76 262.173,-1727.96 255.034,-1729.92"/>
<text text-anchor="middle" x="290" y="-1704.8" font-family="Times New Roman,serif" font-size="14.00">Elaborations</text>
<text text-anchor="middle" x="290" y="-1689.8" font-family="Times New Roman,serif" font-size="14.00">11</text>
</g>
<!-- A3 -->
<g id="node4" class="node"><title>A3</title>
<polygon fill="wheat" stroke="black" points="435.5,-1566 248.5,-1566 248.5,-1530 435.5,-1530 435.5,-1566"/>
<text text-anchor="middle" x="342" y="-1544.3" font-family="Times New Roman,serif" font-size="14.00">A3 : C’est quand les résultats?</text>
<text text-anchor="start" x="240.5" y="-1570.8" font-family="Times New Roman,serif" font-weight="bold" font-style="italic" font-size="14.00" fill="red">3</text>
</g>
<!-- A1&#45;&gt;A3 -->
<g id="edge35" class="edge"><title>A1&#45;&gt;A3</title>
<path fill="none" stroke="#33a02c" stroke-width="1.53846" d="M314.43,-1730.89C320.112,-1726.74 325.21,-1721.82 329,-1716 359.471,-1669.21 351.548,-1598.67 345.682,-1566.32"/>
<polygon fill="#33a02c" stroke="#33a02c" stroke-width="1.53846" points="313.135,-1729.65 309.983,-1733.91 315.102,-1732.55 313.135,-1729.65"/>
<text text-anchor="middle" x="377.5" y="-1653.8" font-family="Times New Roman,serif" font-size="14.00">Question</text>
<text text-anchor="middle" x="377.5" y="-1638.8" font-family="Times New Roman,serif" font-size="14.00">2</text>
</g>
<!-- B2&#45;&gt;A3 -->
<g id="edge36" class="edge"><title>B2&#45;&gt;A3</title>
<path fill="none" stroke="#33a02c" stroke-width="6.92308" d="M234.063,-1628.28C247.553,-1614.88 266.081,-1597.5 284,-1584 292.454,-1577.63 302.132,-1571.41 311.129,-1566.03"/>
<polygon fill="#33a02c" stroke="#33a02c" stroke-width="6.92308" points="231.791,-1626.26 230.396,-1631.94 236.074,-1630.55 231.791,-1626.26"/>
<text text-anchor="middle" x="309.5" y="-1602.8" font-family="Times New Roman,serif" font-size="14.00">Question</text>
<text text-anchor="middle" x="309.5" y="-1587.8" font-family="Times New Roman,serif" font-size="14.00">9</text>
</g>
<!-- A7_1 -->
<g id="node8" class="node"><title>A7_1</title>
<polygon fill="wheat" stroke="black" points="566.5,-1158 77.5,-1158 77.5,-1122 566.5,-1122 566.5,-1158"/>
<text text-anchor="middle" x="322" y="-1136.3" font-family="Times New Roman,serif" font-size="14.00">A7_1 : Parce que je sais qu’en début d&#39;année y en a qui attendent encore les résultats</text>
<text text-anchor="start" x="69.5" y="-1162.8" font-family="Times New Roman,serif" font-weight="bold" font-style="italic" font-size="14.00" fill="red">4</text>
</g>
<!-- B2&#45;&gt;A7_1 -->
<g id="edge8" class="edge"><title>B2&#45;&gt;A7_1</title>
<path fill="none" stroke="#1f78b4" stroke-width="1.53846" d="M214,-1626.48C214,-1606.21 214,-1575.61 214,-1549 214,-1549 214,-1549 214,-1241 214,-1202.29 251.824,-1174.37 282.704,-1158.03"/>
<polygon fill="#1f78b4" stroke="#1f78b4" stroke-width="1.53846" points="212.25,-1626.66 214,-1631.66 215.75,-1626.66 212.25,-1626.66"/>
<text text-anchor="middle" x="249" y="-1398.8" font-family="Times New Roman,serif" font-size="14.00">Elaborations</text>
<text text-anchor="middle" x="249" y="-1383.8" font-family="Times New Roman,serif" font-size="14.00">2</text>
</g>
<!-- B4 -->
<g id="node5" class="node"><title>B4</title>
<polygon fill="skyblue" stroke="black" points="406,-1464 338,-1464 338,-1428 406,-1428 406,-1464"/>
<text text-anchor="middle" x="372" y="-1442.3" font-family="Times New Roman,serif" font-size="14.00">B4 : Juin.</text>
</g>
<!-- A3&#45;&gt;B4 -->
<g id="edge9" class="edge"><title>A3&#45;&gt;B4</title>
<path fill="none" stroke="#1f78b4" stroke-width="9.23077" d="M348.71,-1524.63C354.19,-1506.37 361.822,-1480.93 366.834,-1464.22"/>
<polygon fill="#1f78b4" stroke="#1f78b4" stroke-width="9.23077" points="344.794,-1523.63 347.226,-1529.58 352.531,-1525.95 344.794,-1523.63"/>
<text text-anchor="middle" x="397" y="-1500.8" font-family="Times New Roman,serif" font-size="14.00">Elaborations</text>
<text text-anchor="middle" x="397" y="-1485.8" font-family="Times New Roman,serif" font-size="14.00">12</text>
</g>
<!-- A3&#45;&gt;A7_1 -->
<g id="edge10" class="edge"><title>A3&#45;&gt;A7_1</title>
<path fill="none" stroke="#1f78b4" stroke-width="2.30769" d="M326.815,-1525.66C314.439,-1506.14 299,-1475.99 299,-1447 299,-1447 299,-1447 299,-1241 299,-1211.25 308.788,-1177.76 315.593,-1158.07"/>
<polygon fill="#1f78b4" stroke="#1f78b4" stroke-width="2.30769" points="325.375,-1526.65 329.563,-1529.9 328.312,-1524.75 325.375,-1526.65"/>
<text text-anchor="middle" x="334" y="-1347.8" font-family="Times New Roman,serif" font-size="14.00">Elaborations</text>
<text text-anchor="middle" x="334" y="-1332.8" font-family="Times New Roman,serif" font-size="14.00">3</text>
</g>
<!-- A5 -->
<g id="node6" class="node"><title>A5</title>
<polygon fill="wheat" stroke="black" points="458.5,-1362 387.5,-1362 387.5,-1326 458.5,-1326 458.5,-1362"/>
<text text-anchor="middle" x="423" y="-1340.3" font-family="Times New Roman,serif" font-size="14.00">A5 : Juin?</text>
<text text-anchor="start" x="379.5" y="-1366.8" font-family="Times New Roman,serif" font-weight="bold" font-style="italic" font-size="14.00" fill="red">1</text>
</g>
<!-- B4&#45;&gt;A5 -->
<g id="edge25" class="edge"><title>B4&#45;&gt;A5</title>
<path fill="none" stroke="#b2df8a" stroke-width="8.46154" d="M367.515,-1422.88C365.973,-1409.69 366.09,-1393.03 373,-1380 376.774,-1372.89 382.714,-1366.91 389.201,-1362.03"/>
<polygon fill="#b2df8a" stroke="#b2df8a" stroke-width="8.46154" points="363.86,-1423.48 368.204,-1427.93 371.196,-1422.48 363.86,-1423.48"/>
<text text-anchor="middle" x="387" y="-1398.8" font-family="Times New Roman,serif" font-size="14.00">Méta</text>
<text text-anchor="middle" x="387" y="-1383.8" font-family="Times New Roman,serif" font-size="14.00">11</text>
</g>
<!-- B4&#45;&gt;A5 -->
<g id="edge37" class="edge"><title>B4&#45;&gt;A5</title>
<path fill="none" stroke="#33a02c" stroke-width="1.53846" d="M391.581,-1423.85C395.025,-1419.48 398.35,-1414.75 401,-1410 409.536,-1394.71 415.523,-1375.55 419.074,-1362"/>
<polygon fill="#33a02c" stroke="#33a02c" stroke-width="1.53846" points="390.199,-1422.78 388.401,-1427.76 392.914,-1424.98 390.199,-1422.78"/>
<text text-anchor="middle" x="439.5" y="-1398.8" font-family="Times New Roman,serif" font-size="14.00">Question</text>
<text text-anchor="middle" x="439.5" y="-1383.8" font-family="Times New Roman,serif" font-size="14.00">2</text>
</g>
<!-- B6 -->
<g id="node7" class="node"><title>B6</title>
<polygon fill="skyblue" stroke="black" points="509,-1260 433,-1260 433,-1224 509,-1224 509,-1260"/>
<text text-anchor="middle" x="471" y="-1238.3" font-family="Times New Roman,serif" font-size="14.00">B6 : Mmh.</text>
</g>
<!-- A5&#45;&gt;B6 -->
<g id="edge11" class="edge"><title>A5&#45;&gt;B6</title>
<path fill="none" stroke="#1f78b4" stroke-width="3.84615" d="M406.709,-1321.46C398.846,-1308.26 392.728,-1291.38 401,-1278 408.143,-1266.44 420.387,-1258.57 432.656,-1253.27"/>
<polygon fill="#1f78b4" stroke="#1f78b4" stroke-width="3.84615" points="405.283,-1322.48 409.424,-1325.79 408.248,-1320.62 405.283,-1322.48"/>
<text text-anchor="middle" x="436" y="-1296.8" font-family="Times New Roman,serif" font-size="14.00">Elaborations</text>
<text text-anchor="middle" x="436" y="-1281.8" font-family="Times New Roman,serif" font-size="14.00">5</text>
</g>
<!-- A5&#45;&gt;B6 -->
<g id="edge26" class="edge"><title>A5&#45;&gt;B6</title>
<path fill="none" stroke="#b2df8a" stroke-width="6.15385" d="M459.54,-1322.44C464.155,-1318.27 468.225,-1313.46 471,-1308 478.518,-1293.21 477.402,-1273.98 475.089,-1260.27"/>
<polygon fill="#b2df8a" stroke="#b2df8a" stroke-width="6.15385" points="457.648,-1320.51 455.552,-1325.79 461.112,-1324.63 457.648,-1320.51"/>
<text text-anchor="middle" x="491" y="-1296.8" font-family="Times New Roman,serif" font-size="14.00">Méta</text>
<text text-anchor="middle" x="491" y="-1281.8" font-family="Times New Roman,serif" font-size="14.00">8</text>
</g>
<!-- A5&#45;&gt;A7_1 -->
<g id="edge12" class="edge"><title>A5&#45;&gt;A7_1</title>
<path fill="none" stroke="#1f78b4" stroke-width="3.07692" d="M401.113,-1322.02C385.867,-1306.27 366.161,-1283.47 354,-1260 336.577,-1226.38 327.949,-1182.36 324.284,-1158.4"/>
<polygon fill="#1f78b4" stroke="#1f78b4" stroke-width="3.07692" points="400.135,-1323.52 404.885,-1325.87 402.634,-1321.07 400.135,-1323.52"/>
<text text-anchor="middle" x="389" y="-1245.8" font-family="Times New Roman,serif" font-size="14.00">Elaborations</text>
<text text-anchor="middle" x="389" y="-1230.8" font-family="Times New Roman,serif" font-size="14.00">4</text>
</g>
<!-- B6&#45;&gt;A7_1 -->
<g id="edge27" class="edge"><title>B6&#45;&gt;A7_1</title>
<path fill="none" stroke="#b2df8a" stroke-width="1.53846" d="M441.111,-1220.94C413.771,-1202.59 373.744,-1175.73 347.778,-1158.3"/>
<polygon fill="#b2df8a" stroke="#b2df8a" stroke-width="1.53846" points="440.259,-1222.48 445.386,-1223.81 442.21,-1219.57 440.259,-1222.48"/>
<text text-anchor="middle" x="433" y="-1194.8" font-family="Times New Roman,serif" font-size="14.00">Méta</text>
<text text-anchor="middle" x="433" y="-1179.8" font-family="Times New Roman,serif" font-size="14.00">2</text>
</g>
<!-- A7_2 -->
<g id="node9" class="node"><title>A7_2</title>
<polygon fill="wheat" stroke="black" points="389,-1056 69,-1056 69,-1020 389,-1020 389,-1056"/>
<text text-anchor="middle" x="229" y="-1034.3" font-family="Times New Roman,serif" font-size="14.00">A7_2 : mais euh y a deux sessions de d&#39;exams ou euh.</text>
<text text-anchor="start" x="61" y="-1060.8" font-family="Times New Roman,serif" font-weight="bold" font-style="italic" font-size="14.00" fill="red">1</text>
</g>
<!-- A7_1&#45;&gt;A7_2 -->
<g id="edge13" class="edge"><title>A7_1&#45;&gt;A7_2</title>
<path fill="none" stroke="#1f78b4" stroke-width="4.61538" d="M245.701,-1119.15C239.63,-1115.02 234.224,-1110.03 230,-1104 220.283,-1090.14 221.61,-1070.2 224.375,-1056.07"/>
<polygon fill="#1f78b4" stroke="#1f78b4" stroke-width="4.61538" points="244.699,-1120.9 250.003,-1121.87 246.859,-1117.49 244.699,-1120.9"/>
<text text-anchor="middle" x="265" y="-1092.8" font-family="Times New Roman,serif" font-size="14.00">Elaborations</text>
<text text-anchor="middle" x="265" y="-1077.8" font-family="Times New Roman,serif" font-size="14.00">6</text>
</g>
<!-- A7_1&#45;&gt;A7_2 -->
<g id="edge38" class="edge"><title>A7_1&#45;&gt;A7_2</title>
<path fill="none" stroke="#33a02c" stroke-width="1.53846" d="M318.896,-1116.75C315.998,-1103.07 310.467,-1085.94 300,-1074 293.66,-1066.77 285.478,-1060.87 276.937,-1056.12"/>
<polygon fill="#33a02c" stroke="#33a02c" stroke-width="1.53846" points="317.244,-1117.42 319.917,-1121.99 320.679,-1116.75 317.244,-1117.42"/>
<text text-anchor="middle" x="341.5" y="-1092.8" font-family="Times New Roman,serif" font-size="14.00">Question</text>
<text text-anchor="middle" x="341.5" y="-1077.8" font-family="Times New Roman,serif" font-size="14.00">2</text>
</g>
<!-- B8_1 -->
<g id="node10" class="node"><title>B8_1</title>
<polygon fill="skyblue" stroke="black" points="532,-954 112,-954 112,-918 532,-918 532,-954"/>
<text text-anchor="middle" x="322" y="-932.3" font-family="Times New Roman,serif" font-size="14.00">B8_1 : Euhh éduc spé les... en début d&#39;année c&#39;est la passation de l&#39;écrit.</text>
<text text-anchor="start" x="104" y="-958.8" font-family="Times New Roman,serif" font-weight="bold" font-style="italic" font-size="14.00" fill="red">1</text>
</g>
<!-- A7_1&#45;&gt;B8_1 -->
<g id="edge14" class="edge"><title>A7_1&#45;&gt;B8_1</title>
<path fill="none" stroke="#1f78b4" stroke-width="1.53846" d="M354.511,-1118.86C360.391,-1114.39 366.177,-1109.37 371,-1104 387.35,-1085.78 391.798,-1079.68 398,-1056 407.903,-1018.19 398.011,-1001.17 372,-972 366.076,-965.357 358.656,-959.305 351.36,-954.172"/>
<polygon fill="#1f78b4" stroke="#1f78b4" stroke-width="1.53846" points="353.423,-1117.49 350.436,-1121.87 355.5,-1120.31 353.423,-1117.49"/>
<text text-anchor="middle" x="437" y="-1041.8" font-family="Times New Roman,serif" font-size="14.00">Elaborations</text>
<text text-anchor="middle" x="437" y="-1026.8" font-family="Times New Roman,serif" font-size="14.00">2</text>
</g>
<!-- A7_2&#45;&gt;B8_1 -->
<g id="edge3" class="edge"><title>A7_2&#45;&gt;B8_1</title>
<path fill="none" stroke="#a6cee3" stroke-width="1.53846" d="M281.302,-1017.33C288.236,-1013.06 294.75,-1007.99 300,-1002 311.856,-988.47 317.38,-968.287 319.917,-954.006"/>
<polygon fill="#a6cee3" stroke="#a6cee3" stroke-width="1.53846" points="280.371,-1015.84 276.937,-1019.88 282.137,-1018.87 280.371,-1015.84"/>
<text text-anchor="middle" x="342" y="-990.8" font-family="Times New Roman,serif" font-size="14.00">Narration</text>
<text text-anchor="middle" x="342" y="-975.8" font-family="Times New Roman,serif" font-size="14.00">2</text>
</g>
<!-- A7_2&#45;&gt;B8_1 -->
<g id="edge15" class="edge"><title>A7_2&#45;&gt;B8_1</title>
<path fill="none" stroke="#1f78b4" stroke-width="3.84615" d="M221.582,-1014.75C218.522,-1001.23 217.423,-984.256 226,-972 231.187,-964.587 238.118,-958.739 245.891,-954.126"/>
<polygon fill="#1f78b4" stroke="#1f78b4" stroke-width="3.84615" points="219.969,-1015.51 222.886,-1019.94 223.363,-1014.66 219.969,-1015.51"/>
<text text-anchor="middle" x="261" y="-990.8" font-family="Times New Roman,serif" font-size="14.00">Elaborations</text>
<text text-anchor="middle" x="261" y="-975.8" font-family="Times New Roman,serif" font-size="14.00">5</text>
</g>
<!-- B8_2 -->
<g id="node11" class="node"><title>B8_2</title>
<polygon fill="skyblue" stroke="black" points="447.5,-852 196.5,-852 196.5,-816 447.5,-816 447.5,-852"/>
<text text-anchor="middle" x="322" y="-830.3" font-family="Times New Roman,serif" font-size="14.00">B8_2 : On passe l&#39;écrit au mois de janvier.</text>
</g>
<!-- B8_1&#45;&gt;B8_2 -->
<g id="edge16" class="edge"><title>B8_1&#45;&gt;B8_2</title>
<path fill="none" stroke="#1f78b4" stroke-width="7.69231" d="M322,-912.163C322,-893.932 322,-868.784 322,-852.219"/>
<polygon fill="#1f78b4" stroke="#1f78b4" stroke-width="7.69231" points="318.635,-912.581 322,-917.581 325.365,-912.581 318.635,-912.581"/>
<text text-anchor="middle" x="357" y="-888.8" font-family="Times New Roman,serif" font-size="14.00">Elaborations</text>
<text text-anchor="middle" x="357" y="-873.8" font-family="Times New Roman,serif" font-size="14.00">10</text>
</g>
<!-- A9 -->
<g id="node12" class="node"><title>A9</title>
<polygon fill="wheat" stroke="black" points="80,-750 0,-750 0,-714 80,-714 80,-750"/>
<text text-anchor="middle" x="40" y="-728.3" font-family="Times New Roman,serif" font-size="14.00">A9 : Ouais.</text>
</g>
<!-- B8_2&#45;&gt;A9 -->
<g id="edge17" class="edge"><title>B8_2&#45;&gt;A9</title>
<path fill="none" stroke="#1f78b4" stroke-width="1.53846" d="M199.384,-814.729C180.844,-810.263 162.186,-804.76 145,-798 114.474,-785.993 82.9312,-765.12 62.4902,-750.268"/>
<polygon fill="#1f78b4" stroke="#1f78b4" stroke-width="1.53846" points="199.341,-816.517 204.609,-815.961 200.144,-813.11 199.341,-816.517"/>
<text text-anchor="middle" x="180" y="-786.8" font-family="Times New Roman,serif" font-size="14.00">Elaborations</text>
<text text-anchor="middle" x="180" y="-771.8" font-family="Times New Roman,serif" font-size="14.00">2</text>
</g>
<!-- B8_2&#45;&gt;A9 -->
<g id="edge28" class="edge"><title>B8_2&#45;&gt;A9</title>
<path fill="none" stroke="#b2df8a" stroke-width="8.46154" d="M295.704,-812.84C274.935,-797.989 244.611,-778.605 215,-768 161.744,-748.927 143.975,-763.332 89,-750 86.1123,-749.3 83.1548,-748.497 80.1936,-747.631"/>
<polygon fill="#b2df8a" stroke="#b2df8a" stroke-width="8.46154" points="293.767,-816.007 299.987,-815.935 298.103,-810.006 293.767,-816.007"/>
<text text-anchor="middle" x="287" y="-786.8" font-family="Times New Roman,serif" font-size="14.00">Méta</text>
<text text-anchor="middle" x="287" y="-771.8" font-family="Times New Roman,serif" font-size="14.00">11</text>
</g>
<!-- B10 -->
<g id="node13" class="node"><title>B10</title>
<polygon fill="skyblue" stroke="black" points="545.5,-750 98.5,-750 98.5,-714 545.5,-714 545.5,-750"/>
<text text-anchor="middle" x="322" y="-728.3" font-family="Times New Roman,serif" font-size="14.00">B10 : Euh si on est reçu parce que cette année ils étaient vachement en retard.</text>
</g>
<!-- B8_2&#45;&gt;B10 -->
<g id="edge18" class="edge"><title>B8_2&#45;&gt;B10</title>
<path fill="none" stroke="#1f78b4" stroke-width="6.15385" d="M322,-810.163C322,-791.932 322,-766.784 322,-750.219"/>
<polygon fill="#1f78b4" stroke="#1f78b4" stroke-width="6.15385" points="319.308,-810.581 322,-815.581 324.692,-810.581 319.308,-810.581"/>
<text text-anchor="middle" x="357" y="-786.8" font-family="Times New Roman,serif" font-size="14.00">Elaborations</text>
<text text-anchor="middle" x="357" y="-771.8" font-family="Times New Roman,serif" font-size="14.00">8</text>
</g>
<!-- B12 -->
<g id="node15" class="node"><title>B12</title>
<polygon fill="skyblue" stroke="black" points="689.5,-648 420.5,-648 420.5,-612 689.5,-612 689.5,-648"/>
<text text-anchor="middle" x="555" y="-626.3" font-family="Times New Roman,serif" font-size="14.00">B12 : Si on est reçu à l&#39;écrit on passe un oral.</text>
<text text-anchor="start" x="412.5" y="-652.8" font-family="Times New Roman,serif" font-weight="bold" font-style="italic" font-size="14.00" fill="red">2</text>
</g>
<!-- B8_2&#45;&gt;B12 -->
<g id="edge4" class="edge"><title>B8_2&#45;&gt;B12</title>
<path fill="none" stroke="#a6cee3" stroke-width="1.53846" d="M449.658,-814.352C488.808,-802.31 528.294,-782.518 554,-750 577.191,-720.664 568.088,-673.324 560.764,-648.103"/>
<polygon fill="#a6cee3" stroke="#a6cee3" stroke-width="1.53846" points="448.678,-812.819 444.389,-815.928 449.68,-816.172 448.678,-812.819"/>
<text text-anchor="middle" x="594" y="-735.8" font-family="Times New Roman,serif" font-size="14.00">Narration</text>
<text text-anchor="middle" x="594" y="-720.8" font-family="Times New Roman,serif" font-size="14.00">2</text>
</g>
<!-- B8_2&#45;&gt;B12 -->
<g id="edge19" class="edge"><title>B8_2&#45;&gt;B12</title>
<path fill="none" stroke="#1f78b4" stroke-width="2.30769" d="M452.704,-817.28C478.669,-812.411 505.473,-806.112 530,-798 574.537,-783.27 599.508,-790.008 624,-750 645.946,-714.153 605.103,-671.349 577.433,-648.098"/>
<polygon fill="#1f78b4" stroke="#1f78b4" stroke-width="2.30769" points="452.123,-815.608 447.523,-818.235 452.758,-819.05 452.123,-815.608"/>
<text text-anchor="middle" x="666" y="-735.8" font-family="Times New Roman,serif" font-size="14.00">Elaborations</text>
<text text-anchor="middle" x="666" y="-720.8" font-family="Times New Roman,serif" font-size="14.00">3</text>
</g>
<!-- A11 -->
<g id="node14" class="node"><title>A11</title>
<polygon fill="wheat" stroke="black" points="375,-648 269,-648 269,-612 375,-612 375,-648"/>
<text text-anchor="middle" x="322" y="-626.3" font-family="Times New Roman,serif" font-size="14.00">A11 : D&#39;accord.</text>
</g>
<!-- B10&#45;&gt;A11 -->
<g id="edge29" class="edge"><title>B10&#45;&gt;A11</title>
<path fill="none" stroke="#b2df8a" stroke-width="9.23077" d="M322,-708.163C322,-689.932 322,-664.784 322,-648.219"/>
<polygon fill="#b2df8a" stroke="#b2df8a" stroke-width="9.23077" points="317.962,-708.581 322,-713.581 326.039,-708.581 317.962,-708.581"/>
<text text-anchor="middle" x="336" y="-684.8" font-family="Times New Roman,serif" font-size="14.00">Méta</text>
<text text-anchor="middle" x="336" y="-669.8" font-family="Times New Roman,serif" font-size="14.00">12</text>
</g>
<!-- B10&#45;&gt;B12 -->
<g id="edge20" class="edge"><title>B10&#45;&gt;B12</title>
<path fill="none" stroke="#1f78b4" stroke-width="3.07692" d="M380.766,-712.294C395.05,-707.348 410.186,-701.768 424,-696 458.791,-681.472 497.299,-661.927 523.505,-648.074"/>
<polygon fill="#1f78b4" stroke="#1f78b4" stroke-width="3.07692" points="380.118,-710.666 375.958,-713.946 381.255,-713.976 380.118,-710.666"/>
<text text-anchor="middle" x="521" y="-684.8" font-family="Times New Roman,serif" font-size="14.00">Elaborations</text>
<text text-anchor="middle" x="521" y="-669.8" font-family="Times New Roman,serif" font-size="14.00">4</text>
</g>
<!-- B10&#45;&gt;B12 -->
<g id="edge30" class="edge"><title>B10&#45;&gt;B12</title>
<path fill="none" stroke="#b2df8a" stroke-width="1.53846" d="M341.887,-710.262C358.375,-693.511 380.854,-671.802 392,-666 406.377,-658.516 422.264,-652.632 438.312,-648.005"/>
<polygon fill="#b2df8a" stroke="#b2df8a" stroke-width="1.53846" points="340.504,-709.172 338.256,-713.969 343.005,-711.622 340.504,-709.172"/>
<text text-anchor="middle" x="406" y="-684.8" font-family="Times New Roman,serif" font-size="14.00">Méta</text>
<text text-anchor="middle" x="406" y="-669.8" font-family="Times New Roman,serif" font-size="14.00">2</text>
</g>
<!-- A13 -->
<g id="node16" class="node"><title>A13</title>
<polygon fill="wheat" stroke="black" points="384.5,-546 269.5,-546 269.5,-510 384.5,-510 384.5,-546"/>
<text text-anchor="middle" x="327" y="-524.3" font-family="Times New Roman,serif" font-size="14.00">A13 : Mmh mmh.</text>
</g>
<!-- B12&#45;&gt;A13 -->
<g id="edge31" class="edge"><title>B12&#45;&gt;A13</title>
<path fill="none" stroke="#b2df8a" stroke-width="9.23077" d="M511.293,-609.83C469.198,-591.367 406.129,-563.706 365.775,-546.007"/>
<polygon fill="#b2df8a" stroke="#b2df8a" stroke-width="9.23077" points="509.863,-613.613 516.064,-611.923 513.108,-606.216 509.863,-613.613"/>
<text text-anchor="middle" x="489" y="-582.8" font-family="Times New Roman,serif" font-size="14.00">Méta</text>
<text text-anchor="middle" x="489" y="-567.8" font-family="Times New Roman,serif" font-size="14.00">12</text>
</g>
<!-- B14 -->
<g id="node17" class="node"><title>B14</title>
<polygon fill="skyblue" stroke="black" points="709,-546 403,-546 403,-510 709,-510 709,-546"/>
<text text-anchor="middle" x="556" y="-524.3" font-family="Times New Roman,serif" font-size="14.00">B14 : Et si on est reçu à l&#39;oral on rentre dans l&#39;école.</text>
<text text-anchor="start" x="395" y="-550.8" font-family="Times New Roman,serif" font-weight="bold" font-style="italic" font-size="14.00" fill="red">1</text>
</g>
<!-- B12&#45;&gt;B14 -->
<g id="edge5" class="edge"><title>B12&#45;&gt;B14</title>
<path fill="none" stroke="#a6cee3" stroke-width="2.30769" d="M528.344,-608.203C524.539,-603.942 521.182,-599.164 519,-594 513.811,-581.718 513.727,-576.246 519,-564 521.867,-557.34 526.694,-551.356 531.931,-546.298"/>
<polygon fill="#a6cee3" stroke="#a6cee3" stroke-width="2.30769" points="527.223,-609.562 531.943,-611.966 529.752,-607.143 527.223,-609.562"/>
<text text-anchor="middle" x="545" y="-582.8" font-family="Times New Roman,serif" font-size="14.00">Narration</text>
<text text-anchor="middle" x="545" y="-567.8" font-family="Times New Roman,serif" font-size="14.00">3</text>
</g>
<!-- B12&#45;&gt;B14 -->
<g id="edge21" class="edge"><title>B12&#45;&gt;B14</title>
<path fill="none" stroke="#1f78b4" stroke-width="5.38462" d="M566.798,-606.923C568.538,-602.739 570.06,-598.317 571,-594 573.837,-580.972 573.681,-577.061 571,-564 569.777,-558.042 567.496,-551.846 565.075,-546.353"/>
<polygon fill="#1f78b4" stroke="#1f78b4" stroke-width="5.38462" points="564.55,-606.181 564.676,-611.706 568.857,-608.091 564.55,-606.181"/>
<text text-anchor="middle" x="609" y="-582.8" font-family="Times New Roman,serif" font-size="14.00">Elaborations</text>
<text text-anchor="middle" x="609" y="-567.8" font-family="Times New Roman,serif" font-size="14.00">7</text>
</g>
<!-- A17_2 -->
<g id="node22" class="node"><title>A17_2</title>
<polygon fill="wheat" stroke="black" points="718.5,-138 515.5,-138 515.5,-102 718.5,-102 718.5,-138"/>
<text text-anchor="middle" x="617" y="-116.3" font-family="Times New Roman,serif" font-size="14.00">A17_2 : Vous étiez beaucoup à...</text>
</g>
<!-- B12&#45;&gt;A17_2 -->
<g id="edge39" class="edge"><title>B12&#45;&gt;A17_2</title>
<path fill="none" stroke="#33a02c" stroke-width="1.53846" d="M656.181,-610.395C698.046,-596.293 737,-571.699 737,-529 737,-529 737,-529 737,-221 737,-181 697.163,-153.896 663.395,-138.107"/>
<polygon fill="#33a02c" stroke="#33a02c" stroke-width="1.53846" points="655.539,-608.764 651.329,-611.979 656.626,-612.091 655.539,-608.764"/>
<text text-anchor="middle" x="762.5" y="-378.8" font-family="Times New Roman,serif" font-size="14.00">Question</text>
<text text-anchor="middle" x="762.5" y="-363.8" font-family="Times New Roman,serif" font-size="14.00">2</text>
</g>
<!-- A15_1 -->
<g id="node18" class="node"><title>A15_1</title>
<polygon fill="wheat" stroke="black" points="697,-444 577,-444 577,-408 697,-408 697,-444"/>
<text text-anchor="middle" x="637" y="-422.3" font-family="Times New Roman,serif" font-size="14.00">A15_1 : D&#39;accord.</text>
<text text-anchor="start" x="569" y="-448.8" font-family="Times New Roman,serif" font-weight="bold" font-style="italic" font-size="14.00" fill="red">2</text>
</g>
<!-- B14&#45;&gt;A15_1 -->
<g id="edge32" class="edge"><title>B14&#45;&gt;A15_1</title>
<path fill="none" stroke="#b2df8a" stroke-width="10" d="M573.364,-505.563C588.207,-487.239 609.288,-461.213 623.053,-444.219"/>
<polygon fill="#b2df8a" stroke="#b2df8a" stroke-width="10" points="569.857,-502.942 570.109,-509.581 576.656,-508.45 569.857,-502.942"/>
<text text-anchor="middle" x="623" y="-480.8" font-family="Times New Roman,serif" font-size="14.00">Méta</text>
<text text-anchor="middle" x="623" y="-465.8" font-family="Times New Roman,serif" font-size="14.00">13</text>
</g>
<!-- A15_2 -->
<g id="node19" class="node"><title>A15_2</title>
<polygon fill="wheat" stroke="black" points="559,-444 341,-444 341,-408 559,-408 559,-444"/>
<text text-anchor="middle" x="450" y="-422.3" font-family="Times New Roman,serif" font-size="14.00">A15_2 : Et y a beaucoup de places?</text>
<text text-anchor="start" x="333" y="-448.8" font-family="Times New Roman,serif" font-weight="bold" font-style="italic" font-size="14.00" fill="red">2</text>
</g>
<!-- B14&#45;&gt;A15_2 -->
<g id="edge40" class="edge"><title>B14&#45;&gt;A15_2</title>
<path fill="none" stroke="#33a02c" stroke-width="7.69231" d="M533.765,-506.023C514.317,-487.677 486.417,-461.355 468.252,-444.219"/>
<polygon fill="#33a02c" stroke="#33a02c" stroke-width="7.69231" points="531.59,-508.598 537.536,-509.581 536.209,-503.702 531.59,-508.598"/>
<text text-anchor="middle" x="544.5" y="-480.8" font-family="Times New Roman,serif" font-size="14.00">Question</text>
<text text-anchor="middle" x="544.5" y="-465.8" font-family="Times New Roman,serif" font-size="14.00">10</text>
</g>
<!-- B16 -->
<g id="node20" class="node"><title>B16</title>
<polygon fill="skyblue" stroke="black" points="549.5,-342 482.5,-342 482.5,-306 549.5,-306 549.5,-342"/>
<text text-anchor="middle" x="516" y="-320.3" font-family="Times New Roman,serif" font-size="14.00">B16 : 90.</text>
</g>
<!-- A15_2&#45;&gt;B16 -->
<g id="edge22" class="edge"><title>A15_2&#45;&gt;B16</title>
<path fill="none" stroke="#1f78b4" stroke-width="7.69231" d="M482.293,-404.624C487.412,-400.289 492.247,-395.377 496,-390 506.07,-375.575 511.193,-355.922 513.716,-342.014"/>
<polygon fill="#1f78b4" stroke="#1f78b4" stroke-width="7.69231" points="480.108,-402.063 478.337,-407.824 484.341,-407.296 480.108,-402.063"/>
<text text-anchor="middle" x="545" y="-378.8" font-family="Times New Roman,serif" font-size="14.00">Elaborations</text>
<text text-anchor="middle" x="545" y="-363.8" font-family="Times New Roman,serif" font-size="14.00">10</text>
</g>
<!-- A15_2&#45;&gt;B16 -->
<g id="edge41" class="edge"><title>A15_2&#45;&gt;B16</title>
<path fill="none" stroke="#33a02c" stroke-width="2.30769" d="M440.096,-403.164C435.596,-389.749 432.879,-372.752 441,-360 450.185,-345.578 467.037,-337.001 482.443,-331.951"/>
<polygon fill="#33a02c" stroke="#33a02c" stroke-width="2.30769" points="438.473,-403.822 441.819,-407.93 441.765,-402.633 438.473,-403.822"/>
<text text-anchor="middle" x="466.5" y="-378.8" font-family="Times New Roman,serif" font-size="14.00">Question</text>
<text text-anchor="middle" x="466.5" y="-363.8" font-family="Times New Roman,serif" font-size="14.00">3</text>
</g>
<!-- A17_1 -->
<g id="node21" class="node"><title>A17_1</title>
<polygon fill="wheat" stroke="black" points="622,-240 502,-240 502,-204 622,-204 622,-240"/>
<text text-anchor="middle" x="562" y="-218.3" font-family="Times New Roman,serif" font-size="14.00">A17_1 : D&#39;accord.</text>
</g>
<!-- B16&#45;&gt;A17_1 -->
<g id="edge23" class="edge"><title>B16&#45;&gt;A17_1</title>
<path fill="none" stroke="#1f78b4" stroke-width="2.30769" d="M533.575,-301.716C536.664,-297.35 539.641,-292.66 542,-288 549.787,-272.621 555.197,-253.642 558.409,-240.171"/>
<polygon fill="#1f78b4" stroke="#1f78b4" stroke-width="2.30769" points="532.009,-300.893 530.467,-305.961 534.833,-302.961 532.009,-300.893"/>
<text text-anchor="middle" x="589" y="-276.8" font-family="Times New Roman,serif" font-size="14.00">Elaborations</text>
<text text-anchor="middle" x="589" y="-261.8" font-family="Times New Roman,serif" font-size="14.00">3</text>
</g>
<!-- B16&#45;&gt;A17_1 -->
<g id="edge33" class="edge"><title>B16&#45;&gt;A17_1</title>
<path fill="none" stroke="#b2df8a" stroke-width="7.69231" d="M508.089,-300.912C504.749,-287.73 503.042,-271.07 510,-258 513.784,-250.892 519.725,-244.968 526.261,-240.139"/>
<polygon fill="#b2df8a" stroke="#b2df8a" stroke-width="7.69231" points="504.91,-302.041 509.489,-305.96 511.396,-300.243 504.91,-302.041"/>
<text text-anchor="middle" x="524" y="-276.8" font-family="Times New Roman,serif" font-size="14.00">Méta</text>
<text text-anchor="middle" x="524" y="-261.8" font-family="Times New Roman,serif" font-size="14.00">10</text>
</g>
<!-- B16&#45;&gt;A17_2 -->
<g id="edge34" class="edge"><title>B16&#45;&gt;A17_2</title>
<path fill="none" stroke="#b2df8a" stroke-width="1.53846" d="M495.238,-302C473.721,-277.582 445.73,-236.478 465,-204 484.408,-171.29 521.75,-150.64 554.563,-138.118"/>
<polygon fill="#b2df8a" stroke="#b2df8a" stroke-width="1.53846" points="493.984,-303.223 498.628,-305.772 496.587,-300.883 493.984,-303.223"/>
<text text-anchor="middle" x="479" y="-225.8" font-family="Times New Roman,serif" font-size="14.00">Méta</text>
<text text-anchor="middle" x="479" y="-210.8" font-family="Times New Roman,serif" font-size="14.00">2</text>
</g>
<!-- B16&#45;&gt;A17_2 -->
<g id="edge42" class="edge"><title>B16&#45;&gt;A17_2</title>
<path fill="none" stroke="#33a02c" stroke-width="2.30769" d="M554.663,-320.99C579.289,-317.584 609.863,-309.026 628,-288 666.599,-243.251 663.068,-211.935 644,-156 641.821,-149.608 637.95,-143.475 633.807,-138.177"/>
<polygon fill="#33a02c" stroke="#33a02c" stroke-width="2.30769" points="554.246,-319.279 549.505,-321.642 554.685,-322.752 554.246,-319.279"/>
<text text-anchor="middle" x="683.5" y="-225.8" font-family="Times New Roman,serif" font-size="14.00">Question</text>
<text text-anchor="middle" x="683.5" y="-210.8" font-family="Times New Roman,serif" font-size="14.00">3</text>
</g>
<!-- A17_1&#45;&gt;A17_2 -->
<g id="edge43" class="edge"><title>A17_1&#45;&gt;A17_2</title>
<path fill="none" stroke="#33a02c" stroke-width="1.53846" d="M571.504,-198.9C577.255,-186.115 585.006,-169.864 593,-156 596.46,-150 600.614,-143.688 604.487,-138.101"/>
<polygon fill="#33a02c" stroke="#33a02c" stroke-width="1.53846" points="569.759,-198.515 569.323,-203.794 572.956,-199.939 569.759,-198.515"/>
<text text-anchor="middle" x="618.5" y="-174.8" font-family="Times New Roman,serif" font-size="14.00">Question</text>
<text text-anchor="middle" x="618.5" y="-159.8" font-family="Times New Roman,serif" font-size="14.00">2</text>
</g>
<!-- B18 -->
<g id="node23" class="node"><title>B18</title>
<polygon fill="skyblue" stroke="black" points="750,-36 484,-36 484,-0 750,-0 750,-36"/>
<text text-anchor="middle" x="617" y="-14.3" font-family="Times New Roman,serif" font-size="14.00">B18 : Ben cette année on était pas beaucoup.</text>
</g>
<!-- A17_2&#45;&gt;B18 -->
<g id="edge24" class="edge"><title>A17_2&#45;&gt;B18</title>
<path fill="none" stroke="#1f78b4" stroke-width="9.23077" d="M617,-96.1628C617,-77.9321 617,-52.7841 617,-36.2191"/>
<polygon fill="#1f78b4" stroke="#1f78b4" stroke-width="9.23077" points="612.962,-96.5813 617,-101.581 621.039,-96.5814 612.962,-96.5813"/>
<text text-anchor="middle" x="652" y="-72.8" font-family="Times New Roman,serif" font-size="14.00">Elaborations</text>
<text text-anchor="middle" x="652" y="-57.8" font-family="Times New Roman,serif" font-size="14.00">12</text>
</g>
</g>
</svg>
