<?xml version="1.0" encoding="UTF-8" standalone="no"?>
<!DOCTYPE svg PUBLIC "-//W3C//DTD SVG 1.1//EN"
 "http://www.w3.org/Graphics/SVG/1.1/DTD/svg11.dtd">
<!-- Generated by graphviz version 2.38.0 (20140413.2041)
 -->
<!-- Title: Concours Pages: 1 -->
<svg width="694pt" height="1757pt"
 viewBox="0.00 0.00 693.50 1757.00" xmlns="http://www.w3.org/2000/svg" xmlns:xlink="http://www.w3.org/1999/xlink">
<g id="graph0" class="graph" transform="scale(1 1) rotate(0) translate(4 1753)">
<title>Concours</title>
<polygon fill="white" stroke="none" points="-4,4 -4,-1753 689.5,-1753 689.5,4 -4,4"/>
<text text-anchor="start" x="17" y="-1730" font-family="Times New Roman,serif" font-size="20.00">Concours</text>
<text text-anchor="start" x="8" y="-1713.2" font-family="Times New Roman,serif" font-size="16.00">13 annotations </text>
<text text-anchor="start" x="17" y="-1697.2" font-family="Times New Roman,serif" font-size="16.00"> seuil = 0.15</text>
<!-- début -->
<g id="node1" class="node"><title>début</title>
<polygon fill="lightgrey" stroke="black" points="399.5,-1689 307.5,-1689 307.5,-1653 399.5,-1653 399.5,-1689"/>
<text text-anchor="middle" x="353.5" y="-1667.3" font-family="Times New Roman,serif" font-size="14.00">début : Début</text>
</g>
<!-- A1 -->
<g id="node2" class="node"><title>A1</title>
<polygon fill="wheat" stroke="black" points="517.5,-1602 189.5,-1602 189.5,-1566 517.5,-1566 517.5,-1602"/>
<text text-anchor="middle" x="353.5" y="-1580.3" font-family="Times New Roman,serif" font-size="14.00">A1 : Et euh donc là vous avez passé le concours c&#39;est...</text>
<text text-anchor="start" x="173.5" y="-1606.8" font-family="Times New Roman,serif" font-weight="bold" font-style="italic" font-size="14.00" fill="red">11</text>
</g>
<!-- début&#45;&gt;A1 -->
<g id="edge1" class="edge"><title>début&#45;&gt;A1</title>
<path fill="none" stroke="#1f78b4" stroke-width="10" d="M353.5,-1647.75C353.5,-1633.5 353.5,-1615.3 353.5,-1602.18"/>
<polygon fill="#1f78b4" stroke="#1f78b4" stroke-width="10" points="349.125,-1647.8 353.5,-1652.8 357.875,-1647.8 349.125,-1647.8"/>
<text text-anchor="middle" x="360.5" y="-1623.8" font-family="Times New Roman,serif" font-size="14.00">13</text>
</g>
<!-- B2 -->
<g id="node3" class="node"><title>B2</title>
<polygon fill="skyblue" stroke="black" points="351,-1515 154,-1515 154,-1479 351,-1479 351,-1515"/>
<text text-anchor="middle" x="252.5" y="-1493.3" font-family="Times New Roman,serif" font-size="14.00">B2 : Ouais j&#39;attends les résultats.</text>
<text text-anchor="start" x="146" y="-1519.8" font-family="Times New Roman,serif" font-weight="bold" font-style="italic" font-size="14.00" fill="red">4</text>
</g>
<!-- A1&#45;&gt;B2 -->
<g id="edge2" class="edge"><title>A1&#45;&gt;B2</title>
<path fill="none" stroke="#1f78b4" stroke-width="10" d="M328.822,-1562.23C311.66,-1547.79 289.054,-1528.76 272.908,-1515.18"/>
<polygon fill="#1f78b4" stroke="#1f78b4" stroke-width="10" points="326.418,-1565.93 333.061,-1565.8 332.053,-1559.23 326.418,-1565.93"/>
<text text-anchor="middle" x="316.5" y="-1536.8" font-family="Times New Roman,serif" font-size="14.00">13</text>
</g>
<!-- A3 -->
<g id="node4" class="node"><title>A3</title>
<polygon fill="wheat" stroke="black" points="475,-1428 288,-1428 288,-1392 475,-1392 475,-1428"/>
<text text-anchor="middle" x="381.5" y="-1406.3" font-family="Times New Roman,serif" font-size="14.00">A3 : C’est quand les résultats?</text>
<text text-anchor="start" x="280" y="-1432.8" font-family="Times New Roman,serif" font-weight="bold" font-style="italic" font-size="14.00" fill="red">3</text>
</g>
<!-- A1&#45;&gt;A3 -->
<g id="edge3" class="edge"><title>A1&#45;&gt;A3</title>
<path fill="none" stroke="#1f78b4" stroke-width="2.30769" d="M357.152,-1560.57C362.827,-1525.7 373.638,-1459.29 378.724,-1428.05"/>
<polygon fill="#1f78b4" stroke="#1f78b4" stroke-width="2.30769" points="355.363,-1560.66 356.287,-1565.88 358.818,-1561.23 355.363,-1560.66"/>
<text text-anchor="middle" x="374" y="-1493.3" font-family="Times New Roman,serif" font-size="14.00">3</text>
</g>
<!-- B2&#45;&gt;A3 -->
<g id="edge4" class="edge"><title>B2&#45;&gt;A3</title>
<path fill="none" stroke="#1f78b4" stroke-width="7.69231" d="M282.91,-1475.96C304.958,-1461.43 334.462,-1441.99 355.434,-1428.18"/>
<polygon fill="#1f78b4" stroke="#1f78b4" stroke-width="7.69231" points="280.929,-1473.24 278.605,-1478.8 284.632,-1478.86 280.929,-1473.24"/>
<text text-anchor="middle" x="332.5" y="-1449.8" font-family="Times New Roman,serif" font-size="14.00">10</text>
</g>
<!-- A7_1 -->
<g id="node8" class="node"><title>A7_1</title>
<polygon fill="wheat" stroke="black" points="497,-1080 8,-1080 8,-1044 497,-1044 497,-1080"/>
<text text-anchor="middle" x="252.5" y="-1058.3" font-family="Times New Roman,serif" font-size="14.00">A7_1 : Parce que je sais qu’en début d&#39;année y en a qui attendent encore les résultats</text>
<text text-anchor="start" x="0" y="-1084.8" font-family="Times New Roman,serif" font-weight="bold" font-style="italic" font-size="14.00" fill="red">4</text>
</g>
<!-- B2&#45;&gt;A7_1 -->
<g id="edge5" class="edge"><title>B2&#45;&gt;A7_1</title>
<path fill="none" stroke="#1f78b4" stroke-width="1.53846" d="M252.5,-1473.66C252.5,-1456.52 252.5,-1432.26 252.5,-1411 252.5,-1411 252.5,-1411 252.5,-1148 252.5,-1124.54 252.5,-1097.43 252.5,-1080.26"/>
<polygon fill="#1f78b4" stroke="#1f78b4" stroke-width="1.53846" points="250.75,-1473.74 252.5,-1478.74 254.25,-1473.74 250.75,-1473.74"/>
<text text-anchor="middle" x="256" y="-1275.8" font-family="Times New Roman,serif" font-size="14.00">2</text>
</g>
<!-- B4 -->
<g id="node5" class="node"><title>B4</title>
<polygon fill="skyblue" stroke="black" points="404.5,-1341 336.5,-1341 336.5,-1305 404.5,-1305 404.5,-1341"/>
<text text-anchor="middle" x="370.5" y="-1319.3" font-family="Times New Roman,serif" font-size="14.00">B4 : Juin.</text>
</g>
<!-- A3&#45;&gt;B4 -->
<g id="edge6" class="edge"><title>A3&#45;&gt;B4</title>
<path fill="none" stroke="#1f78b4" stroke-width="10" d="M378.62,-1386.75C376.777,-1372.5 374.422,-1354.3 372.723,-1341.18"/>
<polygon fill="#1f78b4" stroke="#1f78b4" stroke-width="10" points="374.293,-1387.4 379.274,-1391.8 382.971,-1386.28 374.293,-1387.4"/>
<text text-anchor="middle" x="384.5" y="-1362.8" font-family="Times New Roman,serif" font-size="14.00">13</text>
</g>
<!-- A3&#45;&gt;A7_1 -->
<g id="edge7" class="edge"><title>A3&#45;&gt;A7_1</title>
<path fill="none" stroke="#1f78b4" stroke-width="2.30769" d="M480.149,-1396.65C520.769,-1385.5 558.5,-1364.29 558.5,-1324 558.5,-1324 558.5,-1324 558.5,-1148 558.5,-1113.68 486.126,-1092.64 411.774,-1080.07"/>
<polygon fill="#1f78b4" stroke="#1f78b4" stroke-width="2.30769" points="479.57,-1394.99 475.183,-1397.96 480.464,-1398.38 479.57,-1394.99"/>
<text text-anchor="middle" x="562" y="-1232.3" font-family="Times New Roman,serif" font-size="14.00">3</text>
</g>
<!-- A5 -->
<g id="node6" class="node"><title>A5</title>
<polygon fill="wheat" stroke="black" points="399,-1254 328,-1254 328,-1218 399,-1218 399,-1254"/>
<text text-anchor="middle" x="363.5" y="-1232.3" font-family="Times New Roman,serif" font-size="14.00">A5 : Juin?</text>
<text text-anchor="start" x="320" y="-1258.8" font-family="Times New Roman,serif" font-weight="bold" font-style="italic" font-size="14.00" fill="red">1</text>
</g>
<!-- B4&#45;&gt;A5 -->
<g id="edge8" class="edge"><title>B4&#45;&gt;A5</title>
<path fill="none" stroke="#1f78b4" stroke-width="10" d="M368.667,-1299.75C367.495,-1285.5 365.996,-1267.3 364.914,-1254.18"/>
<polygon fill="#1f78b4" stroke="#1f78b4" stroke-width="10" points="364.313,-1300.18 369.083,-1304.8 373.033,-1299.46 364.313,-1300.18"/>
<text text-anchor="middle" x="374.5" y="-1275.8" font-family="Times New Roman,serif" font-size="14.00">13</text>
</g>
<!-- B6 -->
<g id="node7" class="node"><title>B6</title>
<polygon fill="skyblue" stroke="black" points="401.5,-1167 325.5,-1167 325.5,-1131 401.5,-1131 401.5,-1167"/>
<text text-anchor="middle" x="363.5" y="-1145.3" font-family="Times New Roman,serif" font-size="14.00">B6 : Mmh.</text>
</g>
<!-- A5&#45;&gt;B6 -->
<g id="edge9" class="edge"><title>A5&#45;&gt;B6</title>
<path fill="none" stroke="#1f78b4" stroke-width="10" d="M363.5,-1212.75C363.5,-1198.5 363.5,-1180.3 363.5,-1167.18"/>
<polygon fill="#1f78b4" stroke="#1f78b4" stroke-width="10" points="359.125,-1212.8 363.5,-1217.8 367.875,-1212.8 359.125,-1212.8"/>
<text text-anchor="middle" x="370.5" y="-1188.8" font-family="Times New Roman,serif" font-size="14.00">13</text>
</g>
<!-- A5&#45;&gt;A7_1 -->
<g id="edge10" class="edge"><title>A5&#45;&gt;A7_1</title>
<path fill="none" stroke="#1f78b4" stroke-width="3.07692" d="M345.138,-1213.81C334.204,-1200.74 320.384,-1183.39 309.5,-1167 290.021,-1137.67 271.133,-1101.12 260.737,-1080.08"/>
<polygon fill="#1f78b4" stroke="#1f78b4" stroke-width="3.07692" points="343.874,-1215.03 348.433,-1217.73 346.552,-1212.77 343.874,-1215.03"/>
<text text-anchor="middle" x="313" y="-1145.3" font-family="Times New Roman,serif" font-size="14.00">4</text>
</g>
<!-- B6&#45;&gt;A7_1 -->
<g id="edge11" class="edge"><title>B6&#45;&gt;A7_1</title>
<path fill="none" stroke="#1f78b4" stroke-width="2.30769" d="M344.615,-1126.7C335.696,-1117.3 324.59,-1106.49 313.5,-1098 304.967,-1091.47 295.092,-1085.29 285.807,-1080"/>
<polygon fill="#1f78b4" stroke="#1f78b4" stroke-width="2.30769" points="343.602,-1128.18 348.297,-1130.63 346.156,-1125.79 343.602,-1128.18"/>
<text text-anchor="middle" x="334" y="-1101.8" font-family="Times New Roman,serif" font-size="14.00">3</text>
</g>
<!-- A7_2 -->
<g id="node9" class="node"><title>A7_2</title>
<polygon fill="wheat" stroke="black" points="597.5,-993 277.5,-993 277.5,-957 597.5,-957 597.5,-993"/>
<text text-anchor="middle" x="437.5" y="-971.3" font-family="Times New Roman,serif" font-size="14.00">A7_2 : mais euh y a deux sessions de d&#39;exams ou euh.</text>
<text text-anchor="start" x="269.5" y="-997.8" font-family="Times New Roman,serif" font-weight="bold" font-style="italic" font-size="14.00" fill="red">1</text>
</g>
<!-- B6&#45;&gt;A7_2 -->
<g id="edge12" class="edge"><title>B6&#45;&gt;A7_2</title>
<path fill="none" stroke="#1f78b4" stroke-width="1.53846" d="M407.073,-1140.03C440.366,-1131.4 484.067,-1114.03 505.5,-1080 524.93,-1049.15 489.072,-1013.71 462.455,-993.182"/>
<polygon fill="#1f78b4" stroke="#1f78b4" stroke-width="1.53846" points="406.252,-1138.43 401.824,-1141.34 407.099,-1141.83 406.252,-1138.43"/>
<text text-anchor="middle" x="515" y="-1058.3" font-family="Times New Roman,serif" font-size="14.00">2</text>
</g>
<!-- A7_1&#45;&gt;A7_2 -->
<g id="edge13" class="edge"><title>A7_1&#45;&gt;A7_2</title>
<path fill="none" stroke="#1f78b4" stroke-width="6.15385" d="M294.555,-1041.68C326.44,-1027.03 369.845,-1007.08 400.434,-993.03"/>
<polygon fill="#1f78b4" stroke="#1f78b4" stroke-width="6.15385" points="293.357,-1039.26 289.938,-1043.8 295.605,-1044.16 293.357,-1039.26"/>
<text text-anchor="middle" x="360" y="-1014.8" font-family="Times New Roman,serif" font-size="14.00">8</text>
</g>
<!-- B8_1 -->
<g id="node10" class="node"><title>B8_1</title>
<polygon fill="skyblue" stroke="black" points="516.5,-906 96.5,-906 96.5,-870 516.5,-870 516.5,-906"/>
<text text-anchor="middle" x="306.5" y="-884.3" font-family="Times New Roman,serif" font-size="14.00">B8_1 : Euhh éduc spé les... en début d&#39;année c&#39;est la passation de l&#39;écrit.</text>
<text text-anchor="start" x="88.5" y="-910.8" font-family="Times New Roman,serif" font-weight="bold" font-style="italic" font-size="14.00" fill="red">1</text>
</g>
<!-- A7_1&#45;&gt;B8_1 -->
<g id="edge14" class="edge"><title>A7_1&#45;&gt;B8_1</title>
<path fill="none" stroke="#1f78b4" stroke-width="2.30769" d="M251.3,-1038.69C250.86,-1017.17 252.095,-983.977 261.5,-957 268.118,-938.018 281.239,-919.172 291.614,-906.152"/>
<polygon fill="#1f78b4" stroke="#1f78b4" stroke-width="2.30769" points="249.556,-1038.95 251.444,-1043.9 253.055,-1038.85 249.556,-1038.95"/>
<text text-anchor="middle" x="265" y="-971.3" font-family="Times New Roman,serif" font-size="14.00">3</text>
</g>
<!-- A7_2&#45;&gt;B8_1 -->
<g id="edge15" class="edge"><title>A7_2&#45;&gt;B8_1</title>
<path fill="none" stroke="#1f78b4" stroke-width="6.15385" d="M406.618,-953.962C384.229,-939.435 354.267,-919.994 332.97,-906.175"/>
<polygon fill="#1f78b4" stroke="#1f78b4" stroke-width="6.15385" points="405.33,-956.336 410.99,-956.799 408.261,-951.819 405.33,-956.336"/>
<text text-anchor="middle" x="384" y="-927.8" font-family="Times New Roman,serif" font-size="14.00">8</text>
</g>
<!-- B8_2 -->
<g id="node11" class="node"><title>B8_2</title>
<polygon fill="skyblue" stroke="black" points="432,-819 181,-819 181,-783 432,-783 432,-819"/>
<text text-anchor="middle" x="306.5" y="-797.3" font-family="Times New Roman,serif" font-size="14.00">B8_2 : On passe l&#39;écrit au mois de janvier.</text>
</g>
<!-- B8_1&#45;&gt;B8_2 -->
<g id="edge16" class="edge"><title>B8_1&#45;&gt;B8_2</title>
<path fill="none" stroke="#1f78b4" stroke-width="8.46154" d="M306.5,-864.748C306.5,-850.505 306.5,-832.303 306.5,-819.175"/>
<polygon fill="#1f78b4" stroke="#1f78b4" stroke-width="8.46154" points="302.798,-864.799 306.5,-869.799 310.202,-864.799 302.798,-864.799"/>
<text text-anchor="middle" x="313.5" y="-840.8" font-family="Times New Roman,serif" font-size="14.00">11</text>
</g>
<!-- A9 -->
<g id="node12" class="node"><title>A9</title>
<polygon fill="wheat" stroke="black" points="270.5,-732 190.5,-732 190.5,-696 270.5,-696 270.5,-732"/>
<text text-anchor="middle" x="230.5" y="-710.3" font-family="Times New Roman,serif" font-size="14.00">A9 : Ouais.</text>
</g>
<!-- B8_2&#45;&gt;A9 -->
<g id="edge17" class="edge"><title>B8_2&#45;&gt;A9</title>
<path fill="none" stroke="#1f78b4" stroke-width="10" d="M287.602,-778.864C274.729,-764.466 257.903,-745.648 245.857,-732.175"/>
<polygon fill="#1f78b4" stroke="#1f78b4" stroke-width="10" points="284.526,-781.988 291.12,-782.799 291.049,-776.155 284.526,-781.988"/>
<text text-anchor="middle" x="280.5" y="-753.8" font-family="Times New Roman,serif" font-size="14.00">13</text>
</g>
<!-- B10 -->
<g id="node13" class="node"><title>B10</title>
<polygon fill="skyblue" stroke="black" points="454,-645 7,-645 7,-609 454,-609 454,-645"/>
<text text-anchor="middle" x="230.5" y="-623.3" font-family="Times New Roman,serif" font-size="14.00">B10 : Euh si on est reçu parce que cette année ils étaient vachement en retard.</text>
</g>
<!-- B8_2&#45;&gt;B10 -->
<g id="edge18" class="edge"><title>B8_2&#45;&gt;B10</title>
<path fill="none" stroke="#1f78b4" stroke-width="6.92308" d="M303.191,-777.801C299.409,-756.17 292.057,-722.728 279.5,-696 270.652,-677.167 256.399,-658.156 245.541,-645.042"/>
<polygon fill="#1f78b4" stroke="#1f78b4" stroke-width="6.92308" points="300.211,-778.343 304.033,-782.766 306.183,-777.33 300.211,-778.343"/>
<text text-anchor="middle" x="297" y="-710.3" font-family="Times New Roman,serif" font-size="14.00">9</text>
</g>
<!-- B12 -->
<g id="node15" class="node"><title>B12</title>
<polygon fill="skyblue" stroke="black" points="594,-558 325,-558 325,-522 594,-522 594,-558"/>
<text text-anchor="middle" x="459.5" y="-536.3" font-family="Times New Roman,serif" font-size="14.00">B12 : Si on est reçu à l&#39;écrit on passe un oral.</text>
<text text-anchor="start" x="317" y="-562.8" font-family="Times New Roman,serif" font-weight="bold" font-style="italic" font-size="14.00" fill="red">2</text>
</g>
<!-- B8_2&#45;&gt;B12 -->
<g id="edge19" class="edge"><title>B8_2&#45;&gt;B12</title>
<path fill="none" stroke="#1f78b4" stroke-width="3.84615" d="M338.667,-779.822C376.55,-753.937 437.483,-705.123 462.5,-645 474.366,-616.482 469.041,-579.66 464.197,-558.351"/>
<polygon fill="#1f78b4" stroke="#1f78b4" stroke-width="3.84615" points="337.328,-778.615 334.166,-782.864 339.288,-781.515 337.328,-778.615"/>
<text text-anchor="middle" x="458" y="-666.8" font-family="Times New Roman,serif" font-size="14.00">5</text>
</g>
<!-- A9&#45;&gt;B10 -->
<g id="edge20" class="edge"><title>A9&#45;&gt;B10</title>
<path fill="none" stroke="#1f78b4" stroke-width="1.53846" d="M230.5,-690.748C230.5,-676.505 230.5,-658.303 230.5,-645.175"/>
<polygon fill="#1f78b4" stroke="#1f78b4" stroke-width="1.53846" points="228.75,-690.799 230.5,-695.799 232.25,-690.799 228.75,-690.799"/>
<text text-anchor="middle" x="234" y="-666.8" font-family="Times New Roman,serif" font-size="14.00">2</text>
</g>
<!-- A11 -->
<g id="node14" class="node"><title>A11</title>
<polygon fill="wheat" stroke="black" points="283.5,-558 177.5,-558 177.5,-522 283.5,-522 283.5,-558"/>
<text text-anchor="middle" x="230.5" y="-536.3" font-family="Times New Roman,serif" font-size="14.00">A11 : D&#39;accord.</text>
</g>
<!-- B10&#45;&gt;A11 -->
<g id="edge21" class="edge"><title>B10&#45;&gt;A11</title>
<path fill="none" stroke="#1f78b4" stroke-width="10" d="M230.5,-603.748C230.5,-589.505 230.5,-571.303 230.5,-558.175"/>
<polygon fill="#1f78b4" stroke="#1f78b4" stroke-width="10" points="226.125,-603.799 230.5,-608.799 234.875,-603.799 226.125,-603.799"/>
<text text-anchor="middle" x="237.5" y="-579.8" font-family="Times New Roman,serif" font-size="14.00">13</text>
</g>
<!-- B10&#45;&gt;B12 -->
<g id="edge22" class="edge"><title>B10&#45;&gt;B12</title>
<path fill="none" stroke="#1f78b4" stroke-width="4.61538" d="M281.312,-607.14C320.851,-592.464 375.249,-572.272 413.508,-558.071"/>
<polygon fill="#1f78b4" stroke="#1f78b4" stroke-width="4.61538" points="280.551,-605.268 276.566,-608.901 281.956,-609.054 280.551,-605.268"/>
<text text-anchor="middle" x="363" y="-579.8" font-family="Times New Roman,serif" font-size="14.00">6</text>
</g>
<!-- A13 -->
<g id="node16" class="node"><title>A13</title>
<polygon fill="wheat" stroke="black" points="288,-471 173,-471 173,-435 288,-435 288,-471"/>
<text text-anchor="middle" x="230.5" y="-449.3" font-family="Times New Roman,serif" font-size="14.00">A13 : Mmh mmh.</text>
</g>
<!-- B12&#45;&gt;A13 -->
<g id="edge23" class="edge"><title>B12&#45;&gt;A13</title>
<path fill="none" stroke="#1f78b4" stroke-width="10" d="M408.688,-520.14C369.149,-505.464 314.751,-485.272 276.492,-471.071"/>
<polygon fill="#1f78b4" stroke="#1f78b4" stroke-width="10" points="407.224,-524.263 413.434,-521.901 410.269,-516.06 407.224,-524.263"/>
<text text-anchor="middle" x="366.5" y="-492.8" font-family="Times New Roman,serif" font-size="14.00">13</text>
</g>
<!-- B14 -->
<g id="node17" class="node"><title>B14</title>
<polygon fill="skyblue" stroke="black" points="612.5,-471 306.5,-471 306.5,-435 612.5,-435 612.5,-471"/>
<text text-anchor="middle" x="459.5" y="-449.3" font-family="Times New Roman,serif" font-size="14.00">B14 : Et si on est reçu à l&#39;oral on rentre dans l&#39;école.</text>
<text text-anchor="start" x="298.5" y="-475.8" font-family="Times New Roman,serif" font-weight="bold" font-style="italic" font-size="14.00" fill="red">1</text>
</g>
<!-- B12&#45;&gt;B14 -->
<g id="edge24" class="edge"><title>B12&#45;&gt;B14</title>
<path fill="none" stroke="#1f78b4" stroke-width="8.46154" d="M459.5,-516.748C459.5,-502.505 459.5,-484.303 459.5,-471.175"/>
<polygon fill="#1f78b4" stroke="#1f78b4" stroke-width="8.46154" points="455.798,-516.799 459.5,-521.799 463.202,-516.799 455.798,-516.799"/>
<text text-anchor="middle" x="466.5" y="-492.8" font-family="Times New Roman,serif" font-size="14.00">11</text>
</g>
<!-- A17_2 -->
<g id="node22" class="node"><title>A17_2</title>
<polygon fill="wheat" stroke="black" points="654,-123 451,-123 451,-87 654,-87 654,-123"/>
<text text-anchor="middle" x="552.5" y="-101.3" font-family="Times New Roman,serif" font-size="14.00">A17_2 : Vous étiez beaucoup à...</text>
</g>
<!-- B12&#45;&gt;A17_2 -->
<g id="edge25" class="edge"><title>B12&#45;&gt;A17_2</title>
<path fill="none" stroke="#1f78b4" stroke-width="1.53846" d="M582.491,-520.235C614.652,-507.925 640.5,-487.585 640.5,-454 640.5,-454 640.5,-454 640.5,-191 640.5,-160.413 612.656,-137.342 588.293,-123.009"/>
<polygon fill="#1f78b4" stroke="#1f78b4" stroke-width="1.53846" points="581.793,-518.627 577.703,-521.993 583,-521.912 581.793,-518.627"/>
<text text-anchor="middle" x="644" y="-318.8" font-family="Times New Roman,serif" font-size="14.00">2</text>
</g>
<!-- A15_1 -->
<g id="node18" class="node"><title>A15_1</title>
<polygon fill="wheat" stroke="black" points="356.5,-384 236.5,-384 236.5,-348 356.5,-348 356.5,-384"/>
<text text-anchor="middle" x="296.5" y="-362.3" font-family="Times New Roman,serif" font-size="14.00">A15_1 : D&#39;accord.</text>
<text text-anchor="start" x="228.5" y="-388.8" font-family="Times New Roman,serif" font-weight="bold" font-style="italic" font-size="14.00" fill="red">2</text>
</g>
<!-- B14&#45;&gt;A15_1 -->
<g id="edge26" class="edge"><title>B14&#45;&gt;A15_1</title>
<path fill="none" stroke="#1f78b4" stroke-width="10" d="M421.753,-432.316C393.727,-417.701 355.889,-397.97 329.158,-384.03"/>
<polygon fill="#1f78b4" stroke="#1f78b4" stroke-width="10" points="420.058,-436.366 426.515,-434.799 424.104,-428.608 420.058,-436.366"/>
<text text-anchor="middle" x="395.5" y="-405.8" font-family="Times New Roman,serif" font-size="14.00">13</text>
</g>
<!-- A15_2 -->
<g id="node19" class="node"><title>A15_2</title>
<polygon fill="wheat" stroke="black" points="592.5,-384 374.5,-384 374.5,-348 592.5,-348 592.5,-384"/>
<text text-anchor="middle" x="483.5" y="-362.3" font-family="Times New Roman,serif" font-size="14.00">A15_2 : Et y a beaucoup de places?</text>
<text text-anchor="start" x="366.5" y="-388.8" font-family="Times New Roman,serif" font-weight="bold" font-style="italic" font-size="14.00" fill="red">2</text>
</g>
<!-- B14&#45;&gt;A15_2 -->
<g id="edge27" class="edge"><title>B14&#45;&gt;A15_2</title>
<path fill="none" stroke="#1f78b4" stroke-width="8.46154" d="M465.783,-429.748C469.805,-415.505 474.944,-397.303 478.65,-384.175"/>
<polygon fill="#1f78b4" stroke="#1f78b4" stroke-width="8.46154" points="462.153,-428.981 464.357,-434.799 469.278,-430.993 462.153,-428.981"/>
<text text-anchor="middle" x="480.5" y="-405.8" font-family="Times New Roman,serif" font-size="14.00">11</text>
</g>
<!-- B16 -->
<g id="node20" class="node"><title>B16</title>
<polygon fill="skyblue" stroke="black" points="517,-297 450,-297 450,-261 517,-261 517,-297"/>
<text text-anchor="middle" x="483.5" y="-275.3" font-family="Times New Roman,serif" font-size="14.00">B16 : 90.</text>
</g>
<!-- A15_2&#45;&gt;B16 -->
<g id="edge28" class="edge"><title>A15_2&#45;&gt;B16</title>
<path fill="none" stroke="#1f78b4" stroke-width="10" d="M483.5,-342.748C483.5,-328.505 483.5,-310.303 483.5,-297.175"/>
<polygon fill="#1f78b4" stroke="#1f78b4" stroke-width="10" points="479.125,-342.799 483.5,-347.799 487.875,-342.799 479.125,-342.799"/>
<text text-anchor="middle" x="490.5" y="-318.8" font-family="Times New Roman,serif" font-size="14.00">13</text>
</g>
<!-- A17_1 -->
<g id="node21" class="node"><title>A17_1</title>
<polygon fill="wheat" stroke="black" points="612.5,-210 492.5,-210 492.5,-174 612.5,-174 612.5,-210"/>
<text text-anchor="middle" x="552.5" y="-188.3" font-family="Times New Roman,serif" font-size="14.00">A17_1 : D&#39;accord.</text>
</g>
<!-- B16&#45;&gt;A17_1 -->
<g id="edge29" class="edge"><title>B16&#45;&gt;A17_1</title>
<path fill="none" stroke="#1f78b4" stroke-width="10" d="M500.658,-256.864C512.345,-242.466 527.621,-223.648 538.558,-210.175"/>
<polygon fill="#1f78b4" stroke="#1f78b4" stroke-width="10" points="497.218,-254.16 497.463,-260.799 504.011,-259.674 497.218,-254.16"/>
<text text-anchor="middle" x="529.5" y="-231.8" font-family="Times New Roman,serif" font-size="14.00">13</text>
</g>
<!-- B16&#45;&gt;A17_2 -->
<g id="edge30" class="edge"><title>B16&#45;&gt;A17_2</title>
<path fill="none" stroke="#1f78b4" stroke-width="3.84615" d="M476.214,-255.931C470.317,-234.124 464.738,-200.306 476.5,-174 486.111,-152.503 506.249,-134.989 523.382,-123.121"/>
<polygon fill="#1f78b4" stroke="#1f78b4" stroke-width="3.84615" points="474.585,-256.6 477.63,-260.934 477.952,-255.647 474.585,-256.6"/>
<text text-anchor="middle" x="480" y="-188.3" font-family="Times New Roman,serif" font-size="14.00">5</text>
</g>
<!-- A17_1&#45;&gt;A17_2 -->
<g id="edge31" class="edge"><title>A17_1&#45;&gt;A17_2</title>
<path fill="none" stroke="#1f78b4" stroke-width="2.30769" d="M552.5,-168.748C552.5,-154.505 552.5,-136.303 552.5,-123.175"/>
<polygon fill="#1f78b4" stroke="#1f78b4" stroke-width="2.30769" points="550.75,-168.799 552.5,-173.799 554.25,-168.799 550.75,-168.799"/>
<text text-anchor="middle" x="556" y="-144.8" font-family="Times New Roman,serif" font-size="14.00">3</text>
</g>
<!-- B18 -->
<g id="node23" class="node"><title>B18</title>
<polygon fill="skyblue" stroke="black" points="685.5,-36 419.5,-36 419.5,-0 685.5,-0 685.5,-36"/>
<text text-anchor="middle" x="552.5" y="-14.3" font-family="Times New Roman,serif" font-size="14.00">B18 : Ben cette année on était pas beaucoup.</text>
</g>
<!-- A17_2&#45;&gt;B18 -->
<g id="edge32" class="edge"><title>A17_2&#45;&gt;B18</title>
<path fill="none" stroke="#1f78b4" stroke-width="9.23077" d="M552.5,-81.7475C552.5,-67.5047 552.5,-49.303 552.5,-36.1754"/>
<polygon fill="#1f78b4" stroke="#1f78b4" stroke-width="9.23077" points="548.462,-81.7989 552.5,-86.799 556.539,-81.7991 548.462,-81.7989"/>
<text text-anchor="middle" x="559.5" y="-57.8" font-family="Times New Roman,serif" font-size="14.00">12</text>
</g>
</g>
</svg>
