<?xml version="1.0" encoding="UTF-8" standalone="no"?>
<!DOCTYPE svg PUBLIC "-//W3C//DTD SVG 1.1//EN"
 "http://www.w3.org/Graphics/SVG/1.1/DTD/svg11.dtd">
<!-- Generated by graphviz version 2.38.0 (20140413.2041)
 -->
<!-- Title: Concours Pages: 1 -->
<svg width="876pt" height="1940pt"
 viewBox="0.00 0.00 875.71 1940.00" xmlns="http://www.w3.org/2000/svg" xmlns:xlink="http://www.w3.org/1999/xlink">
<g id="graph0" class="graph" transform="scale(1 1) rotate(0) translate(4 1936)">
<title>Concours</title>
<polygon fill="white" stroke="none" points="-4,4 -4,-1936 871.707,-1936 871.707,4 -4,4"/>
<text text-anchor="start" x="17" y="-1913" font-family="Times New Roman,serif" font-size="20.00">Concours</text>
<text text-anchor="start" x="8" y="-1896.2" font-family="Times New Roman,serif" font-size="16.00">13 annotations </text>
<text text-anchor="start" x="17" y="-1880.2" font-family="Times New Roman,serif" font-size="16.00"> seuil = 0.15</text>
<!-- début -->
<g id="node1" class="node"><title>début</title>
<polygon fill="lightgrey" stroke="black" points="276.707,-1872 184.707,-1872 184.707,-1836 276.707,-1836 276.707,-1872"/>
<text text-anchor="middle" x="230.707" y="-1850.3" font-family="Times New Roman,serif" font-size="14.00">début : Début</text>
</g>
<!-- A1 -->
<g id="node2" class="node"><title>A1</title>
<polygon fill="wheat" stroke="black" points="394.707,-1770 66.7074,-1770 66.7074,-1734 394.707,-1734 394.707,-1770"/>
<text text-anchor="middle" x="230.707" y="-1748.3" font-family="Times New Roman,serif" font-size="14.00">A1 : Et euh donc là vous avez passé le concours c&#39;est...</text>
<text text-anchor="start" x="50.7074" y="-1774.8" font-family="Times New Roman,serif" font-weight="bold" font-style="italic" font-size="14.00" fill="red">11</text>
</g>
<!-- début&#45;&gt;A1 -->
<g id="edge1" class="edge"><title>début&#45;&gt;A1</title>
<path fill="none" stroke="#a6cee3" stroke-width="8.33333" d="M204.052,-1832.2C200.247,-1827.94 196.889,-1823.16 194.707,-1818 189.518,-1805.72 189.518,-1800.28 194.707,-1788 197.557,-1781.26 202.413,-1775.17 207.651,-1770.03"/>
<polygon fill="#a6cee3" stroke="#a6cee3" stroke-width="8.33333" points="201.56,-1834.87 207.651,-1835.97 206.83,-1829.83 201.56,-1834.87"/>
<text text-anchor="middle" x="220.707" y="-1806.8" font-family="Times New Roman,serif" font-size="14.00">Narration</text>
<text text-anchor="middle" x="220.707" y="-1791.8" font-family="Times New Roman,serif" font-size="14.00">10</text>
</g>
<!-- début&#45;&gt;A1 -->
<g id="edge26" class="edge"><title>début&#45;&gt;A1</title>
<path fill="none" stroke="#33a02c" stroke-width="1.66667" d="M242.505,-1830.92C244.246,-1826.74 245.767,-1822.32 246.707,-1818 249.544,-1804.97 249.544,-1801.03 246.707,-1788 245.4,-1781.99 242.965,-1775.78 240.383,-1770.29"/>
<polygon fill="#33a02c" stroke="#33a02c" stroke-width="1.66667" points="240.811,-1830.43 240.383,-1835.71 244.011,-1831.85 240.811,-1830.43"/>
<text text-anchor="middle" x="310.707" y="-1806.8" font-family="Times New Roman,serif" font-size="14.00">Elaboration evaluative</text>
<text text-anchor="middle" x="310.707" y="-1791.8" font-family="Times New Roman,serif" font-size="14.00">2</text>
</g>
<!-- B2 -->
<g id="node3" class="node"><title>B2</title>
<polygon fill="skyblue" stroke="black" points="312.207,-1668 115.207,-1668 115.207,-1632 312.207,-1632 312.207,-1668"/>
<text text-anchor="middle" x="213.707" y="-1646.3" font-family="Times New Roman,serif" font-size="14.00">B2 : Ouais j&#39;attends les résultats.</text>
<text text-anchor="start" x="107.207" y="-1672.8" font-family="Times New Roman,serif" font-weight="bold" font-style="italic" font-size="14.00" fill="red">4</text>
</g>
<!-- A1&#45;&gt;B2 -->
<g id="edge2" class="edge"><title>A1&#45;&gt;B2</title>
<path fill="none" stroke="#a6cee3" stroke-width="1.66667" d="M136.53,-1731.11C130.484,-1726.96 125.08,-1721.98 120.707,-1716 112.837,-1705.24 113.119,-1696.96 120.707,-1686 125.813,-1678.62 132.681,-1672.8 140.386,-1668.2"/>
<polygon fill="#a6cee3" stroke="#a6cee3" stroke-width="1.66667" points="135.659,-1732.63 140.814,-1733.85 137.546,-1729.68 135.659,-1732.63"/>
<text text-anchor="middle" x="146.707" y="-1704.8" font-family="Times New Roman,serif" font-size="14.00">Narration</text>
<text text-anchor="middle" x="146.707" y="-1689.8" font-family="Times New Roman,serif" font-size="14.00">2</text>
</g>
<!-- A1&#45;&gt;B2 -->
<g id="edge6" class="edge"><title>A1&#45;&gt;B2</title>
<path fill="none" stroke="#1f78b4" stroke-width="5" d="M204.782,-1730.11C201.084,-1725.86 197.822,-1721.11 195.707,-1716 189.21,-1700.31 195.848,-1681.54 202.825,-1668.22"/>
<polygon fill="#1f78b4" stroke="#1f78b4" stroke-width="5" points="203.272,-1731.69 208.28,-1733.86 206.475,-1728.71 203.272,-1731.69"/>
<text text-anchor="middle" x="220.707" y="-1704.8" font-family="Times New Roman,serif" font-size="14.00">Réponse</text>
<text text-anchor="middle" x="220.707" y="-1689.8" font-family="Times New Roman,serif" font-size="14.00">6</text>
</g>
<!-- A1&#45;&gt;B2 -->
<g id="edge13" class="edge"><title>A1&#45;&gt;B2</title>
<path fill="none" stroke="#b2df8a" stroke-width="4.16667" d="M242.23,-1728.87C247.322,-1716.07 251.073,-1699.82 245.707,-1686 243.145,-1679.4 238.693,-1673.28 233.91,-1668.07"/>
<polygon fill="#b2df8a" stroke="#b2df8a" stroke-width="4.16667" points="240.426,-1728.45 240.15,-1733.77 243.782,-1729.88 240.426,-1728.45"/>
<text text-anchor="middle" x="313.207" y="-1704.8" font-family="Times New Roman,serif" font-size="14.00">Elaboration descriptive</text>
<text text-anchor="middle" x="313.207" y="-1689.8" font-family="Times New Roman,serif" font-size="14.00">5</text>
</g>
<!-- A3 -->
<g id="node4" class="node"><title>A3</title>
<polygon fill="wheat" stroke="black" points="470.207,-1566 283.207,-1566 283.207,-1530 470.207,-1530 470.207,-1566"/>
<text text-anchor="middle" x="376.707" y="-1544.3" font-family="Times New Roman,serif" font-size="14.00">A3 : C’est quand les résultats?</text>
<text text-anchor="start" x="275.207" y="-1570.8" font-family="Times New Roman,serif" font-weight="bold" font-style="italic" font-size="14.00" fill="red">3</text>
</g>
<!-- A1&#45;&gt;A3 -->
<g id="edge42" class="edge"><title>A1&#45;&gt;A3</title>
<path fill="none" stroke="#6a3d9a" stroke-width="1.66667" d="M350.175,-1732.51C364.819,-1728.03 376.48,-1722.58 381.707,-1716 416.628,-1672.06 395.902,-1599.13 383.7,-1566.14"/>
<polygon fill="#6a3d9a" stroke="#6a3d9a" stroke-width="1.66667" points="349.407,-1730.91 345.099,-1733.99 350.389,-1734.27 349.407,-1730.91"/>
<text text-anchor="middle" x="427.207" y="-1653.8" font-family="Times New Roman,serif" font-size="14.00">Question</text>
<text text-anchor="middle" x="427.207" y="-1638.8" font-family="Times New Roman,serif" font-size="14.00">2</text>
</g>
<!-- B2&#45;&gt;A3 -->
<g id="edge43" class="edge"><title>B2&#45;&gt;A3</title>
<path fill="none" stroke="#6a3d9a" stroke-width="7.5" d="M246.049,-1629.16C276.061,-1610.75 320.271,-1583.62 348.78,-1566.13"/>
<polygon fill="#6a3d9a" stroke="#6a3d9a" stroke-width="7.5" points="244.274,-1626.4 241.728,-1631.81 247.706,-1631.99 244.274,-1626.4"/>
<text text-anchor="middle" x="345.207" y="-1602.8" font-family="Times New Roman,serif" font-size="14.00">Question</text>
<text text-anchor="middle" x="345.207" y="-1587.8" font-family="Times New Roman,serif" font-size="14.00">9</text>
</g>
<!-- A7_1 -->
<g id="node8" class="node"><title>A7_1</title>
<polygon fill="wheat" stroke="black" points="625.207,-1158 136.207,-1158 136.207,-1122 625.207,-1122 625.207,-1158"/>
<text text-anchor="middle" x="380.707" y="-1136.3" font-family="Times New Roman,serif" font-size="14.00">A7_1 : Parce que je sais qu’en début d&#39;année y en a qui attendent encore les résultats</text>
<text text-anchor="start" x="128.207" y="-1162.8" font-family="Times New Roman,serif" font-weight="bold" font-style="italic" font-size="14.00" fill="red">4</text>
</g>
<!-- B2&#45;&gt;A7_1 -->
<g id="edge14" class="edge"><title>B2&#45;&gt;A7_1</title>
<path fill="none" stroke="#b2df8a" stroke-width="1.66667" d="M213.707,-1626.48C213.707,-1606.21 213.707,-1575.61 213.707,-1549 213.707,-1549 213.707,-1549 213.707,-1241 213.707,-1197.24 256.442,-1172.16 298.675,-1158.06"/>
<polygon fill="#b2df8a" stroke="#b2df8a" stroke-width="1.66667" points="211.957,-1626.66 213.707,-1631.66 215.457,-1626.66 211.957,-1626.66"/>
<text text-anchor="middle" x="278.207" y="-1398.8" font-family="Times New Roman,serif" font-size="14.00">Elaboration descriptive</text>
<text text-anchor="middle" x="278.207" y="-1383.8" font-family="Times New Roman,serif" font-size="14.00">2</text>
</g>
<!-- B4 -->
<g id="node5" class="node"><title>B4</title>
<polygon fill="skyblue" stroke="black" points="500.707,-1464 432.707,-1464 432.707,-1428 500.707,-1428 500.707,-1464"/>
<text text-anchor="middle" x="466.707" y="-1442.3" font-family="Times New Roman,serif" font-size="14.00">B4 : Juin.</text>
</g>
<!-- A3&#45;&gt;B4 -->
<g id="edge7" class="edge"><title>A3&#45;&gt;B4</title>
<path fill="none" stroke="#1f78b4" stroke-width="10" d="M396.001,-1525.56C412.493,-1507.24 435.916,-1481.21 451.21,-1464.22"/>
<polygon fill="#1f78b4" stroke="#1f78b4" stroke-width="10" points="392.477,-1522.94 392.384,-1529.58 398.981,-1528.79 392.477,-1522.94"/>
<text text-anchor="middle" x="460.707" y="-1500.8" font-family="Times New Roman,serif" font-size="14.00">Réponse</text>
<text text-anchor="middle" x="460.707" y="-1485.8" font-family="Times New Roman,serif" font-size="14.00">12</text>
</g>
<!-- A3&#45;&gt;A7_1 -->
<g id="edge15" class="edge"><title>A3&#45;&gt;A7_1</title>
<path fill="none" stroke="#b2df8a" stroke-width="1.66667" d="M370.057,-1524.97C364.579,-1504.86 357.707,-1474.21 357.707,-1447 357.707,-1447 357.707,-1447 357.707,-1241 357.707,-1211.25 367.495,-1177.76 374.301,-1158.07"/>
<polygon fill="#b2df8a" stroke="#b2df8a" stroke-width="1.66667" points="368.388,-1525.5 371.415,-1529.85 371.76,-1524.56 368.388,-1525.5"/>
<text text-anchor="middle" x="422.207" y="-1347.8" font-family="Times New Roman,serif" font-size="14.00">Elaboration descriptive</text>
<text text-anchor="middle" x="422.207" y="-1332.8" font-family="Times New Roman,serif" font-size="14.00">2</text>
</g>
<!-- A5 -->
<g id="node6" class="node"><title>A5</title>
<polygon fill="wheat" stroke="black" points="576.207,-1362 505.207,-1362 505.207,-1326 576.207,-1326 576.207,-1362"/>
<text text-anchor="middle" x="540.707" y="-1340.3" font-family="Times New Roman,serif" font-size="14.00">A5 : Juin?</text>
<text text-anchor="start" x="497.207" y="-1366.8" font-family="Times New Roman,serif" font-weight="bold" font-style="italic" font-size="14.00" fill="red">1</text>
</g>
<!-- B4&#45;&gt;A5 -->
<g id="edge28" class="edge"><title>B4&#45;&gt;A5</title>
<path fill="none" stroke="#e31a1c" stroke-width="6.66667" d="M477.501,-1423.26C484.459,-1410.17 494.157,-1393.47 504.707,-1380 509.544,-1373.82 515.429,-1367.66 521.028,-1362.27"/>
<polygon fill="#e31a1c" stroke="#e31a1c" stroke-width="6.66667" points="474.803,-1422.13 475.065,-1427.91 479.97,-1424.84 474.803,-1422.13"/>
<text text-anchor="middle" x="530.707" y="-1398.8" font-family="Times New Roman,serif" font-size="14.00">Conduite</text>
<text text-anchor="middle" x="530.707" y="-1383.8" font-family="Times New Roman,serif" font-size="14.00">8</text>
</g>
<!-- B4&#45;&gt;A5 -->
<g id="edge34" class="edge"><title>B4&#45;&gt;A5</title>
<path fill="none" stroke="#fdbf6f" stroke-width="1.66667" d="M505.999,-1440C524.639,-1435.43 545.287,-1426.7 556.707,-1410 566.484,-1395.71 559.46,-1376.03 551.88,-1362.08"/>
<polygon fill="#fdbf6f" stroke="#fdbf6f" stroke-width="1.66667" points="505.292,-1438.36 500.804,-1441.18 506.068,-1441.77 505.292,-1438.36"/>
<text text-anchor="middle" x="586.207" y="-1398.8" font-family="Times New Roman,serif" font-size="14.00">Phatique</text>
<text text-anchor="middle" x="586.207" y="-1383.8" font-family="Times New Roman,serif" font-size="14.00">2</text>
</g>
<!-- B4&#45;&gt;A5 -->
<g id="edge44" class="edge"><title>B4&#45;&gt;A5</title>
<path fill="none" stroke="#6a3d9a" stroke-width="1.66667" d="M440.052,-1424.2C436.247,-1419.94 432.889,-1415.16 430.707,-1410 425.518,-1397.72 422.748,-1390.7 430.707,-1380 447.326,-1357.66 464.19,-1370.48 490.707,-1362 495.336,-1360.52 500.191,-1358.92 504.98,-1357.32"/>
<polygon fill="#6a3d9a" stroke="#6a3d9a" stroke-width="1.66667" points="438.93,-1425.56 443.651,-1427.97 441.46,-1423.14 438.93,-1425.56"/>
<text text-anchor="middle" x="456.207" y="-1398.8" font-family="Times New Roman,serif" font-size="14.00">Question</text>
<text text-anchor="middle" x="456.207" y="-1383.8" font-family="Times New Roman,serif" font-size="14.00">2</text>
</g>
<!-- B6 -->
<g id="node7" class="node"><title>B6</title>
<polygon fill="skyblue" stroke="black" points="626.707,-1260 550.707,-1260 550.707,-1224 626.707,-1224 626.707,-1260"/>
<text text-anchor="middle" x="588.707" y="-1238.3" font-family="Times New Roman,serif" font-size="14.00">B6 : Mmh.</text>
</g>
<!-- A5&#45;&gt;B6 -->
<g id="edge8" class="edge"><title>A5&#45;&gt;B6</title>
<path fill="none" stroke="#1f78b4" stroke-width="4.16667" d="M547.906,-1320.83C552.389,-1308.02 558.639,-1291.77 565.707,-1278 568.829,-1271.92 572.759,-1265.59 576.483,-1260"/>
<polygon fill="#1f78b4" stroke="#1f78b4" stroke-width="4.16667" points="546.121,-1320.41 546.216,-1325.73 549.568,-1321.6 546.121,-1320.41"/>
<text text-anchor="middle" x="590.707" y="-1296.8" font-family="Times New Roman,serif" font-size="14.00">Réponse</text>
<text text-anchor="middle" x="590.707" y="-1281.8" font-family="Times New Roman,serif" font-size="14.00">5</text>
</g>
<!-- A5&#45;&gt;B6 -->
<g id="edge29" class="edge"><title>A5&#45;&gt;B6</title>
<path fill="none" stroke="#e31a1c" stroke-width="1.66667" d="M581.114,-1333.59C594.453,-1328.36 607.871,-1320.31 615.707,-1308 622.87,-1296.75 620.01,-1290.62 615.707,-1278 613.528,-1271.61 609.657,-1265.47 605.514,-1260.18"/>
<polygon fill="#e31a1c" stroke="#e31a1c" stroke-width="1.66667" points="580.301,-1332.02 576.213,-1335.39 581.51,-1335.31 580.301,-1332.02"/>
<text text-anchor="middle" x="646.707" y="-1296.8" font-family="Times New Roman,serif" font-size="14.00">Conduite</text>
<text text-anchor="middle" x="646.707" y="-1281.8" font-family="Times New Roman,serif" font-size="14.00">2</text>
</g>
<!-- A5&#45;&gt;B6 -->
<g id="edge35" class="edge"><title>A5&#45;&gt;B6</title>
<path fill="none" stroke="#fdbf6f" stroke-width="5" d="M510.536,-1321.99C506.551,-1317.83 503.043,-1313.15 500.707,-1308 495.198,-1295.86 493.222,-1289.03 500.707,-1278 503.823,-1273.41 528.125,-1263.93 550.401,-1255.99"/>
<polygon fill="#fdbf6f" stroke="#fdbf6f" stroke-width="5" points="509.198,-1323.74 514.31,-1325.65 512.245,-1320.6 509.198,-1323.74"/>
<text text-anchor="middle" x="525.207" y="-1296.8" font-family="Times New Roman,serif" font-size="14.00">Phatique</text>
<text text-anchor="middle" x="525.207" y="-1281.8" font-family="Times New Roman,serif" font-size="14.00">6</text>
</g>
<!-- A5&#45;&gt;A7_1 -->
<g id="edge16" class="edge"><title>A5&#45;&gt;A7_1</title>
<path fill="none" stroke="#b2df8a" stroke-width="3.33333" d="M500.208,-1326.31C471.694,-1312.56 434.806,-1290.37 412.707,-1260 390.048,-1228.86 383.433,-1182.68 381.503,-1158"/>
<polygon fill="#b2df8a" stroke="#b2df8a" stroke-width="3.33333" points="499.801,-1328.06 505.069,-1328.62 501.299,-1324.89 499.801,-1328.06"/>
<text text-anchor="middle" x="477.207" y="-1245.8" font-family="Times New Roman,serif" font-size="14.00">Elaboration descriptive</text>
<text text-anchor="middle" x="477.207" y="-1230.8" font-family="Times New Roman,serif" font-size="14.00">4</text>
</g>
<!-- B6&#45;&gt;A7_1 -->
<g id="edge30" class="edge"><title>B6&#45;&gt;A7_1</title>
<path fill="none" stroke="#e31a1c" stroke-width="1.66667" d="M548.375,-1221.61C510.065,-1203.19 453.022,-1175.77 416.345,-1158.13"/>
<polygon fill="#e31a1c" stroke="#e31a1c" stroke-width="1.66667" points="547.686,-1223.22 552.951,-1223.81 549.203,-1220.07 547.686,-1223.22"/>
<text text-anchor="middle" x="541.707" y="-1194.8" font-family="Times New Roman,serif" font-size="14.00">Conduite</text>
<text text-anchor="middle" x="541.707" y="-1179.8" font-family="Times New Roman,serif" font-size="14.00">2</text>
</g>
<!-- A7_2 -->
<g id="node9" class="node"><title>A7_2</title>
<polygon fill="wheat" stroke="black" points="388.707,-1056 68.7074,-1056 68.7074,-1020 388.707,-1020 388.707,-1056"/>
<text text-anchor="middle" x="228.707" y="-1034.3" font-family="Times New Roman,serif" font-size="14.00">A7_2 : mais euh y a deux sessions de d&#39;exams ou euh.</text>
<text text-anchor="start" x="60.7074" y="-1060.8" font-family="Times New Roman,serif" font-weight="bold" font-style="italic" font-size="14.00" fill="red">1</text>
</g>
<!-- A7_1&#45;&gt;A7_2 -->
<g id="edge17" class="edge"><title>A7_1&#45;&gt;A7_2</title>
<path fill="none" stroke="#b2df8a" stroke-width="4.16667" d="M261.327,-1120.44C246.672,-1115.97 234.985,-1110.54 229.707,-1104 219.002,-1090.74 220.578,-1070.51 223.671,-1056.14"/>
<polygon fill="#b2df8a" stroke="#b2df8a" stroke-width="4.16667" points="261.095,-1122.27 266.405,-1121.92 262.116,-1118.77 261.095,-1122.27"/>
<text text-anchor="middle" x="294.207" y="-1092.8" font-family="Times New Roman,serif" font-size="14.00">Elaboration descriptive</text>
<text text-anchor="middle" x="294.207" y="-1077.8" font-family="Times New Roman,serif" font-size="14.00">5</text>
</g>
<!-- A7_1&#45;&gt;A7_2 -->
<g id="edge45" class="edge"><title>A7_1&#45;&gt;A7_2</title>
<path fill="none" stroke="#6a3d9a" stroke-width="1.66667" d="M378.54,-1116.93C376.013,-1102.81 370.544,-1085.11 358.707,-1074 350.783,-1066.56 341.448,-1060.67 331.476,-1056.01"/>
<polygon fill="#6a3d9a" stroke="#6a3d9a" stroke-width="1.66667" points="376.825,-1117.3 379.344,-1121.96 380.281,-1116.74 376.825,-1117.3"/>
<text text-anchor="middle" x="401.207" y="-1092.8" font-family="Times New Roman,serif" font-size="14.00">Question</text>
<text text-anchor="middle" x="401.207" y="-1077.8" font-family="Times New Roman,serif" font-size="14.00">2</text>
</g>
<!-- B8_1 -->
<g id="node10" class="node"><title>B8_1</title>
<polygon fill="skyblue" stroke="black" points="513.707,-954 93.7074,-954 93.7074,-918 513.707,-918 513.707,-954"/>
<text text-anchor="middle" x="303.707" y="-932.3" font-family="Times New Roman,serif" font-size="14.00">B8_1 : Euhh éduc spé les... en début d&#39;année c&#39;est la passation de l&#39;écrit.</text>
<text text-anchor="start" x="85.7074" y="-958.8" font-family="Times New Roman,serif" font-weight="bold" font-style="italic" font-size="14.00" fill="red">1</text>
</g>
<!-- A7_1&#45;&gt;B8_1 -->
<g id="edge18" class="edge"><title>A7_1&#45;&gt;B8_1</title>
<path fill="none" stroke="#b2df8a" stroke-width="1.66667" d="M418.934,-1118.48C423.666,-1114.33 427.84,-1109.51 430.707,-1104 445.942,-1074.74 455.711,-1015.39 419.707,-972 413.596,-964.634 405.992,-958.781 397.62,-954.135"/>
<polygon fill="#b2df8a" stroke="#b2df8a" stroke-width="1.66667" points="417.611,-1117.31 414.844,-1121.82 419.824,-1120.02 417.611,-1117.31"/>
<text text-anchor="middle" x="509.207" y="-1041.8" font-family="Times New Roman,serif" font-size="14.00">Elaboration descriptive</text>
<text text-anchor="middle" x="509.207" y="-1026.8" font-family="Times New Roman,serif" font-size="14.00">2</text>
</g>
<!-- A7_2&#45;&gt;B8_1 -->
<g id="edge3" class="edge"><title>A7_2&#45;&gt;B8_1</title>
<path fill="none" stroke="#a6cee3" stroke-width="1.66667" d="M327.027,-1018.38C341.321,-1013.79 352.863,-1008.33 357.707,-1002 365.808,-991.409 364.075,-983.715 357.707,-972 353.813,-964.834 347.748,-958.91 341.068,-954.1"/>
<polygon fill="#a6cee3" stroke="#a6cee3" stroke-width="1.66667" points="326.343,-1016.76 322.08,-1019.91 327.374,-1020.11 326.343,-1016.76"/>
<text text-anchor="middle" x="389.707" y="-990.8" font-family="Times New Roman,serif" font-size="14.00">Narration</text>
<text text-anchor="middle" x="389.707" y="-975.8" font-family="Times New Roman,serif" font-size="14.00">2</text>
</g>
<!-- A7_2&#45;&gt;B8_1 -->
<g id="edge9" class="edge"><title>A7_2&#45;&gt;B8_1</title>
<path fill="none" stroke="#1f78b4" stroke-width="2.5" d="M170.043,-1016.89C164.397,-1012.79 159.407,-1007.88 155.707,-1002 148.604,-990.716 147.435,-982.457 155.707,-972 161.482,-964.701 175.3,-958.767 192.294,-954.001"/>
<polygon fill="#1f78b4" stroke="#1f78b4" stroke-width="2.5" points="169.351,-1018.53 174.477,-1019.87 171.304,-1015.63 169.351,-1018.53"/>
<text text-anchor="middle" x="180.707" y="-990.8" font-family="Times New Roman,serif" font-size="14.00">Réponse</text>
<text text-anchor="middle" x="180.707" y="-975.8" font-family="Times New Roman,serif" font-size="14.00">3</text>
</g>
<!-- A7_2&#45;&gt;B8_1 -->
<g id="edge19" class="edge"><title>A7_2&#45;&gt;B8_1</title>
<path fill="none" stroke="#b2df8a" stroke-width="1.66667" d="M221.039,-1014.69C217.876,-1001.28 216.596,-984.465 224.707,-972 229.535,-964.582 236.333,-958.724 243.937,-954.101"/>
<polygon fill="#b2df8a" stroke="#b2df8a" stroke-width="1.66667" points="219.424,-1015.43 222.38,-1019.83 222.811,-1014.55 219.424,-1015.43"/>
<text text-anchor="middle" x="289.207" y="-990.8" font-family="Times New Roman,serif" font-size="14.00">Elaboration descriptive</text>
<text text-anchor="middle" x="289.207" y="-975.8" font-family="Times New Roman,serif" font-size="14.00">2</text>
</g>
<!-- B8_2 -->
<g id="node11" class="node"><title>B8_2</title>
<polygon fill="skyblue" stroke="black" points="429.207,-852 178.207,-852 178.207,-816 429.207,-816 429.207,-852"/>
<text text-anchor="middle" x="303.707" y="-830.3" font-family="Times New Roman,serif" font-size="14.00">B8_2 : On passe l&#39;écrit au mois de janvier.</text>
</g>
<!-- B8_1&#45;&gt;B8_2 -->
<g id="edge20" class="edge"><title>B8_1&#45;&gt;B8_2</title>
<path fill="none" stroke="#b2df8a" stroke-width="8.33333" d="M303.707,-912.163C303.707,-893.932 303.707,-868.784 303.707,-852.219"/>
<polygon fill="#b2df8a" stroke="#b2df8a" stroke-width="8.33333" points="300.062,-912.581 303.707,-917.581 307.353,-912.581 300.062,-912.581"/>
<text text-anchor="middle" x="368.207" y="-888.8" font-family="Times New Roman,serif" font-size="14.00">Elaboration descriptive</text>
<text text-anchor="middle" x="368.207" y="-873.8" font-family="Times New Roman,serif" font-size="14.00">10</text>
</g>
<!-- A9 -->
<g id="node12" class="node"><title>A9</title>
<polygon fill="wheat" stroke="black" points="90.7074,-750 10.7074,-750 10.7074,-714 90.7074,-714 90.7074,-750"/>
<text text-anchor="middle" x="50.7074" y="-728.3" font-family="Times New Roman,serif" font-size="14.00">A9 : Ouais.</text>
</g>
<!-- B8_2&#45;&gt;A9 -->
<g id="edge21" class="edge"><title>B8_2&#45;&gt;A9</title>
<path fill="none" stroke="#b2df8a" stroke-width="1.66667" d="M172.725,-825.587C98.1542,-819.989 17.2867,-811.019 5.70739,-798 -3.15377,-788.037 -0.15063,-779.978 5.70739,-768 9.09916,-761.065 14.6016,-755.107 20.6137,-750.174"/>
<polygon fill="#b2df8a" stroke="#b2df8a" stroke-width="1.66667" points="172.967,-827.36 178.083,-825.985 173.226,-823.87 172.967,-827.36"/>
<text text-anchor="middle" x="70.2074" y="-786.8" font-family="Times New Roman,serif" font-size="14.00">Elaboration descriptive</text>
<text text-anchor="middle" x="70.2074" y="-771.8" font-family="Times New Roman,serif" font-size="14.00">2</text>
</g>
<!-- B8_2&#45;&gt;A9 -->
<g id="edge31" class="edge"><title>B8_2&#45;&gt;A9</title>
<path fill="none" stroke="#e31a1c" stroke-width="1.66667" d="M190.408,-814.15C178.888,-809.83 167.749,-804.522 157.707,-798 143.617,-788.849 148.024,-778.244 134.707,-768 127.257,-762.268 108.582,-754.302 90.7285,-747.418"/>
<polygon fill="#e31a1c" stroke="#e31a1c" stroke-width="1.66667" points="190.068,-815.888 195.366,-815.942 191.258,-812.597 190.068,-815.888"/>
<text text-anchor="middle" x="183.707" y="-786.8" font-family="Times New Roman,serif" font-size="14.00">Conduite</text>
<text text-anchor="middle" x="183.707" y="-771.8" font-family="Times New Roman,serif" font-size="14.00">2</text>
</g>
<!-- B8_2&#45;&gt;A9 -->
<g id="edge36" class="edge"><title>B8_2&#45;&gt;A9</title>
<path fill="none" stroke="#fdbf6f" stroke-width="7.5" d="M270.451,-813.051C262.871,-808.276 254.927,-803.083 247.707,-798 230.113,-785.613 229.396,-776.681 209.707,-768 164.378,-748.015 147.73,-762.164 99.7074,-750 96.8269,-749.27 93.8748,-748.446 90.9175,-747.565"/>
<polygon fill="#fdbf6f" stroke="#fdbf6f" stroke-width="7.5" points="269.134,-816.098 275.113,-815.967 272.613,-810.534 269.134,-816.098"/>
<text text-anchor="middle" x="272.207" y="-786.8" font-family="Times New Roman,serif" font-size="14.00">Phatique</text>
<text text-anchor="middle" x="272.207" y="-771.8" font-family="Times New Roman,serif" font-size="14.00">9</text>
</g>
<!-- B10 -->
<g id="node13" class="node"><title>B10</title>
<polygon fill="skyblue" stroke="black" points="556.207,-750 109.207,-750 109.207,-714 556.207,-714 556.207,-750"/>
<text text-anchor="middle" x="332.707" y="-728.3" font-family="Times New Roman,serif" font-size="14.00">B10 : Euh si on est reçu parce que cette année ils étaient vachement en retard.</text>
</g>
<!-- B8_2&#45;&gt;B10 -->
<g id="edge22" class="edge"><title>B8_2&#45;&gt;B10</title>
<path fill="none" stroke="#b2df8a" stroke-width="5" d="M300.537,-810.621C299.572,-797.781 299.83,-781.568 304.707,-768 307.024,-761.556 311.056,-755.406 315.351,-750.11"/>
<polygon fill="#b2df8a" stroke="#b2df8a" stroke-width="5" points="298.385,-811.117 301.015,-815.899 302.742,-810.722 298.385,-811.117"/>
<text text-anchor="middle" x="369.207" y="-786.8" font-family="Times New Roman,serif" font-size="14.00">Elaboration descriptive</text>
<text text-anchor="middle" x="369.207" y="-771.8" font-family="Times New Roman,serif" font-size="14.00">6</text>
</g>
<!-- B8_2&#45;&gt;B10 -->
<g id="edge27" class="edge"><title>B8_2&#45;&gt;B10</title>
<path fill="none" stroke="#33a02c" stroke-width="1.66667" d="M402.784,-814.449C417.189,-809.85 428.821,-804.375 433.707,-798 441.818,-787.417 441.439,-778.863 433.707,-768 428.434,-760.592 421.479,-754.737 413.68,-750.113"/>
<polygon fill="#33a02c" stroke="#33a02c" stroke-width="1.66667" points="402.067,-812.838 397.798,-815.974 403.091,-816.184 402.067,-812.838"/>
<text text-anchor="middle" x="500.707" y="-786.8" font-family="Times New Roman,serif" font-size="14.00">Elaboration evaluative</text>
<text text-anchor="middle" x="500.707" y="-771.8" font-family="Times New Roman,serif" font-size="14.00">2</text>
</g>
<!-- B12 -->
<g id="node15" class="node"><title>B12</title>
<polygon fill="skyblue" stroke="black" points="695.207,-648 426.207,-648 426.207,-612 695.207,-612 695.207,-648"/>
<text text-anchor="middle" x="560.707" y="-626.3" font-family="Times New Roman,serif" font-size="14.00">B12 : Si on est reçu à l&#39;écrit on passe un oral.</text>
<text text-anchor="start" x="418.207" y="-652.8" font-family="Times New Roman,serif" font-weight="bold" font-style="italic" font-size="14.00" fill="red">2</text>
</g>
<!-- B8_2&#45;&gt;B12 -->
<g id="edge4" class="edge"><title>B8_2&#45;&gt;B12</title>
<path fill="none" stroke="#a6cee3" stroke-width="1.66667" d="M434.511,-830.112C490.225,-826.019 546.748,-817.075 565.707,-798 607.266,-756.19 592.577,-723.296 578.707,-666 577.228,-659.89 574.488,-653.652 571.583,-648.166"/>
<polygon fill="#a6cee3" stroke="#a6cee3" stroke-width="1.66667" points="434.334,-828.37 429.47,-830.469 434.581,-831.861 434.334,-828.37"/>
<text text-anchor="middle" x="619.707" y="-735.8" font-family="Times New Roman,serif" font-size="14.00">Narration</text>
<text text-anchor="middle" x="619.707" y="-720.8" font-family="Times New Roman,serif" font-size="14.00">2</text>
</g>
<!-- B8_2&#45;&gt;B12 -->
<g id="edge23" class="edge"><title>B8_2&#45;&gt;B12</title>
<path fill="none" stroke="#b2df8a" stroke-width="2.5" d="M434.766,-824.063C496.484,-818.437 562.627,-809.943 590.707,-798 621.815,-784.769 635.189,-780.528 649.707,-750 668.765,-709.927 622.038,-669.984 589.321,-648.085"/>
<polygon fill="#b2df8a" stroke="#b2df8a" stroke-width="2.5" points="434.395,-822.339 429.573,-824.531 434.709,-825.825 434.395,-822.339"/>
<text text-anchor="middle" x="719.207" y="-735.8" font-family="Times New Roman,serif" font-size="14.00">Elaboration descriptive</text>
<text text-anchor="middle" x="719.207" y="-720.8" font-family="Times New Roman,serif" font-size="14.00">3</text>
</g>
<!-- A11 -->
<g id="node14" class="node"><title>A11</title>
<polygon fill="wheat" stroke="black" points="320.707,-648 214.707,-648 214.707,-612 320.707,-612 320.707,-648"/>
<text text-anchor="middle" x="267.707" y="-626.3" font-family="Times New Roman,serif" font-size="14.00">A11 : D&#39;accord.</text>
</g>
<!-- B10&#45;&gt;A11 -->
<g id="edge32" class="edge"><title>B10&#45;&gt;A11</title>
<path fill="none" stroke="#e31a1c" stroke-width="1.66667" d="M246.608,-711.254C240.49,-707.091 235.039,-702.066 230.707,-696 222.959,-685.149 225.434,-678.246 230.707,-666 233.575,-659.34 238.402,-653.356 243.638,-648.298"/>
<polygon fill="#e31a1c" stroke="#e31a1c" stroke-width="1.66667" points="245.784,-712.803 250.945,-714 247.656,-709.846 245.784,-712.803"/>
<text text-anchor="middle" x="256.707" y="-684.8" font-family="Times New Roman,serif" font-size="14.00">Conduite</text>
<text text-anchor="middle" x="256.707" y="-669.8" font-family="Times New Roman,serif" font-size="14.00">2</text>
</g>
<!-- B10&#45;&gt;A11 -->
<g id="edge37" class="edge"><title>B10&#45;&gt;A11</title>
<path fill="none" stroke="#fdbf6f" stroke-width="8.33333" d="M315.695,-709.844C312.279,-705.351 308.794,-700.58 305.707,-696 295.114,-680.283 284.33,-661.517 276.97,-648.199"/>
<polygon fill="#fdbf6f" stroke="#fdbf6f" stroke-width="8.33333" points="312.86,-712.138 318.799,-713.878 318.639,-707.692 312.86,-712.138"/>
<text text-anchor="middle" x="330.207" y="-684.8" font-family="Times New Roman,serif" font-size="14.00">Phatique</text>
<text text-anchor="middle" x="330.207" y="-669.8" font-family="Times New Roman,serif" font-size="14.00">10</text>
</g>
<!-- B10&#45;&gt;B12 -->
<g id="edge24" class="edge"><title>B10&#45;&gt;B12</title>
<path fill="none" stroke="#b2df8a" stroke-width="3.33333" d="M346.556,-709.302C358.087,-691.532 373.307,-668.865 377.707,-666 392.346,-656.47 408.951,-649.403 426.042,-644.184"/>
<polygon fill="#b2df8a" stroke="#b2df8a" stroke-width="3.33333" points="344.958,-708.551 343.712,-713.7 347.897,-710.451 344.958,-708.551"/>
<text text-anchor="middle" x="442.207" y="-684.8" font-family="Times New Roman,serif" font-size="14.00">Elaboration descriptive</text>
<text text-anchor="middle" x="442.207" y="-669.8" font-family="Times New Roman,serif" font-size="14.00">4</text>
</g>
<!-- B10&#45;&gt;B12 -->
<g id="edge38" class="edge"><title>B10&#45;&gt;B12</title>
<path fill="none" stroke="#fdbf6f" stroke-width="1.66667" d="M472.805,-712.281C484.715,-707.905 496.205,-702.549 506.707,-696 520.963,-687.11 519.02,-678.963 529.707,-666 534.561,-660.113 540.03,-653.83 545.008,-648.236"/>
<polygon fill="#fdbf6f" stroke="#fdbf6f" stroke-width="1.66667" points="472.168,-710.65 468.041,-713.972 473.339,-713.948 472.168,-710.65"/>
<text text-anchor="middle" x="554.207" y="-684.8" font-family="Times New Roman,serif" font-size="14.00">Phatique</text>
<text text-anchor="middle" x="554.207" y="-669.8" font-family="Times New Roman,serif" font-size="14.00">2</text>
</g>
<!-- A13 -->
<g id="node16" class="node"><title>A13</title>
<polygon fill="wheat" stroke="black" points="464.207,-546 349.207,-546 349.207,-510 464.207,-510 464.207,-546"/>
<text text-anchor="middle" x="406.707" y="-524.3" font-family="Times New Roman,serif" font-size="14.00">A13 : Mmh mmh.</text>
</g>
<!-- B12&#45;&gt;A13 -->
<g id="edge33" class="edge"><title>B12&#45;&gt;A13</title>
<path fill="none" stroke="#e31a1c" stroke-width="1.66667" d="M446.38,-610.587C430.914,-606.04 418.396,-600.548 412.707,-594 401.41,-580.997 401.413,-560.52 403.28,-546.028"/>
<polygon fill="#e31a1c" stroke="#e31a1c" stroke-width="1.66667" points="445.983,-612.293 451.27,-611.968 446.934,-608.925 445.983,-612.293"/>
<text text-anchor="middle" x="438.707" y="-582.8" font-family="Times New Roman,serif" font-size="14.00">Conduite</text>
<text text-anchor="middle" x="438.707" y="-567.8" font-family="Times New Roman,serif" font-size="14.00">2</text>
</g>
<!-- B12&#45;&gt;A13 -->
<g id="edge39" class="edge"><title>B12&#45;&gt;A13</title>
<path fill="none" stroke="#fdbf6f" stroke-width="8.33333" d="M525.479,-609.241C517.521,-604.466 509.211,-599.226 501.707,-594 484.335,-581.901 482.034,-576.165 464.707,-564 455.852,-557.783 445.871,-551.514 436.716,-546.034"/>
<polygon fill="#fdbf6f" stroke="#fdbf6f" stroke-width="8.33333" points="523.695,-612.422 529.856,-611.843 527.421,-606.154 523.695,-612.422"/>
<text text-anchor="middle" x="526.207" y="-582.8" font-family="Times New Roman,serif" font-size="14.00">Phatique</text>
<text text-anchor="middle" x="526.207" y="-567.8" font-family="Times New Roman,serif" font-size="14.00">10</text>
</g>
<!-- B14 -->
<g id="node17" class="node"><title>B14</title>
<polygon fill="skyblue" stroke="black" points="788.707,-546 482.707,-546 482.707,-510 788.707,-510 788.707,-546"/>
<text text-anchor="middle" x="635.707" y="-524.3" font-family="Times New Roman,serif" font-size="14.00">B14 : Et si on est reçu à l&#39;oral on rentre dans l&#39;école.</text>
<text text-anchor="start" x="474.707" y="-550.8" font-family="Times New Roman,serif" font-weight="bold" font-style="italic" font-size="14.00" fill="red">1</text>
</g>
<!-- B12&#45;&gt;B14 -->
<g id="edge5" class="edge"><title>B12&#45;&gt;B14</title>
<path fill="none" stroke="#a6cee3" stroke-width="2.5" d="M555.487,-606.698C553.627,-593.297 553.669,-576.481 561.707,-564 566.478,-556.592 573.279,-550.72 580.846,-546.073"/>
<polygon fill="#a6cee3" stroke="#a6cee3" stroke-width="2.5" points="553.791,-607.177 556.313,-611.836 557.247,-606.621 553.791,-607.177"/>
<text text-anchor="middle" x="587.707" y="-582.8" font-family="Times New Roman,serif" font-size="14.00">Narration</text>
<text text-anchor="middle" x="587.707" y="-567.8" font-family="Times New Roman,serif" font-size="14.00">3</text>
</g>
<!-- B12&#45;&gt;B14 -->
<g id="edge25" class="edge"><title>B12&#45;&gt;B14</title>
<path fill="none" stroke="#b2df8a" stroke-width="5.83333" d="M598.438,-608.687C604.11,-604.408 609.469,-599.498 613.707,-594 624.545,-579.941 630.22,-560.229 633.07,-546.206"/>
<polygon fill="#b2df8a" stroke="#b2df8a" stroke-width="5.83333" points="596.626,-606.847 594.053,-611.836 599.603,-610.993 596.626,-606.847"/>
<text text-anchor="middle" x="693.207" y="-582.8" font-family="Times New Roman,serif" font-size="14.00">Elaboration descriptive</text>
<text text-anchor="middle" x="693.207" y="-567.8" font-family="Times New Roman,serif" font-size="14.00">7</text>
</g>
<!-- A17_2 -->
<g id="node22" class="node"><title>A17_2</title>
<polygon fill="wheat" stroke="black" points="819.207,-138 616.207,-138 616.207,-102 819.207,-102 819.207,-138"/>
<text text-anchor="middle" x="717.707" y="-116.3" font-family="Times New Roman,serif" font-size="14.00">A17_2 : Vous étiez beaucoup à...</text>
</g>
<!-- B12&#45;&gt;A17_2 -->
<g id="edge46" class="edge"><title>B12&#45;&gt;A17_2</title>
<path fill="none" stroke="#6a3d9a" stroke-width="1.66667" d="M700.145,-617.751C721.649,-612.388 742.923,-604.767 761.707,-594 794.539,-575.181 816.707,-566.843 816.707,-529 816.707,-529 816.707,-529 816.707,-221 816.707,-183.378 780.882,-154.832 752.333,-138.057"/>
<polygon fill="#6a3d9a" stroke="#6a3d9a" stroke-width="1.66667" points="699.713,-616.055 695.263,-618.929 700.535,-619.457 699.713,-616.055"/>
<text text-anchor="middle" x="842.207" y="-378.8" font-family="Times New Roman,serif" font-size="14.00">Question</text>
<text text-anchor="middle" x="842.207" y="-363.8" font-family="Times New Roman,serif" font-size="14.00">2</text>
</g>
<!-- A15_1 -->
<g id="node18" class="node"><title>A15_1</title>
<polygon fill="wheat" stroke="black" points="788.707,-444 668.707,-444 668.707,-408 788.707,-408 788.707,-444"/>
<text text-anchor="middle" x="728.707" y="-422.3" font-family="Times New Roman,serif" font-size="14.00">A15_1 : D&#39;accord.</text>
<text text-anchor="start" x="660.707" y="-448.8" font-family="Times New Roman,serif" font-weight="bold" font-style="italic" font-size="14.00" fill="red">2</text>
</g>
<!-- B14&#45;&gt;A15_1 -->
<g id="edge40" class="edge"><title>B14&#45;&gt;A15_1</title>
<path fill="none" stroke="#fdbf6f" stroke-width="10" d="M655.644,-505.563C672.685,-487.239 696.89,-461.213 712.694,-444.219"/>
<polygon fill="#fdbf6f" stroke="#fdbf6f" stroke-width="10" points="652.108,-502.94 651.907,-509.581 658.516,-508.899 652.108,-502.94"/>
<text text-anchor="middle" x="721.207" y="-480.8" font-family="Times New Roman,serif" font-size="14.00">Phatique</text>
<text text-anchor="middle" x="721.207" y="-465.8" font-family="Times New Roman,serif" font-size="14.00">12</text>
</g>
<!-- A15_2 -->
<g id="node19" class="node"><title>A15_2</title>
<polygon fill="wheat" stroke="black" points="650.707,-444 432.707,-444 432.707,-408 650.707,-408 650.707,-444"/>
<text text-anchor="middle" x="541.707" y="-422.3" font-family="Times New Roman,serif" font-size="14.00">A15_2 : Et y a beaucoup de places?</text>
<text text-anchor="start" x="424.707" y="-448.8" font-family="Times New Roman,serif" font-weight="bold" font-style="italic" font-size="14.00" fill="red">2</text>
</g>
<!-- B14&#45;&gt;A15_2 -->
<g id="edge47" class="edge"><title>B14&#45;&gt;A15_2</title>
<path fill="none" stroke="#6a3d9a" stroke-width="8.33333" d="M615.557,-505.563C598.332,-487.239 573.867,-461.213 557.893,-444.219"/>
<polygon fill="#6a3d9a" stroke="#6a3d9a" stroke-width="8.33333" points="613.253,-508.435 619.334,-509.581 618.566,-503.441 613.253,-508.435"/>
<text text-anchor="middle" x="628.207" y="-480.8" font-family="Times New Roman,serif" font-size="14.00">Question</text>
<text text-anchor="middle" x="628.207" y="-465.8" font-family="Times New Roman,serif" font-size="14.00">10</text>
</g>
<!-- B16 -->
<g id="node20" class="node"><title>B16</title>
<polygon fill="skyblue" stroke="black" points="649.207,-342 582.207,-342 582.207,-306 649.207,-306 649.207,-342"/>
<text text-anchor="middle" x="615.707" y="-320.3" font-family="Times New Roman,serif" font-size="14.00">B16 : 90.</text>
</g>
<!-- A15_2&#45;&gt;B16 -->
<g id="edge10" class="edge"><title>A15_2&#45;&gt;B16</title>
<path fill="none" stroke="#1f78b4" stroke-width="8.33333" d="M578.514,-404.758C584.157,-400.45 589.496,-395.513 593.707,-390 604.484,-375.894 610.168,-356.189 613.038,-342.181"/>
<polygon fill="#1f78b4" stroke="#1f78b4" stroke-width="8.33333" points="576.054,-402.038 574.153,-407.927 580.341,-407.937 576.054,-402.038"/>
<text text-anchor="middle" x="633.707" y="-378.8" font-family="Times New Roman,serif" font-size="14.00">Réponse</text>
<text text-anchor="middle" x="633.707" y="-363.8" font-family="Times New Roman,serif" font-size="14.00">10</text>
</g>
<!-- A15_2&#45;&gt;B16 -->
<g id="edge48" class="edge"><title>A15_2&#45;&gt;B16</title>
<path fill="none" stroke="#6a3d9a" stroke-width="2.5" d="M534.565,-402.707C531.677,-389.309 530.663,-372.494 538.707,-360 548.327,-345.061 566.055,-336.425 582.077,-331.471"/>
<polygon fill="#6a3d9a" stroke="#6a3d9a" stroke-width="2.5" points="532.929,-403.39 535.797,-407.843 536.333,-402.573 532.929,-403.39"/>
<text text-anchor="middle" x="564.207" y="-378.8" font-family="Times New Roman,serif" font-size="14.00">Question</text>
<text text-anchor="middle" x="564.207" y="-363.8" font-family="Times New Roman,serif" font-size="14.00">3</text>
</g>
<!-- A17_1 -->
<g id="node21" class="node"><title>A17_1</title>
<polygon fill="wheat" stroke="black" points="777.707,-240 657.707,-240 657.707,-204 777.707,-204 777.707,-240"/>
<text text-anchor="middle" x="717.707" y="-218.3" font-family="Times New Roman,serif" font-size="14.00">A17_1 : D&#39;accord.</text>
</g>
<!-- B16&#45;&gt;A17_1 -->
<g id="edge11" class="edge"><title>B16&#45;&gt;A17_1</title>
<path fill="none" stroke="#1f78b4" stroke-width="1.66667" d="M654.092,-306.902C663.507,-301.78 673.064,-295.465 680.707,-288 694.641,-274.391 704.949,-254.414 711.097,-240.204"/>
<polygon fill="#1f78b4" stroke="#1f78b4" stroke-width="1.66667" points="653.102,-305.445 649.491,-309.32 654.731,-308.543 653.102,-305.445"/>
<text text-anchor="middle" x="727.707" y="-276.8" font-family="Times New Roman,serif" font-size="14.00">Réponse</text>
<text text-anchor="middle" x="727.707" y="-261.8" font-family="Times New Roman,serif" font-size="14.00">2</text>
</g>
<!-- B16&#45;&gt;A17_1 -->
<g id="edge41" class="edge"><title>B16&#45;&gt;A17_1</title>
<path fill="none" stroke="#fdbf6f" stroke-width="8.33333" d="M614.614,-300.641C615.106,-286.922 617.956,-269.786 627.707,-258 635.509,-248.571 646.18,-241.673 657.449,-236.63"/>
<polygon fill="#fdbf6f" stroke="#fdbf6f" stroke-width="8.33333" points="610.965,-300.847 614.533,-305.903 618.256,-300.961 610.965,-300.847"/>
<text text-anchor="middle" x="652.207" y="-276.8" font-family="Times New Roman,serif" font-size="14.00">Phatique</text>
<text text-anchor="middle" x="652.207" y="-261.8" font-family="Times New Roman,serif" font-size="14.00">10</text>
</g>
<!-- B16&#45;&gt;A17_2 -->
<g id="edge49" class="edge"><title>B16&#45;&gt;A17_2</title>
<path fill="none" stroke="#6a3d9a" stroke-width="2.5" d="M604.795,-301.002C594.084,-276.068 581.518,-234.882 597.707,-204 613.879,-173.152 647.297,-151.497 674.77,-138.059"/>
<polygon fill="#6a3d9a" stroke="#6a3d9a" stroke-width="2.5" points="603.279,-301.901 606.903,-305.764 606.479,-300.484 603.279,-301.901"/>
<text text-anchor="middle" x="623.207" y="-225.8" font-family="Times New Roman,serif" font-size="14.00">Question</text>
<text text-anchor="middle" x="623.207" y="-210.8" font-family="Times New Roman,serif" font-size="14.00">3</text>
</g>
<!-- A17_1&#45;&gt;A17_2 -->
<g id="edge50" class="edge"><title>A17_1&#45;&gt;A17_2</title>
<path fill="none" stroke="#6a3d9a" stroke-width="1.66667" d="M717.707,-198.163C717.707,-179.932 717.707,-154.784 717.707,-138.219"/>
<polygon fill="#6a3d9a" stroke="#6a3d9a" stroke-width="1.66667" points="715.957,-198.581 717.707,-203.581 719.457,-198.581 715.957,-198.581"/>
<text text-anchor="middle" x="743.207" y="-174.8" font-family="Times New Roman,serif" font-size="14.00">Question</text>
<text text-anchor="middle" x="743.207" y="-159.8" font-family="Times New Roman,serif" font-size="14.00">2</text>
</g>
<!-- B18 -->
<g id="node23" class="node"><title>B18</title>
<polygon fill="skyblue" stroke="black" points="850.707,-36 584.707,-36 584.707,-0 850.707,-0 850.707,-36"/>
<text text-anchor="middle" x="717.707" y="-14.3" font-family="Times New Roman,serif" font-size="14.00">B18 : Ben cette année on était pas beaucoup.</text>
</g>
<!-- A17_2&#45;&gt;B18 -->
<g id="edge12" class="edge"><title>A17_2&#45;&gt;B18</title>
<path fill="none" stroke="#1f78b4" stroke-width="8.33333" d="M717.707,-96.1628C717.707,-77.9321 717.707,-52.7841 717.707,-36.2191"/>
<polygon fill="#1f78b4" stroke="#1f78b4" stroke-width="8.33333" points="714.062,-96.5813 717.707,-101.581 721.353,-96.5814 714.062,-96.5813"/>
<text text-anchor="middle" x="742.707" y="-72.8" font-family="Times New Roman,serif" font-size="14.00">Réponse</text>
<text text-anchor="middle" x="742.707" y="-57.8" font-family="Times New Roman,serif" font-size="14.00">10</text>
</g>
</g>
</svg>
