<?xml version="1.0" encoding="UTF-8" standalone="no"?>
<!DOCTYPE svg PUBLIC "-//W3C//DTD SVG 1.1//EN"
 "http://www.w3.org/Graphics/SVG/1.1/DTD/svg11.dtd">
<!-- Generated by graphviz version 2.38.0 (20140413.2041)
 -->
<!-- Title: Florence Pages: 1 -->
<svg width="814pt" height="1232pt"
 viewBox="0.00 0.00 814.00 1232.00" xmlns="http://www.w3.org/2000/svg" xmlns:xlink="http://www.w3.org/1999/xlink">
<g id="graph0" class="graph" transform="scale(1 1) rotate(0) translate(4 1228)">
<title>Florence</title>
<polygon fill="white" stroke="none" points="-4,4 -4,-1228 810,-1228 810,4 -4,4"/>
<text text-anchor="start" x="20" y="-1205" font-family="Times New Roman,serif" font-size="20.00">Florence</text>
<text text-anchor="start" x="8" y="-1188.2" font-family="Times New Roman,serif" font-size="16.00">17 annotations </text>
<text text-anchor="start" x="17" y="-1172.2" font-family="Times New Roman,serif" font-size="16.00"> seuil = 0.15</text>
<!-- début -->
<g id="node1" class="node"><title>début</title>
<polygon fill="lightgrey" stroke="black" points="485.5,-1164 402.5,-1164 402.5,-1128 485.5,-1128 485.5,-1164"/>
<text text-anchor="middle" x="444" y="-1142.3" font-family="Times New Roman,serif" font-size="14.00">début : ébut</text>
</g>
<!-- B1_1 -->
<g id="node2" class="node"><title>B1_1</title>
<polygon fill="skyblue" stroke="black" points="416,-1062 16,-1062 16,-1026 416,-1026 416,-1062"/>
<text text-anchor="middle" x="216" y="-1040.3" font-family="Times New Roman,serif" font-size="14.00">B1_1 : J&#39;aimerais savoir ce que font les personnes qui sont à l&#39;hôpital</text>
<text text-anchor="start" x="0" y="-1066.8" font-family="Times New Roman,serif" font-weight="bold" font-style="italic" font-size="14.00" fill="red">16</text>
</g>
<!-- début&#45;&gt;B1_1 -->
<g id="edge1" class="edge"><title>début&#45;&gt;B1_1</title>
<path fill="none" stroke="#a6cee3" stroke-width="8.66667" d="M396.93,-1144.32C359.54,-1141.83 307.202,-1133.83 268,-1110 248.982,-1098.44 234.028,-1077.27 225.13,-1062.23"/>
<polygon fill="#a6cee3" stroke="#a6cee3" stroke-width="8.66667" points="397.113,-1148.13 402.335,-1144.65 397.574,-1140.56 397.113,-1148.13"/>
<text text-anchor="middle" x="294" y="-1098.8" font-family="Times New Roman,serif" font-size="14.00">Narration</text>
<text text-anchor="middle" x="294" y="-1083.8" font-family="Times New Roman,serif" font-size="14.00">13</text>
</g>
<!-- début&#45;&gt;B1_1 -->
<g id="edge5" class="edge"><title>début&#45;&gt;B1_1</title>
<path fill="none" stroke="#1f78b4" stroke-width="2" d="M397.516,-1128.05C385.033,-1122.85 371.746,-1116.71 360,-1110 340.706,-1098.97 339.669,-1090.34 320,-1080 306.679,-1073 291.676,-1066.98 277.297,-1062.01"/>
<polygon fill="#1f78b4" stroke="#1f78b4" stroke-width="2" points="397.148,-1129.79 402.439,-1130.07 398.477,-1126.55 397.148,-1129.79"/>
<text text-anchor="middle" x="395" y="-1098.8" font-family="Times New Roman,serif" font-size="14.00">Elaborations</text>
<text text-anchor="middle" x="395" y="-1083.8" font-family="Times New Roman,serif" font-size="14.00">3</text>
</g>
<!-- A2 -->
<g id="node4" class="node"><title>A2</title>
<polygon fill="wheat" stroke="black" points="414.5,-852 157.5,-852 157.5,-816 414.5,-816 414.5,-852"/>
<text text-anchor="middle" x="286" y="-830.3" font-family="Times New Roman,serif" font-size="14.00">A2 : Je suis très amoureuse de Florence M.</text>
<text text-anchor="start" x="141.5" y="-856.8" font-family="Times New Roman,serif" font-weight="bold" font-style="italic" font-size="14.00" fill="red">11</text>
</g>
<!-- début&#45;&gt;A2 -->
<g id="edge2" class="edge"><title>début&#45;&gt;A2</title>
<path fill="none" stroke="#a6cee3" stroke-width="5.33333" d="M443.103,-1122.48C440.804,-1068.58 434.155,-935.379 424,-918 405.382,-886.136 369.274,-865.065 338.662,-852.128"/>
<polygon fill="#a6cee3" stroke="#a6cee3" stroke-width="5.33333" points="440.783,-1122.84 443.325,-1127.74 445.446,-1122.65 440.783,-1122.84"/>
<text text-anchor="middle" x="463" y="-993.8" font-family="Times New Roman,serif" font-size="14.00">Narration</text>
<text text-anchor="middle" x="463" y="-978.8" font-family="Times New Roman,serif" font-size="14.00">8</text>
</g>
<!-- A4_2 -->
<g id="node7" class="node"><title>A4_2</title>
<polygon fill="wheat" stroke="black" points="754.5,-1008 501.5,-1008 501.5,-972 754.5,-972 754.5,-1008"/>
<text text-anchor="middle" x="628" y="-986.3" font-family="Times New Roman,serif" font-size="14.00">A4_2 : comment elle s&#39;appelle Florence R.</text>
<text text-anchor="start" x="493.5" y="-1012.8" font-family="Times New Roman,serif" font-weight="bold" font-style="italic" font-size="14.00" fill="red">3</text>
</g>
<!-- début&#45;&gt;A4_2 -->
<g id="edge3" class="edge"><title>début&#45;&gt;A4_2</title>
<path fill="none" stroke="#a6cee3" stroke-width="2.66667" d="M468.258,-1124.7C504.802,-1094.11 573.328,-1036.76 607.514,-1008.15"/>
<polygon fill="#a6cee3" stroke="#a6cee3" stroke-width="2.66667" points="467.105,-1123.38 464.394,-1127.93 469.352,-1126.06 467.105,-1123.38"/>
<text text-anchor="middle" x="547" y="-1098.8" font-family="Times New Roman,serif" font-size="14.00">Narration</text>
<text text-anchor="middle" x="547" y="-1083.8" font-family="Times New Roman,serif" font-size="14.00">4</text>
</g>
<!-- début&#45;&gt;A4_2 -->
<g id="edge18" class="edge"><title>début&#45;&gt;A4_2</title>
<path fill="none" stroke="#33a02c" stroke-width="2.66667" d="M490.713,-1142.79C518.624,-1139.22 553.169,-1130.55 577,-1110 607.98,-1083.28 620.687,-1034.41 625.445,-1008.38"/>
<polygon fill="#33a02c" stroke="#33a02c" stroke-width="2.66667" points="490.341,-1141.07 485.583,-1143.4 490.754,-1144.55 490.341,-1141.07"/>
<text text-anchor="middle" x="625.5" y="-1098.8" font-family="Times New Roman,serif" font-size="14.00">Question</text>
<text text-anchor="middle" x="625.5" y="-1083.8" font-family="Times New Roman,serif" font-size="14.00">4</text>
</g>
<!-- B1_2 -->
<g id="node3" class="node"><title>B1_2</title>
<polygon fill="skyblue" stroke="black" points="415.5,-954 118.5,-954 118.5,-918 415.5,-918 415.5,-954"/>
<text text-anchor="middle" x="267" y="-932.3" font-family="Times New Roman,serif" font-size="14.00">B1_2 : ce que vous faites la journée par exemple...</text>
<text text-anchor="start" x="110.5" y="-958.8" font-family="Times New Roman,serif" font-weight="bold" font-style="italic" font-size="14.00" fill="red">1</text>
</g>
<!-- B1_1&#45;&gt;B1_2 -->
<g id="edge6" class="edge"><title>B1_1&#45;&gt;B1_2</title>
<path fill="none" stroke="#1f78b4" stroke-width="4.66667" d="M201.335,-1021.43C193.27,-1006.65 186.622,-987.078 196,-972 200.573,-964.648 207.194,-958.795 214.58,-954.148"/>
<polygon fill="#1f78b4" stroke="#1f78b4" stroke-width="4.66667" points="199.61,-1022.52 203.867,-1025.85 203.154,-1020.49 199.61,-1022.52"/>
<text text-anchor="middle" x="231" y="-993.8" font-family="Times New Roman,serif" font-size="14.00">Elaborations</text>
<text text-anchor="middle" x="231" y="-978.8" font-family="Times New Roman,serif" font-size="14.00">7</text>
</g>
<!-- B1_1&#45;&gt;B1_2 -->
<g id="edge19" class="edge"><title>B1_1&#45;&gt;B1_2</title>
<path fill="none" stroke="#33a02c" stroke-width="4" d="M253.967,-1022.61C258.787,-1018.42 263.055,-1013.56 266,-1008 274.828,-991.332 273.461,-969.227 270.932,-954.137"/>
<polygon fill="#33a02c" stroke="#33a02c" stroke-width="4" points="252.595,-1021.47 249.806,-1025.98 254.795,-1024.2 252.595,-1021.47"/>
<text text-anchor="middle" x="298.5" y="-993.8" font-family="Times New Roman,serif" font-size="14.00">Question</text>
<text text-anchor="middle" x="298.5" y="-978.8" font-family="Times New Roman,serif" font-size="14.00">6</text>
</g>
<!-- B1_2&#45;&gt;A2 -->
<g id="edge7" class="edge"><title>B1_2&#45;&gt;A2</title>
<path fill="none" stroke="#1f78b4" stroke-width="2" d="M271.25,-912.633C274.72,-894.366 279.554,-868.927 282.728,-852.219"/>
<polygon fill="#1f78b4" stroke="#1f78b4" stroke-width="2" points="269.524,-912.343 270.31,-917.581 272.962,-912.996 269.524,-912.343"/>
<text text-anchor="middle" x="315" y="-888.8" font-family="Times New Roman,serif" font-size="14.00">Elaborations</text>
<text text-anchor="middle" x="315" y="-873.8" font-family="Times New Roman,serif" font-size="14.00">3</text>
</g>
<!-- B3 -->
<g id="node5" class="node"><title>B3</title>
<polygon fill="skyblue" stroke="black" points="351.5,-750 220.5,-750 220.5,-714 351.5,-714 351.5,-750"/>
<text text-anchor="middle" x="286" y="-728.3" font-family="Times New Roman,serif" font-size="14.00">B3 : De Florence M.</text>
</g>
<!-- A2&#45;&gt;B3 -->
<g id="edge16" class="edge"><title>A2&#45;&gt;B3</title>
<path fill="none" stroke="#b2df8a" stroke-width="9.33333" d="M286,-810.163C286,-791.932 286,-766.784 286,-750.219"/>
<polygon fill="#b2df8a" stroke="#b2df8a" stroke-width="9.33333" points="281.917,-810.581 286,-815.581 290.083,-810.581 281.917,-810.581"/>
<text text-anchor="middle" x="300" y="-786.8" font-family="Times New Roman,serif" font-size="14.00">Méta</text>
<text text-anchor="middle" x="300" y="-771.8" font-family="Times New Roman,serif" font-size="14.00">14</text>
</g>
<!-- A4_1 -->
<g id="node6" class="node"><title>A4_1</title>
<polygon fill="wheat" stroke="black" points="268,-648 118,-648 118,-612 268,-612 268,-648"/>
<text text-anchor="middle" x="193" y="-626.3" font-family="Times New Roman,serif" font-size="14.00">A4_1 : Oui superbe la...</text>
<text text-anchor="start" x="110" y="-652.8" font-family="Times New Roman,serif" font-weight="bold" font-style="italic" font-size="14.00" fill="red">7</text>
</g>
<!-- B3&#45;&gt;A4_1 -->
<g id="edge8" class="edge"><title>B3&#45;&gt;A4_1</title>
<path fill="none" stroke="#1f78b4" stroke-width="8" d="M215.576,-714.775C207.127,-710.035 199.545,-703.911 194,-696 184.283,-682.137 185.61,-662.204 188.375,-648.073"/>
<polygon fill="#1f78b4" stroke="#1f78b4" stroke-width="8" points="214.3,-718.057 220.352,-717.269 217.54,-711.852 214.3,-718.057"/>
<text text-anchor="middle" x="229" y="-684.8" font-family="Times New Roman,serif" font-size="14.00">Elaborations</text>
<text text-anchor="middle" x="229" y="-669.8" font-family="Times New Roman,serif" font-size="14.00">12</text>
</g>
<!-- B3&#45;&gt;A4_1 -->
<g id="edge17" class="edge"><title>B3&#45;&gt;A4_1</title>
<path fill="none" stroke="#b2df8a" stroke-width="2" d="M282.896,-708.75C279.998,-695.074 274.467,-677.944 264,-666 257.66,-658.765 249.478,-652.87 240.937,-648.123"/>
<polygon fill="#b2df8a" stroke="#b2df8a" stroke-width="2" points="281.244,-709.42 283.917,-713.994 284.679,-708.751 281.244,-709.42"/>
<text text-anchor="middle" x="294" y="-684.8" font-family="Times New Roman,serif" font-size="14.00">Méta</text>
<text text-anchor="middle" x="294" y="-669.8" font-family="Times New Roman,serif" font-size="14.00">3</text>
</g>
<!-- A4_3 -->
<g id="node8" class="node"><title>A4_3</title>
<polygon fill="wheat" stroke="black" points="664,-648 286,-648 286,-612 664,-612 664,-648"/>
<text text-anchor="middle" x="475" y="-626.3" font-family="Times New Roman,serif" font-size="14.00">A4_3 : elle a tué quand même plus de un million de de personnes</text>
<text text-anchor="start" x="278" y="-652.8" font-family="Times New Roman,serif" font-weight="bold" font-style="italic" font-size="14.00" fill="red">1</text>
</g>
<!-- B3&#45;&gt;A4_3 -->
<g id="edge9" class="edge"><title>B3&#45;&gt;A4_3</title>
<path fill="none" stroke="#1f78b4" stroke-width="2" d="M323.074,-711.384C357.88,-692.969 409.426,-665.695 442.618,-648.133"/>
<polygon fill="#1f78b4" stroke="#1f78b4" stroke-width="2" points="322.091,-709.924 318.49,-713.809 323.728,-713.018 322.091,-709.924"/>
<text text-anchor="middle" x="444" y="-684.8" font-family="Times New Roman,serif" font-size="14.00">Elaborations</text>
<text text-anchor="middle" x="444" y="-669.8" font-family="Times New Roman,serif" font-size="14.00">3</text>
</g>
<!-- A4_2&#45;&gt;A4_3 -->
<g id="edge10" class="edge"><title>A4_2&#45;&gt;A4_3</title>
<path fill="none" stroke="#1f78b4" stroke-width="8.66667" d="M586.19,-969.42C556.176,-952.155 521,-923.847 521,-886 521,-886 521,-886 521,-731 521,-699.66 502.122,-667.434 488.553,-648.32"/>
<polygon fill="#1f78b4" stroke="#1f78b4" stroke-width="8.66667" points="584.36,-972.741 590.577,-971.887 588.077,-966.131 584.36,-972.741"/>
<text text-anchor="middle" x="556" y="-837.8" font-family="Times New Roman,serif" font-size="14.00">Elaborations</text>
<text text-anchor="middle" x="556" y="-822.8" font-family="Times New Roman,serif" font-size="14.00">13</text>
</g>
<!-- B5 -->
<g id="node9" class="node"><title>B5</title>
<polygon fill="skyblue" stroke="black" points="665.5,-546 576.5,-546 576.5,-510 665.5,-510 665.5,-546"/>
<text text-anchor="middle" x="621" y="-524.3" font-family="Times New Roman,serif" font-size="14.00">B5 : Qui ça ?</text>
</g>
<!-- A4_2&#45;&gt;B5 -->
<g id="edge20" class="edge"><title>A4_2&#45;&gt;B5</title>
<path fill="none" stroke="#33a02c" stroke-width="2" d="M650.812,-967.968C669.196,-948.636 692,-918.171 692,-886 692,-886 692,-886 692,-629 692,-594.933 664.266,-564.387 643.465,-546.269"/>
<polygon fill="#33a02c" stroke="#33a02c" stroke-width="2" points="649.431,-966.877 647.202,-971.683 651.942,-969.316 649.431,-966.877"/>
<text text-anchor="middle" x="717.5" y="-786.8" font-family="Times New Roman,serif" font-size="14.00">Question</text>
<text text-anchor="middle" x="717.5" y="-771.8" font-family="Times New Roman,serif" font-size="14.00">3</text>
</g>
<!-- A4_3&#45;&gt;B5 -->
<g id="edge21" class="edge"><title>A4_3&#45;&gt;B5</title>
<path fill="none" stroke="#33a02c" stroke-width="8.66667" d="M504.287,-608.94C531.076,-590.592 570.298,-563.727 595.741,-546.301"/>
<polygon fill="#33a02c" stroke="#33a02c" stroke-width="8.66667" points="502.081,-605.856 500.098,-611.809 506.366,-612.112 502.081,-605.856"/>
<text text-anchor="middle" x="595.5" y="-582.8" font-family="Times New Roman,serif" font-size="14.00">Question</text>
<text text-anchor="middle" x="595.5" y="-567.8" font-family="Times New Roman,serif" font-size="14.00">13</text>
</g>
<!-- A6 -->
<g id="node10" class="node"><title>A6</title>
<polygon fill="wheat" stroke="black" points="676,-444 566,-444 566,-408 676,-408 676,-444"/>
<text text-anchor="middle" x="621" y="-422.3" font-family="Times New Roman,serif" font-size="14.00">A6 : Florence R.</text>
</g>
<!-- B5&#45;&gt;A6 -->
<g id="edge11" class="edge"><title>B5&#45;&gt;A6</title>
<path fill="none" stroke="#1f78b4" stroke-width="10" d="M621,-504.163C621,-485.932 621,-460.784 621,-444.219"/>
<polygon fill="#1f78b4" stroke="#1f78b4" stroke-width="10" points="616.625,-504.581 621,-509.581 625.375,-504.581 616.625,-504.581"/>
<text text-anchor="middle" x="656" y="-480.8" font-family="Times New Roman,serif" font-size="14.00">Elaborations</text>
<text text-anchor="middle" x="656" y="-465.8" font-family="Times New Roman,serif" font-size="14.00">15</text>
</g>
<!-- B7 -->
<g id="node11" class="node"><title>B7</title>
<polygon fill="skyblue" stroke="black" points="617.5,-342 438.5,-342 438.5,-306 617.5,-306 617.5,-342"/>
<text text-anchor="middle" x="528" y="-320.3" font-family="Times New Roman,serif" font-size="14.00">B7 : C&#39;est qui cette dame là ?</text>
</g>
<!-- A6&#45;&gt;B7 -->
<g id="edge22" class="edge"><title>A6&#45;&gt;B7</title>
<path fill="none" stroke="#33a02c" stroke-width="10" d="M601.064,-403.563C584.022,-385.239 559.818,-359.213 544.014,-342.219"/>
<polygon fill="#33a02c" stroke="#33a02c" stroke-width="10" points="598.192,-406.899 604.801,-407.581 604.599,-400.94 598.192,-406.899"/>
<text text-anchor="middle" x="613.5" y="-378.8" font-family="Times New Roman,serif" font-size="14.00">Question</text>
<text text-anchor="middle" x="613.5" y="-363.8" font-family="Times New Roman,serif" font-size="14.00">15</text>
</g>
<!-- A8_1 -->
<g id="node12" class="node"><title>A8_1</title>
<polygon fill="wheat" stroke="black" points="720,-240 482,-240 482,-204 720,-204 720,-240"/>
<text text-anchor="middle" x="601" y="-218.3" font-family="Times New Roman,serif" font-size="14.00">A8_1 : Elle était psychiatre 40 rue de N.</text>
<text text-anchor="start" x="474" y="-244.8" font-family="Times New Roman,serif" font-weight="bold" font-style="italic" font-size="14.00" fill="red">4</text>
</g>
<!-- A6&#45;&gt;A8_1 -->
<g id="edge12" class="edge"><title>A6&#45;&gt;A8_1</title>
<path fill="none" stroke="#1f78b4" stroke-width="2" d="M634.86,-403.386C636.984,-399.103 638.85,-394.528 640,-390 654.439,-333.138 663.906,-311.575 640,-258 636.96,-251.187 631.866,-245.148 626.346,-240.086"/>
<polygon fill="#1f78b4" stroke="#1f78b4" stroke-width="2" points="633.262,-402.664 632.475,-407.902 636.357,-404.298 633.262,-402.664"/>
<text text-anchor="middle" x="689" y="-327.8" font-family="Times New Roman,serif" font-size="14.00">Elaborations</text>
<text text-anchor="middle" x="689" y="-312.8" font-family="Times New Roman,serif" font-size="14.00">3</text>
</g>
<!-- B7&#45;&gt;A8_1 -->
<g id="edge13" class="edge"><title>B7&#45;&gt;A8_1</title>
<path fill="none" stroke="#1f78b4" stroke-width="8.66667" d="M540.828,-301.382C548.769,-288.465 559.437,-271.916 570,-258 574.613,-251.922 580.018,-245.589 585.012,-240.007"/>
<polygon fill="#1f78b4" stroke="#1f78b4" stroke-width="8.66667" points="537.399,-299.721 538.03,-305.965 543.872,-303.672 537.399,-299.721"/>
<text text-anchor="middle" x="605" y="-276.8" font-family="Times New Roman,serif" font-size="14.00">Elaborations</text>
<text text-anchor="middle" x="605" y="-261.8" font-family="Times New Roman,serif" font-size="14.00">13</text>
</g>
<!-- A8_2 -->
<g id="node13" class="node"><title>A8_2</title>
<polygon fill="wheat" stroke="black" points="806,-138 396,-138 396,-102 806,-102 806,-138"/>
<text text-anchor="middle" x="601" y="-116.3" font-family="Times New Roman,serif" font-size="14.00">A8_2 : j&#39;y allais une fois par semaine ou deux fois tous les quinze jours</text>
</g>
<!-- A8_1&#45;&gt;A8_2 -->
<g id="edge4" class="edge"><title>A8_1&#45;&gt;A8_2</title>
<path fill="none" stroke="#a6cee3" stroke-width="3.33333" d="M574.344,-200.203C570.539,-195.942 567.182,-191.164 565,-186 559.811,-173.718 559.811,-168.282 565,-156 567.85,-149.255 572.705,-143.168 577.943,-138.034"/>
<polygon fill="#a6cee3" stroke="#a6cee3" stroke-width="3.33333" points="573.223,-201.562 577.943,-203.966 575.752,-199.143 573.223,-201.562"/>
<text text-anchor="middle" x="591" y="-174.8" font-family="Times New Roman,serif" font-size="14.00">Narration</text>
<text text-anchor="middle" x="591" y="-159.8" font-family="Times New Roman,serif" font-size="14.00">5</text>
</g>
<!-- A8_1&#45;&gt;A8_2 -->
<g id="edge14" class="edge"><title>A8_1&#45;&gt;A8_2</title>
<path fill="none" stroke="#1f78b4" stroke-width="6" d="M612.798,-198.923C614.538,-194.739 616.06,-190.317 617,-186 619.837,-172.972 619.837,-169.028 617,-156 615.692,-149.994 613.258,-143.785 610.676,-138.294"/>
<polygon fill="#1f78b4" stroke="#1f78b4" stroke-width="6" points="610.304,-198.071 610.676,-203.706 615.103,-200.2 610.304,-198.071"/>
<text text-anchor="middle" x="654" y="-174.8" font-family="Times New Roman,serif" font-size="14.00">Elaborations</text>
<text text-anchor="middle" x="654" y="-159.8" font-family="Times New Roman,serif" font-size="14.00">9</text>
</g>
<!-- A8_3 -->
<g id="node14" class="node"><title>A8_3</title>
<polygon fill="wheat" stroke="black" points="723,-36 479,-36 479,-0 723,-0 723,-36"/>
<text text-anchor="middle" x="601" y="-14.3" font-family="Times New Roman,serif" font-size="14.00">A8_3 : elle aurait pu me tuer mais enfin...</text>
</g>
<!-- A8_2&#45;&gt;A8_3 -->
<g id="edge15" class="edge"><title>A8_2&#45;&gt;A8_3</title>
<path fill="none" stroke="#1f78b4" stroke-width="3.33333" d="M601,-96.1628C601,-77.9321 601,-52.7841 601,-36.2191"/>
<polygon fill="#1f78b4" stroke="#1f78b4" stroke-width="3.33333" points="599.25,-96.5813 601,-101.581 602.75,-96.5814 599.25,-96.5813"/>
<text text-anchor="middle" x="636" y="-72.8" font-family="Times New Roman,serif" font-size="14.00">Elaborations</text>
<text text-anchor="middle" x="636" y="-57.8" font-family="Times New Roman,serif" font-size="14.00">5</text>
</g>
</g>
</svg>
