<?xml version="1.0" encoding="UTF-8" standalone="no"?>
<!DOCTYPE svg PUBLIC "-//W3C//DTD SVG 1.1//EN"
 "http://www.w3.org/Graphics/SVG/1.1/DTD/svg11.dtd">
<!-- Generated by graphviz version 2.38.0 (20140413.2041)
 -->
<!-- Title: Florence Pages: 1 -->
<svg width="1046pt" height="1028pt"
 viewBox="0.00 0.00 1046.00 1028.00" xmlns="http://www.w3.org/2000/svg" xmlns:xlink="http://www.w3.org/1999/xlink">
<g id="graph0" class="graph" transform="scale(1 1) rotate(0) translate(4 1024)">
<title>Florence</title>
<polygon fill="white" stroke="none" points="-4,4 -4,-1024 1042,-1024 1042,4 -4,4"/>
<text text-anchor="start" x="20" y="-1001" font-family="Times New Roman,serif" font-size="20.00">Florence</text>
<text text-anchor="start" x="8" y="-984.2" font-family="Times New Roman,serif" font-size="16.00">17 annotations </text>
<text text-anchor="start" x="17" y="-968.2" font-family="Times New Roman,serif" font-size="16.00"> seuil = 0.15</text>
<!-- début -->
<g id="node1" class="node"><title>début</title>
<polygon fill="lightgrey" stroke="black" points="703.5,-960 620.5,-960 620.5,-924 703.5,-924 703.5,-960"/>
<text text-anchor="middle" x="662" y="-938.3" font-family="Times New Roman,serif" font-size="14.00">début : ébut</text>
</g>
<!-- B1_1 -->
<g id="node2" class="node"><title>B1_1</title>
<polygon fill="skyblue" stroke="black" points="416,-858 16,-858 16,-822 416,-822 416,-858"/>
<text text-anchor="middle" x="216" y="-836.3" font-family="Times New Roman,serif" font-size="14.00">B1_1 : J&#39;aimerais savoir ce que font les personnes qui sont à l&#39;hôpital</text>
<text text-anchor="start" x="0" y="-862.8" font-family="Times New Roman,serif" font-weight="bold" font-style="italic" font-size="14.00" fill="red">16</text>
</g>
<!-- début&#45;&gt;B1_1 -->
<g id="edge1" class="edge"><title>début&#45;&gt;B1_1</title>
<path fill="none" stroke="#a6cee3" stroke-width="8.66667" d="M615.498,-930.574C538.72,-913.359 384.729,-878.832 291.968,-858.033"/>
<polygon fill="#a6cee3" stroke="#a6cee3" stroke-width="8.66667" points="614.733,-934.288 620.442,-931.682 616.393,-926.888 614.733,-934.288"/>
<text text-anchor="middle" x="532" y="-894.8" font-family="Times New Roman,serif" font-size="14.00">Narration</text>
<text text-anchor="middle" x="532" y="-879.8" font-family="Times New Roman,serif" font-size="14.00">13</text>
</g>
<!-- A2 -->
<g id="node4" class="node"><title>A2</title>
<polygon fill="wheat" stroke="black" points="691.5,-858 434.5,-858 434.5,-822 691.5,-822 691.5,-858"/>
<text text-anchor="middle" x="563" y="-836.3" font-family="Times New Roman,serif" font-size="14.00">A2 : Je suis très amoureuse de Florence M.</text>
<text text-anchor="start" x="418.5" y="-862.8" font-family="Times New Roman,serif" font-weight="bold" font-style="italic" font-size="14.00" fill="red">11</text>
</g>
<!-- début&#45;&gt;A2 -->
<g id="edge2" class="edge"><title>début&#45;&gt;A2</title>
<path fill="none" stroke="#a6cee3" stroke-width="5.33333" d="M641.233,-920.023C623.07,-901.677 597.012,-875.355 580.047,-858.219"/>
<polygon fill="#a6cee3" stroke="#a6cee3" stroke-width="5.33333" points="639.58,-921.67 644.756,-923.581 642.896,-918.386 639.58,-921.67"/>
<text text-anchor="middle" x="654" y="-894.8" font-family="Times New Roman,serif" font-size="14.00">Narration</text>
<text text-anchor="middle" x="654" y="-879.8" font-family="Times New Roman,serif" font-size="14.00">8</text>
</g>
<!-- A4_2 -->
<g id="node7" class="node"><title>A4_2</title>
<polygon fill="wheat" stroke="black" points="908.5,-804 655.5,-804 655.5,-768 908.5,-768 908.5,-804"/>
<text text-anchor="middle" x="782" y="-782.3" font-family="Times New Roman,serif" font-size="14.00">A4_2 : comment elle s&#39;appelle Florence R.</text>
<text text-anchor="start" x="647.5" y="-808.8" font-family="Times New Roman,serif" font-weight="bold" font-style="italic" font-size="14.00" fill="red">3</text>
</g>
<!-- début&#45;&gt;A4_2 -->
<g id="edge3" class="edge"><title>début&#45;&gt;A4_2</title>
<path fill="none" stroke="#a6cee3" stroke-width="2.66667" d="M678.404,-919.949C702.376,-889.184 746.525,-832.526 768.64,-804.146"/>
<polygon fill="#a6cee3" stroke="#a6cee3" stroke-width="2.66667" points="676.993,-918.911 675.301,-923.931 679.754,-921.063 676.993,-918.911"/>
<text text-anchor="middle" x="738" y="-894.8" font-family="Times New Roman,serif" font-size="14.00">Narration</text>
<text text-anchor="middle" x="738" y="-879.8" font-family="Times New Roman,serif" font-size="14.00">4</text>
</g>
<!-- début&#45;&gt;A4_2 -->
<g id="edge17" class="edge"><title>début&#45;&gt;A4_2</title>
<path fill="none" stroke="#6a3d9a" stroke-width="2.66667" d="M708.573,-936.903C729.875,-932.543 753.536,-923.723 768,-906 791.807,-876.83 788.948,-829.421 785.229,-804.146"/>
<polygon fill="#6a3d9a" stroke="#6a3d9a" stroke-width="2.66667" points="708.086,-935.214 703.501,-937.867 708.74,-938.652 708.086,-935.214"/>
<text text-anchor="middle" x="807.5" y="-894.8" font-family="Times New Roman,serif" font-size="14.00">Question</text>
<text text-anchor="middle" x="807.5" y="-879.8" font-family="Times New Roman,serif" font-size="14.00">4</text>
</g>
<!-- B1_2 -->
<g id="node3" class="node"><title>B1_2</title>
<polygon fill="skyblue" stroke="black" points="308.5,-750 11.5,-750 11.5,-714 308.5,-714 308.5,-750"/>
<text text-anchor="middle" x="160" y="-728.3" font-family="Times New Roman,serif" font-size="14.00">B1_2 : ce que vous faites la journée par exemple...</text>
<text text-anchor="start" x="3.5" y="-754.8" font-family="Times New Roman,serif" font-weight="bold" font-style="italic" font-size="14.00" fill="red">1</text>
</g>
<!-- B1_1&#45;&gt;B1_2 -->
<g id="edge7" class="edge"><title>B1_1&#45;&gt;B1_2</title>
<path fill="none" stroke="#b2df8a" stroke-width="4" d="M155.473,-818.906C149.783,-814.807 144.752,-809.891 141,-804 130.513,-787.533 139.348,-765.388 148.155,-750.235"/>
<polygon fill="#b2df8a" stroke="#b2df8a" stroke-width="4" points="154.81,-820.567 159.941,-821.883 156.751,-817.654 154.81,-820.567"/>
<text text-anchor="middle" x="205.5" y="-789.8" font-family="Times New Roman,serif" font-size="14.00">Elaboration descriptive</text>
<text text-anchor="middle" x="205.5" y="-774.8" font-family="Times New Roman,serif" font-size="14.00">6</text>
</g>
<!-- B1_1&#45;&gt;B1_2 -->
<g id="edge18" class="edge"><title>B1_1&#45;&gt;B1_2</title>
<path fill="none" stroke="#6a3d9a" stroke-width="4" d="M257.342,-818.83C262.415,-814.632 266.896,-809.71 270,-804 277.641,-789.942 279.444,-780.915 270,-768 264.618,-760.639 257.674,-754.79 249.894,-750.146"/>
<polygon fill="#6a3d9a" stroke="#6a3d9a" stroke-width="4" points="256.252,-817.461 253.361,-821.9 258.389,-820.233 256.252,-817.461"/>
<text text-anchor="middle" x="302.5" y="-789.8" font-family="Times New Roman,serif" font-size="14.00">Question</text>
<text text-anchor="middle" x="302.5" y="-774.8" font-family="Times New Roman,serif" font-size="14.00">6</text>
</g>
<!-- B3 -->
<g id="node5" class="node"><title>B3</title>
<polygon fill="skyblue" stroke="black" points="576.5,-750 445.5,-750 445.5,-714 576.5,-714 576.5,-750"/>
<text text-anchor="middle" x="511" y="-728.3" font-family="Times New Roman,serif" font-size="14.00">B3 : De Florence M.</text>
</g>
<!-- A2&#45;&gt;B3 -->
<g id="edge14" class="edge"><title>A2&#45;&gt;B3</title>
<path fill="none" stroke="#e31a1c" stroke-width="7.33333" d="M515.457,-818.896C510.098,-814.738 505.365,-809.809 502,-804 492.473,-787.549 497.548,-765.402 503.175,-750.243"/>
<polygon fill="#e31a1c" stroke="#e31a1c" stroke-width="7.33333" points="513.732,-821.608 519.664,-821.927 517.483,-816.401 513.732,-821.608"/>
<text text-anchor="middle" x="528" y="-789.8" font-family="Times New Roman,serif" font-size="14.00">Conduite</text>
<text text-anchor="middle" x="528" y="-774.8" font-family="Times New Roman,serif" font-size="14.00">11</text>
</g>
<!-- A2&#45;&gt;B3 -->
<g id="edge15" class="edge"><title>A2&#45;&gt;B3</title>
<path fill="none" stroke="#fdbf6f" stroke-width="2" d="M564.329,-816.648C564.238,-801.963 562.219,-782.802 554,-768 550.262,-761.268 544.661,-755.325 538.726,-750.336"/>
<polygon fill="#fdbf6f" stroke="#fdbf6f" stroke-width="2" points="562.577,-816.824 564.283,-821.84 566.077,-816.855 562.577,-816.824"/>
<text text-anchor="middle" x="588.5" y="-789.8" font-family="Times New Roman,serif" font-size="14.00">Phatique</text>
<text text-anchor="middle" x="588.5" y="-774.8" font-family="Times New Roman,serif" font-size="14.00">3</text>
</g>
<!-- A4_1 -->
<g id="node6" class="node"><title>A4_1</title>
<polygon fill="wheat" stroke="black" points="461,-648 311,-648 311,-612 461,-612 461,-648"/>
<text text-anchor="middle" x="386" y="-626.3" font-family="Times New Roman,serif" font-size="14.00">A4_1 : Oui superbe la...</text>
<text text-anchor="start" x="303" y="-652.8" font-family="Times New Roman,serif" font-weight="bold" font-style="italic" font-size="14.00" fill="red">7</text>
</g>
<!-- B3&#45;&gt;A4_1 -->
<g id="edge8" class="edge"><title>B3&#45;&gt;A4_1</title>
<path fill="none" stroke="#b2df8a" stroke-width="2" d="M440.118,-724.346C360.607,-716.536 241.767,-703.679 235,-696 207.498,-664.79 260.257,-648.049 310.801,-639.417"/>
<polygon fill="#b2df8a" stroke="#b2df8a" stroke-width="2" points="440.15,-726.108 445.297,-724.853 440.491,-722.624 440.15,-726.108"/>
<text text-anchor="middle" x="299.5" y="-684.8" font-family="Times New Roman,serif" font-size="14.00">Elaboration descriptive</text>
<text text-anchor="middle" x="299.5" y="-669.8" font-family="Times New Roman,serif" font-size="14.00">3</text>
</g>
<!-- B3&#45;&gt;A4_1 -->
<g id="edge13" class="edge"><title>B3&#45;&gt;A4_1</title>
<path fill="none" stroke="#33a02c" stroke-width="4.66667" d="M440.276,-718.631C416.515,-712.942 394.193,-705.353 387,-696 376.611,-682.491 378.13,-662.303 381.124,-648.016"/>
<polygon fill="#33a02c" stroke="#33a02c" stroke-width="4.66667" points="440.03,-720.67 445.363,-719.816 440.957,-716.693 440.03,-720.67"/>
<text text-anchor="middle" x="448" y="-684.8" font-family="Times New Roman,serif" font-size="14.00">Elaboration evaluative</text>
<text text-anchor="middle" x="448" y="-669.8" font-family="Times New Roman,serif" font-size="14.00">7</text>
</g>
<!-- B3&#45;&gt;A4_1 -->
<g id="edge16" class="edge"><title>B3&#45;&gt;A4_1</title>
<path fill="none" stroke="#fdbf6f" stroke-width="2" d="M516.439,-708.699C518.412,-695.002 518.253,-677.87 509,-666 497.261,-650.942 479.528,-642.051 461.153,-636.883"/>
<polygon fill="#fdbf6f" stroke="#fdbf6f" stroke-width="2" points="514.659,-708.73 515.557,-713.951 518.111,-709.31 514.659,-708.73"/>
<text text-anchor="middle" x="542.5" y="-684.8" font-family="Times New Roman,serif" font-size="14.00">Phatique</text>
<text text-anchor="middle" x="542.5" y="-669.8" font-family="Times New Roman,serif" font-size="14.00">3</text>
</g>
<!-- A4_3 -->
<g id="node8" class="node"><title>A4_3</title>
<polygon fill="wheat" stroke="black" points="876,-648 498,-648 498,-612 876,-612 876,-648"/>
<text text-anchor="middle" x="687" y="-626.3" font-family="Times New Roman,serif" font-size="14.00">A4_3 : elle a tué quand même plus de un million de de personnes</text>
<text text-anchor="start" x="490" y="-652.8" font-family="Times New Roman,serif" font-weight="bold" font-style="italic" font-size="14.00" fill="red">1</text>
</g>
<!-- B3&#45;&gt;A4_3 -->
<g id="edge9" class="edge"><title>B3&#45;&gt;A4_3</title>
<path fill="none" stroke="#b2df8a" stroke-width="2" d="M547.602,-711.293C555.518,-706.582 563.698,-701.357 571,-696 586.982,-684.275 587.296,-676.67 604,-666 614.675,-659.181 626.904,-653.173 638.635,-648.146"/>
<polygon fill="#b2df8a" stroke="#b2df8a" stroke-width="2" points="546.665,-709.814 543.239,-713.855 548.437,-712.832 546.665,-709.814"/>
<text text-anchor="middle" x="668.5" y="-684.8" font-family="Times New Roman,serif" font-size="14.00">Elaboration descriptive</text>
<text text-anchor="middle" x="668.5" y="-669.8" font-family="Times New Roman,serif" font-size="14.00">3</text>
</g>
<!-- A4_2&#45;&gt;A4_3 -->
<g id="edge10" class="edge"><title>A4_2&#45;&gt;A4_3</title>
<path fill="none" stroke="#b2df8a" stroke-width="7.33333" d="M768.189,-763.651C765.618,-759.232 763.088,-754.539 761,-750 744.556,-714.247 755.899,-698.004 733,-666 728.212,-659.308 721.771,-653.312 715.229,-648.253"/>
<polygon fill="#b2df8a" stroke="#b2df8a" stroke-width="7.33333" points="765.443,-765.309 770.759,-767.962 770.954,-762.024 765.443,-765.309"/>
<text text-anchor="middle" x="825.5" y="-735.8" font-family="Times New Roman,serif" font-size="14.00">Elaboration descriptive</text>
<text text-anchor="middle" x="825.5" y="-720.8" font-family="Times New Roman,serif" font-size="14.00">11</text>
</g>
<!-- B5 -->
<g id="node9" class="node"><title>B5</title>
<polygon fill="skyblue" stroke="black" points="877.5,-546 788.5,-546 788.5,-510 877.5,-510 877.5,-546"/>
<text text-anchor="middle" x="833" y="-524.3" font-family="Times New Roman,serif" font-size="14.00">B5 : Qui ça ?</text>
</g>
<!-- A4_2&#45;&gt;B5 -->
<g id="edge19" class="edge"><title>A4_2&#45;&gt;B5</title>
<path fill="none" stroke="#6a3d9a" stroke-width="2" d="M874.091,-765.191C880.182,-761.03 885.621,-756.023 890,-750 936.954,-685.425 874.678,-585.586 846.034,-546.004"/>
<polygon fill="#6a3d9a" stroke="#6a3d9a" stroke-width="2" points="873.054,-763.777 869.775,-767.938 874.933,-766.729 873.054,-763.777"/>
<text text-anchor="middle" x="931.5" y="-684.8" font-family="Times New Roman,serif" font-size="14.00">Question</text>
<text text-anchor="middle" x="931.5" y="-669.8" font-family="Times New Roman,serif" font-size="14.00">3</text>
</g>
<!-- A4_3&#45;&gt;B5 -->
<g id="edge20" class="edge"><title>A4_3&#45;&gt;B5</title>
<path fill="none" stroke="#6a3d9a" stroke-width="8.66667" d="M716.287,-608.94C743.076,-590.592 782.298,-563.727 807.741,-546.301"/>
<polygon fill="#6a3d9a" stroke="#6a3d9a" stroke-width="8.66667" points="714.081,-605.856 712.098,-611.809 718.366,-612.112 714.081,-605.856"/>
<text text-anchor="middle" x="806.5" y="-582.8" font-family="Times New Roman,serif" font-size="14.00">Question</text>
<text text-anchor="middle" x="806.5" y="-567.8" font-family="Times New Roman,serif" font-size="14.00">13</text>
</g>
<!-- A6 -->
<g id="node10" class="node"><title>A6</title>
<polygon fill="wheat" stroke="black" points="888,-444 778,-444 778,-408 888,-408 888,-444"/>
<text text-anchor="middle" x="833" y="-422.3" font-family="Times New Roman,serif" font-size="14.00">A6 : Florence R.</text>
</g>
<!-- B5&#45;&gt;A6 -->
<g id="edge5" class="edge"><title>B5&#45;&gt;A6</title>
<path fill="none" stroke="#1f78b4" stroke-width="10" d="M833,-504.163C833,-485.932 833,-460.784 833,-444.219"/>
<polygon fill="#1f78b4" stroke="#1f78b4" stroke-width="10" points="828.625,-504.581 833,-509.581 837.375,-504.581 828.625,-504.581"/>
<text text-anchor="middle" x="858" y="-480.8" font-family="Times New Roman,serif" font-size="14.00">Réponse</text>
<text text-anchor="middle" x="858" y="-465.8" font-family="Times New Roman,serif" font-size="14.00">15</text>
</g>
<!-- B7 -->
<g id="node11" class="node"><title>B7</title>
<polygon fill="skyblue" stroke="black" points="922.5,-342 743.5,-342 743.5,-306 922.5,-306 922.5,-342"/>
<text text-anchor="middle" x="833" y="-320.3" font-family="Times New Roman,serif" font-size="14.00">B7 : C&#39;est qui cette dame là ?</text>
</g>
<!-- A6&#45;&gt;B7 -->
<g id="edge21" class="edge"><title>A6&#45;&gt;B7</title>
<path fill="none" stroke="#6a3d9a" stroke-width="10" d="M833,-402.163C833,-383.932 833,-358.784 833,-342.219"/>
<polygon fill="#6a3d9a" stroke="#6a3d9a" stroke-width="10" points="828.625,-402.581 833,-407.581 837.375,-402.581 828.625,-402.581"/>
<text text-anchor="middle" x="858.5" y="-378.8" font-family="Times New Roman,serif" font-size="14.00">Question</text>
<text text-anchor="middle" x="858.5" y="-363.8" font-family="Times New Roman,serif" font-size="14.00">15</text>
</g>
<!-- A8_1 -->
<g id="node12" class="node"><title>A8_1</title>
<polygon fill="wheat" stroke="black" points="952,-240 714,-240 714,-204 952,-204 952,-240"/>
<text text-anchor="middle" x="833" y="-218.3" font-family="Times New Roman,serif" font-size="14.00">A8_1 : Elle était psychiatre 40 rue de N.</text>
<text text-anchor="start" x="706" y="-244.8" font-family="Times New Roman,serif" font-weight="bold" font-style="italic" font-size="14.00" fill="red">4</text>
</g>
<!-- B7&#45;&gt;A8_1 -->
<g id="edge6" class="edge"><title>B7&#45;&gt;A8_1</title>
<path fill="none" stroke="#1f78b4" stroke-width="8.66667" d="M833,-300.163C833,-281.932 833,-256.784 833,-240.219"/>
<polygon fill="#1f78b4" stroke="#1f78b4" stroke-width="8.66667" points="829.208,-300.581 833,-305.581 836.792,-300.581 829.208,-300.581"/>
<text text-anchor="middle" x="858" y="-276.8" font-family="Times New Roman,serif" font-size="14.00">Réponse</text>
<text text-anchor="middle" x="858" y="-261.8" font-family="Times New Roman,serif" font-size="14.00">13</text>
</g>
<!-- A8_2 -->
<g id="node13" class="node"><title>A8_2</title>
<polygon fill="wheat" stroke="black" points="1038,-138 628,-138 628,-102 1038,-102 1038,-138"/>
<text text-anchor="middle" x="833" y="-116.3" font-family="Times New Roman,serif" font-size="14.00">A8_2 : j&#39;y allais une fois par semaine ou deux fois tous les quinze jours</text>
</g>
<!-- A8_1&#45;&gt;A8_2 -->
<g id="edge4" class="edge"><title>A8_1&#45;&gt;A8_2</title>
<path fill="none" stroke="#a6cee3" stroke-width="3.33333" d="M806.344,-200.203C802.539,-195.942 799.182,-191.164 797,-186 791.811,-173.718 791.811,-168.282 797,-156 799.85,-149.255 804.705,-143.168 809.943,-138.034"/>
<polygon fill="#a6cee3" stroke="#a6cee3" stroke-width="3.33333" points="805.223,-201.562 809.943,-203.966 807.752,-199.143 805.223,-201.562"/>
<text text-anchor="middle" x="823" y="-174.8" font-family="Times New Roman,serif" font-size="14.00">Narration</text>
<text text-anchor="middle" x="823" y="-159.8" font-family="Times New Roman,serif" font-size="14.00">5</text>
</g>
<!-- A8_1&#45;&gt;A8_2 -->
<g id="edge11" class="edge"><title>A8_1&#45;&gt;A8_2</title>
<path fill="none" stroke="#b2df8a" stroke-width="5.33333" d="M844.798,-198.923C846.538,-194.739 848.06,-190.317 849,-186 851.837,-172.972 851.837,-169.028 849,-156 847.692,-149.994 845.258,-143.785 842.676,-138.294"/>
<polygon fill="#b2df8a" stroke="#b2df8a" stroke-width="5.33333" points="842.571,-198.19 842.676,-203.706 846.836,-200.082 842.571,-198.19"/>
<text text-anchor="middle" x="915.5" y="-174.8" font-family="Times New Roman,serif" font-size="14.00">Elaboration descriptive</text>
<text text-anchor="middle" x="915.5" y="-159.8" font-family="Times New Roman,serif" font-size="14.00">8</text>
</g>
<!-- A8_3 -->
<g id="node14" class="node"><title>A8_3</title>
<polygon fill="wheat" stroke="black" points="955,-36 711,-36 711,-0 955,-0 955,-36"/>
<text text-anchor="middle" x="833" y="-14.3" font-family="Times New Roman,serif" font-size="14.00">A8_3 : elle aurait pu me tuer mais enfin...</text>
</g>
<!-- A8_2&#45;&gt;A8_3 -->
<g id="edge12" class="edge"><title>A8_2&#45;&gt;A8_3</title>
<path fill="none" stroke="#b2df8a" stroke-width="3.33333" d="M833,-96.1628C833,-77.9321 833,-52.7841 833,-36.2191"/>
<polygon fill="#b2df8a" stroke="#b2df8a" stroke-width="3.33333" points="831.25,-96.5813 833,-101.581 834.75,-96.5814 831.25,-96.5813"/>
<text text-anchor="middle" x="897.5" y="-72.8" font-family="Times New Roman,serif" font-size="14.00">Elaboration descriptive</text>
<text text-anchor="middle" x="897.5" y="-57.8" font-family="Times New Roman,serif" font-size="14.00">5</text>
</g>
</g>
</svg>
