<?xml version="1.0" encoding="UTF-8" standalone="no"?>
<!DOCTYPE svg PUBLIC "-//W3C//DTD SVG 1.1//EN"
 "http://www.w3.org/Graphics/SVG/1.1/DTD/svg11.dtd">
<!-- Generated by graphviz version 2.38.0 (20140413.2041)
 -->
<!-- Title: Nord Pages: 1 -->
<svg width="997pt" height="1022pt"
 viewBox="0.00 0.00 997.00 1022.00" xmlns="http://www.w3.org/2000/svg" xmlns:xlink="http://www.w3.org/1999/xlink">
<g id="graph0" class="graph" transform="scale(1 1) rotate(0) translate(4 1018)">
<title>Nord</title>
<polygon fill="white" stroke="none" points="-4,4 -4,-1018 993,-1018 993,4 -4,4"/>
<text text-anchor="start" x="35" y="-995" font-family="Times New Roman,serif" font-size="20.00">Nord</text>
<text text-anchor="start" x="8" y="-978.2" font-family="Times New Roman,serif" font-size="16.00">19 annotations </text>
<text text-anchor="start" x="17" y="-962.2" font-family="Times New Roman,serif" font-size="16.00"> seuil = 0.15</text>
<!-- Début -->
<g id="node1" class="node"><title>Début</title>
<polygon fill="lightgrey" stroke="black" points="885.5,-954 790.5,-954 790.5,-918 885.5,-918 885.5,-954"/>
<text text-anchor="middle" x="838" y="-932.3" font-family="Times New Roman,serif" font-size="14.00">Début : Début</text>
</g>
<!-- B20 -->
<g id="node2" class="node"><title>B20</title>
<polygon fill="skyblue" stroke="black" points="780,-852 434,-852 434,-816 780,-816 780,-852"/>
<text text-anchor="middle" x="607" y="-830.3" font-family="Times New Roman,serif" font-size="14.00">B20 : c&#39;était quand même assez stressant euh la / la prépa...</text>
<text text-anchor="start" x="418" y="-856.8" font-family="Times New Roman,serif" font-weight="bold" font-style="italic" font-size="14.00" fill="red">18</text>
</g>
<!-- Début&#45;&gt;B20 -->
<g id="edge1" class="edge"><title>Début&#45;&gt;B20</title>
<path fill="none" stroke="#a6cee3" stroke-width="10" d="M793.718,-915.83C751.069,-897.367 687.17,-869.706 646.285,-852.007"/>
<polygon fill="#a6cee3" stroke="#a6cee3" stroke-width="10" points="792.226,-919.952 798.552,-917.923 795.702,-911.922 792.226,-919.952"/>
<text text-anchor="middle" x="783" y="-888.8" font-family="Times New Roman,serif" font-size="14.00">Narration</text>
<text text-anchor="middle" x="783" y="-873.8" font-family="Times New Roman,serif" font-size="14.00">18</text>
</g>
<!-- B23_3 -->
<g id="node6" class="node"><title>B23_3</title>
<polygon fill="skyblue" stroke="black" points="653.5,-546 448.5,-546 448.5,-510 653.5,-510 653.5,-546"/>
<text text-anchor="middle" x="551" y="-524.3" font-family="Times New Roman,serif" font-size="14.00">B23_3 : je suis revenue à Ville1.. .</text>
<text text-anchor="start" x="440.5" y="-550.8" font-family="Times New Roman,serif" font-weight="bold" font-style="italic" font-size="14.00" fill="red">1</text>
</g>
<!-- Début&#45;&gt;B23_3 -->
<g id="edge2" class="edge"><title>Début&#45;&gt;B23_3</title>
<path fill="none" stroke="#a6cee3" stroke-width="1.66667" d="M877.025,-915.296C904.72,-898.245 937,-870.712 937,-835 937,-835 937,-835 937,-629 937,-570.374 768.031,-545.55 653.681,-535.463"/>
<polygon fill="#a6cee3" stroke="#a6cee3" stroke-width="1.66667" points="876.008,-913.866 872.625,-917.943 877.812,-916.865 876.008,-913.866"/>
<text text-anchor="middle" x="963" y="-735.8" font-family="Times New Roman,serif" font-size="14.00">Narration</text>
<text text-anchor="middle" x="963" y="-720.8" font-family="Times New Roman,serif" font-size="14.00">3</text>
</g>
<!-- A21 -->
<g id="node3" class="node"><title>A21</title>
<polygon fill="wheat" stroke="black" points="840.5,-750 725.5,-750 725.5,-714 840.5,-714 840.5,-750"/>
<text text-anchor="middle" x="783" y="-728.3" font-family="Times New Roman,serif" font-size="14.00">A21 : Mmh mmh.</text>
<text text-anchor="start" x="717.5" y="-754.8" font-family="Times New Roman,serif" font-weight="bold" font-style="italic" font-size="14.00" fill="red">1</text>
</g>
<!-- B20&#45;&gt;A21 -->
<g id="edge22" class="edge"><title>B20&#45;&gt;A21</title>
<path fill="none" stroke="#b2df8a" stroke-width="10" d="M642.099,-813.221C650.887,-808.259 660.292,-802.941 669,-798 697.535,-781.811 730.038,-763.268 753.017,-750.142"/>
<polygon fill="#b2df8a" stroke="#b2df8a" stroke-width="10" points="639.492,-809.668 637.288,-815.936 643.793,-817.288 639.492,-809.668"/>
<text text-anchor="middle" x="734" y="-786.8" font-family="Times New Roman,serif" font-size="14.00">Méta</text>
<text text-anchor="middle" x="734" y="-771.8" font-family="Times New Roman,serif" font-size="14.00">18</text>
</g>
<!-- B23_1 -->
<g id="node4" class="node"><title>B23_1</title>
<polygon fill="skyblue" stroke="black" points="619,-750 83,-750 83,-714 619,-714 619,-750"/>
<text text-anchor="middle" x="351" y="-728.3" font-family="Times New Roman,serif" font-size="14.00">B23_1 : donc euh... donc du coup ouais euh et bon pour euh... en ce qui concerne les études</text>
<text text-anchor="start" x="75" y="-754.8" font-family="Times New Roman,serif" font-weight="bold" font-style="italic" font-size="14.00" fill="red">4</text>
</g>
<!-- B20&#45;&gt;B23_1 -->
<g id="edge3" class="edge"><title>B20&#45;&gt;B23_1</title>
<path fill="none" stroke="#a6cee3" stroke-width="4.44444" d="M533.83,-814.486C517.26,-809.659 499.876,-804.083 484,-798 448.002,-784.207 408.527,-764.262 382.009,-750.109"/>
<polygon fill="#a6cee3" stroke="#a6cee3" stroke-width="4.44444" points="533.6,-816.444 538.943,-815.96 534.677,-812.707 533.6,-816.444"/>
<text text-anchor="middle" x="510" y="-786.8" font-family="Times New Roman,serif" font-size="14.00">Narration</text>
<text text-anchor="middle" x="510" y="-771.8" font-family="Times New Roman,serif" font-size="14.00">8</text>
</g>
<!-- B20&#45;&gt;B23_1 -->
<g id="edge10" class="edge"><title>B20&#45;&gt;B23_1</title>
<path fill="none" stroke="#1f78b4" stroke-width="1.66667" d="M585.495,-812.2C566.798,-794.304 541.814,-770.911 536,-768 521.093,-760.537 504.783,-754.659 488.221,-750.03"/>
<polygon fill="#1f78b4" stroke="#1f78b4" stroke-width="1.66667" points="584.324,-813.501 589.144,-815.699 586.746,-810.975 584.324,-813.501"/>
<text text-anchor="middle" x="605" y="-786.8" font-family="Times New Roman,serif" font-size="14.00">Elaborations</text>
<text text-anchor="middle" x="605" y="-771.8" font-family="Times New Roman,serif" font-size="14.00">3</text>
</g>
<!-- B20&#45;&gt;B23_1 -->
<g id="edge23" class="edge"><title>B20&#45;&gt;B23_1</title>
<path fill="none" stroke="#b2df8a" stroke-width="2.22222" d="M434.35,-814.918C413.195,-810.406 395.643,-804.84 386,-798 369.797,-786.506 360.384,-765.102 355.479,-750.002"/>
<polygon fill="#b2df8a" stroke="#b2df8a" stroke-width="2.22222" points="434.254,-816.685 439.505,-815.982 434.962,-813.257 434.254,-816.685"/>
<text text-anchor="middle" x="400" y="-786.8" font-family="Times New Roman,serif" font-size="14.00">Méta</text>
<text text-anchor="middle" x="400" y="-771.8" font-family="Times New Roman,serif" font-size="14.00">4</text>
</g>
<!-- B23_2 -->
<g id="node5" class="node"><title>B23_2</title>
<polygon fill="skyblue" stroke="black" points="909,-648 379,-648 379,-612 909,-612 909,-648"/>
<text text-anchor="middle" x="644" y="-626.3" font-family="Times New Roman,serif" font-size="14.00">B23_2 : donc du coup après j&#39;ai / j&#39;ai arrêté le / le / le / le / l&#39;école d&#39;ingénieur enfin la prépa...</text>
<text text-anchor="start" x="371" y="-652.8" font-family="Times New Roman,serif" font-weight="bold" font-style="italic" font-size="14.00" fill="red">5</text>
</g>
<!-- B20&#45;&gt;B23_2 -->
<g id="edge4" class="edge"><title>B20&#45;&gt;B23_2</title>
<path fill="none" stroke="#a6cee3" stroke-width="2.22222" d="M632.119,-811.977C635.719,-807.741 638.906,-803.03 641,-798 662.173,-747.135 653.57,-679.782 647.726,-648.434"/>
<polygon fill="#a6cee3" stroke="#a6cee3" stroke-width="2.22222" points="630.779,-810.849 628.717,-815.729 633.372,-813.201 630.779,-810.849"/>
<text text-anchor="middle" x="681" y="-735.8" font-family="Times New Roman,serif" font-size="14.00">Narration</text>
<text text-anchor="middle" x="681" y="-720.8" font-family="Times New Roman,serif" font-size="14.00">4</text>
</g>
<!-- B23_1&#45;&gt;B23_2 -->
<g id="edge11" class="edge"><title>B23_1&#45;&gt;B23_2</title>
<path fill="none" stroke="#1f78b4" stroke-width="6.66667" d="M405.855,-712.278C459.946,-693.817 541.892,-665.849 594.171,-648.007"/>
<polygon fill="#1f78b4" stroke="#1f78b4" stroke-width="6.66667" points="404.825,-709.548 401.036,-713.923 406.71,-715.068 404.825,-709.548"/>
<text text-anchor="middle" x="576" y="-684.8" font-family="Times New Roman,serif" font-size="14.00">Elaborations</text>
<text text-anchor="middle" x="576" y="-669.8" font-family="Times New Roman,serif" font-size="14.00">12</text>
</g>
<!-- B23_1&#45;&gt;B23_3 -->
<g id="edge12" class="edge"><title>B23_1&#45;&gt;B23_3</title>
<path fill="none" stroke="#1f78b4" stroke-width="1.66667" d="M333.239,-709.613C321.25,-693.72 306.476,-670.909 300,-648 289.256,-609.994 296.222,-586.034 329,-564 348.753,-550.722 400.097,-542.15 448.437,-536.815"/>
<polygon fill="#1f78b4" stroke="#1f78b4" stroke-width="1.66667" points="332.103,-711.008 336.537,-713.907 334.879,-708.876 332.103,-711.008"/>
<text text-anchor="middle" x="335" y="-633.8" font-family="Times New Roman,serif" font-size="14.00">Elaborations</text>
<text text-anchor="middle" x="335" y="-618.8" font-family="Times New Roman,serif" font-size="14.00">3</text>
</g>
<!-- B25 -->
<g id="node8" class="node"><title>B25</title>
<polygon fill="skyblue" stroke="black" points="609,-444 149,-444 149,-408 609,-408 609,-444"/>
<text text-anchor="middle" x="379" y="-422.3" font-family="Times New Roman,serif" font-size="14.00">B25 : j&#39;ai fait euh une / une / une fac de / de maths... je suis allé en fac de maths.</text>
<text text-anchor="start" x="141" y="-448.8" font-family="Times New Roman,serif" font-weight="bold" font-style="italic" font-size="14.00" fill="red">6</text>
</g>
<!-- B23_1&#45;&gt;B25 -->
<g id="edge13" class="edge"><title>B23_1&#45;&gt;B25</title>
<path fill="none" stroke="#1f78b4" stroke-width="1.66667" d="M353.044,-708.805C358.385,-650.821 372.671,-495.715 377.432,-444.027"/>
<polygon fill="#1f78b4" stroke="#1f78b4" stroke-width="1.66667" points="351.302,-708.645 352.586,-713.785 354.787,-708.966 351.302,-708.645"/>
<text text-anchor="middle" x="402" y="-582.8" font-family="Times New Roman,serif" font-size="14.00">Elaborations</text>
<text text-anchor="middle" x="402" y="-567.8" font-family="Times New Roman,serif" font-size="14.00">3</text>
</g>
<!-- B23_2&#45;&gt;B23_3 -->
<g id="edge5" class="edge"><title>B23_2&#45;&gt;B23_3</title>
<path fill="none" stroke="#a6cee3" stroke-width="3.88889" d="M640.896,-606.75C637.998,-593.074 632.467,-575.944 622,-564 615.66,-556.765 607.478,-550.87 598.937,-546.123"/>
<polygon fill="#a6cee3" stroke="#a6cee3" stroke-width="3.88889" points="639.244,-607.42 641.917,-611.994 642.679,-606.751 639.244,-607.42"/>
<text text-anchor="middle" x="664" y="-582.8" font-family="Times New Roman,serif" font-size="14.00">Narration</text>
<text text-anchor="middle" x="664" y="-567.8" font-family="Times New Roman,serif" font-size="14.00">7</text>
</g>
<!-- B23_2&#45;&gt;B23_3 -->
<g id="edge14" class="edge"><title>B23_2&#45;&gt;B23_3</title>
<path fill="none" stroke="#1f78b4" stroke-width="2.77778" d="M563.614,-609.146C557.58,-605.013 552.215,-600.023 548,-594 538.284,-580.117 540.984,-560.187 544.886,-546.063"/>
<polygon fill="#1f78b4" stroke="#1f78b4" stroke-width="2.77778" points="562.734,-610.661 567.891,-611.874 564.616,-607.71 562.734,-610.661"/>
<text text-anchor="middle" x="583" y="-582.8" font-family="Times New Roman,serif" font-size="14.00">Elaborations</text>
<text text-anchor="middle" x="583" y="-567.8" font-family="Times New Roman,serif" font-size="14.00">5</text>
</g>
<!-- A24 -->
<g id="node7" class="node"><title>A24</title>
<polygon fill="wheat" stroke="black" points="742.5,-444 627.5,-444 627.5,-408 742.5,-408 742.5,-444"/>
<text text-anchor="middle" x="685" y="-422.3" font-family="Times New Roman,serif" font-size="14.00">A24 : Mmh mmh.</text>
</g>
<!-- B23_3&#45;&gt;A24 -->
<g id="edge24" class="edge"><title>B23_3&#45;&gt;A24</title>
<path fill="none" stroke="#b2df8a" stroke-width="10" d="M578.184,-506.713C602.763,-488.371 638.562,-461.655 661.817,-444.301"/>
<polygon fill="#b2df8a" stroke="#b2df8a" stroke-width="10" points="575.426,-503.313 574.035,-509.809 580.659,-510.325 575.426,-503.313"/>
<text text-anchor="middle" x="652" y="-480.8" font-family="Times New Roman,serif" font-size="14.00">Méta</text>
<text text-anchor="middle" x="652" y="-465.8" font-family="Times New Roman,serif" font-size="14.00">18</text>
</g>
<!-- B23_3&#45;&gt;B25 -->
<g id="edge6" class="edge"><title>B23_3&#45;&gt;B25</title>
<path fill="none" stroke="#a6cee3" stroke-width="2.22222" d="M462.838,-508.146C451.631,-503.808 440.704,-498.496 431,-492 412.626,-479.7 397.641,-458.885 388.557,-444.126"/>
<polygon fill="#a6cee3" stroke="#a6cee3" stroke-width="2.22222" points="462.359,-509.836 467.655,-509.947 463.584,-506.557 462.359,-509.836"/>
<text text-anchor="middle" x="457" y="-480.8" font-family="Times New Roman,serif" font-size="14.00">Narration</text>
<text text-anchor="middle" x="457" y="-465.8" font-family="Times New Roman,serif" font-size="14.00">4</text>
</g>
<!-- B23_3&#45;&gt;B25 -->
<g id="edge15" class="edge"><title>B23_3&#45;&gt;B25</title>
<path fill="none" stroke="#1f78b4" stroke-width="3.88889" d="M533.528,-506.019C520.788,-491.881 502.418,-473.739 483,-462 471.099,-454.805 457.528,-448.868 444.208,-444.056"/>
<polygon fill="#1f78b4" stroke="#1f78b4" stroke-width="3.88889" points="532.34,-507.316 536.969,-509.892 534.956,-504.992 532.34,-507.316"/>
<text text-anchor="middle" x="554" y="-480.8" font-family="Times New Roman,serif" font-size="14.00">Elaborations</text>
<text text-anchor="middle" x="554" y="-465.8" font-family="Times New Roman,serif" font-size="14.00">7</text>
</g>
<!-- A26 -->
<g id="node9" class="node"><title>A26</title>
<polygon fill="wheat" stroke="black" points="86,-342 0,-342 0,-306 86,-306 86,-342"/>
<text text-anchor="middle" x="43" y="-320.3" font-family="Times New Roman,serif" font-size="14.00">A26 : Ouais.</text>
</g>
<!-- B25&#45;&gt;A26 -->
<g id="edge25" class="edge"><title>B25&#45;&gt;A26</title>
<path fill="none" stroke="#b2df8a" stroke-width="10" d="M313.579,-406.516C255.903,-390.069 169.666,-365.109 95,-342 92.0965,-341.101 89.1064,-340.162 86.0967,-339.205"/>
<polygon fill="#b2df8a" stroke="#b2df8a" stroke-width="10" points="312.714,-410.819 318.722,-407.982 315.113,-402.404 312.714,-410.819"/>
<text text-anchor="middle" x="264" y="-378.8" font-family="Times New Roman,serif" font-size="14.00">Méta</text>
<text text-anchor="middle" x="264" y="-363.8" font-family="Times New Roman,serif" font-size="14.00">18</text>
</g>
<!-- B27_1 -->
<g id="node10" class="node"><title>B27_1</title>
<polygon fill="skyblue" stroke="black" points="655.5,-342 104.5,-342 104.5,-306 655.5,-306 655.5,-342"/>
<text text-anchor="middle" x="380" y="-320.3" font-family="Times New Roman,serif" font-size="14.00">B27_1 : Euhh et là pareil je / j&#39;étais pas j&#39;avais un / un appart en colocation euh avec deux amis...</text>
<text text-anchor="start" x="88.5" y="-346.8" font-family="Times New Roman,serif" font-weight="bold" font-style="italic" font-size="14.00" fill="red">10</text>
</g>
<!-- B25&#45;&gt;B27_1 -->
<g id="edge7" class="edge"><title>B25&#45;&gt;B27_1</title>
<path fill="none" stroke="#a6cee3" stroke-width="2.77778" d="M352.344,-404.203C348.539,-399.942 345.182,-395.164 343,-390 337.811,-377.718 337.727,-372.246 343,-360 345.867,-353.34 350.694,-347.356 355.931,-342.298"/>
<polygon fill="#a6cee3" stroke="#a6cee3" stroke-width="2.77778" points="351.223,-405.562 355.943,-407.966 353.752,-403.143 351.223,-405.562"/>
<text text-anchor="middle" x="369" y="-378.8" font-family="Times New Roman,serif" font-size="14.00">Narration</text>
<text text-anchor="middle" x="369" y="-363.8" font-family="Times New Roman,serif" font-size="14.00">5</text>
</g>
<!-- B25&#45;&gt;B27_1 -->
<g id="edge16" class="edge"><title>B25&#45;&gt;B27_1</title>
<path fill="none" stroke="#1f78b4" stroke-width="4.44444" d="M390.798,-402.923C392.538,-398.739 394.06,-394.317 395,-390 397.837,-376.972 397.681,-373.061 395,-360 393.777,-354.042 391.496,-347.846 389.075,-342.353"/>
<polygon fill="#1f78b4" stroke="#1f78b4" stroke-width="4.44444" points="388.926,-402.347 388.676,-407.706 392.481,-403.924 388.926,-402.347"/>
<text text-anchor="middle" x="433" y="-378.8" font-family="Times New Roman,serif" font-size="14.00">Elaborations</text>
<text text-anchor="middle" x="433" y="-363.8" font-family="Times New Roman,serif" font-size="14.00">8</text>
</g>
<!-- B27_2 -->
<g id="node11" class="node"><title>B27_2</title>
<polygon fill="skyblue" stroke="black" points="622.5,-240 323.5,-240 323.5,-204 622.5,-204 622.5,-240"/>
<text text-anchor="middle" x="473" y="-218.3" font-family="Times New Roman,serif" font-size="14.00">B27_2 : euh et / et donc euh j&#39;ai / j&#39;ai échoué en fait</text>
<text text-anchor="start" x="315.5" y="-244.8" font-family="Times New Roman,serif" font-weight="bold" font-style="italic" font-size="14.00" fill="red">3</text>
</g>
<!-- B25&#45;&gt;B27_2 -->
<g id="edge17" class="edge"><title>B25&#45;&gt;B27_2</title>
<path fill="none" stroke="#1f78b4" stroke-width="4.44444" d="M488.719,-406.986C559.561,-392.862 642.404,-370.783 664,-342 701.165,-292.468 619.092,-258.654 551.185,-240.081"/>
<polygon fill="#1f78b4" stroke="#1f78b4" stroke-width="4.44444" points="488.168,-405.113 483.64,-407.989 488.922,-408.928 488.168,-405.113"/>
<text text-anchor="middle" x="709" y="-327.8" font-family="Times New Roman,serif" font-size="14.00">Elaborations</text>
<text text-anchor="middle" x="709" y="-312.8" font-family="Times New Roman,serif" font-size="14.00">8</text>
</g>
<!-- B27_1&#45;&gt;B27_2 -->
<g id="edge8" class="edge"><title>B27_1&#45;&gt;B27_2</title>
<path fill="none" stroke="#a6cee3" stroke-width="2.22222" d="M432.302,-303.327C439.236,-299.064 445.75,-293.991 451,-288 462.856,-274.47 468.38,-254.287 470.917,-240.006"/>
<polygon fill="#a6cee3" stroke="#a6cee3" stroke-width="2.22222" points="431.371,-301.844 427.937,-305.877 433.137,-304.866 431.371,-301.844"/>
<text text-anchor="middle" x="493" y="-276.8" font-family="Times New Roman,serif" font-size="14.00">Narration</text>
<text text-anchor="middle" x="493" y="-261.8" font-family="Times New Roman,serif" font-size="14.00">4</text>
</g>
<!-- B27_1&#45;&gt;B27_2 -->
<g id="edge18" class="edge"><title>B27_1&#45;&gt;B27_2</title>
<path fill="none" stroke="#1f78b4" stroke-width="2.77778" d="M372.582,-300.752C369.522,-287.225 368.423,-270.256 377,-258 382.187,-250.587 389.118,-244.739 396.891,-240.126"/>
<polygon fill="#1f78b4" stroke="#1f78b4" stroke-width="2.77778" points="370.969,-301.515 373.886,-305.937 374.363,-300.661 370.969,-301.515"/>
<text text-anchor="middle" x="412" y="-276.8" font-family="Times New Roman,serif" font-size="14.00">Elaborations</text>
<text text-anchor="middle" x="412" y="-261.8" font-family="Times New Roman,serif" font-size="14.00">5</text>
</g>
<!-- B27_3 -->
<g id="node12" class="node"><title>B27_3</title>
<polygon fill="skyblue" stroke="black" points="492,-138 130,-138 130,-102 492,-102 492,-138"/>
<text text-anchor="middle" x="311" y="-116.3" font-family="Times New Roman,serif" font-size="14.00">B27_3 : euh... j&#39;ai pas tout échoué j&#39;ai validé certaines matières</text>
<text text-anchor="start" x="122" y="-142.8" font-family="Times New Roman,serif" font-weight="bold" font-style="italic" font-size="14.00" fill="red">1</text>
</g>
<!-- B27_2&#45;&gt;B27_3 -->
<g id="edge19" class="edge"><title>B27_2&#45;&gt;B27_3</title>
<path fill="none" stroke="#1f78b4" stroke-width="8.88889" d="M440.856,-201.158C411.029,-182.746 367.09,-155.623 338.756,-138.133"/>
<polygon fill="#1f78b4" stroke="#1f78b4" stroke-width="8.88889" points="438.854,-204.492 445.151,-203.809 442.939,-197.874 438.854,-204.492"/>
<text text-anchor="middle" x="451" y="-174.8" font-family="Times New Roman,serif" font-size="14.00">Elaborations</text>
<text text-anchor="middle" x="451" y="-159.8" font-family="Times New Roman,serif" font-size="14.00">16</text>
</g>
<!-- B27_4 -->
<g id="node13" class="node"><title>B27_4</title>
<polygon fill="skyblue" stroke="black" points="527,-36 281,-36 281,-0 527,-0 527,-36"/>
<text text-anchor="middle" x="404" y="-14.3" font-family="Times New Roman,serif" font-size="14.00">B27_4 : mais euh... j&#39;étais pas en forme...</text>
<text text-anchor="start" x="273" y="-40.8" font-family="Times New Roman,serif" font-weight="bold" font-style="italic" font-size="14.00" fill="red">1</text>
</g>
<!-- B27_2&#45;&gt;B27_4 -->
<g id="edge20" class="edge"><title>B27_2&#45;&gt;B27_4</title>
<path fill="none" stroke="#1f78b4" stroke-width="1.66667" d="M485.899,-199.285C498.598,-174.942 514.306,-134.608 501,-102 489.025,-72.6549 460.162,-50.1955 437.014,-36.0857"/>
<polygon fill="#1f78b4" stroke="#1f78b4" stroke-width="1.66667" points="484.227,-198.7 483.408,-203.934 487.312,-200.353 484.227,-198.7"/>
<text text-anchor="middle" x="542" y="-123.8" font-family="Times New Roman,serif" font-size="14.00">Elaborations</text>
<text text-anchor="middle" x="542" y="-108.8" font-family="Times New Roman,serif" font-size="14.00">3</text>
</g>
<!-- B27_3&#45;&gt;B27_4 -->
<g id="edge9" class="edge"><title>B27_3&#45;&gt;B27_4</title>
<path fill="none" stroke="#a6cee3" stroke-width="2.22222" d="M363.302,-99.3269C370.236,-95.0641 376.75,-89.9915 382,-84 393.856,-70.4704 399.38,-50.287 401.917,-36.0063"/>
<polygon fill="#a6cee3" stroke="#a6cee3" stroke-width="2.22222" points="362.371,-97.8439 358.937,-101.877 364.137,-100.866 362.371,-97.8439"/>
<text text-anchor="middle" x="424" y="-72.8" font-family="Times New Roman,serif" font-size="14.00">Narration</text>
<text text-anchor="middle" x="424" y="-57.8" font-family="Times New Roman,serif" font-size="14.00">4</text>
</g>
<!-- B27_3&#45;&gt;B27_4 -->
<g id="edge21" class="edge"><title>B27_3&#45;&gt;B27_4</title>
<path fill="none" stroke="#1f78b4" stroke-width="5.55556" d="M303.582,-96.7515C300.522,-83.225 299.423,-66.2563 308,-54 313.187,-46.5875 320.118,-40.7393 327.891,-36.1264"/>
<polygon fill="#1f78b4" stroke="#1f78b4" stroke-width="5.55556" points="301.309,-97.6809 304.886,-101.937 306.023,-96.4953 301.309,-97.6809"/>
<text text-anchor="middle" x="343" y="-72.8" font-family="Times New Roman,serif" font-size="14.00">Elaborations</text>
<text text-anchor="middle" x="343" y="-57.8" font-family="Times New Roman,serif" font-size="14.00">10</text>
</g>
</g>
</svg>
