<?xml version="1.0" encoding="UTF-8" standalone="no"?>
<!DOCTYPE svg PUBLIC "-//W3C//DTD SVG 1.1//EN"
 "http://www.w3.org/Graphics/SVG/1.1/DTD/svg11.dtd">
<!-- Generated by graphviz version 2.38.0 (20140413.2041)
 -->
<!-- Title: Provocation Pages: 1 -->
<svg width="854pt" height="1670pt"
 viewBox="0.00 0.00 853.50 1670.00" xmlns="http://www.w3.org/2000/svg" xmlns:xlink="http://www.w3.org/1999/xlink">
<g id="graph0" class="graph" transform="scale(1 1) rotate(0) translate(4 1666)">
<title>Provocation</title>
<polygon fill="white" stroke="none" points="-4,4 -4,-1666 849.5,-1666 849.5,4 -4,4"/>
<text text-anchor="start" x="8" y="-1643" font-family="Times New Roman,serif" font-size="20.00">Provocation</text>
<text text-anchor="start" x="9" y="-1626.2" font-family="Times New Roman,serif" font-size="16.00">21 annotations </text>
<text text-anchor="start" x="18" y="-1610.2" font-family="Times New Roman,serif" font-size="16.00"> seuil = 0.15</text>
<!-- Début -->
<g id="node1" class="node"><title>Début</title>
<polygon fill="lightgrey" stroke="black" points="438,-1602 343,-1602 343,-1566 438,-1566 438,-1602"/>
<text text-anchor="middle" x="390.5" y="-1580.3" font-family="Times New Roman,serif" font-size="14.00">Début : Début</text>
</g>
<!-- A150_1 -->
<g id="node2" class="node"><title>A150_1</title>
<polygon fill="wheat" stroke="black" points="596.5,-1515 184.5,-1515 184.5,-1479 596.5,-1479 596.5,-1515"/>
<text text-anchor="middle" x="390.5" y="-1493.3" font-family="Times New Roman,serif" font-size="14.00">A150_1 : Alors finalement bon j’ai vécu l’apocalypse à cette époque&#45;là</text>
<text text-anchor="start" x="168.5" y="-1519.8" font-family="Times New Roman,serif" font-weight="bold" font-style="italic" font-size="14.00" fill="red">19</text>
</g>
<!-- Début&#45;&gt;A150_1 -->
<g id="edge1" class="edge"><title>Début&#45;&gt;A150_1</title>
<path fill="none" stroke="#1f78b4" stroke-width="10" d="M390.5,-1560.75C390.5,-1546.5 390.5,-1528.3 390.5,-1515.18"/>
<polygon fill="#1f78b4" stroke="#1f78b4" stroke-width="10" points="386.125,-1560.8 390.5,-1565.8 394.875,-1560.8 386.125,-1560.8"/>
<text text-anchor="middle" x="397.5" y="-1536.8" font-family="Times New Roman,serif" font-size="14.00">21</text>
</g>
<!-- A150_2 -->
<g id="node3" class="node"><title>A150_2</title>
<polygon fill="wheat" stroke="black" points="415,-1428 2,-1428 2,-1392 415,-1392 415,-1428"/>
<text text-anchor="middle" x="208.5" y="-1406.3" font-family="Times New Roman,serif" font-size="14.00">A150_2 : parce que à f… au fur et à mesure que je remontais la pente...</text>
</g>
<!-- A150_1&#45;&gt;A150_2 -->
<g id="edge2" class="edge"><title>A150_1&#45;&gt;A150_2</title>
<path fill="none" stroke="#1f78b4" stroke-width="10" d="M349.127,-1476.68C317.759,-1462.03 275.058,-1442.08 244.965,-1428.03"/>
<polygon fill="#1f78b4" stroke="#1f78b4" stroke-width="10" points="347.288,-1480.65 353.67,-1478.8 350.991,-1472.72 347.288,-1480.65"/>
<text text-anchor="middle" x="317.5" y="-1449.8" font-family="Times New Roman,serif" font-size="14.00">21</text>
</g>
<!-- A150_3 -->
<g id="node4" class="node"><title>A150_3</title>
<polygon fill="wheat" stroke="black" points="615.5,-1341 151.5,-1341 151.5,-1305 615.5,-1305 615.5,-1341"/>
<text text-anchor="middle" x="383.5" y="-1319.3" font-family="Times New Roman,serif" font-size="14.00">A150_3 : parce que après ça s’est joué en psychiatrie j’avais une injection retard</text>
</g>
<!-- A150_1&#45;&gt;A150_3 -->
<g id="edge3" class="edge"><title>A150_1&#45;&gt;A150_3</title>
<path fill="none" stroke="#1f78b4" stroke-width="3.33333" d="M404.967,-1474.29C417.111,-1453.36 431.32,-1420.72 423.5,-1392 418.354,-1373.1 406.476,-1354.1 396.992,-1341"/>
<polygon fill="#1f78b4" stroke="#1f78b4" stroke-width="3.33333" points="403.317,-1473.64 402.258,-1478.83 406.322,-1475.43 403.317,-1473.64"/>
<text text-anchor="middle" x="430" y="-1406.3" font-family="Times New Roman,serif" font-size="14.00">7</text>
</g>
<!-- A150_2&#45;&gt;A150_3 -->
<g id="edge4" class="edge"><title>A150_2&#45;&gt;A150_3</title>
<path fill="none" stroke="#1f78b4" stroke-width="6.19048" d="M248.653,-1389.5C278.78,-1374.86 319.62,-1355.03 348.438,-1341.03"/>
<polygon fill="#1f78b4" stroke="#1f78b4" stroke-width="6.19048" points="247.228,-1387.18 243.914,-1391.8 249.595,-1392.05 247.228,-1387.18"/>
<text text-anchor="middle" x="313.5" y="-1362.8" font-family="Times New Roman,serif" font-size="14.00">13</text>
</g>
<!-- A150_4 -->
<g id="node5" class="node"><title>A150_4</title>
<polygon fill="wheat" stroke="black" points="458,-1254 309,-1254 309,-1218 458,-1218 458,-1254"/>
<text text-anchor="middle" x="383.5" y="-1232.3" font-family="Times New Roman,serif" font-size="14.00">A150_4 : j’ai tout arrêté</text>
<text text-anchor="start" x="293" y="-1258.8" font-family="Times New Roman,serif" font-weight="bold" font-style="italic" font-size="14.00" fill="red">11</text>
</g>
<!-- A150_3&#45;&gt;A150_4 -->
<g id="edge5" class="edge"><title>A150_3&#45;&gt;A150_4</title>
<path fill="none" stroke="#1f78b4" stroke-width="7.61905" d="M383.5,-1299.75C383.5,-1285.5 383.5,-1267.3 383.5,-1254.18"/>
<polygon fill="#1f78b4" stroke="#1f78b4" stroke-width="7.61905" points="380.167,-1299.8 383.5,-1304.8 386.833,-1299.8 380.167,-1299.8"/>
<text text-anchor="middle" x="390.5" y="-1275.8" font-family="Times New Roman,serif" font-size="14.00">16</text>
</g>
<!-- A150_5 -->
<g id="node6" class="node"><title>A150_5</title>
<polygon fill="wheat" stroke="black" points="688.5,-1167 78.5,-1167 78.5,-1131 688.5,-1131 688.5,-1167"/>
<text text-anchor="middle" x="383.5" y="-1145.3" font-family="Times New Roman,serif" font-size="14.00">A150_5 : et... et je me suis reconstitué bribes par bribes je me suis découvert poète euh sculpteur peintre...</text>
<text text-anchor="start" x="70.5" y="-1171.8" font-family="Times New Roman,serif" font-weight="bold" font-style="italic" font-size="14.00" fill="red">5</text>
</g>
<!-- A150_4&#45;&gt;A150_5 -->
<g id="edge6" class="edge"><title>A150_4&#45;&gt;A150_5</title>
<path fill="none" stroke="#1f78b4" stroke-width="6.19048" d="M383.5,-1212.75C383.5,-1198.5 383.5,-1180.3 383.5,-1167.18"/>
<polygon fill="#1f78b4" stroke="#1f78b4" stroke-width="6.19048" points="380.792,-1212.8 383.5,-1217.8 386.208,-1212.8 380.792,-1212.8"/>
<text text-anchor="middle" x="390.5" y="-1188.8" font-family="Times New Roman,serif" font-size="14.00">13</text>
</g>
<!-- B151 -->
<g id="node7" class="node"><title>B151</title>
<polygon fill="skyblue" stroke="black" points="181,-1080 8,-1080 8,-1044 181,-1044 181,-1080"/>
<text text-anchor="middle" x="94.5" y="-1058.3" font-family="Times New Roman,serif" font-size="14.00">B151 : D’une certaine façon</text>
<text text-anchor="start" x="0" y="-1084.8" font-family="Times New Roman,serif" font-weight="bold" font-style="italic" font-size="14.00" fill="red">1</text>
</g>
<!-- A150_5&#45;&gt;B151 -->
<g id="edge7" class="edge"><title>A150_5&#45;&gt;B151</title>
<path fill="none" stroke="#1f78b4" stroke-width="10" d="M320.285,-1129.41C270.314,-1114.71 201.12,-1094.36 152.543,-1080.07"/>
<polygon fill="#1f78b4" stroke="#1f78b4" stroke-width="10" points="319.333,-1133.69 325.364,-1130.9 321.802,-1125.29 319.333,-1133.69"/>
<text text-anchor="middle" x="263.5" y="-1101.8" font-family="Times New Roman,serif" font-size="14.00">21</text>
</g>
<!-- A152_1 -->
<g id="node8" class="node"><title>A152_1</title>
<polygon fill="wheat" stroke="black" points="568,-1080 199,-1080 199,-1044 568,-1044 568,-1080"/>
<text text-anchor="middle" x="383.5" y="-1058.3" font-family="Times New Roman,serif" font-size="14.00">A152_1 : J’ai découvert l’art j’ai découvert l’art proprement dit</text>
<text text-anchor="start" x="191" y="-1084.8" font-family="Times New Roman,serif" font-weight="bold" font-style="italic" font-size="14.00" fill="red">2</text>
</g>
<!-- A150_5&#45;&gt;A152_1 -->
<g id="edge8" class="edge"><title>A150_5&#45;&gt;A152_1</title>
<path fill="none" stroke="#1f78b4" stroke-width="9.04762" d="M383.5,-1125.75C383.5,-1111.5 383.5,-1093.3 383.5,-1080.18"/>
<polygon fill="#1f78b4" stroke="#1f78b4" stroke-width="9.04762" points="379.542,-1125.8 383.5,-1130.8 387.458,-1125.8 379.542,-1125.8"/>
<text text-anchor="middle" x="390.5" y="-1101.8" font-family="Times New Roman,serif" font-size="14.00">19</text>
</g>
<!-- A154_2 -->
<g id="node12" class="node"><title>A154_2</title>
<polygon fill="wheat" stroke="black" points="684,-819 417,-819 417,-783 684,-783 684,-819"/>
<text text-anchor="middle" x="550.5" y="-797.3" font-family="Times New Roman,serif" font-size="14.00">A154_2 : j’étais j’… j’… j’étais doué enfin...</text>
</g>
<!-- A150_5&#45;&gt;A154_2 -->
<g id="edge9" class="edge"><title>A150_5&#45;&gt;A154_2</title>
<path fill="none" stroke="#1f78b4" stroke-width="3.33333" d="M470.791,-1129.72C529.604,-1114.81 596.5,-1091.56 596.5,-1063 596.5,-1063 596.5,-1063 596.5,-887 596.5,-860.992 579.637,-835.318 566.331,-819.107"/>
<polygon fill="#1f78b4" stroke="#1f78b4" stroke-width="3.33333" points="470.276,-1128.05 465.851,-1130.96 471.127,-1131.44 470.276,-1128.05"/>
<text text-anchor="middle" x="600" y="-971.3" font-family="Times New Roman,serif" font-size="14.00">7</text>
</g>
<!-- A152_2 -->
<g id="node9" class="node"><title>A152_2</title>
<polygon fill="wheat" stroke="black" points="522.5,-993 86.5,-993 86.5,-957 522.5,-957 522.5,-993"/>
<text text-anchor="middle" x="304.5" y="-971.3" font-family="Times New Roman,serif" font-size="14.00">A152_2 : avec des morceaux de bois et sans clous j’arrive à faire une porte</text>
</g>
<!-- A152_1&#45;&gt;A152_2 -->
<g id="edge10" class="edge"><title>A152_1&#45;&gt;A152_2</title>
<path fill="none" stroke="#1f78b4" stroke-width="8.57143" d="M363.856,-1039.86C350.475,-1025.47 332.985,-1006.65 320.463,-993.175"/>
<polygon fill="#1f78b4" stroke="#1f78b4" stroke-width="8.57143" points="361.362,-1042.69 367.513,-1043.8 366.856,-1037.58 361.362,-1042.69"/>
<text text-anchor="middle" x="356.5" y="-1014.8" font-family="Times New Roman,serif" font-size="14.00">18</text>
</g>
<!-- A152_1&#45;&gt;A154_2 -->
<g id="edge11" class="edge"><title>A152_1&#45;&gt;A154_2</title>
<path fill="none" stroke="#1f78b4" stroke-width="1.90476" d="M462.171,-1042.03C488.273,-1031.8 514.882,-1016.3 531.5,-993 569.623,-939.557 560.324,-855.26 554.012,-819.243"/>
<polygon fill="#1f78b4" stroke="#1f78b4" stroke-width="1.90476" points="461.357,-1040.47 457.305,-1043.88 462.601,-1043.74 461.357,-1040.47"/>
<text text-anchor="middle" x="561" y="-927.8" font-family="Times New Roman,serif" font-size="14.00">4</text>
</g>
<!-- B153 -->
<g id="node10" class="node"><title>B153</title>
<polygon fill="skyblue" stroke="black" points="278.5,-906 168.5,-906 168.5,-870 278.5,-870 278.5,-906"/>
<text text-anchor="middle" x="223.5" y="-884.3" font-family="Times New Roman,serif" font-size="14.00">B153 : D’accord</text>
</g>
<!-- A152_2&#45;&gt;B153 -->
<g id="edge12" class="edge"><title>A152_2&#45;&gt;B153</title>
<path fill="none" stroke="#1f78b4" stroke-width="9.04762" d="M284.358,-952.864C270.638,-938.466 252.706,-919.648 239.867,-906.175"/>
<polygon fill="#1f78b4" stroke="#1f78b4" stroke-width="9.04762" points="281.793,-955.91 288.108,-956.799 287.525,-950.449 281.793,-955.91"/>
<text text-anchor="middle" x="276.5" y="-927.8" font-family="Times New Roman,serif" font-size="14.00">19</text>
</g>
<!-- A154_1 -->
<g id="node11" class="node"><title>A154_1</title>
<polygon fill="wheat" stroke="black" points="522.5,-906 296.5,-906 296.5,-870 522.5,-870 522.5,-906"/>
<text text-anchor="middle" x="409.5" y="-884.3" font-family="Times New Roman,serif" font-size="14.00">A154_1 : En entrelaçant les branches.</text>
<text text-anchor="start" x="288.5" y="-910.8" font-family="Times New Roman,serif" font-weight="bold" font-style="italic" font-size="14.00" fill="red">1</text>
</g>
<!-- A152_2&#45;&gt;A154_1 -->
<g id="edge13" class="edge"><title>A152_2&#45;&gt;A154_1</title>
<path fill="none" stroke="#1f78b4" stroke-width="8.57143" d="M329.703,-953.598C347.598,-939.111 371.356,-919.879 388.283,-906.175"/>
<polygon fill="#1f78b4" stroke="#1f78b4" stroke-width="8.57143" points="327.275,-950.738 325.748,-956.799 331.994,-956.568 327.275,-950.738"/>
<text text-anchor="middle" x="370.5" y="-927.8" font-family="Times New Roman,serif" font-size="14.00">18</text>
</g>
<!-- A154_1&#45;&gt;A154_2 -->
<g id="edge14" class="edge"><title>A154_1&#45;&gt;A154_2</title>
<path fill="none" stroke="#1f78b4" stroke-width="3.33333" d="M442.438,-867.143C466.569,-852.597 498.991,-833.052 522.009,-819.175"/>
<polygon fill="#1f78b4" stroke="#1f78b4" stroke-width="3.33333" points="441.412,-865.719 438.033,-869.799 443.219,-868.716 441.412,-865.719"/>
<text text-anchor="middle" x="492" y="-840.8" font-family="Times New Roman,serif" font-size="14.00">7</text>
</g>
<!-- B155 -->
<g id="node13" class="node"><title>B155</title>
<polygon fill="skyblue" stroke="black" points="565.5,-732 233.5,-732 233.5,-696 565.5,-696 565.5,-732"/>
<text text-anchor="middle" x="399.5" y="-710.3" font-family="Times New Roman,serif" font-size="14.00">B155 : Vous avez découvert que vous étiez doué en fait?</text>
<text text-anchor="start" x="225.5" y="-736.8" font-family="Times New Roman,serif" font-weight="bold" font-style="italic" font-size="14.00" fill="red">1</text>
</g>
<!-- A154_2&#45;&gt;B155 -->
<g id="edge15" class="edge"><title>A154_2&#45;&gt;B155</title>
<path fill="none" stroke="#1f78b4" stroke-width="9.52381" d="M515.532,-780.316C489.569,-765.701 454.517,-745.97 429.754,-732.03"/>
<polygon fill="#1f78b4" stroke="#1f78b4" stroke-width="9.52381" points="513.542,-783.977 519.943,-782.799 517.63,-776.715 513.542,-783.977"/>
<text text-anchor="middle" x="491.5" y="-753.8" font-family="Times New Roman,serif" font-size="14.00">20</text>
</g>
<!-- A156 -->
<g id="node14" class="node"><title>A156</title>
<polygon fill="wheat" stroke="black" points="753,-645 334,-645 334,-609 753,-609 753,-645"/>
<text text-anchor="middle" x="543.5" y="-623.3" font-family="Times New Roman,serif" font-size="14.00">A156 : Enfin j’ai découvert que j’avais... que j’étais... PRO par vocation</text>
<text text-anchor="start" x="318" y="-649.8" font-family="Times New Roman,serif" font-weight="bold" font-style="italic" font-size="14.00" fill="red">12</text>
</g>
<!-- A154_2&#45;&gt;A156 -->
<g id="edge16" class="edge"><title>A154_2&#45;&gt;A156</title>
<path fill="none" stroke="#1f78b4" stroke-width="1.90476" d="M561.355,-777.906C570.321,-756.878 580.653,-724.331 574.5,-696 570.535,-677.742 561.222,-658.509 553.832,-645.174"/>
<polygon fill="#1f78b4" stroke="#1f78b4" stroke-width="1.90476" points="559.643,-777.451 559.234,-782.733 562.848,-778.859 559.643,-777.451"/>
<text text-anchor="middle" x="580" y="-710.3" font-family="Times New Roman,serif" font-size="14.00">4</text>
</g>
<!-- B155&#45;&gt;A156 -->
<g id="edge17" class="edge"><title>B155&#45;&gt;A156</title>
<path fill="none" stroke="#1f78b4" stroke-width="7.61905" d="M433.139,-693.143C457.783,-678.597 490.895,-659.052 514.403,-645.175"/>
<polygon fill="#1f78b4" stroke="#1f78b4" stroke-width="7.61905" points="431.252,-690.387 428.641,-695.799 434.641,-696.128 431.252,-690.387"/>
<text text-anchor="middle" x="487.5" y="-666.8" font-family="Times New Roman,serif" font-size="14.00">16</text>
</g>
<!-- B157 -->
<g id="node15" class="node"><title>B157</title>
<polygon fill="skyblue" stroke="black" points="455,-558 344,-558 344,-522 455,-522 455,-558"/>
<text text-anchor="middle" x="399.5" y="-536.3" font-family="Times New Roman,serif" font-size="14.00">B157 : Hum hum</text>
<text text-anchor="start" x="336" y="-562.8" font-family="Times New Roman,serif" font-weight="bold" font-style="italic" font-size="14.00" fill="red">1</text>
</g>
<!-- A156&#45;&gt;B157 -->
<g id="edge18" class="edge"><title>A156&#45;&gt;B157</title>
<path fill="none" stroke="#1f78b4" stroke-width="10" d="M509.861,-606.143C485.217,-591.597 452.105,-572.052 428.597,-558.175"/>
<polygon fill="#1f78b4" stroke="#1f78b4" stroke-width="10" points="507.83,-610.025 514.359,-608.799 512.278,-602.49 507.83,-610.025"/>
<text text-anchor="middle" x="487.5" y="-579.8" font-family="Times New Roman,serif" font-size="14.00">21</text>
</g>
<!-- A158_1 -->
<g id="node16" class="node"><title>A158_1</title>
<polygon fill="wheat" stroke="black" points="613.5,-558 473.5,-558 473.5,-522 613.5,-522 613.5,-558"/>
<text text-anchor="middle" x="543.5" y="-536.3" font-family="Times New Roman,serif" font-size="14.00">A158_1 : Provocation</text>
<text text-anchor="start" x="465.5" y="-562.8" font-family="Times New Roman,serif" font-weight="bold" font-style="italic" font-size="14.00" fill="red">5</text>
</g>
<!-- A156&#45;&gt;A158_1 -->
<g id="edge19" class="edge"><title>A156&#45;&gt;A158_1</title>
<path fill="none" stroke="#1f78b4" stroke-width="9.04762" d="M543.5,-603.748C543.5,-589.505 543.5,-571.303 543.5,-558.175"/>
<polygon fill="#1f78b4" stroke="#1f78b4" stroke-width="9.04762" points="539.542,-603.799 543.5,-608.799 547.458,-603.799 539.542,-603.799"/>
<text text-anchor="middle" x="550.5" y="-579.8" font-family="Times New Roman,serif" font-size="14.00">19</text>
</g>
<!-- A162 -->
<g id="node23" class="node"><title>A162</title>
<polygon fill="wheat" stroke="black" points="845.5,-36 379.5,-36 379.5,-0 845.5,-0 845.5,-36"/>
<text text-anchor="middle" x="612.5" y="-14.3" font-family="Times New Roman,serif" font-size="14.00">A162 : J’étais un pro par vocation j’étais devenu un génie j’étais devenu un génie</text>
<text text-anchor="start" x="371.5" y="-40.8" font-family="Times New Roman,serif" font-weight="bold" font-style="italic" font-size="14.00" fill="red">2</text>
</g>
<!-- A156&#45;&gt;A162 -->
<g id="edge20" class="edge"><title>A156&#45;&gt;A162</title>
<path fill="none" stroke="#1f78b4" stroke-width="3.33333" d="M606.925,-606.859C636.169,-593.728 664.5,-572.801 664.5,-541 664.5,-541 664.5,-541 664.5,-104 664.5,-77.359 645.682,-52.0108 630.687,-36.0409"/>
<polygon fill="#1f78b4" stroke="#1f78b4" stroke-width="3.33333" points="606.116,-605.302 602.228,-608.9 607.511,-608.512 606.116,-605.302"/>
<text text-anchor="middle" x="668" y="-318.8" font-family="Times New Roman,serif" font-size="14.00">7</text>
</g>
<!-- A158_2 -->
<g id="node17" class="node"><title>A158_2</title>
<polygon fill="wheat" stroke="black" points="636,-471 313,-471 313,-435 636,-435 636,-471"/>
<text text-anchor="middle" x="474.5" y="-449.3" font-family="Times New Roman,serif" font-size="14.00">A158_2 : c’est incroyable ce que je pouvais provoquer</text>
</g>
<!-- A158_1&#45;&gt;A158_2 -->
<g id="edge21" class="edge"><title>A158_1&#45;&gt;A158_2</title>
<path fill="none" stroke="#1f78b4" stroke-width="8.09524" d="M526.342,-517.864C514.655,-503.466 499.379,-484.648 488.442,-471.175"/>
<polygon fill="#1f78b4" stroke="#1f78b4" stroke-width="8.09524" points="523.636,-520.149 529.537,-521.799 529.135,-515.685 523.636,-520.149"/>
<text text-anchor="middle" x="520.5" y="-492.8" font-family="Times New Roman,serif" font-size="14.00">17</text>
</g>
<!-- B159 -->
<g id="node18" class="node"><title>B159</title>
<polygon fill="skyblue" stroke="black" points="298.5,-384 176.5,-384 176.5,-348 298.5,-348 298.5,-384"/>
<text text-anchor="middle" x="237.5" y="-362.3" font-family="Times New Roman,serif" font-size="14.00">B159 : Ouais ouais</text>
</g>
<!-- A158_2&#45;&gt;B159 -->
<g id="edge22" class="edge"><title>A158_2&#45;&gt;B159</title>
<path fill="none" stroke="#1f78b4" stroke-width="10" d="M421.913,-433.14C380.993,-418.464 324.695,-398.272 285.099,-384.071"/>
<polygon fill="#1f78b4" stroke="#1f78b4" stroke-width="10" points="420.641,-437.331 426.825,-434.901 423.595,-429.095 420.641,-437.331"/>
<text text-anchor="middle" x="377.5" y="-405.8" font-family="Times New Roman,serif" font-size="14.00">21</text>
</g>
<!-- A160_1 -->
<g id="node19" class="node"><title>A160_1</title>
<polygon fill="wheat" stroke="black" points="636.5,-384 316.5,-384 316.5,-348 636.5,-348 636.5,-384"/>
<text text-anchor="middle" x="476.5" y="-362.3" font-family="Times New Roman,serif" font-size="14.00">A160_1 : Je savais titiller les mecs dans la provocation</text>
</g>
<!-- A158_2&#45;&gt;A160_1 -->
<g id="edge23" class="edge"><title>A158_2&#45;&gt;A160_1</title>
<path fill="none" stroke="#1f78b4" stroke-width="8.09524" d="M475.024,-429.748C475.359,-415.505 475.787,-397.303 476.096,-384.175"/>
<polygon fill="#1f78b4" stroke="#1f78b4" stroke-width="8.09524" points="471.482,-429.717 474.905,-434.799 478.563,-429.884 471.482,-429.717"/>
<text text-anchor="middle" x="483.5" y="-405.8" font-family="Times New Roman,serif" font-size="14.00">17</text>
</g>
<!-- A160_2 -->
<g id="node20" class="node"><title>A160_2</title>
<polygon fill="wheat" stroke="black" points="539.5,-297 141.5,-297 141.5,-261 539.5,-261 539.5,-297"/>
<text text-anchor="middle" x="340.5" y="-275.3" font-family="Times New Roman,serif" font-size="14.00">A160_2 : et d… des mecs balèzes et que moi j’avais aucune hostilité</text>
<text text-anchor="start" x="133.5" y="-301.8" font-family="Times New Roman,serif" font-weight="bold" font-style="italic" font-size="14.00" fill="red">1</text>
</g>
<!-- A160_1&#45;&gt;A160_2 -->
<g id="edge24" class="edge"><title>A160_1&#45;&gt;A160_2</title>
<path fill="none" stroke="#1f78b4" stroke-width="9.52381" d="M444.73,-345.143C421.455,-330.597 390.182,-311.052 367.981,-297.175"/>
<polygon fill="#1f78b4" stroke="#1f78b4" stroke-width="9.52381" points="442.53,-348.682 448.978,-347.799 446.947,-341.616 442.53,-348.682"/>
<text text-anchor="middle" x="424.5" y="-318.8" font-family="Times New Roman,serif" font-size="14.00">20</text>
</g>
<!-- B161 -->
<g id="node22" class="node"><title>B161</title>
<polygon fill="skyblue" stroke="black" points="636.5,-123 320.5,-123 320.5,-87 636.5,-87 636.5,-123"/>
<text text-anchor="middle" x="478.5" y="-101.3" font-family="Times New Roman,serif" font-size="14.00">B161 : Oui vous étiez de fait le plus fort à ce niveau là</text>
<text text-anchor="start" x="312.5" y="-127.8" font-family="Times New Roman,serif" font-weight="bold" font-style="italic" font-size="14.00" fill="red">1</text>
</g>
<!-- A160_1&#45;&gt;B161 -->
<g id="edge25" class="edge"><title>A160_1&#45;&gt;B161</title>
<path fill="none" stroke="#1f78b4" stroke-width="3.33333" d="M508.023,-344.585C523.322,-332.739 540.164,-316.339 548.5,-297 556.016,-279.564 561.634,-209.38 546.5,-174 537.57,-153.124 518.937,-135.237 503.43,-123.055"/>
<polygon fill="#1f78b4" stroke="#1f78b4" stroke-width="3.33333" points="506.694,-343.396 503.757,-347.804 508.802,-346.189 506.694,-343.396"/>
<text text-anchor="middle" x="560" y="-231.8" font-family="Times New Roman,serif" font-size="14.00">7</text>
</g>
<!-- A160_3 -->
<g id="node21" class="node"><title>A160_3</title>
<polygon fill="wheat" stroke="black" points="538,-210 149,-210 149,-174 538,-174 538,-210"/>
<text text-anchor="middle" x="343.5" y="-188.3" font-family="Times New Roman,serif" font-size="14.00">A160_3 : mais avec les paroles l’autre il s’en prenait plein la gueule</text>
<text text-anchor="start" x="141" y="-214.8" font-family="Times New Roman,serif" font-weight="bold" font-style="italic" font-size="14.00" fill="red">1</text>
</g>
<!-- A160_2&#45;&gt;A160_3 -->
<g id="edge26" class="edge"><title>A160_2&#45;&gt;A160_3</title>
<path fill="none" stroke="#1f78b4" stroke-width="7.61905" d="M341.285,-255.748C341.788,-241.505 342.43,-223.303 342.894,-210.175"/>
<polygon fill="#1f78b4" stroke="#1f78b4" stroke-width="7.61905" points="337.952,-255.684 341.107,-260.799 344.615,-255.92 337.952,-255.684"/>
<text text-anchor="middle" x="349.5" y="-231.8" font-family="Times New Roman,serif" font-size="14.00">16</text>
</g>
<!-- A160_3&#45;&gt;B161 -->
<g id="edge27" class="edge"><title>A160_3&#45;&gt;B161</title>
<path fill="none" stroke="#1f78b4" stroke-width="6.19048" d="M375.325,-170.962C398.398,-156.435 429.274,-136.994 451.221,-123.175"/>
<polygon fill="#1f78b4" stroke="#1f78b4" stroke-width="6.19048" points="373.607,-168.843 370.819,-173.799 376.494,-173.427 373.607,-168.843"/>
<text text-anchor="middle" x="426.5" y="-144.8" font-family="Times New Roman,serif" font-size="14.00">13</text>
</g>
<!-- B161&#45;&gt;A162 -->
<g id="edge28" class="edge"><title>B161&#45;&gt;A162</title>
<path fill="none" stroke="#1f78b4" stroke-width="3.33333" d="M510.089,-83.9621C532.991,-69.4348 563.639,-49.9939 585.423,-36.1754"/>
<polygon fill="#1f78b4" stroke="#1f78b4" stroke-width="3.33333" points="508.902,-82.6429 505.617,-86.799 510.777,-85.5985 508.902,-82.6429"/>
<text text-anchor="middle" x="558" y="-57.8" font-family="Times New Roman,serif" font-size="14.00">7</text>
</g>
</g>
</svg>
