<?xml version="1.0" encoding="UTF-8" standalone="no"?>
<!DOCTYPE svg PUBLIC "-//W3C//DTD SVG 1.1//EN"
 "http://www.w3.org/Graphics/SVG/1.1/DTD/svg11.dtd">
<!-- Generated by graphviz version 2.38.0 (20140413.2041)
 -->
<!-- Title: Sauveur Pages: 1 -->
<svg width="1370pt" height="1496pt"
 viewBox="0.00 0.00 1370.00 1496.00" xmlns="http://www.w3.org/2000/svg" xmlns:xlink="http://www.w3.org/1999/xlink">
<g id="graph0" class="graph" transform="scale(1 1) rotate(0) translate(4 1492)">
<title>Sauveur</title>
<polygon fill="white" stroke="none" points="-4,4 -4,-1492 1366,-1492 1366,4 -4,4"/>
<text text-anchor="start" x="23" y="-1469" font-family="Times New Roman,serif" font-size="20.00">Sauveur</text>
<text text-anchor="start" x="8" y="-1452.2" font-family="Times New Roman,serif" font-size="16.00">16 annotations </text>
<text text-anchor="start" x="17" y="-1436.2" font-family="Times New Roman,serif" font-size="16.00"> seuil = 0.15</text>
<!-- début -->
<g id="node1" class="node"><title>début</title>
<polygon fill="lightgrey" stroke="black" points="1148.5,-1428 1056.5,-1428 1056.5,-1392 1148.5,-1392 1148.5,-1428"/>
<text text-anchor="middle" x="1102.5" y="-1406.3" font-family="Times New Roman,serif" font-size="14.00">début : Début</text>
</g>
<!-- A1 -->
<g id="node2" class="node"><title>A1</title>
<polygon fill="wheat" stroke="black" points="1049.5,-1341 549.5,-1341 549.5,-1305 1049.5,-1305 1049.5,-1341"/>
<text text-anchor="middle" x="799.5" y="-1319.3" font-family="Times New Roman,serif" font-size="14.00">A1 : enfin moi où j&#39;ai quand même souffert c&#39;est quand j&#39;ai eu mon traumatisme crânien</text>
<text text-anchor="start" x="533.5" y="-1345.8" font-family="Times New Roman,serif" font-weight="bold" font-style="italic" font-size="14.00" fill="red">15</text>
</g>
<!-- début&#45;&gt;A1 -->
<g id="edge1" class="edge"><title>début&#45;&gt;A1</title>
<path fill="none" stroke="#1f78b4" stroke-width="10" d="M1051.47,-1394.69C998.747,-1379.89 916.458,-1356.81 860.371,-1341.08"/>
<polygon fill="#1f78b4" stroke="#1f78b4" stroke-width="10" points="1050.48,-1398.95 1056.48,-1396.09 1052.85,-1390.53 1050.48,-1398.95"/>
<text text-anchor="middle" x="976.5" y="-1362.8" font-family="Times New Roman,serif" font-size="14.00">16</text>
</g>
<!-- A5_1 -->
<g id="node9" class="node"><title>A5_1</title>
<polygon fill="wheat" stroke="black" points="1063,-1254 824,-1254 824,-1218 1063,-1218 1063,-1254"/>
<text text-anchor="middle" x="943.5" y="-1232.3" font-family="Times New Roman,serif" font-size="14.00">A5_1 : On allait dans la ferme à S. (lieu)</text>
<text text-anchor="start" x="816" y="-1258.8" font-family="Times New Roman,serif" font-weight="bold" font-style="italic" font-size="14.00" fill="red">8</text>
</g>
<!-- début&#45;&gt;A5_1 -->
<g id="edge2" class="edge"><title>début&#45;&gt;A5_1</title>
<path fill="none" stroke="#1f78b4" stroke-width="1.875" d="M1097.49,-1386.8C1091.44,-1364.1 1079.38,-1328.87 1058.5,-1305 1038.88,-1282.56 1009.98,-1265.52 986.063,-1254.1"/>
<polygon fill="#1f78b4" stroke="#1f78b4" stroke-width="1.875" points="1095.82,-1387.32 1098.76,-1391.73 1099.21,-1386.45 1095.82,-1387.32"/>
<text text-anchor="middle" x="1084" y="-1319.3" font-family="Times New Roman,serif" font-size="14.00">3</text>
</g>
<!-- A5_5 -->
<g id="node13" class="node"><title>A5_5</title>
<polygon fill="wheat" stroke="black" points="1111.5,-906 779.5,-906 779.5,-870 1111.5,-870 1111.5,-906"/>
<text text-anchor="middle" x="945.5" y="-884.3" font-family="Times New Roman,serif" font-size="14.00">A5_5 : Moi j&#39;aimais j’aime bien Franck. Franck L (nom).</text>
<text text-anchor="start" x="771.5" y="-910.8" font-family="Times New Roman,serif" font-weight="bold" font-style="italic" font-size="14.00" fill="red">2</text>
</g>
<!-- début&#45;&gt;A5_5 -->
<g id="edge3" class="edge"><title>début&#45;&gt;A5_5</title>
<path fill="none" stroke="#1f78b4" stroke-width="5" d="M1109.81,-1386.93C1114.8,-1369.93 1120.5,-1345.74 1120.5,-1324 1120.5,-1324 1120.5,-1324 1120.5,-974 1120.5,-938.873 1091.62,-918.258 1057.32,-906.162"/>
<polygon fill="#1f78b4" stroke="#1f78b4" stroke-width="5" points="1107.64,-1386.55 1108.29,-1391.97 1111.83,-1387.81 1107.64,-1386.55"/>
<text text-anchor="middle" x="1124" y="-1145.3" font-family="Times New Roman,serif" font-size="14.00">8</text>
</g>
<!-- A9_3 -->
<g id="node20" class="node"><title>A9_3</title>
<polygon fill="wheat" stroke="black" points="1331.5,-297 951.5,-297 951.5,-261 1331.5,-261 1331.5,-297"/>
<text text-anchor="middle" x="1141.5" y="-275.3" font-family="Times New Roman,serif" font-size="14.00">A9_3 : Ben ce qui m&#39;aide là c&#39;est quelqu&#39;un de bien c&#39;est Damien.</text>
<text text-anchor="start" x="943.5" y="-301.8" font-family="Times New Roman,serif" font-weight="bold" font-style="italic" font-size="14.00" fill="red">7</text>
</g>
<!-- début&#45;&gt;A9_3 -->
<g id="edge4" class="edge"><title>début&#45;&gt;A9_3</title>
<path fill="none" stroke="#1f78b4" stroke-width="3.75" d="M1126.23,-1388.05C1141.5,-1372.19 1158.5,-1348.93 1158.5,-1324 1158.5,-1324 1158.5,-1324 1158.5,-365 1158.5,-341.072 1151.94,-314.078 1146.97,-297.056"/>
<polygon fill="#1f78b4" stroke="#1f78b4" stroke-width="3.75" points="1124.68,-1387.14 1122.4,-1391.92 1127.16,-1389.6 1124.68,-1387.14"/>
<text text-anchor="middle" x="1162" y="-840.8" font-family="Times New Roman,serif" font-size="14.00">6</text>
</g>
<!-- B2 -->
<g id="node3" class="node"><title>B2</title>
<polygon fill="skyblue" stroke="black" points="640.5,-1254 464.5,-1254 464.5,-1218 640.5,-1218 640.5,-1254"/>
<text text-anchor="middle" x="552.5" y="-1232.3" font-family="Times New Roman,serif" font-size="14.00">B2 : C&#39;est dû à un accident ?</text>
<text text-anchor="start" x="456.5" y="-1258.8" font-family="Times New Roman,serif" font-weight="bold" font-style="italic" font-size="14.00" fill="red">1</text>
</g>
<!-- A1&#45;&gt;B2 -->
<g id="edge5" class="edge"><title>A1&#45;&gt;B2</title>
<path fill="none" stroke="#1f78b4" stroke-width="10" d="M744.954,-1303.23C702.286,-1288.55 643.458,-1268.3 602.108,-1254.07"/>
<polygon fill="#1f78b4" stroke="#1f78b4" stroke-width="10" points="743.661,-1307.41 749.813,-1304.9 746.509,-1299.14 743.661,-1307.41"/>
<text text-anchor="middle" x="698.5" y="-1275.8" font-family="Times New Roman,serif" font-size="14.00">16</text>
</g>
<!-- A1&#45;&gt;A5_1 -->
<g id="edge6" class="edge"><title>A1&#45;&gt;A5_1</title>
<path fill="none" stroke="#1f78b4" stroke-width="3.125" d="M833.139,-1302.14C857.783,-1287.6 890.895,-1268.05 914.403,-1254.18"/>
<polygon fill="#1f78b4" stroke="#1f78b4" stroke-width="3.125" points="832.057,-1300.75 828.641,-1304.8 833.836,-1303.76 832.057,-1300.75"/>
<text text-anchor="middle" x="884" y="-1275.8" font-family="Times New Roman,serif" font-size="14.00">5</text>
</g>
<!-- A3_1 -->
<g id="node4" class="node"><title>A3_1</title>
<polygon fill="wheat" stroke="black" points="526.5,-1167 230.5,-1167 230.5,-1131 526.5,-1131 526.5,-1167"/>
<text text-anchor="middle" x="378.5" y="-1145.3" font-family="Times New Roman,serif" font-size="14.00">A3_1 : Oui enfin on m’avait pratiquement culbuté.</text>
<text text-anchor="start" x="222.5" y="-1171.8" font-family="Times New Roman,serif" font-weight="bold" font-style="italic" font-size="14.00" fill="red">1</text>
</g>
<!-- B2&#45;&gt;A3_1 -->
<g id="edge7" class="edge"><title>B2&#45;&gt;A3_1</title>
<path fill="none" stroke="#1f78b4" stroke-width="9.375" d="M512.576,-1215.5C482.622,-1200.86 442.015,-1181.03 413.362,-1167.03"/>
<polygon fill="#1f78b4" stroke="#1f78b4" stroke-width="9.375" points="510.996,-1219.29 517.289,-1217.8 514.596,-1211.92 510.996,-1219.29"/>
<text text-anchor="middle" x="483.5" y="-1188.8" font-family="Times New Roman,serif" font-size="14.00">15</text>
</g>
<!-- A3_2 -->
<g id="node5" class="node"><title>A3_2</title>
<polygon fill="wheat" stroke="black" points="661,-1080 8,-1080 8,-1044 661,-1044 661,-1080"/>
<text text-anchor="middle" x="334.5" y="-1058.3" font-family="Times New Roman,serif" font-size="14.00">A3_2 : C’est quand même bien un... &#160;ç&#39;en est un qui m&#39;a balancé... qu&#39;était devant et puis moi derrière et qui m’a...</text>
<text text-anchor="start" x="0" y="-1084.8" font-family="Times New Roman,serif" font-weight="bold" font-style="italic" font-size="14.00" fill="red">3</text>
</g>
<!-- A3_1&#45;&gt;A3_2 -->
<g id="edge8" class="edge"><title>A3_1&#45;&gt;A3_2</title>
<path fill="none" stroke="#1f78b4" stroke-width="8.75" d="M367.175,-1126.12C359.774,-1111.82 350.246,-1093.42 343.391,-1080.18"/>
<polygon fill="#1f78b4" stroke="#1f78b4" stroke-width="8.75" points="363.898,-1128.12 369.596,-1130.8 370.697,-1124.6 363.898,-1128.12"/>
<text text-anchor="middle" x="366.5" y="-1101.8" font-family="Times New Roman,serif" font-size="14.00">14</text>
</g>
<!-- A3_3 -->
<g id="node6" class="node"><title>A3_3</title>
<polygon fill="wheat" stroke="black" points="516,-993 153,-993 153,-957 516,-957 516,-993"/>
<text text-anchor="middle" x="334.5" y="-971.3" font-family="Times New Roman,serif" font-size="14.00">A3_3 : mais enfin je m’en fous parce que... enfin j&#39;étais chargé</text>
<text text-anchor="start" x="145" y="-997.8" font-family="Times New Roman,serif" font-weight="bold" font-style="italic" font-size="14.00" fill="red">4</text>
</g>
<!-- A3_2&#45;&gt;A3_3 -->
<g id="edge9" class="edge"><title>A3_2&#45;&gt;A3_3</title>
<path fill="none" stroke="#1f78b4" stroke-width="7.5" d="M334.5,-1038.75C334.5,-1024.5 334.5,-1006.3 334.5,-993.175"/>
<polygon fill="#1f78b4" stroke="#1f78b4" stroke-width="7.5" points="331.219,-1038.8 334.5,-1043.8 337.781,-1038.8 331.219,-1038.8"/>
<text text-anchor="middle" x="341.5" y="-1014.8" font-family="Times New Roman,serif" font-size="14.00">12</text>
</g>
<!-- A3_4 -->
<g id="node7" class="node"><title>A3_4</title>
<polygon fill="wheat" stroke="black" points="581.5,-906 87.5,-906 87.5,-870 581.5,-870 581.5,-906"/>
<text text-anchor="middle" x="334.5" y="-884.3" font-family="Times New Roman,serif" font-size="14.00">A3_4 : J&#39;avais quand même 5 litres de vin de... de &#160;pineau 5 litres de bière plus 1 ou 2.</text>
</g>
<!-- A3_3&#45;&gt;A3_4 -->
<g id="edge10" class="edge"><title>A3_3&#45;&gt;A3_4</title>
<path fill="none" stroke="#1f78b4" stroke-width="8.125" d="M334.5,-951.748C334.5,-937.505 334.5,-919.303 334.5,-906.175"/>
<polygon fill="#1f78b4" stroke="#1f78b4" stroke-width="8.125" points="330.945,-951.799 334.5,-956.799 338.055,-951.799 330.945,-951.799"/>
<text text-anchor="middle" x="341.5" y="-927.8" font-family="Times New Roman,serif" font-size="14.00">13</text>
</g>
<!-- B4 -->
<g id="node8" class="node"><title>B4</title>
<polygon fill="skyblue" stroke="black" points="412.5,-819 256.5,-819 256.5,-783 412.5,-783 412.5,-819"/>
<text text-anchor="middle" x="334.5" y="-797.3" font-family="Times New Roman,serif" font-size="14.00">B4 : Que vous aviez bu ?</text>
<text text-anchor="start" x="248.5" y="-823.8" font-family="Times New Roman,serif" font-weight="bold" font-style="italic" font-size="14.00" fill="red">1</text>
</g>
<!-- A3_4&#45;&gt;B4 -->
<g id="edge11" class="edge"><title>A3_4&#45;&gt;B4</title>
<path fill="none" stroke="#1f78b4" stroke-width="10" d="M334.5,-864.748C334.5,-850.505 334.5,-832.303 334.5,-819.175"/>
<polygon fill="#1f78b4" stroke="#1f78b4" stroke-width="10" points="330.125,-864.799 334.5,-869.799 338.875,-864.799 330.125,-864.799"/>
<text text-anchor="middle" x="341.5" y="-840.8" font-family="Times New Roman,serif" font-size="14.00">16</text>
</g>
<!-- A5_2 -->
<g id="node10" class="node"><title>A5_2</title>
<polygon fill="wheat" stroke="black" points="907,-1167 720,-1167 720,-1131 907,-1131 907,-1167"/>
<text text-anchor="middle" x="813.5" y="-1145.3" font-family="Times New Roman,serif" font-size="14.00">A5_2 : une ferme abandonnée.</text>
<text text-anchor="start" x="712" y="-1171.8" font-family="Times New Roman,serif" font-weight="bold" font-style="italic" font-size="14.00" fill="red">1</text>
</g>
<!-- A5_1&#45;&gt;A5_2 -->
<g id="edge12" class="edge"><title>A5_1&#45;&gt;A5_2</title>
<path fill="none" stroke="#1f78b4" stroke-width="10" d="M912.854,-1214.96C890.636,-1200.43 860.902,-1180.99 839.768,-1167.18"/>
<polygon fill="#1f78b4" stroke="#1f78b4" stroke-width="10" points="910.613,-1218.72 917.193,-1217.8 915.402,-1211.4 910.613,-1218.72"/>
<text text-anchor="middle" x="893.5" y="-1188.8" font-family="Times New Roman,serif" font-size="14.00">16</text>
</g>
<!-- A5_3 -->
<g id="node11" class="node"><title>A5_3</title>
<polygon fill="wheat" stroke="black" points="1046,-1080 723,-1080 723,-1044 1046,-1044 1046,-1080"/>
<text text-anchor="middle" x="884.5" y="-1058.3" font-family="Times New Roman,serif" font-size="14.00">A5_3 : Qu’habite qu’est... qu’appartient à Henry euh...</text>
</g>
<!-- A5_1&#45;&gt;A5_3 -->
<g id="edge13" class="edge"><title>A5_1&#45;&gt;A5_3</title>
<path fill="none" stroke="#1f78b4" stroke-width="3.125" d="M938.671,-1212.92C933.758,-1191.64 925.463,-1158.69 915.5,-1131 909.087,-1113.18 899.906,-1093.56 893.2,-1080"/>
<polygon fill="#1f78b4" stroke="#1f78b4" stroke-width="3.125" points="936.967,-1213.32 939.787,-1217.8 940.379,-1212.54 936.967,-1213.32"/>
<text text-anchor="middle" x="930" y="-1145.3" font-family="Times New Roman,serif" font-size="14.00">5</text>
</g>
<!-- A5_4 -->
<g id="node12" class="node"><title>A5_4</title>
<polygon fill="wheat" stroke="black" points="1090,-993 689,-993 689,-957 1090,-957 1090,-993"/>
<text text-anchor="middle" x="889.5" y="-971.3" font-family="Times New Roman,serif" font-size="14.00">A5_4 : une maison qu’est qu&#39;on a fait qu&#39;on a fait... qu’on a touchée.</text>
<text text-anchor="start" x="681" y="-997.8" font-family="Times New Roman,serif" font-weight="bold" font-style="italic" font-size="14.00" fill="red">7</text>
</g>
<!-- A5_1&#45;&gt;A5_4 -->
<g id="edge14" class="edge"><title>A5_1&#45;&gt;A5_4</title>
<path fill="none" stroke="#1f78b4" stroke-width="3.75" d="M970.756,-1214.87C1015.27,-1179.48 1094.78,-1104.17 1054.5,-1044 1037.69,-1018.9 1009.76,-1003.05 981.603,-993.054"/>
<polygon fill="#1f78b4" stroke="#1f78b4" stroke-width="3.75" points="969.672,-1213.49 966.825,-1217.96 971.837,-1216.24 969.672,-1213.49"/>
<text text-anchor="middle" x="1067" y="-1101.8" font-family="Times New Roman,serif" font-size="14.00">6</text>
</g>
<!-- A5_2&#45;&gt;A5_3 -->
<g id="edge15" class="edge"><title>A5_2&#45;&gt;A5_3</title>
<path fill="none" stroke="#1f78b4" stroke-width="6.25" d="M831.155,-1126.86C843.181,-1112.47 858.9,-1093.65 870.153,-1080.18"/>
<polygon fill="#1f78b4" stroke="#1f78b4" stroke-width="6.25" points="828.975,-1125.21 827.868,-1130.8 833.172,-1128.71 828.975,-1125.21"/>
<text text-anchor="middle" x="860.5" y="-1101.8" font-family="Times New Roman,serif" font-size="14.00">10</text>
</g>
<!-- A5_2&#45;&gt;A5_4 -->
<g id="edge16" class="edge"><title>A5_2&#45;&gt;A5_4</title>
<path fill="none" stroke="#1f78b4" stroke-width="3.125" d="M767.893,-1128.57C729.133,-1109.18 683.196,-1077.52 706.5,-1044 723.912,-1018.95 751.7,-1003.11 780.415,-993.103"/>
<polygon fill="#1f78b4" stroke="#1f78b4" stroke-width="3.125" points="767.32,-1130.24 772.579,-1130.87 768.863,-1127.1 767.32,-1130.24"/>
<text text-anchor="middle" x="710" y="-1058.3" font-family="Times New Roman,serif" font-size="14.00">5</text>
</g>
<!-- A5_3&#45;&gt;A5_4 -->
<g id="edge17" class="edge"><title>A5_3&#45;&gt;A5_4</title>
<path fill="none" stroke="#1f78b4" stroke-width="3.125" d="M885.809,-1038.75C886.647,-1024.5 887.717,-1006.3 888.49,-993.175"/>
<polygon fill="#1f78b4" stroke="#1f78b4" stroke-width="3.125" points="884.059,-1038.7 885.512,-1043.8 887.553,-1038.91 884.059,-1038.7"/>
<text text-anchor="middle" x="891" y="-1014.8" font-family="Times New Roman,serif" font-size="14.00">5</text>
</g>
<!-- A5_4&#45;&gt;A5_5 -->
<g id="edge18" class="edge"><title>A5_4&#45;&gt;A5_5</title>
<path fill="none" stroke="#1f78b4" stroke-width="2.5" d="M903.669,-952.493C913.122,-938.145 925.384,-919.533 934.184,-906.175"/>
<polygon fill="#1f78b4" stroke="#1f78b4" stroke-width="2.5" points="902.122,-951.661 900.832,-956.799 905.045,-953.586 902.122,-951.661"/>
<text text-anchor="middle" x="925" y="-927.8" font-family="Times New Roman,serif" font-size="14.00">4</text>
</g>
<!-- A5_6 -->
<g id="node14" class="node"><title>A5_6</title>
<polygon fill="wheat" stroke="black" points="1055.5,-819 835.5,-819 835.5,-783 1055.5,-783 1055.5,-819"/>
<text text-anchor="middle" x="945.5" y="-797.3" font-family="Times New Roman,serif" font-size="14.00">A5_6 : il m&#39;a sauvé... avec son frère.</text>
</g>
<!-- A5_5&#45;&gt;A5_6 -->
<g id="edge19" class="edge"><title>A5_5&#45;&gt;A5_6</title>
<path fill="none" stroke="#1f78b4" stroke-width="10" d="M945.5,-864.748C945.5,-850.505 945.5,-832.303 945.5,-819.175"/>
<polygon fill="#1f78b4" stroke="#1f78b4" stroke-width="10" points="941.125,-864.799 945.5,-869.799 949.875,-864.799 941.125,-864.799"/>
<text text-anchor="middle" x="952.5" y="-840.8" font-family="Times New Roman,serif" font-size="14.00">16</text>
</g>
<!-- B6 -->
<g id="node15" class="node"><title>B6</title>
<polygon fill="skyblue" stroke="black" points="1066.5,-732 858.5,-732 858.5,-696 1066.5,-696 1066.5,-732"/>
<text text-anchor="middle" x="962.5" y="-710.3" font-family="Times New Roman,serif" font-size="14.00">B6 : Il vous a sauvé comment ça ?</text>
</g>
<!-- A5_6&#45;&gt;B6 -->
<g id="edge20" class="edge"><title>A5_6&#45;&gt;B6</title>
<path fill="none" stroke="#1f78b4" stroke-width="9.375" d="M949.95,-777.748C952.799,-763.505 956.439,-745.303 959.065,-732.175"/>
<polygon fill="#1f78b4" stroke="#1f78b4" stroke-width="9.375" points="945.899,-777.092 948.94,-782.799 953.943,-778.701 945.899,-777.092"/>
<text text-anchor="middle" x="962.5" y="-753.8" font-family="Times New Roman,serif" font-size="14.00">15</text>
</g>
<!-- B8 -->
<g id="node17" class="node"><title>B8</title>
<polygon fill="skyblue" stroke="black" points="940,-558 731,-558 731,-522 940,-522 940,-558"/>
<text text-anchor="middle" x="835.5" y="-536.3" font-family="Times New Roman,serif" font-size="14.00">B8 : Comment ça il vous a sauvé ?</text>
</g>
<!-- A5_6&#45;&gt;B8 -->
<g id="edge21" class="edge"><title>A5_6&#45;&gt;B8</title>
<path fill="none" stroke="#1f78b4" stroke-width="3.125" d="M902.248,-780.341C882.693,-769.095 861.353,-753.001 849.5,-732 817.469,-675.248 826.279,-593.437 832.168,-558.205"/>
<polygon fill="#1f78b4" stroke="#1f78b4" stroke-width="3.125" points="901.433,-781.89 906.65,-782.809 903.145,-778.837 901.433,-781.89"/>
<text text-anchor="middle" x="835" y="-666.8" font-family="Times New Roman,serif" font-size="14.00">5</text>
</g>
<!-- A7 -->
<g id="node16" class="node"><title>A7</title>
<polygon fill="wheat" stroke="black" points="979.5,-645 871.5,-645 871.5,-609 979.5,-609 979.5,-645"/>
<text text-anchor="middle" x="925.5" y="-623.3" font-family="Times New Roman,serif" font-size="14.00">A7 : Comment ?</text>
</g>
<!-- B6&#45;&gt;A7 -->
<g id="edge22" class="edge"><title>B6&#45;&gt;A7</title>
<path fill="none" stroke="#1f78b4" stroke-width="10" d="M952.976,-691.121C946.753,-676.824 938.741,-658.418 932.976,-645.175"/>
<polygon fill="#1f78b4" stroke="#1f78b4" stroke-width="10" points="949.005,-692.961 955.012,-695.799 957.028,-689.468 949.005,-692.961"/>
<text text-anchor="middle" x="953.5" y="-666.8" font-family="Times New Roman,serif" font-size="14.00">16</text>
</g>
<!-- A7&#45;&gt;B8 -->
<g id="edge23" class="edge"><title>A7&#45;&gt;B8</title>
<path fill="none" stroke="#1f78b4" stroke-width="6.25" d="M903.51,-605.232C888.217,-590.788 868.073,-571.764 853.686,-558.175"/>
<polygon fill="#1f78b4" stroke="#1f78b4" stroke-width="6.25" points="901.775,-607.354 907.287,-608.799 905.53,-603.378 901.775,-607.354"/>
<text text-anchor="middle" x="893.5" y="-579.8" font-family="Times New Roman,serif" font-size="14.00">10</text>
</g>
<!-- A9_1 -->
<g id="node18" class="node"><title>A9_1</title>
<polygon fill="wheat" stroke="black" points="1130.5,-471 540.5,-471 540.5,-435 1130.5,-435 1130.5,-471"/>
<text text-anchor="middle" x="835.5" y="-449.3" font-family="Times New Roman,serif" font-size="14.00">A9_1 : Ah mais euh... qui euh... ben il m&#39;a sauvé euh parce que j&#39;étais avec lui parce qu&#39;il... buvait quoi.</text>
<text text-anchor="start" x="532.5" y="-475.8" font-family="Times New Roman,serif" font-weight="bold" font-style="italic" font-size="14.00" fill="red">2</text>
</g>
<!-- B8&#45;&gt;A9_1 -->
<g id="edge24" class="edge"><title>B8&#45;&gt;A9_1</title>
<path fill="none" stroke="#1f78b4" stroke-width="8.75" d="M835.5,-516.748C835.5,-502.505 835.5,-484.303 835.5,-471.175"/>
<polygon fill="#1f78b4" stroke="#1f78b4" stroke-width="8.75" points="831.672,-516.799 835.5,-521.799 839.328,-516.799 831.672,-516.799"/>
<text text-anchor="middle" x="842.5" y="-492.8" font-family="Times New Roman,serif" font-size="14.00">14</text>
</g>
<!-- A9_2 -->
<g id="node19" class="node"><title>A9_2</title>
<polygon fill="wheat" stroke="black" points="1125.5,-384 727.5,-384 727.5,-348 1125.5,-348 1125.5,-384"/>
<text text-anchor="middle" x="926.5" y="-362.3" font-family="Times New Roman,serif" font-size="14.00">A9_2 : Il voulait me taper dessus et en plus son frangin il m&#39;a enlevé.</text>
<text text-anchor="start" x="719.5" y="-388.8" font-family="Times New Roman,serif" font-weight="bold" font-style="italic" font-size="14.00" fill="red">5</text>
</g>
<!-- A9_1&#45;&gt;A9_2 -->
<g id="edge25" class="edge"><title>A9_1&#45;&gt;A9_2</title>
<path fill="none" stroke="#1f78b4" stroke-width="7.5" d="M857.734,-431.232C873.197,-416.788 893.565,-397.764 908.112,-384.175"/>
<polygon fill="#1f78b4" stroke="#1f78b4" stroke-width="7.5" points="855.329,-428.988 853.915,-434.799 859.809,-433.784 855.329,-428.988"/>
<text text-anchor="middle" x="893.5" y="-405.8" font-family="Times New Roman,serif" font-size="14.00">12</text>
</g>
<!-- A9_2&#45;&gt;A9_3 -->
<g id="edge26" class="edge"><title>A9_2&#45;&gt;A9_3</title>
<path fill="none" stroke="#1f78b4" stroke-width="4.375" d="M974.659,-345.96C1011.74,-331.3 1062.55,-311.215 1098.32,-297.071"/>
<polygon fill="#1f78b4" stroke="#1f78b4" stroke-width="4.375" points="973.696,-344.283 969.75,-347.901 975.103,-347.843 973.696,-344.283"/>
<text text-anchor="middle" x="1051" y="-318.8" font-family="Times New Roman,serif" font-size="14.00">7</text>
</g>
<!-- A9_4 -->
<g id="node21" class="node"><title>A9_4</title>
<polygon fill="wheat" stroke="black" points="1362,-210 615,-210 615,-174 1362,-174 1362,-210"/>
<text text-anchor="middle" x="988.5" y="-188.3" font-family="Times New Roman,serif" font-size="14.00">A9_4 : Ben heureusement qu&#39;il m&#39;a fait ça parce que... il il faisait comme ça il se faisait disparaître et je peux le faire moi disparaître.</text>
<text text-anchor="start" x="607" y="-214.8" font-family="Times New Roman,serif" font-weight="bold" font-style="italic" font-size="14.00" fill="red">3</text>
</g>
<!-- A9_2&#45;&gt;A9_4 -->
<g id="edge27" class="edge"><title>A9_2&#45;&gt;A9_4</title>
<path fill="none" stroke="#1f78b4" stroke-width="1.875" d="M924.84,-342.516C924.063,-320.87 925.057,-287.592 935.5,-261 943.159,-241.495 958.292,-222.987 970.434,-210.218"/>
<polygon fill="#1f78b4" stroke="#1f78b4" stroke-width="1.875" points="923.103,-342.84 925.071,-347.758 926.599,-342.685 923.103,-342.84"/>
<text text-anchor="middle" x="939" y="-275.3" font-family="Times New Roman,serif" font-size="14.00">3</text>
</g>
<!-- A9_3&#45;&gt;A9_4 -->
<g id="edge28" class="edge"><title>A9_3&#45;&gt;A9_4</title>
<path fill="none" stroke="#1f78b4" stroke-width="6.875" d="M1106.07,-258.316C1079.76,-243.701 1044.25,-223.97 1019.15,-210.03"/>
<polygon fill="#1f78b4" stroke="#1f78b4" stroke-width="6.875" points="1104.71,-261 1110.54,-260.799 1107.63,-255.741 1104.71,-261"/>
<text text-anchor="middle" x="1081.5" y="-231.8" font-family="Times New Roman,serif" font-size="14.00">11</text>
</g>
<!-- B10 -->
<g id="node22" class="node"><title>B10</title>
<polygon fill="skyblue" stroke="black" points="1146,-123 831,-123 831,-87 1146,-87 1146,-123"/>
<text text-anchor="middle" x="988.5" y="-101.3" font-family="Times New Roman,serif" font-size="14.00">B10 : Donc vous pouviez disparaître et réapparaître ?</text>
</g>
<!-- A9_4&#45;&gt;B10 -->
<g id="edge29" class="edge"><title>A9_4&#45;&gt;B10</title>
<path fill="none" stroke="#1f78b4" stroke-width="10" d="M988.5,-168.748C988.5,-154.505 988.5,-136.303 988.5,-123.175"/>
<polygon fill="#1f78b4" stroke="#1f78b4" stroke-width="10" points="984.125,-168.799 988.5,-173.799 992.875,-168.799 984.125,-168.799"/>
<text text-anchor="middle" x="995.5" y="-144.8" font-family="Times New Roman,serif" font-size="14.00">16</text>
</g>
<!-- A11 -->
<g id="node23" class="node"><title>A11</title>
<polygon fill="wheat" stroke="black" points="1025.5,-36 951.5,-36 951.5,-0 1025.5,-0 1025.5,-36"/>
<text text-anchor="middle" x="988.5" y="-14.3" font-family="Times New Roman,serif" font-size="14.00">A11 : Oui.</text>
</g>
<!-- B10&#45;&gt;A11 -->
<g id="edge30" class="edge"><title>B10&#45;&gt;A11</title>
<path fill="none" stroke="#1f78b4" stroke-width="10" d="M988.5,-81.7475C988.5,-67.5047 988.5,-49.303 988.5,-36.1754"/>
<polygon fill="#1f78b4" stroke="#1f78b4" stroke-width="10" points="984.125,-81.7989 988.5,-86.799 992.875,-81.7991 984.125,-81.7989"/>
<text text-anchor="middle" x="995.5" y="-57.8" font-family="Times New Roman,serif" font-size="14.00">16</text>
</g>
</g>
</svg>
