<?xml version="1.0" encoding="UTF-8" standalone="no"?>
<!DOCTYPE svg PUBLIC "-//W3C//DTD SVG 1.1//EN"
 "http://www.w3.org/Graphics/SVG/1.1/DTD/svg11.dtd">
<!-- Generated by graphviz version 2.38.0 (20140413.2041)
 -->
<!-- Title: Sauveur Pages: 1 -->
<svg width="1576pt" height="1226pt"
 viewBox="0.00 0.00 1575.50 1226.00" xmlns="http://www.w3.org/2000/svg" xmlns:xlink="http://www.w3.org/1999/xlink">
<g id="graph0" class="graph" transform="scale(1 1) rotate(0) translate(4 1222)">
<title>Sauveur</title>
<polygon fill="white" stroke="none" points="-4,4 -4,-1222 1571.5,-1222 1571.5,4 -4,4"/>
<text text-anchor="start" x="23" y="-1199" font-family="Times New Roman,serif" font-size="20.00">Sauveur</text>
<text text-anchor="start" x="8" y="-1182.2" font-family="Times New Roman,serif" font-size="16.00">16 annotations </text>
<text text-anchor="start" x="17" y="-1166.2" font-family="Times New Roman,serif" font-size="16.00"> seuil = 0.15</text>
<!-- début -->
<g id="node1" class="node"><title>début</title>
<polygon fill="lightgrey" stroke="black" points="1077.5,-1158 985.5,-1158 985.5,-1122 1077.5,-1122 1077.5,-1158"/>
<text text-anchor="middle" x="1031.5" y="-1136.3" font-family="Times New Roman,serif" font-size="14.00">début : Début</text>
</g>
<!-- A1 -->
<g id="node2" class="node"><title>A1</title>
<polygon fill="wheat" stroke="black" points="928.5,-1056 428.5,-1056 428.5,-1020 928.5,-1020 928.5,-1056"/>
<text text-anchor="middle" x="678.5" y="-1034.3" font-family="Times New Roman,serif" font-size="14.00">A1 : enfin moi où j&#39;ai quand même souffert c&#39;est quand j&#39;ai eu mon traumatisme crânien</text>
<text text-anchor="start" x="412.5" y="-1060.8" font-family="Times New Roman,serif" font-weight="bold" font-style="italic" font-size="14.00" fill="red">15</text>
</g>
<!-- début&#45;&gt;A1 -->
<g id="edge1" class="edge"><title>début&#45;&gt;A1</title>
<path fill="none" stroke="#a6cee3" stroke-width="10" d="M980.365,-1125.93C955.596,-1119.5 925.449,-1111.53 898.5,-1104 842.496,-1088.36 778.815,-1069.42 734.429,-1056.03"/>
<polygon fill="#a6cee3" stroke="#a6cee3" stroke-width="10" points="979.306,-1130.17 985.244,-1127.19 981.502,-1121.7 979.306,-1130.17"/>
<text text-anchor="middle" x="924.5" y="-1092.8" font-family="Times New Roman,serif" font-size="14.00">Narration</text>
<text text-anchor="middle" x="924.5" y="-1077.8" font-family="Times New Roman,serif" font-size="14.00">15</text>
</g>
<!-- A5_1 -->
<g id="node9" class="node"><title>A5_1</title>
<polygon fill="wheat" stroke="black" points="946,-954 707,-954 707,-918 946,-918 946,-954"/>
<text text-anchor="middle" x="826.5" y="-932.3" font-family="Times New Roman,serif" font-size="14.00">A5_1 : On allait dans la ferme à S. (lieu)</text>
<text text-anchor="start" x="699" y="-958.8" font-family="Times New Roman,serif" font-weight="bold" font-style="italic" font-size="14.00" fill="red">8</text>
</g>
<!-- début&#45;&gt;A5_1 -->
<g id="edge2" class="edge"><title>début&#45;&gt;A5_1</title>
<path fill="none" stroke="#a6cee3" stroke-width="2" d="M1017.13,-1117.54C999.864,-1092.6 969.238,-1050.91 937.5,-1020 911.125,-994.315 876.628,-969.684 853.138,-954.023"/>
<polygon fill="#a6cee3" stroke="#a6cee3" stroke-width="2" points="1015.71,-1118.57 1019.99,-1121.7 1018.6,-1116.58 1015.71,-1118.57"/>
<text text-anchor="middle" x="996.5" y="-1041.8" font-family="Times New Roman,serif" font-size="14.00">Narration</text>
<text text-anchor="middle" x="996.5" y="-1026.8" font-family="Times New Roman,serif" font-size="14.00">3</text>
</g>
<!-- A5_5 -->
<g id="node13" class="node"><title>A5_5</title>
<polygon fill="wheat" stroke="black" points="1366.5,-1056 1034.5,-1056 1034.5,-1020 1366.5,-1020 1366.5,-1056"/>
<text text-anchor="middle" x="1200.5" y="-1034.3" font-family="Times New Roman,serif" font-size="14.00">A5_5 : Moi j&#39;aimais j’aime bien Franck. Franck L (nom).</text>
<text text-anchor="start" x="1026.5" y="-1060.8" font-family="Times New Roman,serif" font-weight="bold" font-style="italic" font-size="14.00" fill="red">2</text>
</g>
<!-- début&#45;&gt;A5_5 -->
<g id="edge3" class="edge"><title>début&#45;&gt;A5_5</title>
<path fill="none" stroke="#a6cee3" stroke-width="4" d="M1065.03,-1119.16C1096.15,-1100.75 1141.99,-1073.62 1171.54,-1056.13"/>
<polygon fill="#a6cee3" stroke="#a6cee3" stroke-width="4" points="1063.96,-1117.76 1060.55,-1121.81 1065.75,-1120.77 1063.96,-1117.76"/>
<text text-anchor="middle" x="1167.5" y="-1092.8" font-family="Times New Roman,serif" font-size="14.00">Narration</text>
<text text-anchor="middle" x="1167.5" y="-1077.8" font-family="Times New Roman,serif" font-size="14.00">6</text>
</g>
<!-- A9_3 -->
<g id="node20" class="node"><title>A9_3</title>
<polygon fill="wheat" stroke="black" points="1567.5,-342 1187.5,-342 1187.5,-306 1567.5,-306 1567.5,-342"/>
<text text-anchor="middle" x="1377.5" y="-320.3" font-family="Times New Roman,serif" font-size="14.00">A9_3 : Ben ce qui m&#39;aide là c&#39;est quelqu&#39;un de bien c&#39;est Damien.</text>
<text text-anchor="start" x="1179.5" y="-346.8" font-family="Times New Roman,serif" font-weight="bold" font-style="italic" font-size="14.00" fill="red">7</text>
</g>
<!-- début&#45;&gt;A9_3 -->
<g id="edge4" class="edge"><title>début&#45;&gt;A9_3</title>
<path fill="none" stroke="#a6cee3" stroke-width="2.66667" d="M1082.72,-1135.67C1183.21,-1127.72 1396.5,-1103.29 1396.5,-1039 1396.5,-1039 1396.5,-1039 1396.5,-425 1396.5,-395.488 1388.41,-361.925 1382.79,-342.155"/>
<polygon fill="#a6cee3" stroke="#a6cee3" stroke-width="2.66667" points="1082.58,-1133.93 1077.73,-1136.06 1082.85,-1137.41 1082.58,-1133.93"/>
<text text-anchor="middle" x="1422.5" y="-735.8" font-family="Times New Roman,serif" font-size="14.00">Narration</text>
<text text-anchor="middle" x="1422.5" y="-720.8" font-family="Times New Roman,serif" font-size="14.00">4</text>
</g>
<!-- B2 -->
<g id="node3" class="node"><title>B2</title>
<polygon fill="skyblue" stroke="black" points="642.5,-954 466.5,-954 466.5,-918 642.5,-918 642.5,-954"/>
<text text-anchor="middle" x="554.5" y="-932.3" font-family="Times New Roman,serif" font-size="14.00">B2 : C&#39;est dû à un accident ?</text>
<text text-anchor="start" x="458.5" y="-958.8" font-family="Times New Roman,serif" font-weight="bold" font-style="italic" font-size="14.00" fill="red">1</text>
</g>
<!-- A1&#45;&gt;B2 -->
<g id="edge27" class="edge"><title>A1&#45;&gt;B2</title>
<path fill="none" stroke="#33a02c" stroke-width="9.33333" d="M653.062,-1016.49C630.326,-998.15 597.384,-971.584 575.953,-954.301"/>
<polygon fill="#33a02c" stroke="#33a02c" stroke-width="9.33333" points="650.728,-1019.85 657.184,-1019.81 655.855,-1013.49 650.728,-1019.85"/>
<text text-anchor="middle" x="661" y="-990.8" font-family="Times New Roman,serif" font-size="14.00">Question</text>
<text text-anchor="middle" x="661" y="-975.8" font-family="Times New Roman,serif" font-size="14.00">14</text>
</g>
<!-- A1&#45;&gt;A5_1 -->
<g id="edge7" class="edge"><title>A1&#45;&gt;A5_1</title>
<path fill="none" stroke="#1f78b4" stroke-width="2" d="M708.188,-1016.94C735.344,-998.592 775.104,-971.727 800.895,-954.301"/>
<polygon fill="#1f78b4" stroke="#1f78b4" stroke-width="2" points="707.105,-1015.56 703.942,-1019.81 709.065,-1018.46 707.105,-1015.56"/>
<text text-anchor="middle" x="809.5" y="-990.8" font-family="Times New Roman,serif" font-size="14.00">Elaborations</text>
<text text-anchor="middle" x="809.5" y="-975.8" font-family="Times New Roman,serif" font-size="14.00">3</text>
</g>
<!-- A3_1 -->
<g id="node4" class="node"><title>A3_1</title>
<polygon fill="wheat" stroke="black" points="557.5,-852 261.5,-852 261.5,-816 557.5,-816 557.5,-852"/>
<text text-anchor="middle" x="409.5" y="-830.3" font-family="Times New Roman,serif" font-size="14.00">A3_1 : Oui enfin on m’avait pratiquement culbuté.</text>
<text text-anchor="start" x="253.5" y="-856.8" font-family="Times New Roman,serif" font-weight="bold" font-style="italic" font-size="14.00" fill="red">1</text>
</g>
<!-- B2&#45;&gt;A3_1 -->
<g id="edge8" class="edge"><title>B2&#45;&gt;A3_1</title>
<path fill="none" stroke="#1f78b4" stroke-width="8.66667" d="M525.414,-914.94C498.808,-896.592 459.854,-869.727 434.586,-852.301"/>
<polygon fill="#1f78b4" stroke="#1f78b4" stroke-width="8.66667" points="523.305,-918.092 529.574,-917.809 527.61,-911.849 523.305,-918.092"/>
<text text-anchor="middle" x="538.5" y="-888.8" font-family="Times New Roman,serif" font-size="14.00">Elaborations</text>
<text text-anchor="middle" x="538.5" y="-873.8" font-family="Times New Roman,serif" font-size="14.00">13</text>
</g>
<!-- A3_2 -->
<g id="node5" class="node"><title>A3_2</title>
<polygon fill="wheat" stroke="black" points="661,-750 8,-750 8,-714 661,-714 661,-750"/>
<text text-anchor="middle" x="334.5" y="-728.3" font-family="Times New Roman,serif" font-size="14.00">A3_2 : C’est quand même bien un... &#160;ç&#39;en est un qui m&#39;a balancé... qu&#39;était devant et puis moi derrière et qui m’a...</text>
<text text-anchor="start" x="0" y="-754.8" font-family="Times New Roman,serif" font-weight="bold" font-style="italic" font-size="14.00" fill="red">3</text>
</g>
<!-- A3_1&#45;&gt;A3_2 -->
<g id="edge5" class="edge"><title>A3_1&#45;&gt;A3_2</title>
<path fill="none" stroke="#a6cee3" stroke-width="2" d="M350.133,-812.941C344.393,-808.831 339.302,-803.903 335.5,-798 326.394,-783.862 327.55,-764.162 330.106,-750.164"/>
<polygon fill="#a6cee3" stroke="#a6cee3" stroke-width="2" points="349.504,-814.624 354.639,-815.927 351.438,-811.706 349.504,-814.624"/>
<text text-anchor="middle" x="361.5" y="-786.8" font-family="Times New Roman,serif" font-size="14.00">Narration</text>
<text text-anchor="middle" x="361.5" y="-771.8" font-family="Times New Roman,serif" font-size="14.00">3</text>
</g>
<!-- A3_1&#45;&gt;A3_2 -->
<g id="edge9" class="edge"><title>A3_1&#45;&gt;A3_2</title>
<path fill="none" stroke="#1f78b4" stroke-width="7.33333" d="M405.741,-810.648C402.612,-797.229 397.068,-780.411 387.5,-768 382.181,-761.101 375.098,-755.127 367.846,-750.164"/>
<polygon fill="#1f78b4" stroke="#1f78b4" stroke-width="7.33333" points="402.663,-811.593 406.863,-815.794 408.932,-810.225 402.663,-811.593"/>
<text text-anchor="middle" x="437.5" y="-786.8" font-family="Times New Roman,serif" font-size="14.00">Elaborations</text>
<text text-anchor="middle" x="437.5" y="-771.8" font-family="Times New Roman,serif" font-size="14.00">11</text>
</g>
<!-- A3_3 -->
<g id="node6" class="node"><title>A3_3</title>
<polygon fill="wheat" stroke="black" points="516,-648 153,-648 153,-612 516,-612 516,-648"/>
<text text-anchor="middle" x="334.5" y="-626.3" font-family="Times New Roman,serif" font-size="14.00">A3_3 : mais enfin je m’en fous parce que... enfin j&#39;étais chargé</text>
<text text-anchor="start" x="145" y="-652.8" font-family="Times New Roman,serif" font-weight="bold" font-style="italic" font-size="14.00" fill="red">4</text>
</g>
<!-- A3_2&#45;&gt;A3_3 -->
<g id="edge10" class="edge"><title>A3_2&#45;&gt;A3_3</title>
<path fill="none" stroke="#1f78b4" stroke-width="6.66667" d="M334.5,-708.163C334.5,-689.932 334.5,-664.784 334.5,-648.219"/>
<polygon fill="#1f78b4" stroke="#1f78b4" stroke-width="6.66667" points="331.583,-708.581 334.5,-713.581 337.417,-708.581 331.583,-708.581"/>
<text text-anchor="middle" x="369.5" y="-684.8" font-family="Times New Roman,serif" font-size="14.00">Elaborations</text>
<text text-anchor="middle" x="369.5" y="-669.8" font-family="Times New Roman,serif" font-size="14.00">10</text>
</g>
<!-- A3_4 -->
<g id="node7" class="node"><title>A3_4</title>
<polygon fill="wheat" stroke="black" points="581.5,-546 87.5,-546 87.5,-510 581.5,-510 581.5,-546"/>
<text text-anchor="middle" x="334.5" y="-524.3" font-family="Times New Roman,serif" font-size="14.00">A3_4 : J&#39;avais quand même 5 litres de vin de... de &#160;pineau 5 litres de bière plus 1 ou 2.</text>
</g>
<!-- A3_3&#45;&gt;A3_4 -->
<g id="edge11" class="edge"><title>A3_3&#45;&gt;A3_4</title>
<path fill="none" stroke="#1f78b4" stroke-width="8.66667" d="M334.5,-606.163C334.5,-587.932 334.5,-562.784 334.5,-546.219"/>
<polygon fill="#1f78b4" stroke="#1f78b4" stroke-width="8.66667" points="330.708,-606.581 334.5,-611.581 338.292,-606.581 330.708,-606.581"/>
<text text-anchor="middle" x="369.5" y="-582.8" font-family="Times New Roman,serif" font-size="14.00">Elaborations</text>
<text text-anchor="middle" x="369.5" y="-567.8" font-family="Times New Roman,serif" font-size="14.00">13</text>
</g>
<!-- B4 -->
<g id="node8" class="node"><title>B4</title>
<polygon fill="skyblue" stroke="black" points="412.5,-444 256.5,-444 256.5,-408 412.5,-408 412.5,-444"/>
<text text-anchor="middle" x="334.5" y="-422.3" font-family="Times New Roman,serif" font-size="14.00">B4 : Que vous aviez bu ?</text>
<text text-anchor="start" x="248.5" y="-448.8" font-family="Times New Roman,serif" font-weight="bold" font-style="italic" font-size="14.00" fill="red">1</text>
</g>
<!-- A3_4&#45;&gt;B4 -->
<g id="edge28" class="edge"><title>A3_4&#45;&gt;B4</title>
<path fill="none" stroke="#33a02c" stroke-width="9.33333" d="M334.5,-504.163C334.5,-485.932 334.5,-460.784 334.5,-444.219"/>
<polygon fill="#33a02c" stroke="#33a02c" stroke-width="9.33333" points="330.417,-504.581 334.5,-509.581 338.583,-504.581 330.417,-504.581"/>
<text text-anchor="middle" x="360" y="-480.8" font-family="Times New Roman,serif" font-size="14.00">Question</text>
<text text-anchor="middle" x="360" y="-465.8" font-family="Times New Roman,serif" font-size="14.00">14</text>
</g>
<!-- A5_2 -->
<g id="node10" class="node"><title>A5_2</title>
<polygon fill="wheat" stroke="black" points="920,-852 733,-852 733,-816 920,-816 920,-852"/>
<text text-anchor="middle" x="826.5" y="-830.3" font-family="Times New Roman,serif" font-size="14.00">A5_2 : une ferme abandonnée.</text>
<text text-anchor="start" x="725" y="-856.8" font-family="Times New Roman,serif" font-weight="bold" font-style="italic" font-size="14.00" fill="red">1</text>
</g>
<!-- A5_1&#45;&gt;A5_2 -->
<g id="edge12" class="edge"><title>A5_1&#45;&gt;A5_2</title>
<path fill="none" stroke="#1f78b4" stroke-width="9.33333" d="M826.5,-912.163C826.5,-893.932 826.5,-868.784 826.5,-852.219"/>
<polygon fill="#1f78b4" stroke="#1f78b4" stroke-width="9.33333" points="822.417,-912.581 826.5,-917.581 830.583,-912.581 822.417,-912.581"/>
<text text-anchor="middle" x="861.5" y="-888.8" font-family="Times New Roman,serif" font-size="14.00">Elaborations</text>
<text text-anchor="middle" x="861.5" y="-873.8" font-family="Times New Roman,serif" font-size="14.00">14</text>
</g>
<!-- A5_3 -->
<g id="node11" class="node"><title>A5_3</title>
<polygon fill="wheat" stroke="black" points="1166,-750 843,-750 843,-714 1166,-714 1166,-750"/>
<text text-anchor="middle" x="1004.5" y="-728.3" font-family="Times New Roman,serif" font-size="14.00">A5_3 : Qu’habite qu’est... qu’appartient à Henry euh...</text>
</g>
<!-- A5_1&#45;&gt;A5_3 -->
<g id="edge13" class="edge"><title>A5_1&#45;&gt;A5_3</title>
<path fill="none" stroke="#1f78b4" stroke-width="3.33333" d="M876.846,-915.582C885.214,-911.155 893.451,-905.964 900.5,-900 951.084,-857.199 984.727,-783.364 998.055,-750.11"/>
<polygon fill="#1f78b4" stroke="#1f78b4" stroke-width="3.33333" points="875.846,-914.128 872.19,-917.962 877.439,-917.244 875.846,-914.128"/>
<text text-anchor="middle" x="1001.5" y="-837.8" font-family="Times New Roman,serif" font-size="14.00">Elaborations</text>
<text text-anchor="middle" x="1001.5" y="-822.8" font-family="Times New Roman,serif" font-size="14.00">5</text>
</g>
<!-- A5_4 -->
<g id="node12" class="node"><title>A5_4</title>
<polygon fill="wheat" stroke="black" points="955,-648 554,-648 554,-612 955,-612 955,-648"/>
<text text-anchor="middle" x="754.5" y="-626.3" font-family="Times New Roman,serif" font-size="14.00">A5_4 : une maison qu’est qu&#39;on a fait qu&#39;on a fait... qu’on a touchée.</text>
<text text-anchor="start" x="546" y="-652.8" font-family="Times New Roman,serif" font-weight="bold" font-style="italic" font-size="14.00" fill="red">7</text>
</g>
<!-- A5_1&#45;&gt;A5_4 -->
<g id="edge14" class="edge"><title>A5_1&#45;&gt;A5_4</title>
<path fill="none" stroke="#1f78b4" stroke-width="3.33333" d="M794.262,-914.825C772.11,-899.686 743.246,-877.283 723.5,-852 707.221,-831.156 704.189,-823.828 698.5,-798 686.134,-741.856 722.132,-678.109 742.128,-648.205"/>
<polygon fill="#1f78b4" stroke="#1f78b4" stroke-width="3.33333" points="793.476,-916.406 798.599,-917.755 795.435,-913.506 793.476,-916.406"/>
<text text-anchor="middle" x="733.5" y="-786.8" font-family="Times New Roman,serif" font-size="14.00">Elaborations</text>
<text text-anchor="middle" x="733.5" y="-771.8" font-family="Times New Roman,serif" font-size="14.00">5</text>
</g>
<!-- A5_2&#45;&gt;A5_3 -->
<g id="edge15" class="edge"><title>A5_2&#45;&gt;A5_3</title>
<path fill="none" stroke="#1f78b4" stroke-width="5.33333" d="M846.179,-812.128C860.418,-798.04 880.735,-779.912 901.5,-768 913.868,-760.905 927.9,-754.95 941.538,-750.081"/>
<polygon fill="#1f78b4" stroke="#1f78b4" stroke-width="5.33333" points="844.209,-810.799 842.329,-815.986 847.512,-814.095 844.209,-810.799"/>
<text text-anchor="middle" x="936.5" y="-786.8" font-family="Times New Roman,serif" font-size="14.00">Elaborations</text>
<text text-anchor="middle" x="936.5" y="-771.8" font-family="Times New Roman,serif" font-size="14.00">8</text>
</g>
<!-- A5_2&#45;&gt;A5_4 -->
<g id="edge16" class="edge"><title>A5_2&#45;&gt;A5_4</title>
<path fill="none" stroke="#1f78b4" stroke-width="3.33333" d="M804.986,-811.948C790.51,-796.325 772.486,-773.703 763.5,-750 750.5,-715.709 751.174,-671.949 752.828,-648.206"/>
<polygon fill="#1f78b4" stroke="#1f78b4" stroke-width="3.33333" points="803.88,-813.326 808.582,-815.766 806.427,-810.926 803.88,-813.326"/>
<text text-anchor="middle" x="798.5" y="-735.8" font-family="Times New Roman,serif" font-size="14.00">Elaborations</text>
<text text-anchor="middle" x="798.5" y="-720.8" font-family="Times New Roman,serif" font-size="14.00">5</text>
</g>
<!-- A5_3&#45;&gt;A5_4 -->
<g id="edge17" class="edge"><title>A5_3&#45;&gt;A5_4</title>
<path fill="none" stroke="#1f78b4" stroke-width="2.66667" d="M957.137,-712.055C910.98,-693.592 841.444,-665.777 797.016,-648.007"/>
<polygon fill="#1f78b4" stroke="#1f78b4" stroke-width="2.66667" points="956.515,-713.691 961.808,-713.923 957.815,-710.441 956.515,-713.691"/>
<text text-anchor="middle" x="951.5" y="-684.8" font-family="Times New Roman,serif" font-size="14.00">Elaborations</text>
<text text-anchor="middle" x="951.5" y="-669.8" font-family="Times New Roman,serif" font-size="14.00">4</text>
</g>
<!-- A5_6 -->
<g id="node14" class="node"><title>A5_6</title>
<polygon fill="wheat" stroke="black" points="1310.5,-954 1090.5,-954 1090.5,-918 1310.5,-918 1310.5,-954"/>
<text text-anchor="middle" x="1200.5" y="-932.3" font-family="Times New Roman,serif" font-size="14.00">A5_6 : il m&#39;a sauvé... avec son frère.</text>
</g>
<!-- A5_5&#45;&gt;A5_6 -->
<g id="edge18" class="edge"><title>A5_5&#45;&gt;A5_6</title>
<path fill="none" stroke="#1f78b4" stroke-width="8.66667" d="M1200.5,-1014.16C1200.5,-995.932 1200.5,-970.784 1200.5,-954.219"/>
<polygon fill="#1f78b4" stroke="#1f78b4" stroke-width="8.66667" points="1196.71,-1014.58 1200.5,-1019.58 1204.29,-1014.58 1196.71,-1014.58"/>
<text text-anchor="middle" x="1235.5" y="-990.8" font-family="Times New Roman,serif" font-size="14.00">Elaborations</text>
<text text-anchor="middle" x="1235.5" y="-975.8" font-family="Times New Roman,serif" font-size="14.00">13</text>
</g>
<!-- B6 -->
<g id="node15" class="node"><title>B6</title>
<polygon fill="skyblue" stroke="black" points="1296.5,-852 1088.5,-852 1088.5,-816 1296.5,-816 1296.5,-852"/>
<text text-anchor="middle" x="1192.5" y="-830.3" font-family="Times New Roman,serif" font-size="14.00">B6 : Il vous a sauvé comment ça ?</text>
</g>
<!-- A5_6&#45;&gt;B6 -->
<g id="edge29" class="edge"><title>A5_6&#45;&gt;B6</title>
<path fill="none" stroke="#33a02c" stroke-width="8.66667" d="M1198.67,-912.163C1197.21,-893.932 1195.2,-868.784 1193.88,-852.219"/>
<polygon fill="#33a02c" stroke="#33a02c" stroke-width="8.66667" points="1194.93,-912.9 1199.11,-917.581 1202.49,-912.295 1194.93,-912.9"/>
<text text-anchor="middle" x="1224" y="-888.8" font-family="Times New Roman,serif" font-size="14.00">Question</text>
<text text-anchor="middle" x="1224" y="-873.8" font-family="Times New Roman,serif" font-size="14.00">13</text>
</g>
<!-- B8 -->
<g id="node17" class="node"><title>B8</title>
<polygon fill="skyblue" stroke="black" points="1334,-648 1125,-648 1125,-612 1334,-612 1334,-648"/>
<text text-anchor="middle" x="1229.5" y="-626.3" font-family="Times New Roman,serif" font-size="14.00">B8 : Comment ça il vous a sauvé ?</text>
</g>
<!-- A5_6&#45;&gt;B8 -->
<g id="edge30" class="edge"><title>A5_6&#45;&gt;B8</title>
<path fill="none" stroke="#33a02c" stroke-width="3.33333" d="M1241.48,-915.454C1265.36,-901.523 1293.13,-880.254 1305.5,-852 1338.93,-775.646 1334.34,-730.466 1281.5,-666 1275.91,-659.183 1268.65,-653.175 1261.34,-648.148"/>
<polygon fill="#33a02c" stroke="#33a02c" stroke-width="3.33333" points="1240.55,-913.972 1237.07,-917.97 1242.28,-917.012 1240.55,-913.972"/>
<text text-anchor="middle" x="1353" y="-786.8" font-family="Times New Roman,serif" font-size="14.00">Question</text>
<text text-anchor="middle" x="1353" y="-771.8" font-family="Times New Roman,serif" font-size="14.00">5</text>
</g>
<!-- A7 -->
<g id="node16" class="node"><title>A7</title>
<polygon fill="wheat" stroke="black" points="1292.5,-750 1184.5,-750 1184.5,-714 1292.5,-714 1292.5,-750"/>
<text text-anchor="middle" x="1238.5" y="-728.3" font-family="Times New Roman,serif" font-size="14.00">A7 : Comment ?</text>
</g>
<!-- B6&#45;&gt;A7 -->
<g id="edge25" class="edge"><title>B6&#45;&gt;A7</title>
<path fill="none" stroke="#b2df8a" stroke-width="9.33333" d="M1202.79,-810.633C1211.19,-792.366 1222.89,-766.927 1230.58,-750.219"/>
<polygon fill="#b2df8a" stroke="#b2df8a" stroke-width="9.33333" points="1198.89,-809.332 1200.51,-815.581 1206.31,-812.745 1198.89,-809.332"/>
<text text-anchor="middle" x="1236.5" y="-786.8" font-family="Times New Roman,serif" font-size="14.00">Méta</text>
<text text-anchor="middle" x="1236.5" y="-771.8" font-family="Times New Roman,serif" font-size="14.00">14</text>
</g>
<!-- A7&#45;&gt;B8 -->
<g id="edge26" class="edge"><title>A7&#45;&gt;B8</title>
<path fill="none" stroke="#b2df8a" stroke-width="2" d="M1245.57,-709.132C1248.68,-696.425 1250.93,-680.174 1247.5,-666 1246.02,-659.89 1243.28,-653.652 1240.38,-648.166"/>
<polygon fill="#b2df8a" stroke="#b2df8a" stroke-width="2" points="1243.87,-708.712 1244.3,-713.992 1247.26,-709.598 1243.87,-708.712"/>
<text text-anchor="middle" x="1263.5" y="-684.8" font-family="Times New Roman,serif" font-size="14.00">Méta</text>
<text text-anchor="middle" x="1263.5" y="-669.8" font-family="Times New Roman,serif" font-size="14.00">3</text>
</g>
<!-- A7&#45;&gt;B8 -->
<g id="edge31" class="edge"><title>A7&#45;&gt;B8</title>
<path fill="none" stroke="#33a02c" stroke-width="3.33333" d="M1203.81,-710.548C1199.25,-706.333 1195.22,-701.479 1192.5,-696 1186.58,-684.054 1187.23,-678.246 1192.5,-666 1195.37,-659.34 1200.19,-653.356 1205.43,-648.298"/>
<polygon fill="#33a02c" stroke="#33a02c" stroke-width="3.33333" points="1202.82,-712.005 1207.75,-713.939 1205.1,-709.352 1202.82,-712.005"/>
<text text-anchor="middle" x="1218" y="-684.8" font-family="Times New Roman,serif" font-size="14.00">Question</text>
<text text-anchor="middle" x="1218" y="-669.8" font-family="Times New Roman,serif" font-size="14.00">5</text>
</g>
<!-- A9_1 -->
<g id="node18" class="node"><title>A9_1</title>
<polygon fill="wheat" stroke="black" points="1368.5,-546 778.5,-546 778.5,-510 1368.5,-510 1368.5,-546"/>
<text text-anchor="middle" x="1073.5" y="-524.3" font-family="Times New Roman,serif" font-size="14.00">A9_1 : Ah mais euh... qui euh... ben il m&#39;a sauvé euh parce que j&#39;étais avec lui parce qu&#39;il... buvait quoi.</text>
<text text-anchor="start" x="770.5" y="-550.8" font-family="Times New Roman,serif" font-weight="bold" font-style="italic" font-size="14.00" fill="red">2</text>
</g>
<!-- B8&#45;&gt;A9_1 -->
<g id="edge19" class="edge"><title>B8&#45;&gt;A9_1</title>
<path fill="none" stroke="#1f78b4" stroke-width="8" d="M1198.19,-608.931C1169.48,-590.524 1127.4,-563.552 1100.23,-546.133"/>
<polygon fill="#1f78b4" stroke="#1f78b4" stroke-width="8" points="1196.58,-612.058 1202.68,-611.809 1200.36,-606.164 1196.58,-612.058"/>
<text text-anchor="middle" x="1210.5" y="-582.8" font-family="Times New Roman,serif" font-size="14.00">Elaborations</text>
<text text-anchor="middle" x="1210.5" y="-567.8" font-family="Times New Roman,serif" font-size="14.00">12</text>
</g>
<!-- A9_2 -->
<g id="node19" class="node"><title>A9_2</title>
<polygon fill="wheat" stroke="black" points="1330.5,-444 932.5,-444 932.5,-408 1330.5,-408 1330.5,-444"/>
<text text-anchor="middle" x="1131.5" y="-422.3" font-family="Times New Roman,serif" font-size="14.00">A9_2 : Il voulait me taper dessus et en plus son frangin il m&#39;a enlevé.</text>
<text text-anchor="start" x="924.5" y="-448.8" font-family="Times New Roman,serif" font-weight="bold" font-style="italic" font-size="14.00" fill="red">5</text>
</g>
<!-- A9_1&#45;&gt;A9_2 -->
<g id="edge20" class="edge"><title>A9_1&#45;&gt;A9_2</title>
<path fill="none" stroke="#1f78b4" stroke-width="6.66667" d="M1086.2,-505.099C1096.81,-486.802 1111.74,-461.07 1121.51,-444.219"/>
<polygon fill="#1f78b4" stroke="#1f78b4" stroke-width="6.66667" points="1083.59,-503.793 1083.6,-509.581 1088.63,-506.72 1083.59,-503.793"/>
<text text-anchor="middle" x="1146.5" y="-480.8" font-family="Times New Roman,serif" font-size="14.00">Elaborations</text>
<text text-anchor="middle" x="1146.5" y="-465.8" font-family="Times New Roman,serif" font-size="14.00">10</text>
</g>
<!-- A9_2&#45;&gt;A9_3 -->
<g id="edge6" class="edge"><title>A9_2&#45;&gt;A9_3</title>
<path fill="none" stroke="#a6cee3" stroke-width="2" d="M1149.26,-403.826C1162.67,-389.25 1182.33,-370.66 1203.5,-360 1218.36,-352.517 1234.7,-346.634 1251.22,-342.009"/>
<polygon fill="#a6cee3" stroke="#a6cee3" stroke-width="2" points="1147.71,-402.938 1145.65,-407.82 1150.3,-405.285 1147.71,-402.938"/>
<text text-anchor="middle" x="1229.5" y="-378.8" font-family="Times New Roman,serif" font-size="14.00">Narration</text>
<text text-anchor="middle" x="1229.5" y="-363.8" font-family="Times New Roman,serif" font-size="14.00">3</text>
</g>
<!-- A9_2&#45;&gt;A9_3 -->
<g id="edge21" class="edge"><title>A9_2&#45;&gt;A9_3</title>
<path fill="none" stroke="#1f78b4" stroke-width="2.66667" d="M1206.91,-406.507C1223.16,-401.752 1240.08,-396.202 1255.5,-390 1260.18,-388.12 1311.26,-360.714 1345.82,-342.095"/>
<polygon fill="#1f78b4" stroke="#1f78b4" stroke-width="2.66667" points="1206.21,-404.887 1201.9,-407.956 1207.19,-408.25 1206.21,-404.887"/>
<text text-anchor="middle" x="1347.5" y="-378.8" font-family="Times New Roman,serif" font-size="14.00">Elaborations</text>
<text text-anchor="middle" x="1347.5" y="-363.8" font-family="Times New Roman,serif" font-size="14.00">4</text>
</g>
<!-- A9_4 -->
<g id="node21" class="node"><title>A9_4</title>
<polygon fill="wheat" stroke="black" points="1550,-240 803,-240 803,-204 1550,-204 1550,-240"/>
<text text-anchor="middle" x="1176.5" y="-218.3" font-family="Times New Roman,serif" font-size="14.00">A9_4 : Ben heureusement qu&#39;il m&#39;a fait ça parce que... il il faisait comme ça il se faisait disparaître et je peux le faire moi disparaître.</text>
<text text-anchor="start" x="795" y="-244.8" font-family="Times New Roman,serif" font-weight="bold" font-style="italic" font-size="14.00" fill="red">3</text>
</g>
<!-- A9_2&#45;&gt;A9_4 -->
<g id="edge22" class="edge"><title>A9_2&#45;&gt;A9_4</title>
<path fill="none" stroke="#1f78b4" stroke-width="2" d="M1120.42,-402.974C1109.75,-378.679 1096.82,-338.695 1108.5,-306 1117.97,-279.512 1139.92,-255.394 1156.34,-240.067"/>
<polygon fill="#1f78b4" stroke="#1f78b4" stroke-width="2" points="1118.86,-403.78 1122.51,-407.617 1122.05,-402.34 1118.86,-403.78"/>
<text text-anchor="middle" x="1143.5" y="-327.8" font-family="Times New Roman,serif" font-size="14.00">Elaborations</text>
<text text-anchor="middle" x="1143.5" y="-312.8" font-family="Times New Roman,serif" font-size="14.00">3</text>
</g>
<!-- A9_3&#45;&gt;A9_4 -->
<g id="edge23" class="edge"><title>A9_3&#45;&gt;A9_4</title>
<path fill="none" stroke="#1f78b4" stroke-width="6" d="M1338.07,-303.384C1301.06,-284.969 1246.24,-257.695 1210.94,-240.133"/>
<polygon fill="#1f78b4" stroke="#1f78b4" stroke-width="6" points="1337.3,-305.932 1342.95,-305.809 1339.64,-301.232 1337.3,-305.932"/>
<text text-anchor="middle" x="1342.5" y="-276.8" font-family="Times New Roman,serif" font-size="14.00">Elaborations</text>
<text text-anchor="middle" x="1342.5" y="-261.8" font-family="Times New Roman,serif" font-size="14.00">9</text>
</g>
<!-- B10 -->
<g id="node22" class="node"><title>B10</title>
<polygon fill="skyblue" stroke="black" points="1334,-138 1019,-138 1019,-102 1334,-102 1334,-138"/>
<text text-anchor="middle" x="1176.5" y="-116.3" font-family="Times New Roman,serif" font-size="14.00">B10 : Donc vous pouviez disparaître et réapparaître ?</text>
</g>
<!-- A9_4&#45;&gt;B10 -->
<g id="edge32" class="edge"><title>A9_4&#45;&gt;B10</title>
<path fill="none" stroke="#33a02c" stroke-width="9.33333" d="M1176.5,-198.163C1176.5,-179.932 1176.5,-154.784 1176.5,-138.219"/>
<polygon fill="#33a02c" stroke="#33a02c" stroke-width="9.33333" points="1172.42,-198.581 1176.5,-203.581 1180.58,-198.581 1172.42,-198.581"/>
<text text-anchor="middle" x="1202" y="-174.8" font-family="Times New Roman,serif" font-size="14.00">Question</text>
<text text-anchor="middle" x="1202" y="-159.8" font-family="Times New Roman,serif" font-size="14.00">14</text>
</g>
<!-- A11 -->
<g id="node23" class="node"><title>A11</title>
<polygon fill="wheat" stroke="black" points="1213.5,-36 1139.5,-36 1139.5,-0 1213.5,-0 1213.5,-36"/>
<text text-anchor="middle" x="1176.5" y="-14.3" font-family="Times New Roman,serif" font-size="14.00">A11 : Oui.</text>
</g>
<!-- B10&#45;&gt;A11 -->
<g id="edge24" class="edge"><title>B10&#45;&gt;A11</title>
<path fill="none" stroke="#1f78b4" stroke-width="10" d="M1176.5,-96.1628C1176.5,-77.9321 1176.5,-52.7841 1176.5,-36.2191"/>
<polygon fill="#1f78b4" stroke="#1f78b4" stroke-width="10" points="1172.13,-96.5812 1176.5,-101.581 1180.88,-96.5814 1172.13,-96.5812"/>
<text text-anchor="middle" x="1211.5" y="-72.8" font-family="Times New Roman,serif" font-size="14.00">Elaborations</text>
<text text-anchor="middle" x="1211.5" y="-57.8" font-family="Times New Roman,serif" font-size="14.00">15</text>
</g>
</g>
</svg>
