<?xml version="1.0" encoding="UTF-8" standalone="no"?>
<!DOCTYPE svg PUBLIC "-//W3C//DTD SVG 1.1//EN"
 "http://www.w3.org/Graphics/SVG/1.1/DTD/svg11.dtd">
<!-- Generated by graphviz version 2.38.0 (20140413.2041)
 -->
<!-- Title: Volley Pages: 1 -->
<svg width="1288pt" height="1736pt"
 viewBox="0.00 0.00 1288.00 1736.00" xmlns="http://www.w3.org/2000/svg" xmlns:xlink="http://www.w3.org/1999/xlink">
<g id="graph0" class="graph" transform="scale(1 1) rotate(0) translate(4 1732)">
<title>Volley</title>
<polygon fill="white" stroke="none" points="-4,4 -4,-1732 1284,-1732 1284,4 -4,4"/>
<text text-anchor="start" x="28.5" y="-1709" font-family="Times New Roman,serif" font-size="20.00">Volley</text>
<text text-anchor="start" x="8" y="-1692.2" font-family="Times New Roman,serif" font-size="16.00">23 annotations </text>
<text text-anchor="start" x="17" y="-1676.2" font-family="Times New Roman,serif" font-size="16.00"> seuil = 0.15</text>
<!-- début -->
<g id="node1" class="node"><title>début</title>
<polygon fill="lightgrey" stroke="black" points="414.5,-1668 322.5,-1668 322.5,-1632 414.5,-1632 414.5,-1668"/>
<text text-anchor="middle" x="368.5" y="-1646.3" font-family="Times New Roman,serif" font-size="14.00">début : Début</text>
</g>
<!-- A1 -->
<g id="node2" class="node"><title>A1</title>
<polygon fill="wheat" stroke="black" points="602.5,-1566 134.5,-1566 134.5,-1530 602.5,-1530 602.5,-1566"/>
<text text-anchor="middle" x="368.5" y="-1544.3" font-family="Times New Roman,serif" font-size="14.00">A1 : Je suis ici depuis deux ans et j&#39;en ai fait une dizaine d&#39;années à B. près de M.</text>
<text text-anchor="start" x="118.5" y="-1570.8" font-family="Times New Roman,serif" font-weight="bold" font-style="italic" font-size="14.00" fill="red">23</text>
</g>
<!-- début&#45;&gt;A1 -->
<g id="edge1" class="edge"><title>début&#45;&gt;A1</title>
<path fill="none" stroke="#a6cee3" stroke-width="10" d="M368.5,-1626.16C368.5,-1607.93 368.5,-1582.78 368.5,-1566.22"/>
<polygon fill="#a6cee3" stroke="#a6cee3" stroke-width="10" points="364.125,-1626.58 368.5,-1631.58 372.875,-1626.58 364.125,-1626.58"/>
<text text-anchor="middle" x="394.5" y="-1602.8" font-family="Times New Roman,serif" font-size="14.00">Narration</text>
<text text-anchor="middle" x="394.5" y="-1587.8" font-family="Times New Roman,serif" font-size="14.00">21</text>
</g>
<!-- B2 -->
<g id="node3" class="node"><title>B2</title>
<polygon fill="skyblue" stroke="black" points="393.5,-1464 81.5,-1464 81.5,-1428 393.5,-1428 393.5,-1464"/>
<text text-anchor="middle" x="237.5" y="-1442.3" font-family="Times New Roman,serif" font-size="14.00">B2 : D’accord, ok et ça va vous avez un bon niveau?</text>
<text text-anchor="start" x="73.5" y="-1468.8" font-family="Times New Roman,serif" font-weight="bold" font-style="italic" font-size="14.00" fill="red">2</text>
</g>
<!-- A1&#45;&gt;B2 -->
<g id="edge31" class="edge"><title>A1&#45;&gt;B2</title>
<path fill="none" stroke="#6a3d9a" stroke-width="8.57143" d="M341.925,-1526.71C317.896,-1508.37 282.899,-1481.66 260.164,-1464.3"/>
<polygon fill="#6a3d9a" stroke="#6a3d9a" stroke-width="8.57143" points="339.73,-1529.76 345.98,-1529.81 344.281,-1523.79 339.73,-1529.76"/>
<text text-anchor="middle" x="348" y="-1500.8" font-family="Times New Roman,serif" font-size="14.00">Question</text>
<text text-anchor="middle" x="348" y="-1485.8" font-family="Times New Roman,serif" font-size="14.00">18</text>
</g>
<!-- A3_2 -->
<g id="node5" class="node"><title>A3_2</title>
<polygon fill="wheat" stroke="black" points="559,-1260 8,-1260 8,-1224 559,-1224 559,-1260"/>
<text text-anchor="middle" x="283.5" y="-1238.3" font-family="Times New Roman,serif" font-size="14.00">A3_2 : Bon le problème c&#39;est que je suis un peu petit donc euh pour le volley c&#39;est pas pratique.</text>
<text text-anchor="start" x="0" y="-1264.8" font-family="Times New Roman,serif" font-weight="bold" font-style="italic" font-size="14.00" fill="red">1</text>
</g>
<!-- A1&#45;&gt;A3_2 -->
<g id="edge8" class="edge"><title>A1&#45;&gt;A3_2</title>
<path fill="none" stroke="#b2df8a" stroke-width="2.38095" d="M383.194,-1525.46C409.338,-1484.2 457.833,-1392.27 420.5,-1326 402.482,-1294.02 366.621,-1272.95 336.108,-1260.04"/>
<polygon fill="#b2df8a" stroke="#b2df8a" stroke-width="2.38095" points="381.66,-1524.61 380.431,-1529.76 384.605,-1526.5 381.66,-1524.61"/>
<text text-anchor="middle" x="499" y="-1398.8" font-family="Times New Roman,serif" font-size="14.00">Elaboration descriptive</text>
<text text-anchor="middle" x="499" y="-1383.8" font-family="Times New Roman,serif" font-size="14.00">5</text>
</g>
<!-- A3_1 -->
<g id="node4" class="node"><title>A3_1</title>
<polygon fill="wheat" stroke="black" points="193.5,-1362 99.5,-1362 99.5,-1326 193.5,-1326 193.5,-1362"/>
<text text-anchor="middle" x="146.5" y="-1340.3" font-family="Times New Roman,serif" font-size="14.00">A3_1 : Ouais.</text>
<text text-anchor="start" x="91.5" y="-1366.8" font-family="Times New Roman,serif" font-weight="bold" font-style="italic" font-size="14.00" fill="red">1</text>
</g>
<!-- B2&#45;&gt;A3_1 -->
<g id="edge4" class="edge"><title>B2&#45;&gt;A3_1</title>
<path fill="none" stroke="#1f78b4" stroke-width="7.61905" d="M163.175,-1425.17C157.103,-1421.04 151.7,-1416.04 147.5,-1410 137.835,-1396.1 139.153,-1376.17 141.901,-1362.05"/>
<polygon fill="#1f78b4" stroke="#1f78b4" stroke-width="7.61905" points="161.471,-1428.04 167.479,-1427.9 165.039,-1422.41 161.471,-1428.04"/>
<text text-anchor="middle" x="172.5" y="-1398.8" font-family="Times New Roman,serif" font-size="14.00">Réponse</text>
<text text-anchor="middle" x="172.5" y="-1383.8" font-family="Times New Roman,serif" font-size="14.00">16</text>
</g>
<!-- B2&#45;&gt;A3_1 -->
<g id="edge23" class="edge"><title>B2&#45;&gt;A3_1</title>
<path fill="none" stroke="#fdbf6f" stroke-width="1.90476" d="M227.036,-1423.16C219.923,-1409.74 209.62,-1392.74 197.5,-1380 191.208,-1373.39 183.472,-1367.31 175.945,-1362.13"/>
<polygon fill="#fdbf6f" stroke="#fdbf6f" stroke-width="1.90476" points="225.653,-1424.29 229.51,-1427.92 228.76,-1422.68 225.653,-1424.29"/>
<text text-anchor="middle" x="244" y="-1398.8" font-family="Times New Roman,serif" font-size="14.00">Phatique</text>
<text text-anchor="middle" x="244" y="-1383.8" font-family="Times New Roman,serif" font-size="14.00">4</text>
</g>
<!-- B2&#45;&gt;A3_2 -->
<g id="edge9" class="edge"><title>B2&#45;&gt;A3_2</title>
<path fill="none" stroke="#b2df8a" stroke-width="2.38095" d="M260.644,-1423.98C264.157,-1419.69 267.328,-1414.97 269.5,-1410 291.644,-1359.35 288.63,-1291.89 285.604,-1260.48"/>
<polygon fill="#b2df8a" stroke="#b2df8a" stroke-width="2.38095" points="259.299,-1422.86 257.34,-1427.78 261.941,-1425.15 259.299,-1422.86"/>
<text text-anchor="middle" x="352" y="-1347.8" font-family="Times New Roman,serif" font-size="14.00">Elaboration descriptive</text>
<text text-anchor="middle" x="352" y="-1332.8" font-family="Times New Roman,serif" font-size="14.00">5</text>
</g>
<!-- A3_1&#45;&gt;A3_2 -->
<g id="edge10" class="edge"><title>A3_1&#45;&gt;A3_2</title>
<path fill="none" stroke="#b2df8a" stroke-width="3.33333" d="M137.368,-1321.07C133.224,-1307.32 131.091,-1289.99 140.5,-1278 146.181,-1270.76 159.977,-1264.83 176.876,-1260.03"/>
<polygon fill="#b2df8a" stroke="#b2df8a" stroke-width="3.33333" points="135.749,-1321.75 138.968,-1325.96 139.076,-1320.66 135.749,-1321.75"/>
<text text-anchor="middle" x="205" y="-1296.8" font-family="Times New Roman,serif" font-size="14.00">Elaboration descriptive</text>
<text text-anchor="middle" x="205" y="-1281.8" font-family="Times New Roman,serif" font-size="14.00">7</text>
</g>
<!-- B4 -->
<g id="node6" class="node"><title>B4</title>
<polygon fill="skyblue" stroke="black" points="262,-1158 155,-1158 155,-1122 262,-1122 262,-1158"/>
<text text-anchor="middle" x="208.5" y="-1136.3" font-family="Times New Roman,serif" font-size="14.00">B4 : Ouais oh…</text>
</g>
<!-- A3_2&#45;&gt;B4 -->
<g id="edge20" class="edge"><title>A3_2&#45;&gt;B4</title>
<path fill="none" stroke="#e31a1c" stroke-width="1.90476" d="M224.133,-1220.94C218.393,-1216.83 213.302,-1211.9 209.5,-1206 200.394,-1191.86 201.55,-1172.16 204.106,-1158.16"/>
<polygon fill="#e31a1c" stroke="#e31a1c" stroke-width="1.90476" points="223.504,-1222.62 228.639,-1223.93 225.438,-1219.71 223.504,-1222.62"/>
<text text-anchor="middle" x="235.5" y="-1194.8" font-family="Times New Roman,serif" font-size="14.00">Conduite</text>
<text text-anchor="middle" x="235.5" y="-1179.8" font-family="Times New Roman,serif" font-size="14.00">4</text>
</g>
<!-- A3_2&#45;&gt;B4 -->
<g id="edge24" class="edge"><title>A3_2&#45;&gt;B4</title>
<path fill="none" stroke="#fdbf6f" stroke-width="8.57143" d="M279.741,-1218.65C276.612,-1205.23 271.068,-1188.41 261.5,-1176 256.181,-1169.1 249.098,-1163.13 241.846,-1158.16"/>
<polygon fill="#fdbf6f" stroke="#fdbf6f" stroke-width="8.57143" points="276.134,-1219.71 280.863,-1223.79 283.461,-1218.11 276.134,-1219.71"/>
<text text-anchor="middle" x="301" y="-1194.8" font-family="Times New Roman,serif" font-size="14.00">Phatique</text>
<text text-anchor="middle" x="301" y="-1179.8" font-family="Times New Roman,serif" font-size="14.00">18</text>
</g>
<!-- A5_1 -->
<g id="node7" class="node"><title>A5_1</title>
<polygon fill="wheat" stroke="black" points="805,-1158 280,-1158 280,-1122 805,-1122 805,-1158"/>
<text text-anchor="middle" x="542.5" y="-1136.3" font-family="Times New Roman,serif" font-size="14.00">A5_1 : Donc je peux faire passeur ou libéro je sais pas si vous connaissez un peu le volley?</text>
<text text-anchor="start" x="272" y="-1162.8" font-family="Times New Roman,serif" font-weight="bold" font-style="italic" font-size="14.00" fill="red">4</text>
</g>
<!-- A3_2&#45;&gt;A5_1 -->
<g id="edge11" class="edge"><title>A3_2&#45;&gt;A5_1</title>
<path fill="none" stroke="#b2df8a" stroke-width="6.19048" d="M332.568,-1222.05C380.387,-1203.59 452.426,-1175.78 498.453,-1158.01"/>
<polygon fill="#b2df8a" stroke="#b2df8a" stroke-width="6.19048" points="331.418,-1219.6 327.729,-1223.92 333.369,-1224.65 331.418,-1219.6"/>
<text text-anchor="middle" x="516" y="-1194.8" font-family="Times New Roman,serif" font-size="14.00">Elaboration descriptive</text>
<text text-anchor="middle" x="516" y="-1179.8" font-family="Times New Roman,serif" font-size="14.00">13</text>
</g>
<!-- A5_2 -->
<g id="node8" class="node"><title>A5_2</title>
<polygon fill="wheat" stroke="black" points="506,-1056 393,-1056 393,-1020 506,-1020 506,-1056"/>
<text text-anchor="middle" x="449.5" y="-1034.3" font-family="Times New Roman,serif" font-size="14.00">A5_2 : Ou euh ...</text>
<text text-anchor="start" x="385" y="-1060.8" font-family="Times New Roman,serif" font-weight="bold" font-style="italic" font-size="14.00" fill="red">1</text>
</g>
<!-- A5_1&#45;&gt;A5_2 -->
<g id="edge21" class="edge"><title>A5_1&#45;&gt;A5_2</title>
<path fill="none" stroke="#e31a1c" stroke-width="2.85714" d="M435.588,-1120.43C421.12,-1115.89 409.511,-1110.44 404.5,-1104 396.312,-1093.48 398.642,-1085.98 404.5,-1074 407.892,-1067.07 413.394,-1061.11 419.406,-1056.17"/>
<polygon fill="#e31a1c" stroke="#e31a1c" stroke-width="2.85714" points="435.307,-1122.17 440.599,-1121.93 436.313,-1118.82 435.307,-1122.17"/>
<text text-anchor="middle" x="430.5" y="-1092.8" font-family="Times New Roman,serif" font-size="14.00">Conduite</text>
<text text-anchor="middle" x="430.5" y="-1077.8" font-family="Times New Roman,serif" font-size="14.00">6</text>
</g>
<!-- A5_1&#45;&gt;A5_2 -->
<g id="edge25" class="edge"><title>A5_1&#45;&gt;A5_2</title>
<path fill="none" stroke="#fdbf6f" stroke-width="5.71429" d="M498.459,-1119.33C491.559,-1114.95 484.927,-1109.85 479.5,-1104 466.819,-1090.33 458.699,-1070.37 454.148,-1056.17"/>
<polygon fill="#fdbf6f" stroke="#fdbf6f" stroke-width="5.71429" points="497.211,-1121.49 502.782,-1121.95 499.807,-1117.22 497.211,-1121.49"/>
<text text-anchor="middle" x="504" y="-1092.8" font-family="Times New Roman,serif" font-size="14.00">Phatique</text>
<text text-anchor="middle" x="504" y="-1077.8" font-family="Times New Roman,serif" font-size="14.00">12</text>
</g>
<!-- B6 -->
<g id="node9" class="node"><title>B6</title>
<polygon fill="skyblue" stroke="black" points="587,-954 498,-954 498,-918 587,-918 587,-954"/>
<text text-anchor="middle" x="542.5" y="-932.3" font-family="Times New Roman,serif" font-size="14.00">B6 : Alors ...</text>
<text text-anchor="start" x="490" y="-958.8" font-family="Times New Roman,serif" font-weight="bold" font-style="italic" font-size="14.00" fill="red">1</text>
</g>
<!-- A5_1&#45;&gt;B6 -->
<g id="edge26" class="edge"><title>A5_1&#45;&gt;B6</title>
<path fill="none" stroke="#fdbf6f" stroke-width="2.38095" d="M542.5,-1116.57C542.5,-1075.87 542.5,-990.664 542.5,-954.179"/>
<polygon fill="#fdbf6f" stroke="#fdbf6f" stroke-width="2.38095" points="540.75,-1116.78 542.5,-1121.78 544.25,-1116.78 540.75,-1116.78"/>
<text text-anchor="middle" x="567" y="-1041.8" font-family="Times New Roman,serif" font-size="14.00">Phatique</text>
<text text-anchor="middle" x="567" y="-1026.8" font-family="Times New Roman,serif" font-size="14.00">5</text>
</g>
<!-- A7 -->
<g id="node10" class="node"><title>A7</title>
<polygon fill="wheat" stroke="black" points="657,-852 544,-852 544,-816 657,-816 657,-852"/>
<text text-anchor="middle" x="600.5" y="-830.3" font-family="Times New Roman,serif" font-size="14.00">A7 : Pas du tout?</text>
<text text-anchor="start" x="536" y="-856.8" font-family="Times New Roman,serif" font-weight="bold" font-style="italic" font-size="14.00" fill="red">1</text>
</g>
<!-- A5_1&#45;&gt;A7 -->
<g id="edge32" class="edge"><title>A5_1&#45;&gt;A7</title>
<path fill="none" stroke="#6a3d9a" stroke-width="2.85714" d="M560.5,-1117.59C572.739,-1101.69 588.017,-1078.87 595.5,-1056 619.245,-983.413 609.095,-890.134 603.398,-852.194"/>
<polygon fill="#6a3d9a" stroke="#6a3d9a" stroke-width="2.85714" points="558.841,-1116.87 557.138,-1121.89 561.598,-1119.03 558.841,-1116.87"/>
<text text-anchor="middle" x="636" y="-990.8" font-family="Times New Roman,serif" font-size="14.00">Question</text>
<text text-anchor="middle" x="636" y="-975.8" font-family="Times New Roman,serif" font-size="14.00">6</text>
</g>
<!-- B8_1 -->
<g id="node11" class="node"><title>B8_1</title>
<polygon fill="skyblue" stroke="black" points="834.5,-750 460.5,-750 460.5,-714 834.5,-714 834.5,-750"/>
<text text-anchor="middle" x="647.5" y="-728.3" font-family="Times New Roman,serif" font-size="14.00">B8_1 : J’ai regardé je suis tombée sur une émission euh sportive</text>
<text text-anchor="start" x="452.5" y="-754.8" font-family="Times New Roman,serif" font-weight="bold" font-style="italic" font-size="14.00" fill="red">9</text>
</g>
<!-- A5_1&#45;&gt;B8_1 -->
<g id="edge5" class="edge"><title>A5_1&#45;&gt;B8_1</title>
<path fill="none" stroke="#1f78b4" stroke-width="2.38095" d="M609.39,-1120C646.608,-1104.9 685.5,-1079.44 685.5,-1039 685.5,-1039 685.5,-1039 685.5,-833 685.5,-803.449 683.187,-795.142 671.5,-768 668.819,-761.774 664.966,-755.503 661.128,-750.023"/>
<polygon fill="#1f78b4" stroke="#1f78b4" stroke-width="2.38095" points="608.399,-1118.51 604.39,-1121.98 609.684,-1121.77 608.399,-1118.51"/>
<text text-anchor="middle" x="710.5" y="-939.8" font-family="Times New Roman,serif" font-size="14.00">Réponse</text>
<text text-anchor="middle" x="710.5" y="-924.8" font-family="Times New Roman,serif" font-size="14.00">5</text>
</g>
<!-- A5_2&#45;&gt;B6 -->
<g id="edge27" class="edge"><title>A5_2&#45;&gt;B6</title>
<path fill="none" stroke="#fdbf6f" stroke-width="4.28571" d="M455.771,-1014.98C460.53,-1001.34 468.206,-984.171 479.5,-972 486.053,-964.938 494.364,-958.958 502.782,-954.047"/>
<polygon fill="#fdbf6f" stroke="#fdbf6f" stroke-width="4.28571" points="453.957,-1014.49 454.148,-1019.83 457.513,-1015.68 453.957,-1014.49"/>
<text text-anchor="middle" x="504" y="-990.8" font-family="Times New Roman,serif" font-size="14.00">Phatique</text>
<text text-anchor="middle" x="504" y="-975.8" font-family="Times New Roman,serif" font-size="14.00">9</text>
</g>
<!-- B6&#45;&gt;A7 -->
<g id="edge33" class="edge"><title>B6&#45;&gt;A7</title>
<path fill="none" stroke="#6a3d9a" stroke-width="5.2381" d="M542.664,-912.696C543.682,-899.437 546.644,-882.771 554.5,-870 558.706,-863.162 564.776,-857.18 571.133,-852.186"/>
<polygon fill="#6a3d9a" stroke="#6a3d9a" stroke-width="5.2381" points="540.371,-912.649 542.354,-917.779 544.945,-912.928 540.371,-912.649"/>
<text text-anchor="middle" x="580" y="-888.8" font-family="Times New Roman,serif" font-size="14.00">Question</text>
<text text-anchor="middle" x="580" y="-873.8" font-family="Times New Roman,serif" font-size="14.00">11</text>
</g>
<!-- A7&#45;&gt;B8_1 -->
<g id="edge6" class="edge"><title>A7&#45;&gt;B8_1</title>
<path fill="none" stroke="#1f78b4" stroke-width="4.7619" d="M605.713,-810.889C609.225,-797.97 614.5,-781.588 621.5,-768 624.689,-761.809 628.944,-755.548 633.087,-750.066"/>
<polygon fill="#1f78b4" stroke="#1f78b4" stroke-width="4.7619" points="603.669,-810.47 604.408,-815.836 607.698,-811.533 603.669,-810.47"/>
<text text-anchor="middle" x="646.5" y="-786.8" font-family="Times New Roman,serif" font-size="14.00">Réponse</text>
<text text-anchor="middle" x="646.5" y="-771.8" font-family="Times New Roman,serif" font-size="14.00">10</text>
</g>
<!-- B8_2 -->
<g id="node12" class="node"><title>B8_2</title>
<polygon fill="skyblue" stroke="black" points="685.5,-648 291.5,-648 291.5,-612 685.5,-612 685.5,-648"/>
<text text-anchor="middle" x="488.5" y="-626.3" font-family="Times New Roman,serif" font-size="14.00">B8_2 : parce que maintenant ils retransmettent pas mal de matchs…</text>
</g>
<!-- B8_1&#45;&gt;B8_2 -->
<g id="edge2" class="edge"><title>B8_1&#45;&gt;B8_2</title>
<path fill="none" stroke="#a6cee3" stroke-width="2.85714" d="M534.866,-712.594C518.77,-708.01 505.596,-702.503 499.5,-696 487.602,-683.308 485.955,-662.773 486.58,-648.182"/>
<polygon fill="#a6cee3" stroke="#a6cee3" stroke-width="2.85714" points="534.666,-714.354 539.95,-713.988 535.591,-710.978 534.666,-714.354"/>
<text text-anchor="middle" x="525.5" y="-684.8" font-family="Times New Roman,serif" font-size="14.00">Narration</text>
<text text-anchor="middle" x="525.5" y="-669.8" font-family="Times New Roman,serif" font-size="14.00">6</text>
</g>
<!-- B8_1&#45;&gt;B8_2 -->
<g id="edge12" class="edge"><title>B8_1&#45;&gt;B8_2</title>
<path fill="none" stroke="#b2df8a" stroke-width="6.66667" d="M602.988,-711.481C594.513,-706.93 585.967,-701.721 578.5,-696 564.26,-685.091 565.532,-677.175 551.5,-666 543.181,-659.375 533.44,-653.29 524.14,-648.118"/>
<polygon fill="#b2df8a" stroke="#b2df8a" stroke-width="6.66667" points="601.899,-714.203 607.681,-713.94 604.606,-709.036 601.899,-714.203"/>
<text text-anchor="middle" x="643" y="-684.8" font-family="Times New Roman,serif" font-size="14.00">Elaboration descriptive</text>
<text text-anchor="middle" x="643" y="-669.8" font-family="Times New Roman,serif" font-size="14.00">14</text>
</g>
<!-- B10_1 -->
<g id="node14" class="node"><title>B10_1</title>
<polygon fill="skyblue" stroke="black" points="905.5,-546 429.5,-546 429.5,-510 905.5,-510 905.5,-546"/>
<text text-anchor="middle" x="667.5" y="-524.3" font-family="Times New Roman,serif" font-size="14.00">B10_1 : Euh l&#39;autre soir sur euh je sais pas l&#39;équipe ou je sais plus quelle chaîne …</text>
<text text-anchor="start" x="421.5" y="-550.8" font-family="Times New Roman,serif" font-weight="bold" font-style="italic" font-size="14.00" fill="red">1</text>
</g>
<!-- B8_1&#45;&gt;B10_1 -->
<g id="edge13" class="edge"><title>B8_1&#45;&gt;B10_1</title>
<path fill="none" stroke="#b2df8a" stroke-width="3.33333" d="M694.277,-710.786C699.546,-706.644 704.197,-701.75 707.5,-696 736.72,-645.128 731.742,-617.424 707.5,-564 704.45,-557.278 699.399,-551.339 693.897,-546.35"/>
<polygon fill="#b2df8a" stroke="#b2df8a" stroke-width="3.33333" points="693.145,-709.445 690.139,-713.808 695.209,-712.272 693.145,-709.445"/>
<text text-anchor="middle" x="793" y="-633.8" font-family="Times New Roman,serif" font-size="14.00">Elaboration descriptive</text>
<text text-anchor="middle" x="793" y="-618.8" font-family="Times New Roman,serif" font-size="14.00">7</text>
</g>
<!-- B10_2 -->
<g id="node15" class="node"><title>B10_2</title>
<polygon fill="skyblue" stroke="black" points="1058,-444 603,-444 603,-408 1058,-408 1058,-444"/>
<text text-anchor="middle" x="830.5" y="-422.3" font-family="Times New Roman,serif" font-size="14.00">B10_2 : Et c&#39;était justement la finale euh un match féminin. De volley féminin ...</text>
</g>
<!-- B8_1&#45;&gt;B10_2 -->
<g id="edge14" class="edge"><title>B8_1&#45;&gt;B10_2</title>
<path fill="none" stroke="#b2df8a" stroke-width="3.33333" d="M734.751,-712.525C776.941,-700.028 825.999,-679.821 861.5,-648 924.834,-591.232 958.12,-529.596 906.5,-462 900.857,-454.611 893.286,-448.729 885.103,-444.063"/>
<polygon fill="#b2df8a" stroke="#b2df8a" stroke-width="3.33333" points="734.216,-710.858 729.905,-713.936 735.194,-714.219 734.216,-710.858"/>
<text text-anchor="middle" x="990" y="-582.8" font-family="Times New Roman,serif" font-size="14.00">Elaboration descriptive</text>
<text text-anchor="middle" x="990" y="-567.8" font-family="Times New Roman,serif" font-size="14.00">7</text>
</g>
<!-- A9 -->
<g id="node13" class="node"><title>A9</title>
<polygon fill="wheat" stroke="black" points="411.5,-546 309.5,-546 309.5,-510 411.5,-510 411.5,-546"/>
<text text-anchor="middle" x="360.5" y="-524.3" font-family="Times New Roman,serif" font-size="14.00">A9 : Hum hum.</text>
</g>
<!-- B8_2&#45;&gt;A9 -->
<g id="edge28" class="edge"><title>B8_2&#45;&gt;A9</title>
<path fill="none" stroke="#fdbf6f" stroke-width="7.14286" d="M462.533,-608.713C439.054,-590.371 404.859,-563.655 382.645,-546.301"/>
<polygon fill="#fdbf6f" stroke="#fdbf6f" stroke-width="7.14286" points="460.632,-611.194 466.496,-611.809 464.48,-606.269 460.632,-611.194"/>
<text text-anchor="middle" x="468" y="-582.8" font-family="Times New Roman,serif" font-size="14.00">Phatique</text>
<text text-anchor="middle" x="468" y="-567.8" font-family="Times New Roman,serif" font-size="14.00">15</text>
</g>
<!-- B8_2&#45;&gt;B10_1 -->
<g id="edge15" class="edge"><title>B8_2&#45;&gt;B10_1</title>
<path fill="none" stroke="#b2df8a" stroke-width="2.38095" d="M513.253,-608.514C530.73,-594.719 555.111,-576.78 578.5,-564 590.739,-557.313 604.528,-551.245 617.533,-546.112"/>
<polygon fill="#b2df8a" stroke="#b2df8a" stroke-width="2.38095" points="511.787,-607.444 508.963,-611.927 513.966,-610.183 511.787,-607.444"/>
<text text-anchor="middle" x="643" y="-582.8" font-family="Times New Roman,serif" font-size="14.00">Elaboration descriptive</text>
<text text-anchor="middle" x="643" y="-567.8" font-family="Times New Roman,serif" font-size="14.00">5</text>
</g>
<!-- B10_1&#45;&gt;B10_2 -->
<g id="edge16" class="edge"><title>B10_1&#45;&gt;B10_2</title>
<path fill="none" stroke="#b2df8a" stroke-width="5.2381" d="M699.842,-507.158C729.854,-488.746 774.064,-461.623 802.573,-444.133"/>
<polygon fill="#b2df8a" stroke="#b2df8a" stroke-width="5.2381" points="698.584,-505.241 695.521,-509.809 700.981,-509.148 698.584,-505.241"/>
<text text-anchor="middle" x="838" y="-480.8" font-family="Times New Roman,serif" font-size="14.00">Elaboration descriptive</text>
<text text-anchor="middle" x="838" y="-465.8" font-family="Times New Roman,serif" font-size="14.00">11</text>
</g>
<!-- A11 -->
<g id="node16" class="node"><title>A11</title>
<polygon fill="wheat" stroke="black" points="675,-342 566,-342 566,-306 675,-306 675,-342"/>
<text text-anchor="middle" x="620.5" y="-320.3" font-family="Times New Roman,serif" font-size="14.00">A11 : Hum hum.</text>
</g>
<!-- B10_2&#45;&gt;A11 -->
<g id="edge22" class="edge"><title>B10_2&#45;&gt;A11</title>
<path fill="none" stroke="#e31a1c" stroke-width="2.38095" d="M743.947,-406.469C729.728,-401.984 715.427,-396.544 702.5,-390 677.702,-377.447 653.255,-356.681 637.598,-342.003"/>
<polygon fill="#e31a1c" stroke="#e31a1c" stroke-width="2.38095" points="743.47,-408.153 748.764,-407.954 744.501,-404.809 743.47,-408.153"/>
<text text-anchor="middle" x="728.5" y="-378.8" font-family="Times New Roman,serif" font-size="14.00">Conduite</text>
<text text-anchor="middle" x="728.5" y="-363.8" font-family="Times New Roman,serif" font-size="14.00">5</text>
</g>
<!-- B10_2&#45;&gt;A11 -->
<g id="edge29" class="edge"><title>B10_2&#45;&gt;A11</title>
<path fill="none" stroke="#fdbf6f" stroke-width="7.61905" d="M811.443,-404.265C797.099,-389.846 776.245,-371.263 754.5,-360 725.594,-345.028 714.994,-350.241 683.5,-342 680.76,-341.283 677.954,-340.544 675.122,-339.794"/>
<polygon fill="#fdbf6f" stroke="#fdbf6f" stroke-width="7.61905" points="809.065,-406.6 814.946,-407.834 813.823,-401.93 809.065,-406.6"/>
<text text-anchor="middle" x="821" y="-378.8" font-family="Times New Roman,serif" font-size="14.00">Phatique</text>
<text text-anchor="middle" x="821" y="-363.8" font-family="Times New Roman,serif" font-size="14.00">16</text>
</g>
<!-- B12 -->
<g id="node17" class="node"><title>B12</title>
<polygon fill="skyblue" stroke="black" points="1280,-342 693,-342 693,-306 1280,-306 1280,-342"/>
<text text-anchor="middle" x="986.5" y="-320.3" font-family="Times New Roman,serif" font-size="14.00">B12 : Et je ne comprenais pas pourquoi une nana n&#39;avait pas la même couleur de maillot que les autres.</text>
<text text-anchor="start" x="685" y="-346.8" font-family="Times New Roman,serif" font-weight="bold" font-style="italic" font-size="14.00" fill="red">4</text>
</g>
<!-- B10_2&#45;&gt;B12 -->
<g id="edge3" class="edge"><title>B10_2&#45;&gt;B12</title>
<path fill="none" stroke="#a6cee3" stroke-width="1.90476" d="M850.381,-404.002C864.288,-390.185 883.828,-372.424 903.5,-360 914.342,-353.153 926.755,-347.101 938.619,-342.038"/>
<polygon fill="#a6cee3" stroke="#a6cee3" stroke-width="1.90476" points="848.9,-403.009 846.613,-407.787 851.381,-405.479 848.9,-403.009"/>
<text text-anchor="middle" x="929.5" y="-378.8" font-family="Times New Roman,serif" font-size="14.00">Narration</text>
<text text-anchor="middle" x="929.5" y="-363.8" font-family="Times New Roman,serif" font-size="14.00">4</text>
</g>
<!-- B10_2&#45;&gt;B12 -->
<g id="edge17" class="edge"><title>B10_2&#45;&gt;B12</title>
<path fill="none" stroke="#b2df8a" stroke-width="6.19048" d="M930.171,-405.837C939.297,-401.572 947.937,-396.362 955.5,-390 970.138,-377.686 978.352,-356.873 982.592,-342.119"/>
<polygon fill="#b2df8a" stroke="#b2df8a" stroke-width="6.19048" points="928.821,-403.473 925.357,-407.983 931.026,-408.421 928.821,-403.473"/>
<text text-anchor="middle" x="1040" y="-378.8" font-family="Times New Roman,serif" font-size="14.00">Elaboration descriptive</text>
<text text-anchor="middle" x="1040" y="-363.8" font-family="Times New Roman,serif" font-size="14.00">13</text>
</g>
<!-- A13_1 -->
<g id="node18" class="node"><title>A13_1</title>
<polygon fill="wheat" stroke="black" points="1111,-240 862,-240 862,-204 1111,-204 1111,-240"/>
<text text-anchor="middle" x="986.5" y="-218.3" font-family="Times New Roman,serif" font-size="14.00">A13_1 : C’est justement les libéros en fait</text>
<text text-anchor="start" x="854" y="-244.8" font-family="Times New Roman,serif" font-weight="bold" font-style="italic" font-size="14.00" fill="red">2</text>
</g>
<!-- B12&#45;&gt;A13_1 -->
<g id="edge7" class="edge"><title>B12&#45;&gt;A13_1</title>
<path fill="none" stroke="#1f78b4" stroke-width="4.7619" d="M960.574,-302.105C956.876,-297.855 953.615,-293.106 951.5,-288 946.398,-275.682 946.398,-270.318 951.5,-258 954.262,-251.331 958.98,-245.27 964.073,-240.137"/>
<polygon fill="#1f78b4" stroke="#1f78b4" stroke-width="4.7619" points="959.141,-303.623 964.073,-305.863 962.191,-300.784 959.141,-303.623"/>
<text text-anchor="middle" x="976.5" y="-276.8" font-family="Times New Roman,serif" font-size="14.00">Réponse</text>
<text text-anchor="middle" x="976.5" y="-261.8" font-family="Times New Roman,serif" font-size="14.00">10</text>
</g>
<!-- B12&#45;&gt;A13_1 -->
<g id="edge18" class="edge"><title>B12&#45;&gt;A13_1</title>
<path fill="none" stroke="#b2df8a" stroke-width="5.71429" d="M997.564,-300.866C999.195,-296.687 1000.62,-292.282 1001.5,-288 1004.18,-274.939 1004.18,-271.061 1001.5,-258 1000.28,-252.042 997.996,-245.846 995.575,-240.353"/>
<polygon fill="#b2df8a" stroke="#b2df8a" stroke-width="5.71429" points="995.187,-300.07 995.575,-305.647 999.804,-301.991 995.187,-300.07"/>
<text text-anchor="middle" x="1069" y="-276.8" font-family="Times New Roman,serif" font-size="14.00">Elaboration descriptive</text>
<text text-anchor="middle" x="1069" y="-261.8" font-family="Times New Roman,serif" font-size="14.00">12</text>
</g>
<!-- A13_2 -->
<g id="node19" class="node"><title>A13_2</title>
<polygon fill="wheat" stroke="black" points="1152.5,-138 820.5,-138 820.5,-102 1152.5,-102 1152.5,-138"/>
<text text-anchor="middle" x="986.5" y="-116.3" font-family="Times New Roman,serif" font-size="14.00">A13_2 : c&#39;est quelqu&#39;un qui fait que les postes arrières ...</text>
</g>
<!-- A13_1&#45;&gt;A13_2 -->
<g id="edge19" class="edge"><title>A13_1&#45;&gt;A13_2</title>
<path fill="none" stroke="#b2df8a" stroke-width="8.57143" d="M986.5,-198.163C986.5,-179.932 986.5,-154.784 986.5,-138.219"/>
<polygon fill="#b2df8a" stroke="#b2df8a" stroke-width="8.57143" points="982.75,-198.581 986.5,-203.581 990.25,-198.581 982.75,-198.581"/>
<text text-anchor="middle" x="1051" y="-174.8" font-family="Times New Roman,serif" font-size="14.00">Elaboration descriptive</text>
<text text-anchor="middle" x="1051" y="-159.8" font-family="Times New Roman,serif" font-size="14.00">18</text>
</g>
<!-- B14 -->
<g id="node20" class="node"><title>B14</title>
<polygon fill="skyblue" stroke="black" points="1040,-36 933,-36 933,-0 1040,-0 1040,-36"/>
<text text-anchor="middle" x="986.5" y="-14.3" font-family="Times New Roman,serif" font-size="14.00">B14 : D’accord.</text>
</g>
<!-- A13_2&#45;&gt;B14 -->
<g id="edge30" class="edge"><title>A13_2&#45;&gt;B14</title>
<path fill="none" stroke="#fdbf6f" stroke-width="6.19048" d="M986.5,-96.1628C986.5,-77.9321 986.5,-52.7841 986.5,-36.2191"/>
<polygon fill="#fdbf6f" stroke="#fdbf6f" stroke-width="6.19048" points="983.792,-96.5813 986.5,-101.581 989.208,-96.5814 983.792,-96.5813"/>
<text text-anchor="middle" x="1011" y="-72.8" font-family="Times New Roman,serif" font-size="14.00">Phatique</text>
<text text-anchor="middle" x="1011" y="-57.8" font-family="Times New Roman,serif" font-size="14.00">13</text>
</g>
</g>
</svg>
