<?xml version="1.0" encoding="UTF-8" standalone="no"?>
<!DOCTYPE svg PUBLIC "-//W3C//DTD SVG 1.1//EN"
 "http://www.w3.org/Graphics/SVG/1.1/DTD/svg11.dtd">
<!-- Generated by graphviz version 2.38.0 (20140413.2041)
 -->
<!-- Title: Volley Pages: 1 -->
<svg width="1209pt" height="1583pt"
 viewBox="0.00 0.00 1208.50 1583.00" xmlns="http://www.w3.org/2000/svg" xmlns:xlink="http://www.w3.org/1999/xlink">
<g id="graph0" class="graph" transform="scale(1 1) rotate(0) translate(4 1579)">
<title>Volley</title>
<polygon fill="white" stroke="none" points="-4,4 -4,-1579 1204.5,-1579 1204.5,4 -4,4"/>
<text text-anchor="start" x="28.5" y="-1556" font-family="Times New Roman,serif" font-size="20.00">Volley</text>
<text text-anchor="start" x="8" y="-1539.2" font-family="Times New Roman,serif" font-size="16.00">23 annotations </text>
<text text-anchor="start" x="17" y="-1523.2" font-family="Times New Roman,serif" font-size="16.00"> seuil = 0.15</text>
<!-- début -->
<g id="node1" class="node"><title>début</title>
<polygon fill="lightgrey" stroke="black" points="491,-1515 399,-1515 399,-1479 491,-1479 491,-1515"/>
<text text-anchor="middle" x="445" y="-1493.3" font-family="Times New Roman,serif" font-size="14.00">début : Début</text>
</g>
<!-- A1 -->
<g id="node2" class="node"><title>A1</title>
<polygon fill="wheat" stroke="black" points="679,-1428 211,-1428 211,-1392 679,-1392 679,-1428"/>
<text text-anchor="middle" x="445" y="-1406.3" font-family="Times New Roman,serif" font-size="14.00">A1 : Je suis ici depuis deux ans et j&#39;en ai fait une dizaine d&#39;années à B. près de M.</text>
<text text-anchor="start" x="195" y="-1432.8" font-family="Times New Roman,serif" font-weight="bold" font-style="italic" font-size="14.00" fill="red">23</text>
</g>
<!-- début&#45;&gt;A1 -->
<g id="edge1" class="edge"><title>début&#45;&gt;A1</title>
<path fill="none" stroke="#1f78b4" stroke-width="10" d="M445,-1473.75C445,-1459.5 445,-1441.3 445,-1428.18"/>
<polygon fill="#1f78b4" stroke="#1f78b4" stroke-width="10" points="440.625,-1473.8 445,-1478.8 449.375,-1473.8 440.625,-1473.8"/>
<text text-anchor="middle" x="452" y="-1449.8" font-family="Times New Roman,serif" font-size="14.00">23</text>
</g>
<!-- B2 -->
<g id="node3" class="node"><title>B2</title>
<polygon fill="skyblue" stroke="black" points="470,-1341 158,-1341 158,-1305 470,-1305 470,-1341"/>
<text text-anchor="middle" x="314" y="-1319.3" font-family="Times New Roman,serif" font-size="14.00">B2 : D’accord, ok et ça va vous avez un bon niveau?</text>
<text text-anchor="start" x="150" y="-1345.8" font-family="Times New Roman,serif" font-weight="bold" font-style="italic" font-size="14.00" fill="red">2</text>
</g>
<!-- A1&#45;&gt;B2 -->
<g id="edge2" class="edge"><title>A1&#45;&gt;B2</title>
<path fill="none" stroke="#1f78b4" stroke-width="10" d="M414.118,-1388.96C391.729,-1374.43 361.767,-1354.99 340.47,-1341.18"/>
<polygon fill="#1f78b4" stroke="#1f78b4" stroke-width="10" points="411.914,-1392.75 418.49,-1391.8 416.677,-1385.41 411.914,-1392.75"/>
<text text-anchor="middle" x="395" y="-1362.8" font-family="Times New Roman,serif" font-size="14.00">23</text>
</g>
<!-- A3_2 -->
<g id="node5" class="node"><title>A3_2</title>
<polygon fill="wheat" stroke="black" points="672.5,-1167 121.5,-1167 121.5,-1131 672.5,-1131 672.5,-1167"/>
<text text-anchor="middle" x="397" y="-1145.3" font-family="Times New Roman,serif" font-size="14.00">A3_2 : Bon le problème c&#39;est que je suis un peu petit donc euh pour le volley c&#39;est pas pratique.</text>
<text text-anchor="start" x="113.5" y="-1171.8" font-family="Times New Roman,serif" font-weight="bold" font-style="italic" font-size="14.00" fill="red">1</text>
</g>
<!-- A1&#45;&gt;A3_2 -->
<g id="edge3" class="edge"><title>A1&#45;&gt;A3_2</title>
<path fill="none" stroke="#1f78b4" stroke-width="2.6087" d="M459.045,-1387.41C466.585,-1374.51 475.111,-1357.47 479,-1341 482.676,-1325.43 482.855,-1320.53 479,-1305 465.579,-1250.93 429.444,-1194.96 409.927,-1167.43"/>
<polygon fill="#1f78b4" stroke="#1f78b4" stroke-width="2.6087" points="457.385,-1386.77 456.322,-1391.96 460.389,-1388.57 457.385,-1386.77"/>
<text text-anchor="middle" x="477.5" y="-1275.8" font-family="Times New Roman,serif" font-size="14.00">6</text>
</g>
<!-- A3_1 -->
<g id="node4" class="node"><title>A3_1</title>
<polygon fill="wheat" stroke="black" points="361,-1254 267,-1254 267,-1218 361,-1218 361,-1254"/>
<text text-anchor="middle" x="314" y="-1232.3" font-family="Times New Roman,serif" font-size="14.00">A3_1 : Ouais.</text>
<text text-anchor="start" x="259" y="-1258.8" font-family="Times New Roman,serif" font-weight="bold" font-style="italic" font-size="14.00" fill="red">1</text>
</g>
<!-- B2&#45;&gt;A3_1 -->
<g id="edge4" class="edge"><title>B2&#45;&gt;A3_1</title>
<path fill="none" stroke="#1f78b4" stroke-width="10" d="M314,-1299.75C314,-1285.5 314,-1267.3 314,-1254.18"/>
<polygon fill="#1f78b4" stroke="#1f78b4" stroke-width="10" points="309.625,-1299.8 314,-1304.8 318.375,-1299.8 309.625,-1299.8"/>
<text text-anchor="middle" x="321" y="-1275.8" font-family="Times New Roman,serif" font-size="14.00">23</text>
</g>
<!-- B2&#45;&gt;A3_2 -->
<g id="edge5" class="edge"><title>B2&#45;&gt;A3_2</title>
<path fill="none" stroke="#1f78b4" stroke-width="4.34783" d="M335.392,-1301.02C347.157,-1288.38 361.124,-1271.41 370,-1254 384.573,-1225.42 391.752,-1188.29 394.894,-1167.01"/>
<polygon fill="#1f78b4" stroke="#1f78b4" stroke-width="4.34783" points="333.873,-1299.85 331.82,-1304.79 336.637,-1302.47 333.873,-1299.85"/>
<text text-anchor="middle" x="391" y="-1232.3" font-family="Times New Roman,serif" font-size="14.00">10</text>
</g>
<!-- A3_1&#45;&gt;A3_2 -->
<g id="edge6" class="edge"><title>A3_1&#45;&gt;A3_2</title>
<path fill="none" stroke="#1f78b4" stroke-width="3.04348" d="M334.639,-1213.86C348.698,-1199.47 367.073,-1180.65 380.229,-1167.18"/>
<polygon fill="#1f78b4" stroke="#1f78b4" stroke-width="3.04348" points="333.037,-1213 330.796,-1217.8 335.542,-1215.44 333.037,-1213"/>
<text text-anchor="middle" x="364.5" y="-1188.8" font-family="Times New Roman,serif" font-size="14.00">7</text>
</g>
<!-- B4 -->
<g id="node6" class="node"><title>B4</title>
<polygon fill="skyblue" stroke="black" points="383.5,-1080 276.5,-1080 276.5,-1044 383.5,-1044 383.5,-1080"/>
<text text-anchor="middle" x="330" y="-1058.3" font-family="Times New Roman,serif" font-size="14.00">B4 : Ouais oh…</text>
</g>
<!-- A3_2&#45;&gt;B4 -->
<g id="edge7" class="edge"><title>A3_2&#45;&gt;B4</title>
<path fill="none" stroke="#1f78b4" stroke-width="10" d="M380.339,-1126.86C368.991,-1112.47 354.158,-1093.65 343.538,-1080.18"/>
<polygon fill="#1f78b4" stroke="#1f78b4" stroke-width="10" points="376.91,-1129.58 383.442,-1130.8 383.782,-1124.16 376.91,-1129.58"/>
<text text-anchor="middle" x="375" y="-1101.8" font-family="Times New Roman,serif" font-size="14.00">23</text>
</g>
<!-- A5_1 -->
<g id="node7" class="node"><title>A5_1</title>
<polygon fill="wheat" stroke="black" points="654.5,-993 129.5,-993 129.5,-957 654.5,-957 654.5,-993"/>
<text text-anchor="middle" x="392" y="-971.3" font-family="Times New Roman,serif" font-size="14.00">A5_1 : Donc je peux faire passeur ou libéro je sais pas si vous connaissez un peu le volley?</text>
<text text-anchor="start" x="121.5" y="-997.8" font-family="Times New Roman,serif" font-weight="bold" font-style="italic" font-size="14.00" fill="red">4</text>
</g>
<!-- A3_2&#45;&gt;A5_1 -->
<g id="edge8" class="edge"><title>A3_2&#45;&gt;A5_1</title>
<path fill="none" stroke="#1f78b4" stroke-width="7.82609" d="M396.348,-1125.57C395.334,-1090.7 393.404,-1024.29 392.496,-993.052"/>
<polygon fill="#1f78b4" stroke="#1f78b4" stroke-width="7.82609" points="392.934,-1125.98 396.502,-1130.88 399.779,-1125.78 392.934,-1125.98"/>
<text text-anchor="middle" x="402" y="-1058.3" font-family="Times New Roman,serif" font-size="14.00">18</text>
</g>
<!-- B4&#45;&gt;A5_1 -->
<g id="edge9" class="edge"><title>B4&#45;&gt;A5_1</title>
<path fill="none" stroke="#1f78b4" stroke-width="1.73913" d="M345.687,-1039.49C356.153,-1025.14 369.729,-1006.53 379.472,-993.175"/>
<polygon fill="#1f78b4" stroke="#1f78b4" stroke-width="1.73913" points="344.079,-1038.73 342.547,-1043.8 346.907,-1040.79 344.079,-1038.73"/>
<text text-anchor="middle" x="368.5" y="-1014.8" font-family="Times New Roman,serif" font-size="14.00">4</text>
</g>
<!-- A5_2 -->
<g id="node8" class="node"><title>A5_2</title>
<polygon fill="wheat" stroke="black" points="334.5,-906 221.5,-906 221.5,-870 334.5,-870 334.5,-906"/>
<text text-anchor="middle" x="278" y="-884.3" font-family="Times New Roman,serif" font-size="14.00">A5_2 : Ou euh ...</text>
<text text-anchor="start" x="213.5" y="-910.8" font-family="Times New Roman,serif" font-weight="bold" font-style="italic" font-size="14.00" fill="red">1</text>
</g>
<!-- A5_1&#45;&gt;A5_2 -->
<g id="edge10" class="edge"><title>A5_1&#45;&gt;A5_2</title>
<path fill="none" stroke="#1f78b4" stroke-width="9.56522" d="M363.549,-953.935C356.78,-949.091 349.607,-943.898 343,-939 328.475,-928.231 312.365,-915.842 299.816,-906.09"/>
<polygon fill="#1f78b4" stroke="#1f78b4" stroke-width="9.56522" points="361.201,-957.401 367.702,-956.901 366.064,-950.59 361.201,-957.401"/>
<text text-anchor="middle" x="350" y="-927.8" font-family="Times New Roman,serif" font-size="14.00">22</text>
</g>
<!-- B6 -->
<g id="node9" class="node"><title>B6</title>
<polygon fill="skyblue" stroke="black" points="384.5,-819 295.5,-819 295.5,-783 384.5,-783 384.5,-819"/>
<text text-anchor="middle" x="340" y="-797.3" font-family="Times New Roman,serif" font-size="14.00">B6 : Alors ...</text>
<text text-anchor="start" x="287.5" y="-823.8" font-family="Times New Roman,serif" font-weight="bold" font-style="italic" font-size="14.00" fill="red">1</text>
</g>
<!-- A5_1&#45;&gt;B6 -->
<g id="edge11" class="edge"><title>A5_1&#45;&gt;B6</title>
<path fill="none" stroke="#1f78b4" stroke-width="4.78261" d="M385.347,-951.994C374.843,-917.251 354.64,-850.423 345.155,-819.052"/>
<polygon fill="#1f78b4" stroke="#1f78b4" stroke-width="4.78261" points="383.374,-952.699 386.824,-956.879 387.38,-951.488 383.374,-952.699"/>
<text text-anchor="middle" x="379" y="-884.3" font-family="Times New Roman,serif" font-size="14.00">11</text>
</g>
<!-- A7 -->
<g id="node10" class="node"><title>A7</title>
<polygon fill="wheat" stroke="black" points="430.5,-732 317.5,-732 317.5,-696 430.5,-696 430.5,-732"/>
<text text-anchor="middle" x="374" y="-710.3" font-family="Times New Roman,serif" font-size="14.00">A7 : Pas du tout?</text>
<text text-anchor="start" x="309.5" y="-736.8" font-family="Times New Roman,serif" font-weight="bold" font-style="italic" font-size="14.00" fill="red">1</text>
</g>
<!-- A5_1&#45;&gt;A7 -->
<g id="edge12" class="edge"><title>A5_1&#45;&gt;A7</title>
<path fill="none" stroke="#1f78b4" stroke-width="3.91304" d="M394.138,-951.769C397.125,-916.011 401.306,-843.591 393,-783 390.569,-765.27 384.731,-745.645 380.163,-732.055"/>
<polygon fill="#1f78b4" stroke="#1f78b4" stroke-width="3.91304" points="392.393,-951.641 393.708,-956.773 395.88,-951.941 392.393,-951.641"/>
<text text-anchor="middle" x="401.5" y="-840.8" font-family="Times New Roman,serif" font-size="14.00">9</text>
</g>
<!-- B8_1 -->
<g id="node11" class="node"><title>B8_1</title>
<polygon fill="skyblue" stroke="black" points="617,-645 243,-645 243,-609 617,-609 617,-645"/>
<text text-anchor="middle" x="430" y="-623.3" font-family="Times New Roman,serif" font-size="14.00">B8_1 : J’ai regardé je suis tombée sur une émission euh sportive</text>
<text text-anchor="start" x="235" y="-649.8" font-family="Times New Roman,serif" font-weight="bold" font-style="italic" font-size="14.00" fill="red">9</text>
</g>
<!-- A5_1&#45;&gt;B8_1 -->
<g id="edge13" class="edge"><title>A5_1&#45;&gt;B8_1</title>
<path fill="none" stroke="#1f78b4" stroke-width="3.91304" d="M421.016,-953.482C439.118,-938.082 459,-915.203 459,-889 459,-889 459,-889 459,-713 459,-688.364 447.953,-661.76 439.496,-645.001"/>
<polygon fill="#1f78b4" stroke="#1f78b4" stroke-width="3.91304" points="419.686,-952.311 416.948,-956.846 421.917,-955.008 419.686,-952.311"/>
<text text-anchor="middle" x="462.5" y="-797.3" font-family="Times New Roman,serif" font-size="14.00">9</text>
</g>
<!-- A5_2&#45;&gt;B6 -->
<g id="edge14" class="edge"><title>A5_2&#45;&gt;B6</title>
<path fill="none" stroke="#1f78b4" stroke-width="5.21739" d="M293.687,-865.493C304.153,-851.145 317.729,-832.533 327.472,-819.175"/>
<polygon fill="#1f78b4" stroke="#1f78b4" stroke-width="5.21739" points="291.649,-864.414 290.547,-869.799 295.337,-867.105 291.649,-864.414"/>
<text text-anchor="middle" x="320" y="-840.8" font-family="Times New Roman,serif" font-size="14.00">12</text>
</g>
<!-- B6&#45;&gt;A7 -->
<g id="edge15" class="edge"><title>B6&#45;&gt;A7</title>
<path fill="none" stroke="#1f78b4" stroke-width="6.08696" d="M348.751,-778.121C354.47,-763.824 361.833,-745.418 367.13,-732.175"/>
<polygon fill="#1f78b4" stroke="#1f78b4" stroke-width="6.08696" points="346.265,-777.168 346.88,-782.799 351.21,-779.146 346.265,-777.168"/>
<text text-anchor="middle" x="367" y="-753.8" font-family="Times New Roman,serif" font-size="14.00">14</text>
</g>
<!-- A7&#45;&gt;B8_1 -->
<g id="edge16" class="edge"><title>A7&#45;&gt;B8_1</title>
<path fill="none" stroke="#1f78b4" stroke-width="5.21739" d="M388.169,-691.493C397.622,-677.145 409.884,-658.533 418.684,-645.175"/>
<polygon fill="#1f78b4" stroke="#1f78b4" stroke-width="5.21739" points="386.177,-690.368 385.332,-695.799 389.989,-692.879 386.177,-690.368"/>
<text text-anchor="middle" x="413" y="-666.8" font-family="Times New Roman,serif" font-size="14.00">12</text>
</g>
<!-- B8_2 -->
<g id="node12" class="node"><title>B8_2</title>
<polygon fill="skyblue" stroke="black" points="394,-558 -2.84217e-014,-558 -2.84217e-014,-522 394,-522 394,-558"/>
<text text-anchor="middle" x="197" y="-536.3" font-family="Times New Roman,serif" font-size="14.00">B8_2 : parce que maintenant ils retransmettent pas mal de matchs…</text>
</g>
<!-- B8_1&#45;&gt;B8_2 -->
<g id="edge17" class="edge"><title>B8_1&#45;&gt;B8_2</title>
<path fill="none" stroke="#1f78b4" stroke-width="10" d="M378.3,-607.14C338.071,-592.464 282.723,-572.272 243.796,-558.071"/>
<polygon fill="#1f78b4" stroke="#1f78b4" stroke-width="10" points="376.933,-611.298 383.129,-608.901 379.931,-603.078 376.933,-611.298"/>
<text text-anchor="middle" x="335" y="-579.8" font-family="Times New Roman,serif" font-size="14.00">23</text>
</g>
<!-- B10_1 -->
<g id="node14" class="node"><title>B10_1</title>
<polygon fill="skyblue" stroke="black" points="605,-471 129,-471 129,-435 605,-435 605,-471"/>
<text text-anchor="middle" x="367" y="-449.3" font-family="Times New Roman,serif" font-size="14.00">B10_1 : Euh l&#39;autre soir sur euh je sais pas l&#39;équipe ou je sais plus quelle chaîne …</text>
<text text-anchor="start" x="121" y="-475.8" font-family="Times New Roman,serif" font-weight="bold" font-style="italic" font-size="14.00" fill="red">1</text>
</g>
<!-- B8_1&#45;&gt;B10_1 -->
<g id="edge18" class="edge"><title>B8_1&#45;&gt;B10_1</title>
<path fill="none" stroke="#1f78b4" stroke-width="4.34783" d="M425.799,-603.774C421.394,-582.391 413.629,-549.367 403,-522 395.988,-503.945 385.37,-484.527 377.48,-471.083"/>
<polygon fill="#1f78b4" stroke="#1f78b4" stroke-width="4.34783" points="423.936,-604.161 426.793,-608.683 427.665,-603.405 423.936,-604.161"/>
<text text-anchor="middle" x="422" y="-536.3" font-family="Times New Roman,serif" font-size="14.00">10</text>
</g>
<!-- B10_2 -->
<g id="node15" class="node"><title>B10_2</title>
<polygon fill="skyblue" stroke="black" points="786.5,-384 331.5,-384 331.5,-348 786.5,-348 786.5,-384"/>
<text text-anchor="middle" x="559" y="-362.3" font-family="Times New Roman,serif" font-size="14.00">B10_2 : Et c&#39;était justement la finale euh un match féminin. De volley féminin ...</text>
</g>
<!-- B8_1&#45;&gt;B10_2 -->
<g id="edge19" class="edge"><title>B8_1&#45;&gt;B10_2</title>
<path fill="none" stroke="#1f78b4" stroke-width="3.47826" d="M469.227,-606.51C513.823,-581.889 584.282,-534.892 614,-471 628.558,-439.702 599.925,-404.403 578.783,-384.026"/>
<polygon fill="#1f78b4" stroke="#1f78b4" stroke-width="3.47826" points="468.276,-605.036 464.726,-608.968 469.953,-608.107 468.276,-605.036"/>
<text text-anchor="middle" x="607.5" y="-492.8" font-family="Times New Roman,serif" font-size="14.00">8</text>
</g>
<!-- A9 -->
<g id="node13" class="node"><title>A9</title>
<polygon fill="wheat" stroke="black" points="111,-471 9,-471 9,-435 111,-435 111,-471"/>
<text text-anchor="middle" x="60" y="-449.3" font-family="Times New Roman,serif" font-size="14.00">A9 : Hum hum.</text>
</g>
<!-- B8_2&#45;&gt;A9 -->
<g id="edge20" class="edge"><title>B8_2&#45;&gt;A9</title>
<path fill="none" stroke="#1f78b4" stroke-width="8.26087" d="M164.996,-519.143C141.55,-504.597 110.048,-485.052 87.6828,-471.175"/>
<polygon fill="#1f78b4" stroke="#1f78b4" stroke-width="8.26087" points="163.122,-522.234 169.276,-521.799 166.933,-516.092 163.122,-522.234"/>
<text text-anchor="middle" x="144" y="-492.8" font-family="Times New Roman,serif" font-size="14.00">19</text>
</g>
<!-- B8_2&#45;&gt;B10_1 -->
<g id="edge21" class="edge"><title>B8_2&#45;&gt;B10_1</title>
<path fill="none" stroke="#1f78b4" stroke-width="3.91304" d="M236.006,-519.497C265.272,-504.864 304.946,-485.027 332.94,-471.03"/>
<polygon fill="#1f78b4" stroke="#1f78b4" stroke-width="3.91304" points="235.092,-517.998 231.402,-521.799 236.657,-521.128 235.092,-517.998"/>
<text text-anchor="middle" x="296.5" y="-492.8" font-family="Times New Roman,serif" font-size="14.00">9</text>
</g>
<!-- B10_1&#45;&gt;B10_2 -->
<g id="edge22" class="edge"><title>B10_1&#45;&gt;B10_2</title>
<path fill="none" stroke="#1f78b4" stroke-width="5.65217" d="M410.647,-432.677C443.738,-418.028 488.785,-398.085 520.532,-384.03"/>
<polygon fill="#1f78b4" stroke="#1f78b4" stroke-width="5.65217" points="409.425,-430.514 405.854,-434.799 411.427,-435.036 409.425,-430.514"/>
<text text-anchor="middle" x="482" y="-405.8" font-family="Times New Roman,serif" font-size="14.00">13</text>
</g>
<!-- A11 -->
<g id="node16" class="node"><title>A11</title>
<polygon fill="wheat" stroke="black" points="595.5,-297 486.5,-297 486.5,-261 595.5,-261 595.5,-297"/>
<text text-anchor="middle" x="541" y="-275.3" font-family="Times New Roman,serif" font-size="14.00">A11 : Hum hum.</text>
</g>
<!-- B10_2&#45;&gt;A11 -->
<g id="edge23" class="edge"><title>B10_2&#45;&gt;A11</title>
<path fill="none" stroke="#1f78b4" stroke-width="9.56522" d="M554.288,-342.748C551.272,-328.505 547.417,-310.303 544.637,-297.175"/>
<polygon fill="#1f78b4" stroke="#1f78b4" stroke-width="9.56522" points="550.228,-343.774 555.357,-347.799 558.415,-342.04 550.228,-343.774"/>
<text text-anchor="middle" x="559" y="-318.8" font-family="Times New Roman,serif" font-size="14.00">22</text>
</g>
<!-- B12 -->
<g id="node17" class="node"><title>B12</title>
<polygon fill="skyblue" stroke="black" points="1200.5,-297 613.5,-297 613.5,-261 1200.5,-261 1200.5,-297"/>
<text text-anchor="middle" x="907" y="-275.3" font-family="Times New Roman,serif" font-size="14.00">B12 : Et je ne comprenais pas pourquoi une nana n&#39;avait pas la même couleur de maillot que les autres.</text>
<text text-anchor="start" x="605.5" y="-301.8" font-family="Times New Roman,serif" font-weight="bold" font-style="italic" font-size="14.00" fill="red">4</text>
</g>
<!-- B10_2&#45;&gt;B12 -->
<g id="edge24" class="edge"><title>B10_2&#45;&gt;B12</title>
<path fill="none" stroke="#1f78b4" stroke-width="7.82609" d="M634.029,-346.674C694.282,-331.957 778.258,-311.446 837.107,-297.071"/>
<polygon fill="#1f78b4" stroke="#1f78b4" stroke-width="7.82609" points="633.049,-343.389 629.004,-347.901 634.674,-350.041 633.049,-343.389"/>
<text text-anchor="middle" x="761" y="-318.8" font-family="Times New Roman,serif" font-size="14.00">18</text>
</g>
<!-- A13_1 -->
<g id="node18" class="node"><title>A13_1</title>
<polygon fill="wheat" stroke="black" points="1031.5,-210 782.5,-210 782.5,-174 1031.5,-174 1031.5,-210"/>
<text text-anchor="middle" x="907" y="-188.3" font-family="Times New Roman,serif" font-size="14.00">A13_1 : C’est justement les libéros en fait</text>
<text text-anchor="start" x="774.5" y="-214.8" font-family="Times New Roman,serif" font-weight="bold" font-style="italic" font-size="14.00" fill="red">2</text>
</g>
<!-- B12&#45;&gt;A13_1 -->
<g id="edge25" class="edge"><title>B12&#45;&gt;A13_1</title>
<path fill="none" stroke="#1f78b4" stroke-width="9.56522" d="M907,-255.748C907,-241.505 907,-223.303 907,-210.175"/>
<polygon fill="#1f78b4" stroke="#1f78b4" stroke-width="9.56522" points="902.815,-255.799 907,-260.799 911.185,-255.799 902.815,-255.799"/>
<text text-anchor="middle" x="914" y="-231.8" font-family="Times New Roman,serif" font-size="14.00">22</text>
</g>
<!-- A13_2 -->
<g id="node19" class="node"><title>A13_2</title>
<polygon fill="wheat" stroke="black" points="1073,-123 741,-123 741,-87 1073,-87 1073,-123"/>
<text text-anchor="middle" x="907" y="-101.3" font-family="Times New Roman,serif" font-size="14.00">A13_2 : c&#39;est quelqu&#39;un qui fait que les postes arrières ...</text>
</g>
<!-- A13_1&#45;&gt;A13_2 -->
<g id="edge26" class="edge"><title>A13_1&#45;&gt;A13_2</title>
<path fill="none" stroke="#1f78b4" stroke-width="8.69565" d="M907,-168.748C907,-154.505 907,-136.303 907,-123.175"/>
<polygon fill="#1f78b4" stroke="#1f78b4" stroke-width="8.69565" points="903.196,-168.799 907,-173.799 910.804,-168.799 903.196,-168.799"/>
<text text-anchor="middle" x="914" y="-144.8" font-family="Times New Roman,serif" font-size="14.00">20</text>
</g>
<!-- B14 -->
<g id="node20" class="node"><title>B14</title>
<polygon fill="skyblue" stroke="black" points="960.5,-36 853.5,-36 853.5,-0 960.5,-0 960.5,-36"/>
<text text-anchor="middle" x="907" y="-14.3" font-family="Times New Roman,serif" font-size="14.00">B14 : D’accord.</text>
</g>
<!-- A13_2&#45;&gt;B14 -->
<g id="edge27" class="edge"><title>A13_2&#45;&gt;B14</title>
<path fill="none" stroke="#1f78b4" stroke-width="9.13043" d="M907,-81.7475C907,-67.5047 907,-49.303 907,-36.1754"/>
<polygon fill="#1f78b4" stroke="#1f78b4" stroke-width="9.13043" points="903.006,-81.7989 907,-86.799 910.995,-81.7991 903.006,-81.7989"/>
<text text-anchor="middle" x="914" y="-57.8" font-family="Times New Roman,serif" font-size="14.00">21</text>
</g>
</g>
</svg>
